%TF.GenerationSoftware,KiCad,Pcbnew,9.0.6*%
%TF.CreationDate,2026-08-15T14:25:09-04:00*%
%TF.ProjectId,Isolated Multi-Rail Power Supply Monitor Sensor Board,49736f6c-6174-4656-9420-4d756c74692d,rev?*%
%TF.SameCoordinates,Original*%
%TF.FileFunction,Component,L1,Top*%
%TF.FilePolarity,Positive*%
%FSLAX46Y46*%
G04 Gerber Fmt 4.6, Leading zero omitted, Abs format (unit mm)*
G04 Created by KiCad (PCBNEW 9.0.6) date 2026-08-15 14:25:09*
%MOMM*%
%LPD*%
G01*
G04 APERTURE LIST*
%TA.AperFunction,ComponentMain*%
%ADD10C,0.300000*%
%TD*%
%TA.AperFunction,ComponentOutline,Courtyard*%
%ADD11C,0.100000*%
%TD*%
%TA.AperFunction,ComponentPin*%
%ADD12P,0.360000X4X0.000000*%
%TD*%
%TA.AperFunction,ComponentPin*%
%ADD13C,0.100000*%
%TD*%
%TA.AperFunction,Profile*%
%ADD14C,0.050000*%
%TD*%
G04 APERTURE END LIST*
D10*
%TO.C,R38*%
%TO.CFtp,R_0402_1005Metric*%
%TO.CVal,2k*%
%TO.CLbN,Resistor_SMD*%
%TO.CMnt,SMD*%
%TO.CRot,90*%
X171758400Y-116538178D03*
D11*
X172223400Y-115613178D02*
X172223400Y-117463178D01*
X171293400Y-117463178D01*
X171293400Y-115613178D01*
X172223400Y-115613178D01*
D12*
%TO.P,R38,1*%
X171758400Y-117048178D03*
D13*
%TO.P,R38,2*%
X171758400Y-116028178D03*
%TD*%
D10*
%TO.C,R27*%
%TO.CFtp,R_0402_1005Metric*%
%TO.CVal,4k7*%
%TO.CLbN,Resistor_SMD*%
%TO.CMnt,SMD*%
%TO.CRot,180*%
X205268400Y-64528178D03*
D11*
X206193400Y-64063178D02*
X206193400Y-64993178D01*
X204343400Y-64993178D01*
X204343400Y-64063178D01*
X206193400Y-64063178D01*
D12*
%TO.P,R27,1*%
X205778400Y-64528178D03*
D13*
%TO.P,R27,2*%
X204758400Y-64528178D03*
%TD*%
D10*
%TO.C,R42*%
%TO.CFtp,R_0402_1005Metric*%
%TO.CVal,2k*%
%TO.CLbN,Resistor_SMD*%
%TO.CMnt,SMD*%
%TO.CRot,90*%
X199465400Y-110314678D03*
D11*
X199930400Y-109389678D02*
X199930400Y-111239678D01*
X199000400Y-111239678D01*
X199000400Y-109389678D01*
X199930400Y-109389678D01*
D12*
%TO.P,R42,1*%
X199465400Y-110824678D03*
D13*
%TO.P,R42,2*%
X199465400Y-109804678D03*
%TD*%
D10*
%TO.C,C44*%
%TO.CFtp,C_0402_1005Metric*%
%TO.CVal,100n*%
%TO.CLbN,Capacitor_SMD*%
%TO.CMnt,SMD*%
%TO.CRot,-90*%
X179472400Y-50622678D03*
D11*
X179927400Y-49717678D02*
X179927400Y-51527678D01*
X179017400Y-51527678D01*
X179017400Y-49717678D01*
X179927400Y-49717678D01*
D12*
%TO.P,C44,1*%
X179472400Y-50142678D03*
D13*
%TO.P,C44,2*%
X179472400Y-51102678D03*
%TD*%
D10*
%TO.C,U5*%
%TO.CFtp,VSSOP-8_3x3mm_P0.65mm*%
%TO.CVal,TCA9803*%
%TO.CLbN,Package_SO*%
%TO.CMnt,SMD*%
%TO.CRot,180*%
X209758400Y-63778178D03*
D11*
X211503400Y-62033178D02*
X211503400Y-62303178D01*
X212933400Y-62303178D01*
X212933400Y-65253178D01*
X211503400Y-65253178D01*
X211503400Y-65523178D01*
X208013400Y-65523178D01*
X208013400Y-65253178D01*
X206583400Y-65253178D01*
X206583400Y-62303178D01*
X208013400Y-62303178D01*
X208013400Y-62033178D01*
X211503400Y-62033178D01*
D12*
%TO.P,U5,1,VCCA*%
X211870900Y-64753178D03*
D13*
%TO.P,U5,2,SCLA*%
X211870900Y-64103178D03*
%TO.P,U5,3,SDAA*%
X211870900Y-63453178D03*
%TO.P,U5,4,GND*%
X211870900Y-62803178D03*
%TO.P,U5,5,EN*%
X207645900Y-62803178D03*
%TO.P,U5,6,SDAB*%
X207645900Y-63453178D03*
%TO.P,U5,7,SCLB*%
X207645900Y-64103178D03*
%TO.P,U5,8,VCCB*%
X207645900Y-64753178D03*
%TD*%
D10*
%TO.C,U7*%
%TO.CFtp,SOIC-8_3.9x4.9mm_P1.27mm*%
%TO.CVal,P82715DR*%
%TO.CLbN,Package_SO*%
%TO.CMnt,SMD*%
%TO.CRot,90*%
X156908400Y-48798178D03*
D11*
X159363400Y-45103178D02*
X159363400Y-46603178D01*
X159603400Y-46603178D01*
X159603400Y-50993178D01*
X159363400Y-50993178D01*
X159363400Y-52493178D01*
X154453400Y-52493178D01*
X154453400Y-50993178D01*
X154213400Y-50993178D01*
X154213400Y-46603178D01*
X154453400Y-46603178D01*
X154453400Y-45103178D01*
X159363400Y-45103178D01*
D12*
%TO.P,U7,1,NC*%
X155003400Y-51273178D03*
D13*
%TO.P,U7,2,Lx*%
X156273400Y-51273178D03*
%TO.P,U7,3,Sx*%
X157543400Y-51273178D03*
%TO.P,U7,4,GND*%
X158813400Y-51273178D03*
%TO.P,U7,5,NC*%
X158813400Y-46323178D03*
%TO.P,U7,6,Sy*%
X157543400Y-46323178D03*
%TO.P,U7,7,Ly*%
X156273400Y-46323178D03*
%TO.P,U7,8,VCC*%
X155003400Y-46323178D03*
%TD*%
D10*
%TO.C,C4*%
%TO.CFtp,C_0402_1005Metric*%
%TO.CVal,100n*%
%TO.CLbN,Capacitor_SMD*%
%TO.CMnt,SMD*%
%TO.CRot,90*%
X214651400Y-107969178D03*
D11*
X215106400Y-107064178D02*
X215106400Y-108874178D01*
X214196400Y-108874178D01*
X214196400Y-107064178D01*
X215106400Y-107064178D01*
D12*
%TO.P,C4,1*%
X214651400Y-108449178D03*
D13*
%TO.P,C4,2*%
X214651400Y-107489178D03*
%TD*%
D10*
%TO.C,C39*%
%TO.CFtp,C_0402_1005Metric*%
%TO.CVal,100n*%
%TO.CLbN,Capacitor_SMD*%
%TO.CMnt,SMD*%
%TO.CRot,90*%
X190194400Y-111078679D03*
D11*
X190649400Y-110173679D02*
X190649400Y-111983679D01*
X189739400Y-111983679D01*
X189739400Y-110173679D01*
X190649400Y-110173679D01*
D12*
%TO.P,C39,1*%
X190194400Y-111558679D03*
D13*
%TO.P,C39,2*%
X190194400Y-110598679D03*
%TD*%
D10*
%TO.C,C16*%
%TO.CFtp,C_0805_2012Metric*%
%TO.CVal,22u*%
%TO.CLbN,Capacitor_SMD*%
%TO.CMnt,SMD*%
%TO.CRot,-90*%
X179258400Y-78078178D03*
D11*
X180233400Y-76383178D02*
X180233400Y-79773178D01*
X178283400Y-79773178D01*
X178283400Y-76383178D01*
X180233400Y-76383178D01*
D12*
%TO.P,C16,1*%
X179258400Y-77128178D03*
D13*
%TO.P,C16,2*%
X179258400Y-79028178D03*
%TD*%
D10*
%TO.C,U19*%
%TO.CFtp,SOIC-8_3.9x4.9mm_P1.27mm*%
%TO.CVal,ACPL-064L*%
%TO.CLbN,Package_SO*%
%TO.CMnt,SMD*%
%TO.CRot,0*%
X202067399Y-105617678D03*
D11*
X204262399Y-102922678D02*
X204262399Y-103162678D01*
X205762399Y-103162678D01*
X205762399Y-108072678D01*
X204262399Y-108072678D01*
X204262399Y-108312678D01*
X199872399Y-108312678D01*
X199872399Y-108072678D01*
X198372399Y-108072678D01*
X198372399Y-103162678D01*
X199872399Y-103162678D01*
X199872399Y-102922678D01*
X204262399Y-102922678D01*
D12*
%TO.P,U19,1,A1*%
X199592399Y-103712678D03*
D13*
%TO.P,U19,2,C1*%
X199592399Y-104982678D03*
%TO.P,U19,3,C2*%
X199592399Y-106252678D03*
%TO.P,U19,4,A2*%
X199592399Y-107522678D03*
%TO.P,U19,5,GND*%
X204542399Y-107522678D03*
%TO.P,U19,6,VO2*%
X204542399Y-106252678D03*
%TO.P,U19,7,VO1*%
X204542399Y-104982678D03*
%TO.P,U19,8,VCC*%
X204542399Y-103712678D03*
%TD*%
D10*
%TO.C,C15*%
%TO.CFtp,C_0402_1005Metric*%
%TO.CVal,100n*%
%TO.CLbN,Capacitor_SMD*%
%TO.CMnt,SMD*%
%TO.CRot,0*%
X168488400Y-40528178D03*
D11*
X169393400Y-40073178D02*
X169393400Y-40983178D01*
X167583400Y-40983178D01*
X167583400Y-40073178D01*
X169393400Y-40073178D01*
D12*
%TO.P,C15,1*%
X168008400Y-40528178D03*
D13*
%TO.P,C15,2*%
X168968400Y-40528178D03*
%TD*%
D10*
%TO.C,R7*%
%TO.CFtp,R_Shunt_Ohmite_LVK20*%
%TO.CVal,39mR*%
%TO.CLbN,Resistor_SMD*%
%TO.CMnt,SMD*%
%TO.CRot,-90*%
X220169400Y-92081178D03*
D11*
X223664400Y-90036178D02*
X223664400Y-94126178D01*
X216674400Y-94126178D01*
X216674400Y-90036178D01*
X223664400Y-90036178D01*
D12*
%TO.P,R7,1*%
X222144400Y-91056178D03*
D13*
%TO.P,R7,2*%
X222144400Y-93106178D03*
%TO.P,R7,3*%
X218194400Y-93106178D03*
%TO.P,R7,4*%
X218194400Y-91056178D03*
%TD*%
D10*
%TO.C,R39*%
%TO.CFtp,R_0402_1005Metric*%
%TO.CVal,2k*%
%TO.CLbN,Resistor_SMD*%
%TO.CMnt,SMD*%
%TO.CRot,-90*%
X190902400Y-51833178D03*
D11*
X191367400Y-50908178D02*
X191367400Y-52758178D01*
X190437400Y-52758178D01*
X190437400Y-50908178D01*
X191367400Y-50908178D01*
D12*
%TO.P,R39,1*%
X190902400Y-51323178D03*
D13*
%TO.P,R39,2*%
X190902400Y-52343178D03*
%TD*%
D10*
%TO.C,TP7*%
%TO.CFtp,TestPoint_Keystone_5015_Micro_Mini*%
%TO.CVal,TestPoint_Alt*%
%TO.CLbN,TestPoint*%
%TO.CMnt,SMD*%
%TO.CRot,-90*%
X168758400Y-35278178D03*
D11*
X170103400Y-33133178D02*
X170103400Y-37423178D01*
X167413400Y-37423178D01*
X167413400Y-33133178D01*
X170103400Y-33133178D01*
D12*
%TO.P,TP7,1,1*%
X168758400Y-35278178D03*
%TD*%
D10*
%TO.C,U11*%
%TO.CFtp,QFN-12-1EP_3x3mm_P0.5mm_EP1.65x1.65mm_ThermalVias*%
%TO.CVal,LTC2945IUD-1*%
%TO.CLbN,Package_DFN_QFN*%
%TO.CMnt,SMD*%
%TO.CRot,0*%
X167796400Y-106695178D03*
D11*
X168671400Y-104570178D02*
X168671400Y-104950178D01*
X169541400Y-104950178D01*
X169541400Y-105820178D01*
X169921400Y-105820178D01*
X169921400Y-107570178D01*
X169541400Y-107570178D01*
X169541400Y-108440178D01*
X168671400Y-108440178D01*
X168671400Y-108820178D01*
X166921400Y-108820178D01*
X166921400Y-108440178D01*
X166051400Y-108440178D01*
X166051400Y-107570178D01*
X165671400Y-107570178D01*
X165671400Y-105820178D01*
X166051400Y-105820178D01*
X166051400Y-104950178D01*
X166921400Y-104950178D01*
X166921400Y-104570178D01*
X168671400Y-104570178D01*
D12*
%TO.P,U11,1,INTVcc*%
X166333900Y-106195178D03*
D13*
%TO.P,U11,2,ADR1*%
X166333900Y-106695178D03*
%TO.P,U11,3,ADR0*%
X166333900Y-107195178D03*
%TO.P,U11,4,ADIN*%
X167296400Y-108157678D03*
%TO.P,U11,5,GND*%
X167796400Y-108157678D03*
%TO.P,U11,6,SCL*%
X168296400Y-108157678D03*
%TO.P,U11,7,SDAI*%
X169258900Y-107195178D03*
%TO.P,U11,8,~{SDAO}*%
X169258900Y-106695178D03*
%TO.P,U11,9,~{ALERT}*%
X169258900Y-106195178D03*
%TO.P,U11,10,SENSE-*%
X168296400Y-105232678D03*
%TO.P,U11,11,SENSE+*%
X167796400Y-105232678D03*
%TO.P,U11,12,VDD*%
X167296400Y-105232678D03*
%TO.P,U11,13,GND*%
X167221400Y-106120178D03*
X167221400Y-107270178D03*
X167796400Y-106695178D03*
X168371400Y-106120178D03*
X168371400Y-107270178D03*
%TD*%
D10*
%TO.C,C28*%
%TO.CFtp,C_0603_1608Metric*%
%TO.CVal,1u*%
%TO.CLbN,Capacitor_SMD*%
%TO.CMnt,SMD*%
%TO.CRot,-90*%
X164105400Y-107063178D03*
D11*
X164830400Y-105588178D02*
X164830400Y-108538178D01*
X163380400Y-108538178D01*
X163380400Y-105588178D01*
X164830400Y-105588178D01*
D12*
%TO.P,C28,1*%
X164105400Y-106288178D03*
D13*
%TO.P,C28,2*%
X164105400Y-107838178D03*
%TD*%
D10*
%TO.C,U8*%
%TO.CFtp,QFN-12-1EP_3x3mm_P0.5mm_EP1.65x1.65mm_ThermalVias*%
%TO.CVal,LTC2945IUD-1*%
%TO.CLbN,Package_DFN_QFN*%
%TO.CMnt,SMD*%
%TO.CRot,180*%
X223660400Y-56530178D03*
D11*
X224535400Y-54405178D02*
X224535400Y-54785178D01*
X225405400Y-54785178D01*
X225405400Y-55655178D01*
X225785400Y-55655178D01*
X225785400Y-57405178D01*
X225405400Y-57405178D01*
X225405400Y-58275178D01*
X224535400Y-58275178D01*
X224535400Y-58655178D01*
X222785400Y-58655178D01*
X222785400Y-58275178D01*
X221915400Y-58275178D01*
X221915400Y-57405178D01*
X221535400Y-57405178D01*
X221535400Y-55655178D01*
X221915400Y-55655178D01*
X221915400Y-54785178D01*
X222785400Y-54785178D01*
X222785400Y-54405178D01*
X224535400Y-54405178D01*
D12*
%TO.P,U8,1,INTVcc*%
X225122900Y-57030178D03*
D13*
%TO.P,U8,2,ADR1*%
X225122900Y-56530178D03*
%TO.P,U8,3,ADR0*%
X225122900Y-56030178D03*
%TO.P,U8,4,ADIN*%
X224160400Y-55067678D03*
%TO.P,U8,5,GND*%
X223660400Y-55067678D03*
%TO.P,U8,6,SCL*%
X223160400Y-55067678D03*
%TO.P,U8,7,SDAI*%
X222197900Y-56030178D03*
%TO.P,U8,8,~{SDAO}*%
X222197900Y-56530178D03*
%TO.P,U8,9,~{ALERT}*%
X222197900Y-57030178D03*
%TO.P,U8,10,SENSE-*%
X223160400Y-57992678D03*
%TO.P,U8,11,SENSE+*%
X223660400Y-57992678D03*
%TO.P,U8,12,VDD*%
X224160400Y-57992678D03*
%TO.P,U8,13,GND*%
X224235400Y-57105178D03*
X224235400Y-55955178D03*
X223660400Y-56530178D03*
X223085400Y-57105178D03*
X223085400Y-55955178D03*
%TD*%
D10*
%TO.C,J103*%
%TO.CFtp,Molex_Mini-Fit_Jr_5566-08A2_2x04_P4.20mm_Vertical*%
%TO.CVal,0039289088*%
%TO.CLbN,Connector_Molex*%
%TO.CMnt,TH*%
%TO.CRot,-90*%
X157948400Y-90478178D03*
D11*
X154903400Y-83783178D02*
X154903400Y-87283178D01*
X160693400Y-87283178D01*
X160693400Y-106273178D01*
X154903400Y-106273178D01*
X154903400Y-109773178D01*
X148703400Y-109773178D01*
X148703400Y-83783178D01*
X154903400Y-83783178D01*
D12*
%TO.P,J103,1*%
X157948400Y-90478178D03*
D13*
%TO.P,J103,*%
X152908400Y-85778178D03*
X152908400Y-107778178D03*
%TO.P,J103,2*%
X157948400Y-94678178D03*
%TO.P,J103,3*%
X157948400Y-98878178D03*
%TO.P,J103,4*%
X157948400Y-103078178D03*
%TO.P,J103,5*%
X152448400Y-90478178D03*
%TO.P,J103,6*%
X152448400Y-94678178D03*
%TO.P,J103,7*%
X152448400Y-98878178D03*
%TO.P,J103,8*%
X152448400Y-103078178D03*
%TD*%
D10*
%TO.C,C20*%
%TO.CFtp,C_0805_2012Metric*%
%TO.CVal,22u*%
%TO.CLbN,Capacitor_SMD*%
%TO.CMnt,SMD*%
%TO.CRot,-90*%
X186708400Y-77928178D03*
D11*
X187683400Y-76233178D02*
X187683400Y-79623178D01*
X185733400Y-79623178D01*
X185733400Y-76233178D01*
X187683400Y-76233178D01*
D12*
%TO.P,C20,1*%
X186708400Y-76978178D03*
D13*
%TO.P,C20,2*%
X186708400Y-78878178D03*
%TD*%
D10*
%TO.C,TP3*%
%TO.CFtp,TestPoint_Keystone_5000-5004_Miniature*%
%TO.CVal,TestPoint_Alt*%
%TO.CLbN,TestPoint*%
%TO.CMnt,TH*%
%TO.CRot,0*%
X185658400Y-83003178D03*
D11*
X185787667Y-81360721D02*
X186043008Y-81401163D01*
X186288883Y-81481052D01*
X186519235Y-81598423D01*
X186728385Y-81750379D01*
X186911198Y-81933192D01*
X187063154Y-82142342D01*
X187180525Y-82372694D01*
X187260414Y-82618569D01*
X187300864Y-82873959D01*
X187303399Y-83003178D01*
X187300864Y-83132396D01*
X187260414Y-83387786D01*
X187180525Y-83633661D01*
X187063154Y-83864013D01*
X186911198Y-84073163D01*
X186728385Y-84255976D01*
X186519235Y-84407932D01*
X186288883Y-84525303D01*
X186043008Y-84605192D01*
X185787667Y-84645635D01*
X185529133Y-84645635D01*
X185273791Y-84605192D01*
X185027916Y-84525303D01*
X184797564Y-84407932D01*
X184588414Y-84255976D01*
X184405601Y-84073163D01*
X184253645Y-83864013D01*
X184136274Y-83633661D01*
X184056385Y-83387786D01*
X184015943Y-83132445D01*
X184015943Y-82873910D01*
X184056385Y-82618569D01*
X184136274Y-82372694D01*
X184253645Y-82142342D01*
X184405601Y-81933192D01*
X184588414Y-81750379D01*
X184797564Y-81598423D01*
X185027916Y-81481052D01*
X185273791Y-81401163D01*
X185529133Y-81360721D01*
X185787667Y-81360721D01*
D12*
%TO.P,TP3,1,1*%
X185658400Y-83003178D03*
%TD*%
D10*
%TO.C,R12*%
%TO.CFtp,R_0402_1005Metric*%
%TO.CVal,2k*%
%TO.CLbN,Resistor_SMD*%
%TO.CMnt,SMD*%
%TO.CRot,90*%
X216175401Y-116349178D03*
D11*
X216640401Y-115424178D02*
X216640401Y-117274178D01*
X215710401Y-117274178D01*
X215710401Y-115424178D01*
X216640401Y-115424178D01*
D12*
%TO.P,R12,1*%
X216175401Y-116859178D03*
D13*
%TO.P,R12,2*%
X216175401Y-115839178D03*
%TD*%
D10*
%TO.C,C18*%
%TO.CFtp,C_0603_1608Metric*%
%TO.CVal,~*%
%TO.CLbN,Capacitor_SMD*%
%TO.CMnt,SMD*%
%TO.CRot,-90*%
X164158400Y-78803178D03*
D11*
X164883400Y-77328178D02*
X164883400Y-80278178D01*
X163433400Y-80278178D01*
X163433400Y-77328178D01*
X164883400Y-77328178D01*
D12*
%TO.P,C18,1*%
X164158400Y-78028178D03*
D13*
%TO.P,C18,2*%
X164158400Y-79578178D03*
%TD*%
D10*
%TO.C,Q6*%
%TO.CFtp,SOT-416*%
%TO.CVal,BS170F*%
%TO.CLbN,Package_TO_SOT_SMD*%
%TO.CMnt,SMD*%
%TO.CRot,180*%
X161949400Y-55083678D03*
D11*
X163144400Y-53938678D02*
X163144400Y-56228678D01*
X160754400Y-56228678D01*
X160754400Y-53938678D01*
X163144400Y-53938678D01*
D12*
%TO.P,Q6,1,G*%
X162599400Y-55583678D03*
D13*
%TO.P,Q6,2,S*%
X162599400Y-54583678D03*
%TO.P,Q6,3,D*%
X161299400Y-55083678D03*
%TD*%
D10*
%TO.C,R25*%
%TO.CFtp,R_0402_1005Metric*%
%TO.CVal,15k2*%
%TO.CLbN,Resistor_SMD*%
%TO.CMnt,SMD*%
%TO.CRot,0*%
X166748400Y-79178178D03*
D11*
X167673400Y-78713178D02*
X167673400Y-79643178D01*
X165823400Y-79643178D01*
X165823400Y-78713178D01*
X167673400Y-78713178D01*
D12*
%TO.P,R25,1*%
X166238400Y-79178178D03*
D13*
%TO.P,R25,2*%
X167258400Y-79178178D03*
%TD*%
D10*
%TO.C,Q3*%
%TO.CFtp,SOT-416*%
%TO.CVal,BS170F*%
%TO.CLbN,Package_TO_SOT_SMD*%
%TO.CMnt,SMD*%
%TO.CRot,-90*%
X176508400Y-110040678D03*
D11*
X177653400Y-108845678D02*
X177653400Y-111235678D01*
X175363400Y-111235678D01*
X175363400Y-108845678D01*
X177653400Y-108845678D01*
D12*
%TO.P,Q3,1,G*%
X177008400Y-109390678D03*
D13*
%TO.P,Q3,2,S*%
X176008400Y-109390678D03*
%TO.P,Q3,3,D*%
X176508400Y-110690678D03*
%TD*%
D10*
%TO.C,R14*%
%TO.CFtp,R_1206_3216Metric*%
%TO.CVal,0R*%
%TO.CLbN,Resistor_SMD*%
%TO.CMnt,SMD*%
%TO.CRot,90*%
X211708400Y-69040678D03*
D11*
X212833400Y-66765678D02*
X212833400Y-71315678D01*
X210583400Y-71315678D01*
X210583400Y-66765678D01*
X212833400Y-66765678D01*
D12*
%TO.P,R14,1*%
X211708400Y-70503178D03*
D13*
%TO.P,R14,2*%
X211708400Y-67578178D03*
%TD*%
D10*
%TO.C,J101*%
%TO.CFtp,Molex_Mini-Fit_Jr_5566-04A2_2x02_P4.20mm_Vertical*%
%TO.CVal,+6VA*%
%TO.CLbN,Connector_Molex*%
%TO.CMnt,TH*%
%TO.CRot,0*%
X231034400Y-118304178D03*
D11*
X238429400Y-115559178D02*
X238429400Y-121349178D01*
X241929400Y-121349178D01*
X241929400Y-127549178D01*
X224339400Y-127549178D01*
X224339400Y-121349178D01*
X227839400Y-121349178D01*
X227839400Y-115559178D01*
X238429400Y-115559178D01*
D12*
%TO.P,J101,1,Pin_1*%
X231034400Y-118304178D03*
D13*
%TO.P,J101,*%
X226334400Y-123344178D03*
X239934400Y-123344178D03*
%TO.P,J101,2,Pin_2*%
X235234400Y-118304178D03*
%TO.P,J101,3,Pin_3*%
X231034400Y-123804178D03*
%TO.P,J101,4,Pin_4*%
X235234400Y-123804178D03*
%TD*%
D10*
%TO.C,C33*%
%TO.CFtp,C_0603_1608Metric*%
%TO.CVal,1u*%
%TO.CLbN,Capacitor_SMD*%
%TO.CMnt,SMD*%
%TO.CRot,90*%
X200935400Y-55273178D03*
D11*
X201660400Y-53798178D02*
X201660400Y-56748178D01*
X200210400Y-56748178D01*
X200210400Y-53798178D01*
X201660400Y-53798178D01*
D12*
%TO.P,C33,1*%
X200935400Y-56048178D03*
D13*
%TO.P,C33,2*%
X200935400Y-54498178D03*
%TD*%
D10*
%TO.C,U14*%
%TO.CFtp,QFN-12-1EP_3x3mm_P0.5mm_EP1.65x1.65mm_ThermalVias*%
%TO.CVal,LTC2945IUD-1*%
%TO.CLbN,Package_DFN_QFN*%
%TO.CMnt,SMD*%
%TO.CRot,180*%
X197244400Y-55641178D03*
D11*
X198119400Y-53516178D02*
X198119400Y-53896178D01*
X198989400Y-53896178D01*
X198989400Y-54766178D01*
X199369400Y-54766178D01*
X199369400Y-56516178D01*
X198989400Y-56516178D01*
X198989400Y-57386178D01*
X198119400Y-57386178D01*
X198119400Y-57766178D01*
X196369400Y-57766178D01*
X196369400Y-57386178D01*
X195499400Y-57386178D01*
X195499400Y-56516178D01*
X195119400Y-56516178D01*
X195119400Y-54766178D01*
X195499400Y-54766178D01*
X195499400Y-53896178D01*
X196369400Y-53896178D01*
X196369400Y-53516178D01*
X198119400Y-53516178D01*
D12*
%TO.P,U14,1,INTVcc*%
X198706900Y-56141178D03*
D13*
%TO.P,U14,2,ADR1*%
X198706900Y-55641178D03*
%TO.P,U14,3,ADR0*%
X198706900Y-55141178D03*
%TO.P,U14,4,ADIN*%
X197744400Y-54178678D03*
%TO.P,U14,5,GND*%
X197244400Y-54178678D03*
%TO.P,U14,6,SCL*%
X196744400Y-54178678D03*
%TO.P,U14,7,SDAI*%
X195781900Y-55141178D03*
%TO.P,U14,8,~{SDAO}*%
X195781900Y-55641178D03*
%TO.P,U14,9,~{ALERT}*%
X195781900Y-56141178D03*
%TO.P,U14,10,SENSE-*%
X196744400Y-57103678D03*
%TO.P,U14,11,SENSE+*%
X197244400Y-57103678D03*
%TO.P,U14,12,VDD*%
X197744400Y-57103678D03*
%TO.P,U14,13,GND*%
X197819400Y-56216178D03*
X197819400Y-55066178D03*
X197244400Y-55641178D03*
X196669400Y-56216178D03*
X196669400Y-55066178D03*
%TD*%
D10*
%TO.C,C43*%
%TO.CFtp,C_0603_1608Metric*%
%TO.CVal,1u*%
%TO.CLbN,Capacitor_SMD*%
%TO.CMnt,SMD*%
%TO.CRot,90*%
X180234400Y-54826678D03*
D11*
X180959400Y-53351678D02*
X180959400Y-56301678D01*
X179509400Y-56301678D01*
X179509400Y-53351678D01*
X180959400Y-53351678D01*
D12*
%TO.P,C43,1*%
X180234400Y-55601678D03*
D13*
%TO.P,C43,2*%
X180234400Y-54051678D03*
%TD*%
D10*
%TO.C,R47*%
%TO.CFtp,R_0402_1005Metric*%
%TO.CVal,2k*%
%TO.CLbN,Resistor_SMD*%
%TO.CMnt,SMD*%
%TO.CRot,90*%
X174138400Y-42240678D03*
D11*
X174603400Y-41315678D02*
X174603400Y-43165678D01*
X173673400Y-43165678D01*
X173673400Y-41315678D01*
X174603400Y-41315678D01*
D12*
%TO.P,R47,1*%
X174138400Y-42750678D03*
D13*
%TO.P,R47,2*%
X174138400Y-41730678D03*
%TD*%
D10*
%TO.C,C30*%
%TO.CFtp,C_0402_1005Metric*%
%TO.CVal,100n*%
%TO.CLbN,Capacitor_SMD*%
%TO.CMnt,SMD*%
%TO.CRot,0*%
X181659400Y-103901178D03*
D11*
X182564400Y-103446178D02*
X182564400Y-104356178D01*
X180754400Y-104356178D01*
X180754400Y-103446178D01*
X182564400Y-103446178D01*
D12*
%TO.P,C30,1*%
X181179400Y-103901178D03*
D13*
%TO.P,C30,2*%
X182139400Y-103901178D03*
%TD*%
D10*
%TO.C,R15*%
%TO.CFtp,R_1206_3216Metric*%
%TO.CVal,0R*%
%TO.CLbN,Resistor_SMD*%
%TO.CMnt,SMD*%
%TO.CRot,90*%
X224308400Y-34040678D03*
D11*
X225433400Y-31765678D02*
X225433400Y-36315678D01*
X223183400Y-36315678D01*
X223183400Y-31765678D01*
X225433400Y-31765678D01*
D12*
%TO.P,R15,1*%
X224308400Y-35503178D03*
D13*
%TO.P,R15,2*%
X224308400Y-32578178D03*
%TD*%
D10*
%TO.C,C3*%
%TO.CFtp,C_0603_1608Metric*%
%TO.CVal,1u*%
%TO.CLbN,Capacitor_SMD*%
%TO.CMnt,SMD*%
%TO.CRot,-90*%
X213889400Y-103765178D03*
D11*
X214614400Y-102290178D02*
X214614400Y-105240178D01*
X213164400Y-105240178D01*
X213164400Y-102290178D01*
X214614400Y-102290178D01*
D12*
%TO.P,C3,1*%
X213889400Y-102990178D03*
D13*
%TO.P,C3,2*%
X213889400Y-104540178D03*
%TD*%
D10*
%TO.C,R13*%
%TO.CFtp,R_0402_1005Metric*%
%TO.CVal,2k*%
%TO.CLbN,Resistor_SMD*%
%TO.CMnt,SMD*%
%TO.CRot,-90*%
X219985400Y-116351178D03*
D11*
X220450400Y-115426178D02*
X220450400Y-117276178D01*
X219520400Y-117276178D01*
X219520400Y-115426178D01*
X220450400Y-115426178D01*
D12*
%TO.P,R13,1*%
X219985400Y-115841178D03*
D13*
%TO.P,R13,2*%
X219985400Y-116861178D03*
%TD*%
D10*
%TO.C,C5*%
%TO.CFtp,C_0402_1005Metric*%
%TO.CVal,100n*%
%TO.CLbN,Capacitor_SMD*%
%TO.CMnt,SMD*%
%TO.CRot,0*%
X231443400Y-100603178D03*
D11*
X232348400Y-100148178D02*
X232348400Y-101058178D01*
X230538400Y-101058178D01*
X230538400Y-100148178D01*
X232348400Y-100148178D01*
D12*
%TO.P,C5,1*%
X230963400Y-100603178D03*
D13*
%TO.P,C5,2*%
X231923400Y-100603178D03*
%TD*%
D10*
%TO.C,R28*%
%TO.CFtp,R_0402_1005Metric*%
%TO.CVal,4k7*%
%TO.CLbN,Resistor_SMD*%
%TO.CMnt,SMD*%
%TO.CRot,0*%
X170268400Y-42528178D03*
D11*
X171193400Y-42063178D02*
X171193400Y-42993178D01*
X169343400Y-42993178D01*
X169343400Y-42063178D01*
X171193400Y-42063178D01*
D12*
%TO.P,R28,1*%
X169758400Y-42528178D03*
D13*
%TO.P,R28,2*%
X170778400Y-42528178D03*
%TD*%
D10*
%TO.C,C12*%
%TO.CFtp,C_0402_1005Metric*%
%TO.CVal,100n*%
%TO.CLbN,Capacitor_SMD*%
%TO.CMnt,SMD*%
%TO.CRot,0*%
X212388400Y-66178178D03*
D11*
X213293400Y-65723178D02*
X213293400Y-66633178D01*
X211483400Y-66633178D01*
X211483400Y-65723178D01*
X213293400Y-65723178D01*
D12*
%TO.P,C12,1*%
X211908400Y-66178178D03*
D13*
%TO.P,C12,2*%
X212868400Y-66178178D03*
%TD*%
D10*
%TO.C,R44*%
%TO.CFtp,R_0402_1005Metric*%
%TO.CVal,2k*%
%TO.CLbN,Resistor_SMD*%
%TO.CMnt,SMD*%
%TO.CRot,-90*%
X195528400Y-119460678D03*
D11*
X195993400Y-118535678D02*
X195993400Y-120385678D01*
X195063400Y-120385678D01*
X195063400Y-118535678D01*
X195993400Y-118535678D01*
D12*
%TO.P,R44,1*%
X195528400Y-118950678D03*
D13*
%TO.P,R44,2*%
X195528400Y-119970678D03*
%TD*%
D10*
%TO.C,U18*%
%TO.CFtp,SOIC-8_3.9x4.9mm_P1.27mm*%
%TO.CVal,ACPL-064L*%
%TO.CLbN,Package_SO*%
%TO.CMnt,SMD*%
%TO.CRot,90*%
X193623400Y-114061678D03*
D11*
X196078400Y-110366678D02*
X196078400Y-111866678D01*
X196318400Y-111866678D01*
X196318400Y-116256678D01*
X196078400Y-116256678D01*
X196078400Y-117756678D01*
X191168400Y-117756678D01*
X191168400Y-116256678D01*
X190928400Y-116256678D01*
X190928400Y-111866678D01*
X191168400Y-111866678D01*
X191168400Y-110366678D01*
X196078400Y-110366678D01*
D12*
%TO.P,U18,1,A1*%
X191718400Y-116536678D03*
D13*
%TO.P,U18,2,C1*%
X192988400Y-116536678D03*
%TO.P,U18,3,C2*%
X194258400Y-116536678D03*
%TO.P,U18,4,A2*%
X195528400Y-116536678D03*
%TO.P,U18,5,GND*%
X195528400Y-111586678D03*
%TO.P,U18,6,VO2*%
X194258400Y-111586678D03*
%TO.P,U18,7,VO1*%
X192988400Y-111586678D03*
%TO.P,U18,8,VCC*%
X191718400Y-111586678D03*
%TD*%
D10*
%TO.C,R19*%
%TO.CFtp,R_Shunt_Ohmite_LVK20*%
%TO.CVal,50mR*%
%TO.CLbN,Resistor_SMD*%
%TO.CMnt,SMD*%
%TO.CRot,90*%
X196306400Y-64413178D03*
D11*
X199801400Y-62368178D02*
X199801400Y-66458178D01*
X192811400Y-66458178D01*
X192811400Y-62368178D01*
X199801400Y-62368178D01*
D12*
%TO.P,R19,1*%
X194331400Y-65438178D03*
D13*
%TO.P,R19,2*%
X194331400Y-63388178D03*
%TO.P,R19,3*%
X198281400Y-63388178D03*
%TO.P,R19,4*%
X198281400Y-65438178D03*
%TD*%
D10*
%TO.C,J104*%
%TO.CFtp,Molex_Mini-Fit_Jr_5566-04A2_2x02_P4.20mm_Vertical*%
%TO.CVal,+/-15V*%
%TO.CLbN,Connector_Molex*%
%TO.CMnt,TH*%
%TO.CRot,0*%
X181055400Y-118177178D03*
D11*
X188450400Y-115432178D02*
X188450400Y-121222178D01*
X191950400Y-121222178D01*
X191950400Y-127422178D01*
X174360400Y-127422178D01*
X174360400Y-121222178D01*
X177860400Y-121222178D01*
X177860400Y-115432178D01*
X188450400Y-115432178D01*
D12*
%TO.P,J104,1,Pin_1*%
X181055400Y-118177178D03*
D13*
%TO.P,J104,*%
X176355400Y-123217178D03*
X189955400Y-123217178D03*
%TO.P,J104,2,Pin_2*%
X185255400Y-118177178D03*
%TO.P,J104,3,Pin_3*%
X181055400Y-123677178D03*
%TO.P,J104,4,Pin_4*%
X185255400Y-123677178D03*
%TD*%
D10*
%TO.C,C41*%
%TO.CFtp,C_0603_1608Metric*%
%TO.CVal,1u*%
%TO.CLbN,Capacitor_SMD*%
%TO.CMnt,SMD*%
%TO.CRot,-90*%
X179980400Y-58623678D03*
D11*
X180705400Y-57148678D02*
X180705400Y-60098678D01*
X179255400Y-60098678D01*
X179255400Y-57148678D01*
X180705400Y-57148678D01*
D12*
%TO.P,C41,1*%
X179980400Y-57848678D03*
D13*
%TO.P,C41,2*%
X179980400Y-59398678D03*
%TD*%
D10*
%TO.C,C23*%
%TO.CFtp,C_0603_1608Metric*%
%TO.CVal,1u*%
%TO.CLbN,Capacitor_SMD*%
%TO.CMnt,SMD*%
%TO.CRot,90*%
X227351400Y-56162178D03*
D11*
X228076400Y-54687178D02*
X228076400Y-57637178D01*
X226626400Y-57637178D01*
X226626400Y-54687178D01*
X228076400Y-54687178D01*
D12*
%TO.P,C23,1*%
X227351400Y-56937178D03*
D13*
%TO.P,C23,2*%
X227351400Y-55387178D03*
%TD*%
D10*
%TO.C,R20*%
%TO.CFtp,R_Shunt_Ohmite_LVK20*%
%TO.CVal,50mR*%
%TO.CLbN,Resistor_SMD*%
%TO.CMnt,SMD*%
%TO.CRot,90*%
X175973400Y-64649178D03*
D11*
X179468400Y-62604178D02*
X179468400Y-66694178D01*
X172478400Y-66694178D01*
X172478400Y-62604178D01*
X179468400Y-62604178D01*
D12*
%TO.P,R20,1*%
X173998400Y-65674178D03*
D13*
%TO.P,R20,2*%
X173998400Y-63624178D03*
%TO.P,R20,3*%
X177948400Y-63624178D03*
%TO.P,R20,4*%
X177948400Y-65674178D03*
%TD*%
D10*
%TO.C,U16*%
%TO.CFtp,SOIC-8_3.9x4.9mm_P1.27mm*%
%TO.CVal,ACPL-064L*%
%TO.CLbN,Package_SO*%
%TO.CMnt,SMD*%
%TO.CRot,180*%
X188300400Y-56530178D03*
D11*
X190495400Y-53835178D02*
X190495400Y-54075178D01*
X191995400Y-54075178D01*
X191995400Y-58985178D01*
X190495400Y-58985178D01*
X190495400Y-59225178D01*
X186105400Y-59225178D01*
X186105400Y-58985178D01*
X184605400Y-58985178D01*
X184605400Y-54075178D01*
X186105400Y-54075178D01*
X186105400Y-53835178D01*
X190495400Y-53835178D01*
D12*
%TO.P,U16,1,A1*%
X190775400Y-58435178D03*
D13*
%TO.P,U16,2,C1*%
X190775400Y-57165178D03*
%TO.P,U16,3,C2*%
X190775400Y-55895178D03*
%TO.P,U16,4,A2*%
X190775400Y-54625178D03*
%TO.P,U16,5,GND*%
X185825400Y-54625178D03*
%TO.P,U16,6,VO2*%
X185825400Y-55895178D03*
%TO.P,U16,7,VO1*%
X185825400Y-57165178D03*
%TO.P,U16,8,VCC*%
X185825400Y-58435178D03*
%TD*%
D10*
%TO.C,C29*%
%TO.CFtp,C_0402_1005Metric*%
%TO.CVal,100n*%
%TO.CLbN,Capacitor_SMD*%
%TO.CMnt,SMD*%
%TO.CRot,90*%
X164867400Y-111267178D03*
D11*
X165322400Y-110362178D02*
X165322400Y-112172178D01*
X164412400Y-112172178D01*
X164412400Y-110362178D01*
X165322400Y-110362178D01*
D12*
%TO.P,C29,1*%
X164867400Y-111747178D03*
D13*
%TO.P,C29,2*%
X164867400Y-110787178D03*
%TD*%
D10*
%TO.C,FB1*%
%TO.CFtp,L_0603_1608Metric*%
%TO.CVal,10n*%
%TO.CLbN,Inductor_SMD*%
%TO.CMnt,SMD*%
%TO.CRot,0*%
X182020900Y-78978178D03*
D11*
X183495900Y-78253178D02*
X183495900Y-79703178D01*
X180545900Y-79703178D01*
X180545900Y-78253178D01*
X183495900Y-78253178D01*
D12*
%TO.P,FB1,1*%
X181233400Y-78978178D03*
D13*
%TO.P,FB1,2*%
X182808400Y-78978178D03*
%TD*%
D10*
%TO.C,J106*%
%TO.CFtp,Molex_Mini-Fit_Jr_5566-10A2_2x05_P4.20mm_Vertical*%
%TO.CVal,39289108*%
%TO.CLbN,Connector_Molex*%
%TO.CMnt,TH*%
%TO.CRot,180*%
X243244400Y-82767178D03*
D11*
X249939400Y-73522178D02*
X249939400Y-79722178D01*
X246439400Y-79722178D01*
X246439400Y-85512178D01*
X223249400Y-85512178D01*
X223249400Y-79722178D01*
X219749400Y-79722178D01*
X219749400Y-73522178D01*
X249939400Y-73522178D01*
D12*
%TO.P,J106,1*%
X243244400Y-82767178D03*
D13*
%TO.P,J106,*%
X247944400Y-77727178D03*
X221744400Y-77727178D03*
%TO.P,J106,2*%
X239044400Y-82767178D03*
%TO.P,J106,3*%
X234844400Y-82767178D03*
%TO.P,J106,4*%
X230644400Y-82767178D03*
%TO.P,J106,5*%
X226444400Y-82767178D03*
%TO.P,J106,6*%
X243244400Y-77267178D03*
%TO.P,J106,7*%
X239044400Y-77267178D03*
%TO.P,J106,8*%
X234844400Y-77267178D03*
%TO.P,J106,9*%
X230644400Y-77267178D03*
%TO.P,J106,10*%
X226444400Y-77267178D03*
%TD*%
D10*
%TO.C,J102*%
%TO.CFtp,Molex_Mini-Fit_Jr_5566-04A2_2x02_P4.20mm_Vertical*%
%TO.CVal,+6VB*%
%TO.CLbN,Connector_Molex*%
%TO.CMnt,TH*%
%TO.CRot,180*%
X216243400Y-37428178D03*
D11*
X222938400Y-28183178D02*
X222938400Y-34383178D01*
X219438400Y-34383178D01*
X219438400Y-40173178D01*
X208848400Y-40173178D01*
X208848400Y-34383178D01*
X205348400Y-34383178D01*
X205348400Y-28183178D01*
X222938400Y-28183178D01*
D12*
%TO.P,J102,1,Pin_1*%
X216243400Y-37428178D03*
D13*
%TO.P,J102,*%
X220943400Y-32388178D03*
X207343400Y-32388178D03*
%TO.P,J102,2,Pin_2*%
X212043400Y-37428178D03*
%TO.P,J102,3,Pin_3*%
X216243400Y-31928178D03*
%TO.P,J102,4,Pin_4*%
X212043400Y-31928178D03*
%TD*%
D10*
%TO.C,R35*%
%TO.CFtp,R_0402_1005Metric*%
%TO.CVal,2k*%
%TO.CLbN,Resistor_SMD*%
%TO.CMnt,SMD*%
%TO.CRot,90*%
X221255400Y-43576178D03*
D11*
X221720400Y-42651178D02*
X221720400Y-44501178D01*
X220790400Y-44501178D01*
X220790400Y-42651178D01*
X221720400Y-42651178D01*
D12*
%TO.P,R35,1*%
X221255400Y-44086178D03*
D13*
%TO.P,R35,2*%
X221255400Y-43066178D03*
%TD*%
D10*
%TO.C,U9*%
%TO.CFtp,SOIC-8_3.9x4.9mm_P1.27mm*%
%TO.CVal,ACPL-064L*%
%TO.CLbN,Package_SO*%
%TO.CMnt,SMD*%
%TO.CRot,-90*%
X223160400Y-48975178D03*
D11*
X225615400Y-45280178D02*
X225615400Y-46780178D01*
X225855400Y-46780178D01*
X225855400Y-51170178D01*
X225615400Y-51170178D01*
X225615400Y-52670178D01*
X220705400Y-52670178D01*
X220705400Y-51170178D01*
X220465400Y-51170178D01*
X220465400Y-46780178D01*
X220705400Y-46780178D01*
X220705400Y-45280178D01*
X225615400Y-45280178D01*
D12*
%TO.P,U9,1,A1*%
X225065400Y-46500178D03*
D13*
%TO.P,U9,2,C1*%
X223795400Y-46500178D03*
%TO.P,U9,3,C2*%
X222525400Y-46500178D03*
%TO.P,U9,4,A2*%
X221255400Y-46500178D03*
%TO.P,U9,5,GND*%
X221255400Y-51450178D03*
%TO.P,U9,6,VO2*%
X222525400Y-51450178D03*
%TO.P,U9,7,VO1*%
X223795400Y-51450178D03*
%TO.P,U9,8,VCC*%
X225065400Y-51450178D03*
%TD*%
D10*
%TO.C,R9*%
%TO.CFtp,R_1206_3216Metric*%
%TO.CVal,0R*%
%TO.CLbN,Resistor_SMD*%
%TO.CMnt,SMD*%
%TO.CRot,-90*%
X212508400Y-88440678D03*
D11*
X213633400Y-86165678D02*
X213633400Y-90715678D01*
X211383400Y-90715678D01*
X211383400Y-86165678D01*
X213633400Y-86165678D01*
D12*
%TO.P,R9,1*%
X212508400Y-86978178D03*
D13*
%TO.P,R9,2*%
X212508400Y-89903178D03*
%TD*%
D10*
%TO.C,TP9*%
%TO.CFtp,TestPoint_Keystone_5015_Micro_Mini*%
%TO.CVal,TestPoint_Alt*%
%TO.CLbN,TestPoint*%
%TO.CMnt,SMD*%
%TO.CRot,-90*%
X164008400Y-35278178D03*
D11*
X165353400Y-33133178D02*
X165353400Y-37423178D01*
X162663400Y-37423178D01*
X162663400Y-33133178D01*
X165353400Y-33133178D01*
D12*
%TO.P,TP9,1,1*%
X164008400Y-35278178D03*
%TD*%
D10*
%TO.C,C7*%
%TO.CFtp,C_0805_2012Metric*%
%TO.CVal,10u*%
%TO.CLbN,Capacitor_SMD*%
%TO.CMnt,SMD*%
%TO.CRot,180*%
X170408400Y-74578178D03*
D11*
X172103400Y-73603178D02*
X172103400Y-75553178D01*
X168713400Y-75553178D01*
X168713400Y-73603178D01*
X172103400Y-73603178D01*
D12*
%TO.P,C7,1*%
X171358400Y-74578178D03*
D13*
%TO.P,C7,2*%
X169458400Y-74578178D03*
%TD*%
D10*
%TO.C,C6*%
%TO.CFtp,C_0402_1005Metric*%
%TO.CVal,22n*%
%TO.CLbN,Capacitor_SMD*%
%TO.CMnt,SMD*%
%TO.CRot,180*%
X170378400Y-76078178D03*
D11*
X171283400Y-75623178D02*
X171283400Y-76533178D01*
X169473400Y-76533178D01*
X169473400Y-75623178D01*
X171283400Y-75623178D01*
D12*
%TO.P,C6,1*%
X170858400Y-76078178D03*
D13*
%TO.P,C6,2*%
X169898400Y-76078178D03*
%TD*%
D10*
%TO.C,R45*%
%TO.CFtp,R_0402_1005Metric*%
%TO.CVal,2k*%
%TO.CLbN,Resistor_SMD*%
%TO.CMnt,SMD*%
%TO.CRot,-90*%
X170201400Y-51386678D03*
D11*
X170666400Y-50461678D02*
X170666400Y-52311678D01*
X169736400Y-52311678D01*
X169736400Y-50461678D01*
X170666400Y-50461678D01*
D12*
%TO.P,R45,1*%
X170201400Y-50876678D03*
D13*
%TO.P,R45,2*%
X170201400Y-51896678D03*
%TD*%
D10*
%TO.C,C25*%
%TO.CFtp,C_0402_1005Metric*%
%TO.CVal,100n*%
%TO.CLbN,Capacitor_SMD*%
%TO.CMnt,SMD*%
%TO.CRot,180*%
X209797400Y-59324178D03*
D11*
X210702400Y-58869178D02*
X210702400Y-59779178D01*
X208892400Y-59779178D01*
X208892400Y-58869178D01*
X210702400Y-58869178D01*
D12*
%TO.P,C25,1*%
X210277400Y-59324178D03*
D13*
%TO.P,C25,2*%
X209317400Y-59324178D03*
%TD*%
D10*
%TO.C,U10*%
%TO.CFtp,SOIC-8_3.9x4.9mm_P1.27mm*%
%TO.CVal,ACPL-064L*%
%TO.CLbN,Package_SO*%
%TO.CMnt,SMD*%
%TO.CRot,180*%
X214716400Y-57419178D03*
D11*
X216911400Y-54724178D02*
X216911400Y-54964178D01*
X218411400Y-54964178D01*
X218411400Y-59874178D01*
X216911400Y-59874178D01*
X216911400Y-60114178D01*
X212521400Y-60114178D01*
X212521400Y-59874178D01*
X211021400Y-59874178D01*
X211021400Y-54964178D01*
X212521400Y-54964178D01*
X212521400Y-54724178D01*
X216911400Y-54724178D01*
D12*
%TO.P,U10,1,A1*%
X217191400Y-59324178D03*
D13*
%TO.P,U10,2,C1*%
X217191400Y-58054178D03*
%TO.P,U10,3,C2*%
X217191400Y-56784178D03*
%TO.P,U10,4,A2*%
X217191400Y-55514178D03*
%TO.P,U10,5,GND*%
X212241400Y-55514178D03*
%TO.P,U10,6,VO2*%
X212241400Y-56784178D03*
%TO.P,U10,7,VO1*%
X212241400Y-58054178D03*
%TO.P,U10,8,VCC*%
X212241400Y-59324178D03*
%TD*%
D10*
%TO.C,U3*%
%TO.CFtp,SOIC-8_3.9x4.9mm_P1.27mm*%
%TO.CVal,ACPL-064L*%
%TO.CLbN,Package_SO*%
%TO.CMnt,SMD*%
%TO.CRot,0*%
X226524400Y-102508178D03*
D11*
X228719400Y-99813178D02*
X228719400Y-100053178D01*
X230219400Y-100053178D01*
X230219400Y-104963178D01*
X228719400Y-104963178D01*
X228719400Y-105203178D01*
X224329400Y-105203178D01*
X224329400Y-104963178D01*
X222829400Y-104963178D01*
X222829400Y-100053178D01*
X224329400Y-100053178D01*
X224329400Y-99813178D01*
X228719400Y-99813178D01*
D12*
%TO.P,U3,1,A1*%
X224049400Y-100603178D03*
D13*
%TO.P,U3,2,C1*%
X224049400Y-101873178D03*
%TO.P,U3,3,C2*%
X224049400Y-103143178D03*
%TO.P,U3,4,A2*%
X224049400Y-104413178D03*
%TO.P,U3,5,GND*%
X228999400Y-104413178D03*
%TO.P,U3,6,VO2*%
X228999400Y-103143178D03*
%TO.P,U3,7,VO1*%
X228999400Y-101873178D03*
%TO.P,U3,8,VCC*%
X228999400Y-100603178D03*
%TD*%
D10*
%TO.C,TP6*%
%TO.CFtp,TestPoint_Keystone_5015_Micro_Mini*%
%TO.CVal,TestPoint_Alt*%
%TO.CLbN,TestPoint*%
%TO.CMnt,SMD*%
%TO.CRot,-90*%
X173508400Y-35278178D03*
D11*
X174853400Y-33133178D02*
X174853400Y-37423178D01*
X172163400Y-37423178D01*
X172163400Y-33133178D01*
X174853400Y-33133178D01*
D12*
%TO.P,TP6,1,1*%
X173508400Y-35278178D03*
%TD*%
D10*
%TO.C,Q5*%
%TO.CFtp,SOT-416*%
%TO.CVal,BS170F*%
%TO.CLbN,Package_TO_SOT_SMD*%
%TO.CMnt,SMD*%
%TO.CRot,0*%
X207717400Y-106617678D03*
D11*
X208912400Y-105472678D02*
X208912400Y-107762678D01*
X206522400Y-107762678D01*
X206522400Y-105472678D01*
X208912400Y-105472678D01*
D12*
%TO.P,Q5,1,G*%
X207067400Y-106117678D03*
D13*
%TO.P,Q5,2,S*%
X207067400Y-107117678D03*
%TO.P,Q5,3,D*%
X208367400Y-106617678D03*
%TD*%
D10*
%TO.C,C13*%
%TO.CFtp,C_0805_2012Metric*%
%TO.CVal,22u*%
%TO.CLbN,Capacitor_SMD*%
%TO.CMnt,SMD*%
%TO.CRot,-90*%
X177008400Y-78078178D03*
D11*
X177983400Y-76383178D02*
X177983400Y-79773178D01*
X176033400Y-79773178D01*
X176033400Y-76383178D01*
X177983400Y-76383178D01*
D12*
%TO.P,C13,1*%
X177008400Y-77128178D03*
D13*
%TO.P,C13,2*%
X177008400Y-79028178D03*
%TD*%
D10*
%TO.C,C19*%
%TO.CFtp,C_0805_2012Metric*%
%TO.CVal,22u*%
%TO.CLbN,Capacitor_SMD*%
%TO.CMnt,SMD*%
%TO.CRot,-90*%
X184658400Y-77928178D03*
D11*
X185633400Y-76233178D02*
X185633400Y-79623178D01*
X183683400Y-79623178D01*
X183683400Y-76233178D01*
X185633400Y-76233178D01*
D12*
%TO.P,C19,1*%
X184658400Y-76978178D03*
D13*
%TO.P,C19,2*%
X184658400Y-78878178D03*
%TD*%
D10*
%TO.C,U1*%
%TO.CFtp,QFN-12-1EP_3x3mm_P0.5mm_EP1.65x1.65mm_ThermalVias*%
%TO.CVal,LTC2945IUD-1*%
%TO.CLbN,Package_DFN_QFN*%
%TO.CMnt,SMD*%
%TO.CRot,0*%
X217580400Y-103397178D03*
D11*
X218455400Y-101272178D02*
X218455400Y-101652178D01*
X219325400Y-101652178D01*
X219325400Y-102522178D01*
X219705400Y-102522178D01*
X219705400Y-104272178D01*
X219325400Y-104272178D01*
X219325400Y-105142178D01*
X218455400Y-105142178D01*
X218455400Y-105522178D01*
X216705400Y-105522178D01*
X216705400Y-105142178D01*
X215835400Y-105142178D01*
X215835400Y-104272178D01*
X215455400Y-104272178D01*
X215455400Y-102522178D01*
X215835400Y-102522178D01*
X215835400Y-101652178D01*
X216705400Y-101652178D01*
X216705400Y-101272178D01*
X218455400Y-101272178D01*
D12*
%TO.P,U1,1,INTVcc*%
X216117900Y-102897178D03*
D13*
%TO.P,U1,2,ADR1*%
X216117900Y-103397178D03*
%TO.P,U1,3,ADR0*%
X216117900Y-103897178D03*
%TO.P,U1,4,ADIN*%
X217080400Y-104859678D03*
%TO.P,U1,5,GND*%
X217580400Y-104859678D03*
%TO.P,U1,6,SCL*%
X218080400Y-104859678D03*
%TO.P,U1,7,SDAI*%
X219042900Y-103897178D03*
%TO.P,U1,8,~{SDAO}*%
X219042900Y-103397178D03*
%TO.P,U1,9,~{ALERT}*%
X219042900Y-102897178D03*
%TO.P,U1,10,SENSE-*%
X218080400Y-101934678D03*
%TO.P,U1,11,SENSE+*%
X217580400Y-101934678D03*
%TO.P,U1,12,VDD*%
X217080400Y-101934678D03*
%TO.P,U1,13,GND*%
X217005400Y-102822178D03*
X217005400Y-103972178D03*
X217580400Y-103397178D03*
X218155400Y-102822178D03*
X218155400Y-103972178D03*
%TD*%
D10*
%TO.C,R46*%
%TO.CFtp,R_0402_1005Metric*%
%TO.CVal,2k*%
%TO.CLbN,Resistor_SMD*%
%TO.CMnt,SMD*%
%TO.CRot,-90*%
X177948400Y-42242678D03*
D11*
X178413400Y-41317678D02*
X178413400Y-43167678D01*
X177483400Y-43167678D01*
X177483400Y-41317678D01*
X178413400Y-41317678D01*
D12*
%TO.P,R46,1*%
X177948400Y-41732678D03*
D13*
%TO.P,R46,2*%
X177948400Y-42752678D03*
%TD*%
D10*
%TO.C,C22*%
%TO.CFtp,C_0402_1005Metric*%
%TO.CVal,100n*%
%TO.CLbN,Capacitor_SMD*%
%TO.CMnt,SMD*%
%TO.CRot,-90*%
X225700400Y-59296178D03*
D11*
X226155400Y-58391178D02*
X226155400Y-60201178D01*
X225245400Y-60201178D01*
X225245400Y-58391178D01*
X226155400Y-58391178D01*
D12*
%TO.P,C22,1*%
X225700400Y-58816178D03*
D13*
%TO.P,C22,2*%
X225700400Y-59776178D03*
%TD*%
D10*
%TO.C,C42*%
%TO.CFtp,C_0402_1005Metric*%
%TO.CVal,100n*%
%TO.CLbN,Capacitor_SMD*%
%TO.CMnt,SMD*%
%TO.CRot,-90*%
X178583400Y-57960678D03*
D11*
X179038400Y-57055678D02*
X179038400Y-58865678D01*
X178128400Y-58865678D01*
X178128400Y-57055678D01*
X179038400Y-57055678D01*
D12*
%TO.P,C42,1*%
X178583400Y-57480678D03*
D13*
%TO.P,C42,2*%
X178583400Y-58440678D03*
%TD*%
D10*
%TO.C,R36*%
%TO.CFtp,R_0402_1005Metric*%
%TO.CVal,2k*%
%TO.CLbN,Resistor_SMD*%
%TO.CMnt,SMD*%
%TO.CRot,90*%
X174138400Y-110503178D03*
D11*
X174603400Y-109578178D02*
X174603400Y-111428178D01*
X173673400Y-111428178D01*
X173673400Y-109578178D01*
X174603400Y-109578178D01*
D12*
%TO.P,R36,1*%
X174138400Y-111013178D03*
D13*
%TO.P,R36,2*%
X174138400Y-109993178D03*
%TD*%
D10*
%TO.C,C45*%
%TO.CFtp,C_0402_1005Metric*%
%TO.CVal,100n*%
%TO.CLbN,Capacitor_SMD*%
%TO.CMnt,SMD*%
%TO.CRot,180*%
X162680400Y-57988678D03*
D11*
X163585400Y-57533678D02*
X163585400Y-58443678D01*
X161775400Y-58443678D01*
X161775400Y-57533678D01*
X163585400Y-57533678D01*
D12*
%TO.P,C45,1*%
X163160400Y-57988678D03*
D13*
%TO.P,C45,2*%
X162200400Y-57988678D03*
%TD*%
D10*
%TO.C,R30*%
%TO.CFtp,R_0402_1005Metric*%
%TO.CVal,4k7*%
%TO.CLbN,Resistor_SMD*%
%TO.CMnt,SMD*%
%TO.CRot,0*%
X170268400Y-43778178D03*
D11*
X171193400Y-43313178D02*
X171193400Y-44243178D01*
X169343400Y-44243178D01*
X169343400Y-43313178D01*
X171193400Y-43313178D01*
D12*
%TO.P,R30,1*%
X169758400Y-43778178D03*
D13*
%TO.P,R30,2*%
X170778400Y-43778178D03*
%TD*%
D10*
%TO.C,R22*%
%TO.CFtp,R_0402_1005Metric_Pad0.72x0.64mm_HandSolder*%
%TO.CVal,~*%
%TO.CLbN,Resistor_SMD*%
%TO.CMnt,SMD*%
%TO.CRot,180*%
X166758400Y-80178178D03*
D11*
X167863400Y-79713178D02*
X167863400Y-80643178D01*
X165653400Y-80643178D01*
X165653400Y-79713178D01*
X167863400Y-79713178D01*
D12*
%TO.P,R22,1*%
X167355900Y-80178178D03*
D13*
%TO.P,R22,2*%
X166160900Y-80178178D03*
%TD*%
D10*
%TO.C,U2*%
%TO.CFtp,SOIC-8_3.9x4.9mm_P1.27mm*%
%TO.CVal,ACPL-064L*%
%TO.CLbN,Package_SO*%
%TO.CMnt,SMD*%
%TO.CRot,90*%
X218080400Y-110952178D03*
D11*
X220535400Y-107257178D02*
X220535400Y-108757178D01*
X220775400Y-108757178D01*
X220775400Y-113147178D01*
X220535400Y-113147178D01*
X220535400Y-114647178D01*
X215625400Y-114647178D01*
X215625400Y-113147178D01*
X215385400Y-113147178D01*
X215385400Y-108757178D01*
X215625400Y-108757178D01*
X215625400Y-107257178D01*
X220535400Y-107257178D01*
D12*
%TO.P,U2,1,A1*%
X216175400Y-113427178D03*
D13*
%TO.P,U2,2,C1*%
X217445400Y-113427178D03*
%TO.P,U2,3,C2*%
X218715400Y-113427178D03*
%TO.P,U2,4,A2*%
X219985400Y-113427178D03*
%TO.P,U2,5,GND*%
X219985400Y-108477178D03*
%TO.P,U2,6,VO2*%
X218715400Y-108477178D03*
%TO.P,U2,7,VO1*%
X217445400Y-108477178D03*
%TO.P,U2,8,VCC*%
X216175400Y-108477178D03*
%TD*%
D10*
%TO.C,R18*%
%TO.CFtp,R_Shunt_Ohmite_LVK20*%
%TO.CVal,39mR*%
%TO.CLbN,Resistor_SMD*%
%TO.CMnt,SMD*%
%TO.CRot,90*%
X219534400Y-64141178D03*
D11*
X223029400Y-62096178D02*
X223029400Y-66186178D01*
X216039400Y-66186178D01*
X216039400Y-62096178D01*
X223029400Y-62096178D01*
D12*
%TO.P,R18,1*%
X217559400Y-65166178D03*
D13*
%TO.P,R18,2*%
X217559400Y-63116178D03*
%TO.P,R18,3*%
X221509400Y-63116178D03*
%TO.P,R18,4*%
X221509400Y-65166178D03*
%TD*%
D10*
%TO.C,C21*%
%TO.CFtp,C_0603_1608Metric*%
%TO.CVal,1u*%
%TO.CLbN,Capacitor_SMD*%
%TO.CMnt,SMD*%
%TO.CRot,-90*%
X227097400Y-59959178D03*
D11*
X227822400Y-58484178D02*
X227822400Y-61434178D01*
X226372400Y-61434178D01*
X226372400Y-58484178D01*
X227822400Y-58484178D01*
D12*
%TO.P,C21,1*%
X227097400Y-59184178D03*
D13*
%TO.P,C21,2*%
X227097400Y-60734178D03*
%TD*%
D10*
%TO.C,Q1*%
%TO.CFtp,SOT-416*%
%TO.CVal,BS170F*%
%TO.CLbN,Package_TO_SOT_SMD*%
%TO.CMnt,SMD*%
%TO.CRot,0*%
X232174400Y-103508178D03*
D11*
X233369400Y-102363178D02*
X233369400Y-104653178D01*
X230979400Y-104653178D01*
X230979400Y-102363178D01*
X233369400Y-102363178D01*
D12*
%TO.P,Q1,1,G*%
X231524400Y-103008178D03*
D13*
%TO.P,Q1,2,S*%
X231524400Y-104008178D03*
%TO.P,Q1,3,D*%
X232824400Y-103508178D03*
%TD*%
D10*
%TO.C,J108*%
%TO.CFtp,Molex_Mini-Fit_Jr_5566-04A2_2x02_P4.20mm_Vertical*%
%TO.CVal,Conn_01x04*%
%TO.CLbN,Connector_Molex*%
%TO.CMnt,TH*%
%TO.CRot,-90*%
X157945168Y-72267672D03*
D11*
X154900168Y-65572672D02*
X154900168Y-69072672D01*
X160690168Y-69072672D01*
X160690168Y-79662672D01*
X154900168Y-79662672D01*
X154900168Y-83162672D01*
X148700168Y-83162672D01*
X148700168Y-65572672D01*
X154900168Y-65572672D01*
D12*
%TO.P,J108,1,Pin_1*%
X157945168Y-72267672D03*
D13*
%TO.P,J108,*%
X152905168Y-67567672D03*
X152905168Y-81167672D03*
%TO.P,J108,2,Pin_2*%
X157945168Y-76467672D03*
%TO.P,J108,3,Pin_3*%
X152445168Y-72267672D03*
%TO.P,J108,4,Pin_4*%
X152445168Y-76467672D03*
%TD*%
D10*
%TO.C,R41*%
%TO.CFtp,R_0402_1005Metric*%
%TO.CVal,2k*%
%TO.CLbN,Resistor_SMD*%
%TO.CMnt,SMD*%
%TO.CRot,90*%
X194839400Y-42687178D03*
D11*
X195304400Y-41762178D02*
X195304400Y-43612178D01*
X194374400Y-43612178D01*
X194374400Y-41762178D01*
X195304400Y-41762178D01*
D12*
%TO.P,R41,1*%
X194839400Y-43197178D03*
D13*
%TO.P,R41,2*%
X194839400Y-42177178D03*
%TD*%
D10*
%TO.C,C10*%
%TO.CFtp,C_0805_2012Metric*%
%TO.CVal,22u*%
%TO.CLbN,Capacitor_SMD*%
%TO.CMnt,SMD*%
%TO.CRot,-90*%
X174758400Y-78078178D03*
D11*
X175733400Y-76383178D02*
X175733400Y-79773178D01*
X173783400Y-79773178D01*
X173783400Y-76383178D01*
X175733400Y-76383178D01*
D12*
%TO.P,C10,1*%
X174758400Y-77128178D03*
D13*
%TO.P,C10,2*%
X174758400Y-79028178D03*
%TD*%
D10*
%TO.C,R23*%
%TO.CFtp,R_0402_1005Metric*%
%TO.CVal,4k7*%
%TO.CLbN,Resistor_SMD*%
%TO.CMnt,SMD*%
%TO.CRot,90*%
X157658400Y-43808178D03*
D11*
X158123400Y-42883178D02*
X158123400Y-44733178D01*
X157193400Y-44733178D01*
X157193400Y-42883178D01*
X158123400Y-42883178D01*
D12*
%TO.P,R23,1*%
X157658400Y-44318178D03*
D13*
%TO.P,R23,2*%
X157658400Y-43298178D03*
%TD*%
D10*
%TO.C,C9*%
%TO.CFtp,C_0402_1005Metric*%
%TO.CVal,470n*%
%TO.CLbN,Capacitor_SMD*%
%TO.CMnt,SMD*%
%TO.CRot,0*%
X166758400Y-77178178D03*
D11*
X167663400Y-76723178D02*
X167663400Y-77633178D01*
X165853400Y-77633178D01*
X165853400Y-76723178D01*
X167663400Y-76723178D01*
D12*
%TO.P,C9,1*%
X166278400Y-77178178D03*
D13*
%TO.P,C9,2*%
X167238400Y-77178178D03*
%TD*%
D10*
%TO.C,R6*%
%TO.CFtp,R_0402_1005Metric*%
%TO.CVal,2k*%
%TO.CLbN,Resistor_SMD*%
%TO.CMnt,SMD*%
%TO.CRot,90*%
X223922400Y-107205178D03*
D11*
X224387400Y-106280178D02*
X224387400Y-108130178D01*
X223457400Y-108130178D01*
X223457400Y-106280178D01*
X224387400Y-106280178D01*
D12*
%TO.P,R6,1*%
X223922400Y-107715178D03*
D13*
%TO.P,R6,2*%
X223922400Y-106695178D03*
%TD*%
D10*
%TO.C,C38*%
%TO.CFtp,C_0603_1608Metric*%
%TO.CVal,1u*%
%TO.CLbN,Capacitor_SMD*%
%TO.CMnt,SMD*%
%TO.CRot,-90*%
X189432400Y-106874679D03*
D11*
X190157400Y-105399679D02*
X190157400Y-108349679D01*
X188707400Y-108349679D01*
X188707400Y-105399679D01*
X190157400Y-105399679D01*
D12*
%TO.P,C38,1*%
X189432400Y-106099679D03*
D13*
%TO.P,C38,2*%
X189432400Y-107649679D03*
%TD*%
D10*
%TO.C,R37*%
%TO.CFtp,R_0402_1005Metric*%
%TO.CVal,2k*%
%TO.CLbN,Resistor_SMD*%
%TO.CMnt,SMD*%
%TO.CRot,90*%
X166391401Y-119647178D03*
D11*
X166856401Y-118722178D02*
X166856401Y-120572178D01*
X165926401Y-120572178D01*
X165926401Y-118722178D01*
X166856401Y-118722178D01*
D12*
%TO.P,R37,1*%
X166391401Y-120157178D03*
D13*
%TO.P,R37,2*%
X166391401Y-119137178D03*
%TD*%
D10*
%TO.C,R24*%
%TO.CFtp,R_0402_1005Metric*%
%TO.CVal,4k7*%
%TO.CLbN,Resistor_SMD*%
%TO.CMnt,SMD*%
%TO.CRot,-90*%
X157658400Y-54298178D03*
D11*
X158123400Y-53373178D02*
X158123400Y-55223178D01*
X157193400Y-55223178D01*
X157193400Y-53373178D01*
X158123400Y-53373178D01*
D12*
%TO.P,R24,1*%
X157658400Y-53788178D03*
D13*
%TO.P,R24,2*%
X157658400Y-54808178D03*
%TD*%
D10*
%TO.C,C31*%
%TO.CFtp,C_0603_1608Metric*%
%TO.CVal,1u*%
%TO.CLbN,Capacitor_SMD*%
%TO.CMnt,SMD*%
%TO.CRot,-90*%
X200681400Y-59070178D03*
D11*
X201406400Y-57595178D02*
X201406400Y-60545178D01*
X199956400Y-60545178D01*
X199956400Y-57595178D01*
X201406400Y-57595178D01*
D12*
%TO.P,C31,1*%
X200681400Y-58295178D03*
D13*
%TO.P,C31,2*%
X200681400Y-59845178D03*
%TD*%
D10*
%TO.C,C35*%
%TO.CFtp,C_0402_1005Metric*%
%TO.CVal,100n*%
%TO.CLbN,Capacitor_SMD*%
%TO.CMnt,SMD*%
%TO.CRot,180*%
X183381400Y-58435178D03*
D11*
X184286400Y-57980178D02*
X184286400Y-58890178D01*
X182476400Y-58890178D01*
X182476400Y-57980178D01*
X184286400Y-57980178D01*
D12*
%TO.P,C35,1*%
X183861400Y-58435178D03*
D13*
%TO.P,C35,2*%
X182901400Y-58435178D03*
%TD*%
D10*
%TO.C,R29*%
%TO.CFtp,R_0402_1005Metric*%
%TO.CVal,4k7*%
%TO.CLbN,Resistor_SMD*%
%TO.CMnt,SMD*%
%TO.CRot,180*%
X205258400Y-63028178D03*
D11*
X206183400Y-62563178D02*
X206183400Y-63493178D01*
X204333400Y-63493178D01*
X204333400Y-62563178D01*
X206183400Y-62563178D01*
D12*
%TO.P,R29,1*%
X205768400Y-63028178D03*
D13*
%TO.P,R29,2*%
X204748400Y-63028178D03*
%TD*%
D10*
%TO.C,C26*%
%TO.CFtp,C_0603_1608Metric*%
%TO.CVal,1u*%
%TO.CLbN,Capacitor_SMD*%
%TO.CMnt,SMD*%
%TO.CRot,90*%
X164359400Y-103266178D03*
D11*
X165084400Y-101791178D02*
X165084400Y-104741178D01*
X163634400Y-104741178D01*
X163634400Y-101791178D01*
X165084400Y-101791178D01*
D12*
%TO.P,C26,1*%
X164359400Y-104041178D03*
D13*
%TO.P,C26,2*%
X164359400Y-102491178D03*
%TD*%
D10*
%TO.C,R21*%
%TO.CFtp,R_0402_1005Metric*%
%TO.CVal,0R*%
%TO.CLbN,Resistor_SMD*%
%TO.CMnt,SMD*%
%TO.CRot,0*%
X166798400Y-81178178D03*
D11*
X167723400Y-80713178D02*
X167723400Y-81643178D01*
X165873400Y-81643178D01*
X165873400Y-80713178D01*
X167723400Y-80713178D01*
D12*
%TO.P,R21,1*%
X166288400Y-81178178D03*
D13*
%TO.P,R21,2*%
X167308400Y-81178178D03*
%TD*%
D10*
%TO.C,C1*%
%TO.CFtp,C_0603_1608Metric*%
%TO.CVal,1u*%
%TO.CLbN,Capacitor_SMD*%
%TO.CMnt,SMD*%
%TO.CRot,90*%
X214143400Y-99968178D03*
D11*
X214868400Y-98493178D02*
X214868400Y-101443178D01*
X213418400Y-101443178D01*
X213418400Y-98493178D01*
X214868400Y-98493178D01*
D12*
%TO.P,C1,1*%
X214143400Y-100743178D03*
D13*
%TO.P,C1,2*%
X214143400Y-99193178D03*
%TD*%
D10*
%TO.C,U4*%
%TO.CFtp,Texas_RPU0010A_VQFN-HR-10_2x2mm_P0.5mm*%
%TO.CVal,TPS62912*%
%TO.CLbN,Package_DFN_QFN*%
%TO.CMnt,SMD*%
%TO.CRot,90*%
X170508400Y-78953178D03*
D11*
X171753400Y-77508178D02*
X171753400Y-80398178D01*
X169063400Y-80398178D01*
X169063400Y-77508178D01*
X171753400Y-77508178D01*
D12*
%TO.P,U4,1,EN/SYNC*%
X170258400Y-79828178D03*
D13*
%TO.P,U4,2,SW*%
X170758400Y-79653178D03*
%TO.P,U4,3,VO*%
X171258400Y-79828178D03*
%TO.P,U4,4,PGND*%
X171258400Y-78253178D03*
%TO.P,U4,5,PG*%
X170758400Y-78078178D03*
%TO.P,U4,6,VIN*%
X170258400Y-78253178D03*
%TO.P,U4,7,PSNS*%
X169583400Y-78203178D03*
%TO.P,U4,8,NR/SS*%
X169583400Y-78703178D03*
%TO.P,U4,9,FB*%
X169583400Y-79203178D03*
%TO.P,U4,10,S-CONF*%
X169583400Y-79703178D03*
%TD*%
D10*
%TO.C,R32*%
%TO.CFtp,R_0402_1005Metric*%
%TO.CVal,4k7*%
%TO.CLbN,Resistor_SMD*%
%TO.CMnt,SMD*%
%TO.CRot,90*%
X156158400Y-43808178D03*
D11*
X156623400Y-42883178D02*
X156623400Y-44733178D01*
X155693400Y-44733178D01*
X155693400Y-42883178D01*
X156623400Y-42883178D01*
D12*
%TO.P,R32,1*%
X156158400Y-44318178D03*
D13*
%TO.P,R32,2*%
X156158400Y-43298178D03*
%TD*%
D10*
%TO.C,TP8*%
%TO.CFtp,TestPoint_Keystone_5015_Micro_Mini*%
%TO.CVal,TestPoint_Alt*%
%TO.CLbN,TestPoint*%
%TO.CMnt,SMD*%
%TO.CRot,90*%
X202258400Y-48778178D03*
D11*
X203603400Y-46633178D02*
X203603400Y-50923178D01*
X200913400Y-50923178D01*
X200913400Y-46633178D01*
X203603400Y-46633178D01*
D12*
%TO.P,TP8,1,1*%
X202258400Y-48778178D03*
%TD*%
D10*
%TO.C,C11*%
%TO.CFtp,C_0402_1005Metric*%
%TO.CVal,100n*%
%TO.CLbN,Capacitor_SMD*%
%TO.CMnt,SMD*%
%TO.CRot,180*%
X162828400Y-40378178D03*
D11*
X163733400Y-39923178D02*
X163733400Y-40833178D01*
X161923400Y-40833178D01*
X161923400Y-39923178D01*
X163733400Y-39923178D01*
D12*
%TO.P,C11,1*%
X163308400Y-40378178D03*
D13*
%TO.P,C11,2*%
X162348400Y-40378178D03*
%TD*%
D10*
%TO.C,R16*%
%TO.CFtp,R_1206_3216Metric*%
%TO.CVal,0R*%
%TO.CLbN,Resistor_SMD*%
%TO.CMnt,SMD*%
%TO.CRot,90*%
X203308400Y-69078178D03*
D11*
X204433400Y-66803178D02*
X204433400Y-71353178D01*
X202183400Y-71353178D01*
X202183400Y-66803178D01*
X204433400Y-66803178D01*
D12*
%TO.P,R16,1*%
X203308400Y-70540678D03*
D13*
%TO.P,R16,2*%
X203308400Y-67615678D03*
%TD*%
D10*
%TO.C,R17*%
%TO.CFtp,R_1206_3216Metric*%
%TO.CVal,0R*%
%TO.CLbN,Resistor_SMD*%
%TO.CMnt,SMD*%
%TO.CRot,90*%
X195908400Y-33440678D03*
D11*
X197033400Y-31165678D02*
X197033400Y-35715678D01*
X194783400Y-35715678D01*
X194783400Y-31165678D01*
X197033400Y-31165678D01*
D12*
%TO.P,R17,1*%
X195908400Y-34903178D03*
D13*
%TO.P,R17,2*%
X195908400Y-31978178D03*
%TD*%
D10*
%TO.C,C36*%
%TO.CFtp,C_0603_1608Metric*%
%TO.CVal,1u*%
%TO.CLbN,Capacitor_SMD*%
%TO.CMnt,SMD*%
%TO.CRot,90*%
X189686400Y-103077678D03*
D11*
X190411400Y-101602678D02*
X190411400Y-104552678D01*
X188961400Y-104552678D01*
X188961400Y-101602678D01*
X190411400Y-101602678D01*
D12*
%TO.P,C36,1*%
X189686400Y-103852678D03*
D13*
%TO.P,C36,2*%
X189686400Y-102302678D03*
%TD*%
D10*
%TO.C,R43*%
%TO.CFtp,R_0402_1005Metric*%
%TO.CVal,2k*%
%TO.CLbN,Resistor_SMD*%
%TO.CMnt,SMD*%
%TO.CRot,90*%
X191718401Y-119458678D03*
D11*
X192183401Y-118533678D02*
X192183401Y-120383678D01*
X191253401Y-120383678D01*
X191253401Y-118533678D01*
X192183401Y-118533678D01*
D12*
%TO.P,R43,1*%
X191718401Y-119968678D03*
D13*
%TO.P,R43,2*%
X191718401Y-118948678D03*
%TD*%
D10*
%TO.C,U13*%
%TO.CFtp,SOIC-8_3.9x4.9mm_P1.27mm*%
%TO.CVal,ACPL-064L*%
%TO.CLbN,Package_SO*%
%TO.CMnt,SMD*%
%TO.CRot,0*%
X176740400Y-105806178D03*
D11*
X178935400Y-103111178D02*
X178935400Y-103351178D01*
X180435400Y-103351178D01*
X180435400Y-108261178D01*
X178935400Y-108261178D01*
X178935400Y-108501178D01*
X174545400Y-108501178D01*
X174545400Y-108261178D01*
X173045400Y-108261178D01*
X173045400Y-103351178D01*
X174545400Y-103351178D01*
X174545400Y-103111178D01*
X178935400Y-103111178D01*
D12*
%TO.P,U13,1,A1*%
X174265400Y-103901178D03*
D13*
%TO.P,U13,2,C1*%
X174265400Y-105171178D03*
%TO.P,U13,3,C2*%
X174265400Y-106441178D03*
%TO.P,U13,4,A2*%
X174265400Y-107711178D03*
%TO.P,U13,5,GND*%
X179215400Y-107711178D03*
%TO.P,U13,6,VO2*%
X179215400Y-106441178D03*
%TO.P,U13,7,VO1*%
X179215400Y-105171178D03*
%TO.P,U13,8,VCC*%
X179215400Y-103901178D03*
%TD*%
D10*
%TO.C,C24*%
%TO.CFtp,C_0402_1005Metric*%
%TO.CVal,100n*%
%TO.CLbN,Capacitor_SMD*%
%TO.CMnt,SMD*%
%TO.CRot,-90*%
X226589400Y-51958178D03*
D11*
X227044400Y-51053178D02*
X227044400Y-52863178D01*
X226134400Y-52863178D01*
X226134400Y-51053178D01*
X227044400Y-51053178D01*
D12*
%TO.P,C24,1*%
X226589400Y-51478178D03*
D13*
%TO.P,C24,2*%
X226589400Y-52438178D03*
%TD*%
D10*
%TO.C,U22*%
%TO.CFtp,SOIC-8_3.9x4.9mm_P1.27mm*%
%TO.CVal,ACPL-064L*%
%TO.CLbN,Package_SO*%
%TO.CMnt,SMD*%
%TO.CRot,180*%
X167599400Y-56083678D03*
D11*
X169794400Y-53388678D02*
X169794400Y-53628678D01*
X171294400Y-53628678D01*
X171294400Y-58538678D01*
X169794400Y-58538678D01*
X169794400Y-58778678D01*
X165404400Y-58778678D01*
X165404400Y-58538678D01*
X163904400Y-58538678D01*
X163904400Y-53628678D01*
X165404400Y-53628678D01*
X165404400Y-53388678D01*
X169794400Y-53388678D01*
D12*
%TO.P,U22,1,A1*%
X170074400Y-57988678D03*
D13*
%TO.P,U22,2,C1*%
X170074400Y-56718678D03*
%TO.P,U22,3,C2*%
X170074400Y-55448678D03*
%TO.P,U22,4,A2*%
X170074400Y-54178678D03*
%TO.P,U22,5,GND*%
X165124400Y-54178678D03*
%TO.P,U22,6,VO2*%
X165124400Y-55448678D03*
%TO.P,U22,7,VO1*%
X165124400Y-56718678D03*
%TO.P,U22,8,VCC*%
X165124400Y-57988678D03*
%TD*%
D10*
%TO.C,U20*%
%TO.CFtp,QFN-12-1EP_3x3mm_P0.5mm_EP1.65x1.65mm_ThermalVias*%
%TO.CVal,LTC2945IUD-1*%
%TO.CLbN,Package_DFN_QFN*%
%TO.CMnt,SMD*%
%TO.CRot,180*%
X176543400Y-55194678D03*
D11*
X177418400Y-53069678D02*
X177418400Y-53449678D01*
X178288400Y-53449678D01*
X178288400Y-54319678D01*
X178668400Y-54319678D01*
X178668400Y-56069678D01*
X178288400Y-56069678D01*
X178288400Y-56939678D01*
X177418400Y-56939678D01*
X177418400Y-57319678D01*
X175668400Y-57319678D01*
X175668400Y-56939678D01*
X174798400Y-56939678D01*
X174798400Y-56069678D01*
X174418400Y-56069678D01*
X174418400Y-54319678D01*
X174798400Y-54319678D01*
X174798400Y-53449678D01*
X175668400Y-53449678D01*
X175668400Y-53069678D01*
X177418400Y-53069678D01*
D12*
%TO.P,U20,1,INTVcc*%
X178005900Y-55694678D03*
D13*
%TO.P,U20,2,ADR1*%
X178005900Y-55194678D03*
%TO.P,U20,3,ADR0*%
X178005900Y-54694678D03*
%TO.P,U20,4,ADIN*%
X177043400Y-53732178D03*
%TO.P,U20,5,GND*%
X176543400Y-53732178D03*
%TO.P,U20,6,SCL*%
X176043400Y-53732178D03*
%TO.P,U20,7,SDAI*%
X175080900Y-54694678D03*
%TO.P,U20,8,~{SDAO}*%
X175080900Y-55194678D03*
%TO.P,U20,9,~{ALERT}*%
X175080900Y-55694678D03*
%TO.P,U20,10,SENSE-*%
X176043400Y-56657178D03*
%TO.P,U20,11,SENSE+*%
X176543400Y-56657178D03*
%TO.P,U20,12,VDD*%
X177043400Y-56657178D03*
%TO.P,U20,13,GND*%
X177118400Y-55769678D03*
X177118400Y-54619678D03*
X176543400Y-55194678D03*
X175968400Y-55769678D03*
X175968400Y-54619678D03*
%TD*%
D10*
%TO.C,R31*%
%TO.CFtp,R_0402_1005Metric*%
%TO.CVal,4k7*%
%TO.CLbN,Resistor_SMD*%
%TO.CMnt,SMD*%
%TO.CRot,-90*%
X156158400Y-54308178D03*
D11*
X156623400Y-53383178D02*
X156623400Y-55233178D01*
X155693400Y-55233178D01*
X155693400Y-53383178D01*
X156623400Y-53383178D01*
D12*
%TO.P,R31,1*%
X156158400Y-53798178D03*
D13*
%TO.P,R31,2*%
X156158400Y-54818178D03*
%TD*%
D10*
%TO.C,R26*%
%TO.CFtp,R_0402_1005Metric*%
%TO.CVal,4k87*%
%TO.CLbN,Resistor_SMD*%
%TO.CMnt,SMD*%
%TO.CRot,0*%
X166748400Y-78178178D03*
D11*
X167673400Y-77713178D02*
X167673400Y-78643178D01*
X165823400Y-78643178D01*
X165823400Y-77713178D01*
X167673400Y-77713178D01*
D12*
%TO.P,R26,1*%
X166238400Y-78178178D03*
D13*
%TO.P,R26,2*%
X167258400Y-78178178D03*
%TD*%
D10*
%TO.C,TP1*%
%TO.CFtp,TestPoint_Keystone_5000-5004_Miniature*%
%TO.CVal,TestPoint_Alt*%
%TO.CLbN,TestPoint*%
%TO.CMnt,TH*%
%TO.CRot,-90*%
X163708400Y-72203178D03*
D11*
X163837667Y-70560721D02*
X164093008Y-70601163D01*
X164338883Y-70681052D01*
X164569235Y-70798423D01*
X164778385Y-70950379D01*
X164961198Y-71133192D01*
X165113154Y-71342342D01*
X165230525Y-71572694D01*
X165310414Y-71818569D01*
X165350864Y-72073959D01*
X165353399Y-72203178D01*
X165350864Y-72332396D01*
X165310414Y-72587786D01*
X165230525Y-72833661D01*
X165113154Y-73064013D01*
X164961198Y-73273163D01*
X164778385Y-73455976D01*
X164569235Y-73607932D01*
X164338883Y-73725303D01*
X164093008Y-73805192D01*
X163837667Y-73845635D01*
X163579133Y-73845635D01*
X163323791Y-73805192D01*
X163077916Y-73725303D01*
X162847564Y-73607932D01*
X162638414Y-73455976D01*
X162455601Y-73273163D01*
X162303645Y-73064013D01*
X162186274Y-72833661D01*
X162106385Y-72587786D01*
X162065943Y-72332445D01*
X162065943Y-72073910D01*
X162106385Y-71818569D01*
X162186274Y-71572694D01*
X162303645Y-71342342D01*
X162455601Y-71133192D01*
X162638414Y-70950379D01*
X162847564Y-70798423D01*
X163077916Y-70681052D01*
X163323791Y-70601163D01*
X163579133Y-70560721D01*
X163837667Y-70560721D01*
D12*
%TO.P,TP1,1,1*%
X163708400Y-72203178D03*
%TD*%
D10*
%TO.C,TP4*%
%TO.CFtp,TestPoint_Keystone_5015_Micro_Mini*%
%TO.CVal,TestPoint_Alt*%
%TO.CLbN,TestPoint*%
%TO.CMnt,SMD*%
%TO.CRot,-90*%
X212508400Y-48778178D03*
D11*
X213853400Y-46633178D02*
X213853400Y-50923178D01*
X211163400Y-50923178D01*
X211163400Y-46633178D01*
X213853400Y-46633178D01*
D12*
%TO.P,TP4,1,1*%
X212508400Y-48778178D03*
%TD*%
D10*
%TO.C,C34*%
%TO.CFtp,C_0402_1005Metric*%
%TO.CVal,100n*%
%TO.CLbN,Capacitor_SMD*%
%TO.CMnt,SMD*%
%TO.CRot,-90*%
X200173400Y-51069178D03*
D11*
X200628400Y-50164178D02*
X200628400Y-51974178D01*
X199718400Y-51974178D01*
X199718400Y-50164178D01*
X200628400Y-50164178D01*
D12*
%TO.P,C34,1*%
X200173400Y-50589178D03*
D13*
%TO.P,C34,2*%
X200173400Y-51549178D03*
%TD*%
D10*
%TO.C,C37*%
%TO.CFtp,C_0402_1005Metric*%
%TO.CVal,100n*%
%TO.CLbN,Capacitor_SMD*%
%TO.CMnt,SMD*%
%TO.CRot,90*%
X191083400Y-103740678D03*
D11*
X191538400Y-102835678D02*
X191538400Y-104645678D01*
X190628400Y-104645678D01*
X190628400Y-102835678D01*
X191538400Y-102835678D01*
D12*
%TO.P,C37,1*%
X191083400Y-104220678D03*
D13*
%TO.P,C37,2*%
X191083400Y-103260678D03*
%TD*%
D10*
%TO.C,C27*%
%TO.CFtp,C_0402_1005Metric*%
%TO.CVal,100n*%
%TO.CLbN,Capacitor_SMD*%
%TO.CMnt,SMD*%
%TO.CRot,90*%
X165756400Y-103929178D03*
D11*
X166211400Y-103024178D02*
X166211400Y-104834178D01*
X165301400Y-104834178D01*
X165301400Y-103024178D01*
X166211400Y-103024178D01*
D12*
%TO.P,C27,1*%
X165756400Y-104409178D03*
D13*
%TO.P,C27,2*%
X165756400Y-103449178D03*
%TD*%
D10*
%TO.C,C40*%
%TO.CFtp,C_0402_1005Metric*%
%TO.CVal,100n*%
%TO.CLbN,Capacitor_SMD*%
%TO.CMnt,SMD*%
%TO.CRot,0*%
X206986399Y-103712678D03*
D11*
X207891399Y-103257678D02*
X207891399Y-104167678D01*
X206081399Y-104167678D01*
X206081399Y-103257678D01*
X207891399Y-103257678D01*
D12*
%TO.P,C40,1*%
X206506399Y-103712678D03*
D13*
%TO.P,C40,2*%
X207466399Y-103712678D03*
%TD*%
D10*
%TO.C,L1*%
%TO.CFtp,74438356022*%
%TO.CVal,2u2*%
%TO.CLbN,Wuerth*%
%TO.CMnt,SMD*%
%TO.CRot,0*%
X172866150Y-82828178D03*
D11*
X175961150Y-80533178D02*
X175961150Y-85123178D01*
X169771150Y-85123178D01*
X169771150Y-80533178D01*
X175961150Y-80533178D01*
D12*
%TO.P,L1,1*%
X170973900Y-82828178D03*
D13*
%TO.P,L1,2*%
X174758400Y-82828178D03*
%TD*%
D10*
%TO.C,U17*%
%TO.CFtp,QFN-12-1EP_3x3mm_P0.5mm_EP1.65x1.65mm_ThermalVias*%
%TO.CVal,LTC2945IUD-1*%
%TO.CLbN,Package_DFN_QFN*%
%TO.CMnt,SMD*%
%TO.CRot,0*%
X193123400Y-106506678D03*
D11*
X193998400Y-104381678D02*
X193998400Y-104761678D01*
X194868400Y-104761678D01*
X194868400Y-105631678D01*
X195248400Y-105631678D01*
X195248400Y-107381678D01*
X194868400Y-107381678D01*
X194868400Y-108251678D01*
X193998400Y-108251678D01*
X193998400Y-108631678D01*
X192248400Y-108631678D01*
X192248400Y-108251678D01*
X191378400Y-108251678D01*
X191378400Y-107381678D01*
X190998400Y-107381678D01*
X190998400Y-105631678D01*
X191378400Y-105631678D01*
X191378400Y-104761678D01*
X192248400Y-104761678D01*
X192248400Y-104381678D01*
X193998400Y-104381678D01*
D12*
%TO.P,U17,1,INTVcc*%
X191660900Y-106006678D03*
D13*
%TO.P,U17,2,ADR1*%
X191660900Y-106506678D03*
%TO.P,U17,3,ADR0*%
X191660900Y-107006678D03*
%TO.P,U17,4,ADIN*%
X192623400Y-107969178D03*
%TO.P,U17,5,GND*%
X193123400Y-107969178D03*
%TO.P,U17,6,SCL*%
X193623400Y-107969178D03*
%TO.P,U17,7,SDAI*%
X194585900Y-107006678D03*
%TO.P,U17,8,~{SDAO}*%
X194585900Y-106506678D03*
%TO.P,U17,9,~{ALERT}*%
X194585900Y-106006678D03*
%TO.P,U17,10,SENSE-*%
X193623400Y-105044178D03*
%TO.P,U17,11,SENSE+*%
X193123400Y-105044178D03*
%TO.P,U17,12,VDD*%
X192623400Y-105044178D03*
%TO.P,U17,13,GND*%
X192548400Y-105931678D03*
X192548400Y-107081678D03*
X193123400Y-106506678D03*
X193698400Y-105931678D03*
X193698400Y-107081678D03*
%TD*%
D10*
%TO.C,U21*%
%TO.CFtp,SOIC-8_3.9x4.9mm_P1.27mm*%
%TO.CVal,ACPL-064L*%
%TO.CLbN,Package_SO*%
%TO.CMnt,SMD*%
%TO.CRot,-90*%
X176043400Y-47639678D03*
D11*
X178498400Y-43944678D02*
X178498400Y-45444678D01*
X178738400Y-45444678D01*
X178738400Y-49834678D01*
X178498400Y-49834678D01*
X178498400Y-51334678D01*
X173588400Y-51334678D01*
X173588400Y-49834678D01*
X173348400Y-49834678D01*
X173348400Y-45444678D01*
X173588400Y-45444678D01*
X173588400Y-43944678D01*
X178498400Y-43944678D01*
D12*
%TO.P,U21,1,A1*%
X177948400Y-45164678D03*
D13*
%TO.P,U21,2,C1*%
X176678400Y-45164678D03*
%TO.P,U21,3,C2*%
X175408400Y-45164678D03*
%TO.P,U21,4,A2*%
X174138400Y-45164678D03*
%TO.P,U21,5,GND*%
X174138400Y-50114678D03*
%TO.P,U21,6,VO2*%
X175408400Y-50114678D03*
%TO.P,U21,7,VO1*%
X176678400Y-50114678D03*
%TO.P,U21,8,VCC*%
X177948400Y-50114678D03*
%TD*%
D10*
%TO.C,U15*%
%TO.CFtp,SOIC-8_3.9x4.9mm_P1.27mm*%
%TO.CVal,ACPL-064L*%
%TO.CLbN,Package_SO*%
%TO.CMnt,SMD*%
%TO.CRot,-90*%
X196744400Y-48086178D03*
D11*
X199199400Y-44391178D02*
X199199400Y-45891178D01*
X199439400Y-45891178D01*
X199439400Y-50281178D01*
X199199400Y-50281178D01*
X199199400Y-51781178D01*
X194289400Y-51781178D01*
X194289400Y-50281178D01*
X194049400Y-50281178D01*
X194049400Y-45891178D01*
X194289400Y-45891178D01*
X194289400Y-44391178D01*
X199199400Y-44391178D01*
D12*
%TO.P,U15,1,A1*%
X198649400Y-45611178D03*
D13*
%TO.P,U15,2,C1*%
X197379400Y-45611178D03*
%TO.P,U15,3,C2*%
X196109400Y-45611178D03*
%TO.P,U15,4,A2*%
X194839400Y-45611178D03*
%TO.P,U15,5,GND*%
X194839400Y-50561178D03*
%TO.P,U15,6,VO2*%
X196109400Y-50561178D03*
%TO.P,U15,7,VO1*%
X197379400Y-50561178D03*
%TO.P,U15,8,VCC*%
X198649400Y-50561178D03*
%TD*%
D10*
%TO.C,C32*%
%TO.CFtp,C_0402_1005Metric*%
%TO.CVal,100n*%
%TO.CLbN,Capacitor_SMD*%
%TO.CMnt,SMD*%
%TO.CRot,-90*%
X199284400Y-58407178D03*
D11*
X199739400Y-57502178D02*
X199739400Y-59312178D01*
X198829400Y-59312178D01*
X198829400Y-57502178D01*
X199739400Y-57502178D01*
D12*
%TO.P,C32,1*%
X199284400Y-57927178D03*
D13*
%TO.P,C32,2*%
X199284400Y-58887178D03*
%TD*%
D10*
%TO.C,TP2*%
%TO.CFtp,TestPoint_Keystone_5000-5004_Miniature*%
%TO.CVal,TestPoint_Alt*%
%TO.CLbN,TestPoint*%
%TO.CMnt,TH*%
%TO.CRot,0*%
X181608400Y-69103178D03*
D11*
X181737667Y-67460721D02*
X181993008Y-67501163D01*
X182238883Y-67581052D01*
X182469235Y-67698423D01*
X182678385Y-67850379D01*
X182861198Y-68033192D01*
X183013154Y-68242342D01*
X183130525Y-68472694D01*
X183210414Y-68718569D01*
X183250864Y-68973959D01*
X183253399Y-69103178D01*
X183250864Y-69232396D01*
X183210414Y-69487786D01*
X183130525Y-69733661D01*
X183013154Y-69964013D01*
X182861198Y-70173163D01*
X182678385Y-70355976D01*
X182469235Y-70507932D01*
X182238883Y-70625303D01*
X181993008Y-70705192D01*
X181737667Y-70745635D01*
X181479133Y-70745635D01*
X181223791Y-70705192D01*
X180977916Y-70625303D01*
X180747564Y-70507932D01*
X180538414Y-70355976D01*
X180355601Y-70173163D01*
X180203645Y-69964013D01*
X180086274Y-69733661D01*
X180006385Y-69487786D01*
X179965943Y-69232445D01*
X179965943Y-68973910D01*
X180006385Y-68718569D01*
X180086274Y-68472694D01*
X180203645Y-68242342D01*
X180355601Y-68033192D01*
X180538414Y-67850379D01*
X180747564Y-67698423D01*
X180977916Y-67581052D01*
X181223791Y-67501163D01*
X181479133Y-67460721D01*
X181737667Y-67460721D01*
D12*
%TO.P,TP2,1,1*%
X181608400Y-69103178D03*
%TD*%
D10*
%TO.C,C2*%
%TO.CFtp,C_0402_1005Metric*%
%TO.CVal,100n*%
%TO.CLbN,Capacitor_SMD*%
%TO.CMnt,SMD*%
%TO.CRot,90*%
X215540400Y-100631178D03*
D11*
X215995400Y-99726178D02*
X215995400Y-101536178D01*
X215085400Y-101536178D01*
X215085400Y-99726178D01*
X215995400Y-99726178D01*
D12*
%TO.P,C2,1*%
X215540400Y-101111178D03*
D13*
%TO.P,C2,2*%
X215540400Y-100151178D03*
%TD*%
D10*
%TO.C,R34*%
%TO.CFtp,R_0402_1005Metric*%
%TO.CVal,2k*%
%TO.CLbN,Resistor_SMD*%
%TO.CMnt,SMD*%
%TO.CRot,-90*%
X225065399Y-43578178D03*
D11*
X225530399Y-42653178D02*
X225530399Y-44503178D01*
X224600399Y-44503178D01*
X224600399Y-42653178D01*
X225530399Y-42653178D01*
D12*
%TO.P,R34,1*%
X225065399Y-43068178D03*
D13*
%TO.P,R34,2*%
X225065399Y-44088178D03*
%TD*%
D10*
%TO.C,R8*%
%TO.CFtp,R_Shunt_Ohmite_LVK20*%
%TO.CVal,50mR*%
%TO.CLbN,Resistor_SMD*%
%TO.CMnt,SMD*%
%TO.CRot,-90*%
X172290400Y-93986178D03*
D11*
X175785400Y-91941178D02*
X175785400Y-96031178D01*
X168795400Y-96031178D01*
X168795400Y-91941178D01*
X175785400Y-91941178D01*
D12*
%TO.P,R8,1*%
X174265400Y-92961178D03*
D13*
%TO.P,R8,2*%
X174265400Y-95011178D03*
%TO.P,R8,3*%
X170315400Y-95011178D03*
%TO.P,R8,4*%
X170315400Y-92961178D03*
%TD*%
D10*
%TO.C,U6*%
%TO.CFtp,VSSOP-8_3x3mm_P0.65mm*%
%TO.CVal,TCA9803*%
%TO.CLbN,Package_SO*%
%TO.CMnt,SMD*%
%TO.CRot,0*%
X165687400Y-43120178D03*
D11*
X167432400Y-41375178D02*
X167432400Y-41645178D01*
X168862400Y-41645178D01*
X168862400Y-44595178D01*
X167432400Y-44595178D01*
X167432400Y-44865178D01*
X163942400Y-44865178D01*
X163942400Y-44595178D01*
X162512400Y-44595178D01*
X162512400Y-41645178D01*
X163942400Y-41645178D01*
X163942400Y-41375178D01*
X167432400Y-41375178D01*
D12*
%TO.P,U6,1,VCCA*%
X163574900Y-42145178D03*
D13*
%TO.P,U6,2,SCLA*%
X163574900Y-42795178D03*
%TO.P,U6,3,SDAA*%
X163574900Y-43445178D03*
%TO.P,U6,4,GND*%
X163574900Y-44095178D03*
%TO.P,U6,5,EN*%
X167799900Y-44095178D03*
%TO.P,U6,6,SDAB*%
X167799900Y-43445178D03*
%TO.P,U6,7,SCLB*%
X167799900Y-42795178D03*
%TO.P,U6,8,VCCB*%
X167799900Y-42145178D03*
%TD*%
D10*
%TO.C,R10*%
%TO.CFtp,R_1206_3216Metric*%
%TO.CVal,0R*%
%TO.CLbN,Resistor_SMD*%
%TO.CMnt,SMD*%
%TO.CRot,90*%
X237508400Y-108015678D03*
D11*
X238633400Y-105740678D02*
X238633400Y-110290678D01*
X236383400Y-110290678D01*
X236383400Y-105740678D01*
X238633400Y-105740678D01*
D12*
%TO.P,R10,1*%
X237508400Y-109478178D03*
D13*
%TO.P,R10,2*%
X237508400Y-106553178D03*
%TD*%
D10*
%TO.C,C14*%
%TO.CFtp,C_0402_1005Metric*%
%TO.CVal,100n*%
%TO.CLbN,Capacitor_SMD*%
%TO.CMnt,SMD*%
%TO.CRot,180*%
X207028400Y-66278178D03*
D11*
X207933400Y-65823178D02*
X207933400Y-66733178D01*
X206123400Y-66733178D01*
X206123400Y-65823178D01*
X207933400Y-65823178D01*
D12*
%TO.P,C14,1*%
X207508400Y-66278178D03*
D13*
%TO.P,C14,2*%
X206548400Y-66278178D03*
%TD*%
D10*
%TO.C,R11*%
%TO.CFtp,R_Shunt_Ohmite_LVK20*%
%TO.CVal,50mR*%
%TO.CLbN,Resistor_SMD*%
%TO.CMnt,SMD*%
%TO.CRot,-90*%
X196560400Y-92970178D03*
D11*
X200055400Y-90925178D02*
X200055400Y-95015178D01*
X193065400Y-95015178D01*
X193065400Y-90925178D01*
X200055400Y-90925178D01*
D12*
%TO.P,R11,1*%
X198535400Y-91945178D03*
D13*
%TO.P,R11,2*%
X198535400Y-93995178D03*
%TO.P,R11,3*%
X194585400Y-93995178D03*
%TO.P,R11,4*%
X194585400Y-91945178D03*
%TD*%
D10*
%TO.C,R33*%
%TO.CFtp,R_0402_1005Metric*%
%TO.CVal,2k*%
%TO.CLbN,Resistor_SMD*%
%TO.CMnt,SMD*%
%TO.CRot,-90*%
X217318400Y-52722178D03*
D11*
X217783400Y-51797178D02*
X217783400Y-53647178D01*
X216853400Y-53647178D01*
X216853400Y-51797178D01*
X217783400Y-51797178D01*
D12*
%TO.P,R33,1*%
X217318400Y-52212178D03*
D13*
%TO.P,R33,2*%
X217318400Y-53232178D03*
%TD*%
D10*
%TO.C,J107*%
%TO.CFtp,Molex_Mini-Fit_Jr_5566-10A2_2x05_P4.20mm_Vertical*%
%TO.CVal,39289108*%
%TO.CLbN,Connector_Molex*%
%TO.CMnt,TH*%
%TO.CRot,180*%
X212510400Y-82767178D03*
D11*
X219205400Y-73522178D02*
X219205400Y-79722178D01*
X215705400Y-79722178D01*
X215705400Y-85512178D01*
X192515400Y-85512178D01*
X192515400Y-79722178D01*
X189015400Y-79722178D01*
X189015400Y-73522178D01*
X219205400Y-73522178D01*
D12*
%TO.P,J107,1*%
X212510400Y-82767178D03*
D13*
%TO.P,J107,*%
X217210400Y-77727178D03*
X191010400Y-77727178D03*
%TO.P,J107,2*%
X208310400Y-82767178D03*
%TO.P,J107,3*%
X204110400Y-82767178D03*
%TO.P,J107,4*%
X199910400Y-82767178D03*
%TO.P,J107,5*%
X195710400Y-82767178D03*
%TO.P,J107,6*%
X212510400Y-77267178D03*
%TO.P,J107,7*%
X208310400Y-77267178D03*
%TO.P,J107,8*%
X204110400Y-77267178D03*
%TO.P,J107,9*%
X199910400Y-77267178D03*
%TO.P,J107,10*%
X195710400Y-77267178D03*
%TD*%
D10*
%TO.C,C17*%
%TO.CFtp,C_0402_1005Metric*%
%TO.CVal,100n*%
%TO.CLbN,Capacitor_SMD*%
%TO.CMnt,SMD*%
%TO.CRot,90*%
X154908400Y-43778178D03*
D11*
X155363400Y-42873178D02*
X155363400Y-44683178D01*
X154453400Y-44683178D01*
X154453400Y-42873178D01*
X155363400Y-42873178D01*
D12*
%TO.P,C17,1*%
X154908400Y-44258178D03*
D13*
%TO.P,C17,2*%
X154908400Y-43298178D03*
%TD*%
D10*
%TO.C,R40*%
%TO.CFtp,R_0402_1005Metric*%
%TO.CVal,2k*%
%TO.CLbN,Resistor_SMD*%
%TO.CMnt,SMD*%
%TO.CRot,-90*%
X198649400Y-42689178D03*
D11*
X199114400Y-41764178D02*
X199114400Y-43614178D01*
X198184400Y-43614178D01*
X198184400Y-41764178D01*
X199114400Y-41764178D01*
D12*
%TO.P,R40,1*%
X198649400Y-42179178D03*
D13*
%TO.P,R40,2*%
X198649400Y-43199178D03*
%TD*%
D10*
%TO.C,C8*%
%TO.CFtp,C_0805_2012Metric*%
%TO.CVal,10u*%
%TO.CLbN,Capacitor_SMD*%
%TO.CMnt,SMD*%
%TO.CRot,180*%
X170408400Y-72478178D03*
D11*
X172103400Y-71503178D02*
X172103400Y-73453178D01*
X168713400Y-73453178D01*
X168713400Y-71503178D01*
X172103400Y-71503178D01*
D12*
%TO.P,C8,1*%
X171358400Y-72478178D03*
D13*
%TO.P,C8,2*%
X169458400Y-72478178D03*
%TD*%
D10*
%TO.C,TP5*%
%TO.CFtp,TestPoint_Keystone_5015_Micro_Mini*%
%TO.CVal,TestPoint_Alt*%
%TO.CLbN,TestPoint*%
%TO.CMnt,SMD*%
%TO.CRot,-90*%
X207508400Y-48778178D03*
D11*
X208853400Y-46633178D02*
X208853400Y-50923178D01*
X206163400Y-50923178D01*
X206163400Y-46633178D01*
X208853400Y-46633178D01*
D12*
%TO.P,TP5,1,1*%
X207508400Y-48778178D03*
%TD*%
D10*
%TO.C,J105*%
%TO.CFtp,Molex_Mini-Fit_Jr_5566-04A2_2x02_P4.20mm_Vertical*%
%TO.CVal,+/-5V*%
%TO.CLbN,Connector_Molex*%
%TO.CMnt,TH*%
%TO.CRot,180*%
X187727400Y-37428178D03*
D11*
X194422400Y-28183178D02*
X194422400Y-34383178D01*
X190922400Y-34383178D01*
X190922400Y-40173178D01*
X180332400Y-40173178D01*
X180332400Y-34383178D01*
X176832400Y-34383178D01*
X176832400Y-28183178D01*
X194422400Y-28183178D01*
D12*
%TO.P,J105,1,Pin_1*%
X187727400Y-37428178D03*
D13*
%TO.P,J105,*%
X192427400Y-32388178D03*
X178827400Y-32388178D03*
%TO.P,J105,2,Pin_2*%
X183527400Y-37428178D03*
%TO.P,J105,3,Pin_3*%
X187727400Y-31928178D03*
%TO.P,J105,4,Pin_4*%
X183527400Y-31928178D03*
%TD*%
D10*
%TO.C,Q4*%
%TO.CFtp,SOT-416*%
%TO.CVal,BS170F*%
%TO.CLbN,Package_TO_SOT_SMD*%
%TO.CMnt,SMD*%
%TO.CRot,180*%
X182650400Y-55530178D03*
D11*
X183845400Y-54385178D02*
X183845400Y-56675178D01*
X181455400Y-56675178D01*
X181455400Y-54385178D01*
X183845400Y-54385178D01*
D12*
%TO.P,Q4,1,G*%
X183300400Y-56030178D03*
D13*
%TO.P,Q4,2,S*%
X183300400Y-55030178D03*
%TO.P,Q4,3,D*%
X182000400Y-55530178D03*
%TD*%
D10*
%TO.C,U12*%
%TO.CFtp,SOIC-8_3.9x4.9mm_P1.27mm*%
%TO.CVal,ACPL-064L*%
%TO.CLbN,Package_SO*%
%TO.CMnt,SMD*%
%TO.CRot,90*%
X168296400Y-114250178D03*
D11*
X170751400Y-110555178D02*
X170751400Y-112055178D01*
X170991400Y-112055178D01*
X170991400Y-116445178D01*
X170751400Y-116445178D01*
X170751400Y-117945178D01*
X165841400Y-117945178D01*
X165841400Y-116445178D01*
X165601400Y-116445178D01*
X165601400Y-112055178D01*
X165841400Y-112055178D01*
X165841400Y-110555178D01*
X170751400Y-110555178D01*
D12*
%TO.P,U12,1,A1*%
X166391400Y-116725178D03*
D13*
%TO.P,U12,2,C1*%
X167661400Y-116725178D03*
%TO.P,U12,3,C2*%
X168931400Y-116725178D03*
%TO.P,U12,4,A2*%
X170201400Y-116725178D03*
%TO.P,U12,5,GND*%
X170201400Y-111775178D03*
%TO.P,U12,6,VO2*%
X168931400Y-111775178D03*
%TO.P,U12,7,VO1*%
X167661400Y-111775178D03*
%TO.P,U12,8,VCC*%
X166391400Y-111775178D03*
%TD*%
D10*
%TO.C,Q2*%
%TO.CFtp,SOT-416*%
%TO.CVal,BS170F*%
%TO.CLbN,Package_TO_SOT_SMD*%
%TO.CMnt,SMD*%
%TO.CRot,180*%
X209066400Y-56419178D03*
D11*
X210261400Y-55274178D02*
X210261400Y-57564178D01*
X207871400Y-57564178D01*
X207871400Y-55274178D01*
X210261400Y-55274178D01*
D12*
%TO.P,Q2,1,G*%
X209716400Y-56919178D03*
D13*
%TO.P,Q2,2,S*%
X209716400Y-55919178D03*
%TO.P,Q2,3,D*%
X208416400Y-56419178D03*
%TD*%
D14*
X145365200Y-27228178D02*
X253315200Y-27228178D01*
X253315200Y-128828178D01*
X145365200Y-128828178D01*
X145365200Y-27228178D01*
M02*
