%TF.GenerationSoftware,KiCad,Pcbnew,9.0.6*%
%TF.CreationDate,2026-08-15T00:01:00-04:00*%
%TF.ProjectId,Isolated Multi-Rail Power Supply Monitor Sensor Board,49736f6c-6174-4656-9420-4d756c74692d,rev?*%
%TF.SameCoordinates,Original*%
%TF.FileFunction,Soldermask,Bot*%
%TF.FilePolarity,Negative*%
%FSLAX46Y46*%
G04 Gerber Fmt 4.6, Leading zero omitted, Abs format (unit mm)*
G04 Created by KiCad (PCBNEW 9.0.6) date 2026-08-15 00:01:00*
%MOMM*%
%LPD*%
G01*
G04 APERTURE LIST*
G04 Aperture macros list*
%AMRoundRect*
0 Rectangle with rounded corners*
0 $1 Rounding radius*
0 $2 $3 $4 $5 $6 $7 $8 $9 X,Y pos of 4 corners*
0 Add a 4 corners polygon primitive as box body*
4,1,4,$2,$3,$4,$5,$6,$7,$8,$9,$2,$3,0*
0 Add four circle primitives for the rounded corners*
1,1,$1+$1,$2,$3*
1,1,$1+$1,$4,$5*
1,1,$1+$1,$6,$7*
1,1,$1+$1,$8,$9*
0 Add four rect primitives between the rounded corners*
20,1,$1+$1,$2,$3,$4,$5,0*
20,1,$1+$1,$4,$5,$6,$7,0*
20,1,$1+$1,$6,$7,$8,$9,0*
20,1,$1+$1,$8,$9,$2,$3,0*%
G04 Aperture macros list end*
%ADD10C,0.150000*%
%ADD11C,3.000000*%
%ADD12RoundRect,0.250001X-1.399999X1.099999X-1.399999X-1.099999X1.399999X-1.099999X1.399999X1.099999X0*%
%ADD13O,3.300000X2.700000*%
%ADD14C,2.000000*%
%ADD15RoundRect,0.250001X-1.099999X-1.399999X1.099999X-1.399999X1.099999X1.399999X-1.099999X1.399999X0*%
%ADD16O,2.700000X3.300000*%
%ADD17RoundRect,0.250001X1.099999X1.399999X-1.099999X1.399999X-1.099999X-1.399999X1.099999X-1.399999X0*%
%ADD18C,5.600000*%
%ADD19RoundRect,0.250000X0.625000X-0.312500X0.625000X0.312500X-0.625000X0.312500X-0.625000X-0.312500X0*%
%ADD20RoundRect,0.250000X-0.625000X0.312500X-0.625000X-0.312500X0.625000X-0.312500X0.625000X0.312500X0*%
%TA.AperFunction,Profile*%
%ADD21C,0.050000*%
%TD*%
G04 APERTURE END LIST*
D10*
G36*
X190888833Y-149350547D02*
G01*
X191076411Y-149334060D01*
X191090012Y-149409358D01*
X191110924Y-149471527D01*
X191138327Y-149522646D01*
X191175123Y-149567009D01*
X191224708Y-149606736D01*
X191289452Y-149641806D01*
X191359117Y-149666630D01*
X191435620Y-149681946D01*
X191520078Y-149687235D01*
X191629649Y-149678335D01*
X191720846Y-149653347D01*
X191776153Y-149626659D01*
X191818659Y-149595631D01*
X191850447Y-149560382D01*
X191882502Y-149498193D01*
X191893037Y-149431330D01*
X191882629Y-149364499D01*
X191852004Y-149307590D01*
X191801347Y-149261300D01*
X191716816Y-149218656D01*
X191637933Y-149193547D01*
X191449370Y-149145199D01*
X191258831Y-149091961D01*
X191159393Y-149051135D01*
X191091533Y-149008806D01*
X191038773Y-148962100D01*
X190999017Y-148910910D01*
X190969825Y-148853172D01*
X190952249Y-148791069D01*
X190946260Y-148723423D01*
X190953384Y-148649216D01*
X190974665Y-148578551D01*
X191010740Y-148510199D01*
X191059398Y-148450367D01*
X191121565Y-148400287D01*
X191199326Y-148359623D01*
X191283421Y-148331505D01*
X191374932Y-148314198D01*
X191475016Y-148308240D01*
X191585319Y-148314624D01*
X191682931Y-148332895D01*
X191769572Y-148362096D01*
X191849527Y-148404531D01*
X191914283Y-148457140D01*
X191965760Y-148520365D01*
X192004282Y-148592554D01*
X192028889Y-148670935D01*
X192039583Y-148756945D01*
X191848982Y-148771325D01*
X191829383Y-148680362D01*
X191794472Y-148609880D01*
X191744934Y-148555628D01*
X191681709Y-148517305D01*
X191596617Y-148492038D01*
X191483167Y-148482630D01*
X191364115Y-148491512D01*
X191279336Y-148514737D01*
X191220301Y-148548758D01*
X191173432Y-148597348D01*
X191146769Y-148649822D01*
X191137869Y-148708218D01*
X191144521Y-148759590D01*
X191163812Y-148803387D01*
X191196304Y-148841484D01*
X191240291Y-148869683D01*
X191331644Y-148905143D01*
X191495990Y-148948645D01*
X191718543Y-149005384D01*
X191828465Y-149044449D01*
X191911605Y-149090606D01*
X191975116Y-149141731D01*
X192022089Y-149197773D01*
X192056571Y-149262097D01*
X192077468Y-149332816D01*
X192084646Y-149411546D01*
X192077099Y-149489563D01*
X192054471Y-149564517D01*
X192015952Y-149637685D01*
X191964489Y-149702203D01*
X191899395Y-149757091D01*
X191818757Y-149802732D01*
X191731252Y-149834935D01*
X191635227Y-149854777D01*
X191529237Y-149861625D01*
X191394067Y-149854247D01*
X191281314Y-149833709D01*
X191187511Y-149801907D01*
X191101421Y-149754772D01*
X191029915Y-149695108D01*
X190971356Y-149622114D01*
X190927569Y-149539125D01*
X190900063Y-149449165D01*
X190888833Y-149350547D01*
G37*
G36*
X193117963Y-148314664D02*
G01*
X193214169Y-148333505D01*
X193304494Y-148364445D01*
X193389818Y-148407617D01*
X193468494Y-148462250D01*
X193536703Y-148526173D01*
X193595228Y-148599963D01*
X193644442Y-148684588D01*
X193692380Y-148805793D01*
X193721897Y-148939350D01*
X193732094Y-149087497D01*
X193721393Y-149237472D01*
X193690371Y-149372897D01*
X193639862Y-149496085D01*
X193588177Y-149581840D01*
X193527701Y-149655197D01*
X193458110Y-149717325D01*
X193378644Y-149768935D01*
X193262987Y-149820421D01*
X193141949Y-149851229D01*
X193013837Y-149861625D01*
X192908648Y-149854975D01*
X192811113Y-149835519D01*
X192720099Y-149803638D01*
X192634650Y-149759226D01*
X192555933Y-149703119D01*
X192487985Y-149638238D01*
X192430003Y-149564059D01*
X192381584Y-149479690D01*
X192333757Y-149359170D01*
X192305183Y-149234699D01*
X192295777Y-149107556D01*
X192500469Y-149107556D01*
X192510635Y-149243173D01*
X192539281Y-149357553D01*
X192584656Y-149454369D01*
X192646465Y-149536477D01*
X192724571Y-149605301D01*
X192810432Y-149653656D01*
X192905712Y-149682992D01*
X193012830Y-149693097D01*
X193122061Y-149682821D01*
X193218452Y-149653090D01*
X193304580Y-149604251D01*
X193382216Y-149534919D01*
X193442891Y-149452299D01*
X193488020Y-149352409D01*
X193516866Y-149231757D01*
X193527205Y-149085940D01*
X193519820Y-148964623D01*
X193498760Y-148858362D01*
X193465198Y-148765005D01*
X193416746Y-148679329D01*
X193356534Y-148609021D01*
X193283848Y-148552331D01*
X193201506Y-148510538D01*
X193112745Y-148485355D01*
X193015852Y-148476768D01*
X192913074Y-148486027D01*
X192819466Y-148513131D01*
X192733106Y-148558063D01*
X192652602Y-148622123D01*
X192602182Y-148681603D01*
X192560774Y-148756517D01*
X192528911Y-148849873D01*
X192508050Y-148965429D01*
X192500469Y-149107556D01*
X192295777Y-149107556D01*
X192295580Y-149104899D01*
X192304658Y-148953276D01*
X192330447Y-148821565D01*
X192371356Y-148706920D01*
X192426623Y-148606931D01*
X192496348Y-148519724D01*
X192580979Y-148443880D01*
X192673751Y-148385388D01*
X192775822Y-148343212D01*
X192888838Y-148317229D01*
X193014845Y-148308240D01*
X193117963Y-148314664D01*
G37*
G36*
X193980306Y-149838178D02*
G01*
X193980306Y-148331688D01*
X194179150Y-148331688D01*
X194179150Y-149663788D01*
X194918931Y-149663788D01*
X194918931Y-149838178D01*
X193980306Y-149838178D01*
G37*
G36*
X195837309Y-148337975D02*
G01*
X195939897Y-148353303D01*
X196023199Y-148379083D01*
X196096208Y-148415068D01*
X196160265Y-148461197D01*
X196232174Y-148533771D01*
X196291283Y-148619011D01*
X196337952Y-148718568D01*
X196369935Y-148824610D01*
X196389953Y-148943378D01*
X196396936Y-149076689D01*
X196392148Y-149190752D01*
X196378504Y-149291680D01*
X196356911Y-149380955D01*
X196309608Y-149505702D01*
X196254421Y-149600315D01*
X196187462Y-149679426D01*
X196117675Y-149736969D01*
X196037850Y-149779862D01*
X195938340Y-149812532D01*
X195829203Y-149831371D01*
X195697089Y-149838178D01*
X195155053Y-149838178D01*
X195155053Y-149663788D01*
X195353806Y-149663788D01*
X195674558Y-149663788D01*
X195814934Y-149655852D01*
X195907657Y-149635944D01*
X195985498Y-149601220D01*
X196042387Y-149557359D01*
X196084545Y-149506508D01*
X196121362Y-149443271D01*
X196152480Y-149365568D01*
X196173489Y-149284333D01*
X196187083Y-149187804D01*
X196191956Y-149073575D01*
X196186132Y-148951419D01*
X196170146Y-148852185D01*
X196145856Y-148772193D01*
X196114561Y-148708218D01*
X196056786Y-148629632D01*
X195994358Y-148573783D01*
X195926616Y-148537126D01*
X195871705Y-148521657D01*
X195788913Y-148510463D01*
X195669428Y-148506077D01*
X195353806Y-148506077D01*
X195353806Y-149663788D01*
X195155053Y-149663788D01*
X195155053Y-148331688D01*
X195672451Y-148331688D01*
X195837309Y-148337975D01*
G37*
G36*
X196674366Y-149838178D02*
G01*
X196674366Y-148331688D01*
X197760544Y-148331688D01*
X197760544Y-148506077D01*
X196873210Y-148506077D01*
X196873210Y-148970627D01*
X197704216Y-148970627D01*
X197704216Y-149145016D01*
X196873210Y-149145016D01*
X196873210Y-149663788D01*
X197795440Y-149663788D01*
X197795440Y-149838178D01*
X196674366Y-149838178D01*
G37*
G36*
X198873733Y-148337148D02*
G01*
X198973053Y-148351465D01*
X199044285Y-148371988D01*
X199108854Y-148405425D01*
X199164177Y-148452347D01*
X199211255Y-148514320D01*
X199245943Y-148584490D01*
X199266751Y-148659159D01*
X199273812Y-148739634D01*
X199267086Y-148817505D01*
X199247564Y-148887211D01*
X199215528Y-148950300D01*
X199170314Y-149007904D01*
X199115798Y-149054541D01*
X199046398Y-149093677D01*
X198959215Y-149124791D01*
X198850661Y-149146573D01*
X198923649Y-149186974D01*
X198970462Y-149222228D01*
X199053217Y-149310709D01*
X199135509Y-149424461D01*
X199396727Y-149838178D01*
X199146775Y-149838178D01*
X198947931Y-149521639D01*
X198804499Y-149312078D01*
X198747468Y-149246656D01*
X198703566Y-149210321D01*
X198657956Y-149185399D01*
X198612891Y-149169837D01*
X198502249Y-149162602D01*
X198271714Y-149162602D01*
X198271714Y-149838178D01*
X198072870Y-149838178D01*
X198072870Y-148994074D01*
X198271714Y-148994074D01*
X198698986Y-148994074D01*
X198827564Y-148986112D01*
X198912119Y-148966139D01*
X198960189Y-148943144D01*
X198998668Y-148913351D01*
X199028897Y-148876471D01*
X199058888Y-148812040D01*
X199068831Y-148742565D01*
X199060037Y-148675462D01*
X199034512Y-148618246D01*
X198991437Y-148568451D01*
X198935620Y-148533029D01*
X198856727Y-148509236D01*
X198747163Y-148500215D01*
X198271714Y-148500215D01*
X198271714Y-148994074D01*
X198072870Y-148994074D01*
X198072870Y-148331688D01*
X198738920Y-148331688D01*
X198873733Y-148337148D01*
G37*
G36*
X200162245Y-149838178D02*
G01*
X200162245Y-148331688D01*
X200461382Y-148331688D01*
X200816938Y-149398815D01*
X200888654Y-149621931D01*
X200968613Y-149380314D01*
X201328291Y-148331688D01*
X201595737Y-148331688D01*
X201595737Y-149838178D01*
X201404128Y-149838178D01*
X201404128Y-148576602D01*
X200967605Y-149838178D01*
X200788270Y-149838178D01*
X200353854Y-148555078D01*
X200353854Y-149838178D01*
X200162245Y-149838178D01*
G37*
G36*
X203157548Y-149838178D02*
G01*
X202931043Y-149838178D01*
X202755829Y-149380955D01*
X202127698Y-149380955D01*
X201962742Y-149838178D01*
X201751625Y-149838178D01*
X201989581Y-149216824D01*
X202185125Y-149216824D01*
X202694372Y-149216824D01*
X202537568Y-148800909D01*
X202472049Y-148619413D01*
X202431047Y-148489499D01*
X202396617Y-148632921D01*
X202350081Y-148776362D01*
X202185125Y-149216824D01*
X201989581Y-149216824D01*
X202328557Y-148331688D01*
X202542697Y-148331688D01*
X203157548Y-149838178D01*
G37*
G36*
X203248498Y-149350547D02*
G01*
X203436076Y-149334060D01*
X203449677Y-149409358D01*
X203470589Y-149471527D01*
X203497992Y-149522646D01*
X203534788Y-149567009D01*
X203584373Y-149606736D01*
X203649117Y-149641806D01*
X203718782Y-149666630D01*
X203795285Y-149681946D01*
X203879743Y-149687235D01*
X203989314Y-149678335D01*
X204080511Y-149653347D01*
X204135818Y-149626659D01*
X204178324Y-149595631D01*
X204210112Y-149560382D01*
X204242167Y-149498193D01*
X204252702Y-149431330D01*
X204242294Y-149364499D01*
X204211669Y-149307590D01*
X204161012Y-149261300D01*
X204076481Y-149218656D01*
X203997598Y-149193547D01*
X203809035Y-149145199D01*
X203618496Y-149091961D01*
X203519058Y-149051135D01*
X203451198Y-149008806D01*
X203398438Y-148962100D01*
X203358682Y-148910910D01*
X203329490Y-148853172D01*
X203311914Y-148791069D01*
X203305925Y-148723423D01*
X203313049Y-148649216D01*
X203334330Y-148578551D01*
X203370405Y-148510199D01*
X203419063Y-148450367D01*
X203481230Y-148400287D01*
X203558991Y-148359623D01*
X203643086Y-148331505D01*
X203734597Y-148314198D01*
X203834681Y-148308240D01*
X203944984Y-148314624D01*
X204042596Y-148332895D01*
X204129237Y-148362096D01*
X204209193Y-148404531D01*
X204273948Y-148457140D01*
X204325426Y-148520365D01*
X204363947Y-148592554D01*
X204388554Y-148670935D01*
X204399248Y-148756945D01*
X204208647Y-148771325D01*
X204189048Y-148680362D01*
X204154137Y-148609880D01*
X204104599Y-148555628D01*
X204041374Y-148517305D01*
X203956282Y-148492038D01*
X203842832Y-148482630D01*
X203723780Y-148491512D01*
X203639001Y-148514737D01*
X203579966Y-148548758D01*
X203533098Y-148597348D01*
X203506434Y-148649822D01*
X203497534Y-148708218D01*
X203504186Y-148759590D01*
X203523477Y-148803387D01*
X203555969Y-148841484D01*
X203599956Y-148869683D01*
X203691309Y-148905143D01*
X203855655Y-148948645D01*
X204078208Y-149005384D01*
X204188131Y-149044449D01*
X204271270Y-149090606D01*
X204334781Y-149141731D01*
X204381754Y-149197773D01*
X204416236Y-149262097D01*
X204437133Y-149332816D01*
X204444311Y-149411546D01*
X204436764Y-149489563D01*
X204414136Y-149564517D01*
X204375617Y-149637685D01*
X204324154Y-149702203D01*
X204259060Y-149757091D01*
X204178422Y-149802732D01*
X204090917Y-149834935D01*
X203994892Y-149854777D01*
X203888902Y-149861625D01*
X203753732Y-149854247D01*
X203640979Y-149833709D01*
X203547176Y-149801907D01*
X203461086Y-149754772D01*
X203389580Y-149695108D01*
X203331021Y-149622114D01*
X203287234Y-149539125D01*
X203259728Y-149449165D01*
X203248498Y-149350547D01*
G37*
G36*
X204707452Y-149838178D02*
G01*
X204707452Y-148331688D01*
X204906296Y-148331688D01*
X204906296Y-149079712D01*
X205652214Y-148331688D01*
X205921675Y-148331688D01*
X205291528Y-148942325D01*
X205949335Y-149838178D01*
X205687018Y-149838178D01*
X205152218Y-149075590D01*
X204906296Y-149316475D01*
X204906296Y-149838178D01*
X204707452Y-149838178D01*
G37*
G36*
X207368423Y-148337557D02*
G01*
X207459040Y-148353480D01*
X207529922Y-148377392D01*
X207594634Y-148413529D01*
X207648561Y-148460085D01*
X207692863Y-148517892D01*
X207725975Y-148583053D01*
X207745336Y-148648833D01*
X207751756Y-148716279D01*
X207745981Y-148779130D01*
X207728712Y-148839354D01*
X207699457Y-148897904D01*
X207659880Y-148949760D01*
X207607940Y-148995489D01*
X207541737Y-149035290D01*
X207627914Y-149069531D01*
X207696872Y-149115160D01*
X207751298Y-149172219D01*
X207791679Y-149239875D01*
X207816138Y-149315352D01*
X207824571Y-149400739D01*
X207813301Y-149503523D01*
X207779966Y-149597843D01*
X207728648Y-149680350D01*
X207669782Y-149738343D01*
X207598140Y-149780650D01*
X207505284Y-149812990D01*
X207400757Y-149831299D01*
X207263026Y-149838178D01*
X206690215Y-149838178D01*
X206690215Y-149663788D01*
X206889060Y-149663788D01*
X207263026Y-149663788D01*
X207398306Y-149656461D01*
X207463079Y-149639177D01*
X207512978Y-149614878D01*
X207554330Y-149579878D01*
X207588815Y-149530065D01*
X207610872Y-149471223D01*
X207618582Y-149401471D01*
X207613585Y-149345906D01*
X207599151Y-149296898D01*
X207575535Y-149253185D01*
X207543316Y-149215520D01*
X207503878Y-149186182D01*
X207456100Y-149164708D01*
X207371279Y-149146552D01*
X207236373Y-149139154D01*
X206889060Y-149139154D01*
X206889060Y-149663788D01*
X206690215Y-149663788D01*
X206690215Y-148964765D01*
X206889060Y-148964765D01*
X207213841Y-148964765D01*
X207336670Y-148959440D01*
X207403435Y-148947180D01*
X207471314Y-148915947D01*
X207517649Y-148871617D01*
X207546009Y-148813727D01*
X207556117Y-148739085D01*
X207546892Y-148667070D01*
X207520214Y-148606003D01*
X207492883Y-148571711D01*
X207459067Y-148545686D01*
X207417723Y-148527326D01*
X207339234Y-148512585D01*
X207189203Y-148506077D01*
X206889060Y-148506077D01*
X206889060Y-148964765D01*
X206690215Y-148964765D01*
X206690215Y-148331688D01*
X207253775Y-148331688D01*
X207368423Y-148337557D01*
G37*
G36*
X208859903Y-148314664D02*
G01*
X208956109Y-148333505D01*
X209046434Y-148364445D01*
X209131758Y-148407617D01*
X209210434Y-148462250D01*
X209278643Y-148526173D01*
X209337168Y-148599963D01*
X209386382Y-148684588D01*
X209434320Y-148805793D01*
X209463837Y-148939350D01*
X209474034Y-149087497D01*
X209463333Y-149237472D01*
X209432311Y-149372897D01*
X209381802Y-149496085D01*
X209330117Y-149581840D01*
X209269641Y-149655197D01*
X209200050Y-149717325D01*
X209120584Y-149768935D01*
X209004927Y-149820421D01*
X208883889Y-149851229D01*
X208755777Y-149861625D01*
X208650588Y-149854975D01*
X208553053Y-149835519D01*
X208462039Y-149803638D01*
X208376590Y-149759226D01*
X208297873Y-149703119D01*
X208229925Y-149638238D01*
X208171943Y-149564059D01*
X208123524Y-149479690D01*
X208075697Y-149359170D01*
X208047123Y-149234699D01*
X208037717Y-149107556D01*
X208242409Y-149107556D01*
X208252575Y-149243173D01*
X208281221Y-149357553D01*
X208326596Y-149454369D01*
X208388405Y-149536477D01*
X208466511Y-149605301D01*
X208552372Y-149653656D01*
X208647652Y-149682992D01*
X208754770Y-149693097D01*
X208864001Y-149682821D01*
X208960392Y-149653090D01*
X209046520Y-149604251D01*
X209124156Y-149534919D01*
X209184831Y-149452299D01*
X209229960Y-149352409D01*
X209258806Y-149231757D01*
X209269145Y-149085940D01*
X209261760Y-148964623D01*
X209240700Y-148858362D01*
X209207138Y-148765005D01*
X209158686Y-148679329D01*
X209098474Y-148609021D01*
X209025788Y-148552331D01*
X208943446Y-148510538D01*
X208854685Y-148485355D01*
X208757792Y-148476768D01*
X208655014Y-148486027D01*
X208561406Y-148513131D01*
X208475046Y-148558063D01*
X208394542Y-148622123D01*
X208344122Y-148681603D01*
X208302714Y-148756517D01*
X208270851Y-148849873D01*
X208249990Y-148965429D01*
X208242409Y-149107556D01*
X208037717Y-149107556D01*
X208037520Y-149104899D01*
X208046598Y-148953276D01*
X208072387Y-148821565D01*
X208113296Y-148706920D01*
X208168563Y-148606931D01*
X208238288Y-148519724D01*
X208322919Y-148443880D01*
X208415691Y-148385388D01*
X208517762Y-148343212D01*
X208630778Y-148317229D01*
X208756785Y-148308240D01*
X208859903Y-148314664D01*
G37*
G36*
X210112699Y-149838178D02*
G01*
X210112699Y-148506077D01*
X209617741Y-148506077D01*
X209617741Y-148331688D01*
X210808424Y-148331688D01*
X210808424Y-148506077D01*
X210311451Y-148506077D01*
X210311451Y-149838178D01*
X210112699Y-149838178D01*
G37*
G36*
X211394974Y-149838178D02*
G01*
X211394974Y-148506077D01*
X210900016Y-148506077D01*
X210900016Y-148331688D01*
X212090699Y-148331688D01*
X212090699Y-148506077D01*
X211593726Y-148506077D01*
X211593726Y-149838178D01*
X211394974Y-149838178D01*
G37*
G36*
X213018870Y-148314664D02*
G01*
X213115076Y-148333505D01*
X213205402Y-148364445D01*
X213290726Y-148407617D01*
X213369401Y-148462250D01*
X213437610Y-148526173D01*
X213496136Y-148599963D01*
X213545349Y-148684588D01*
X213593287Y-148805793D01*
X213622805Y-148939350D01*
X213633001Y-149087497D01*
X213622300Y-149237472D01*
X213591278Y-149372897D01*
X213540769Y-149496085D01*
X213489085Y-149581840D01*
X213428608Y-149655197D01*
X213359017Y-149717325D01*
X213279551Y-149768935D01*
X213163894Y-149820421D01*
X213042857Y-149851229D01*
X212914744Y-149861625D01*
X212809555Y-149854975D01*
X212712020Y-149835519D01*
X212621007Y-149803638D01*
X212535557Y-149759226D01*
X212456840Y-149703119D01*
X212388892Y-149638238D01*
X212330910Y-149564059D01*
X212282491Y-149479690D01*
X212234665Y-149359170D01*
X212206090Y-149234699D01*
X212196684Y-149107556D01*
X212401376Y-149107556D01*
X212411542Y-149243173D01*
X212440188Y-149357553D01*
X212485564Y-149454369D01*
X212547372Y-149536477D01*
X212625479Y-149605301D01*
X212711339Y-149653656D01*
X212806619Y-149682992D01*
X212913737Y-149693097D01*
X213022968Y-149682821D01*
X213119359Y-149653090D01*
X213205488Y-149604251D01*
X213283124Y-149534919D01*
X213343799Y-149452299D01*
X213388927Y-149352409D01*
X213417773Y-149231757D01*
X213428112Y-149085940D01*
X213420727Y-148964623D01*
X213399667Y-148858362D01*
X213366105Y-148765005D01*
X213317653Y-148679329D01*
X213257441Y-148609021D01*
X213184755Y-148552331D01*
X213102413Y-148510538D01*
X213013652Y-148485355D01*
X212916759Y-148476768D01*
X212813982Y-148486027D01*
X212720373Y-148513131D01*
X212634013Y-148558063D01*
X212553509Y-148622123D01*
X212503089Y-148681603D01*
X212461681Y-148756517D01*
X212429818Y-148849873D01*
X212408957Y-148965429D01*
X212401376Y-149107556D01*
X212196684Y-149107556D01*
X212196487Y-149104899D01*
X212205565Y-148953276D01*
X212231354Y-148821565D01*
X212272263Y-148706920D01*
X212327530Y-148606931D01*
X212397255Y-148519724D01*
X212481886Y-148443880D01*
X212574658Y-148385388D01*
X212676729Y-148343212D01*
X212789745Y-148317229D01*
X212915752Y-148308240D01*
X213018870Y-148314664D01*
G37*
G36*
X213883320Y-149838178D02*
G01*
X213883320Y-148331688D01*
X214182456Y-148331688D01*
X214538013Y-149398815D01*
X214609729Y-149621931D01*
X214689688Y-149380314D01*
X215049366Y-148331688D01*
X215316812Y-148331688D01*
X215316812Y-149838178D01*
X215125203Y-149838178D01*
X215125203Y-148576602D01*
X214688680Y-149838178D01*
X214509345Y-149838178D01*
X214074928Y-148555078D01*
X214074928Y-149838178D01*
X213883320Y-149838178D01*
G37*
G36*
X197956091Y-154350613D02*
G01*
X198154844Y-154400805D01*
X198115411Y-154520447D01*
X198064529Y-154620758D01*
X198002762Y-154704407D01*
X197929896Y-154773397D01*
X197845703Y-154828684D01*
X197752603Y-154868536D01*
X197648992Y-154893109D01*
X197532849Y-154901625D01*
X197410360Y-154894665D01*
X197305308Y-154875029D01*
X197215178Y-154844142D01*
X197137817Y-154802798D01*
X197067375Y-154748776D01*
X197005539Y-154683799D01*
X196951846Y-154606831D01*
X196906274Y-154516393D01*
X196862421Y-154389251D01*
X196835871Y-154255450D01*
X196826865Y-154113667D01*
X196837474Y-153959338D01*
X196867827Y-153823870D01*
X196916533Y-153704346D01*
X196966807Y-153621234D01*
X197025796Y-153549950D01*
X197093840Y-153489396D01*
X197171705Y-153438915D01*
X197285004Y-153388791D01*
X197405810Y-153358533D01*
X197535963Y-153348240D01*
X197648058Y-153355910D01*
X197747368Y-153377944D01*
X197835840Y-153413439D01*
X197915058Y-153462271D01*
X197985054Y-153523957D01*
X198043842Y-153596983D01*
X198091938Y-153682637D01*
X198129198Y-153782748D01*
X197933560Y-153828910D01*
X197890753Y-153724705D01*
X197839992Y-153647157D01*
X197781885Y-153591231D01*
X197712175Y-153550826D01*
X197629845Y-153525660D01*
X197531841Y-153516768D01*
X197419005Y-153526696D01*
X197323603Y-153554841D01*
X197242322Y-153600024D01*
X197172646Y-153661658D01*
X197118480Y-153735518D01*
X197078924Y-153823415D01*
X197052773Y-153917850D01*
X197037098Y-154014053D01*
X197031846Y-154112568D01*
X197038538Y-154239831D01*
X197057548Y-154350952D01*
X197087625Y-154448066D01*
X197132919Y-154537334D01*
X197190600Y-154607844D01*
X197261281Y-154662206D01*
X197342269Y-154701683D01*
X197426878Y-154725184D01*
X197516454Y-154733097D01*
X197598872Y-154726743D01*
X197672554Y-154708370D01*
X197738976Y-154678459D01*
X197799287Y-154636743D01*
X197850474Y-154585175D01*
X197893796Y-154521630D01*
X197929225Y-154444247D01*
X197956091Y-154350613D01*
G37*
G36*
X199102445Y-154284667D02*
G01*
X199102445Y-154110278D01*
X199738820Y-154109270D01*
X199738820Y-154667152D01*
X199638076Y-154739833D01*
X199537438Y-154798006D01*
X199436478Y-154842732D01*
X199331376Y-154875545D01*
X199225069Y-154895098D01*
X199116825Y-154901625D01*
X198971615Y-154890766D01*
X198838211Y-154859024D01*
X198714557Y-154806828D01*
X198629049Y-154753681D01*
X198555683Y-154690703D01*
X198493370Y-154617400D01*
X198441524Y-154532788D01*
X198390829Y-154410267D01*
X198359899Y-154277388D01*
X198349292Y-154132077D01*
X198359643Y-153988018D01*
X198390220Y-153852114D01*
X198440974Y-153722756D01*
X198493041Y-153632134D01*
X198554120Y-153555784D01*
X198624463Y-153492208D01*
X198704848Y-153440473D01*
X198822823Y-153390087D01*
X198954163Y-153359012D01*
X199101437Y-153348240D01*
X199209066Y-153354360D01*
X199306827Y-153372075D01*
X199395994Y-153400722D01*
X199479753Y-153441649D01*
X199547870Y-153490416D01*
X199602441Y-153546993D01*
X199646541Y-153612585D01*
X199684712Y-153693221D01*
X199716288Y-153791449D01*
X199536953Y-153840634D01*
X199496980Y-153734145D01*
X199452872Y-153660841D01*
X199415997Y-153621354D01*
X199368757Y-153586435D01*
X199309441Y-153556152D01*
X199212560Y-153526899D01*
X199102445Y-153516768D01*
X199012262Y-153521780D01*
X198934277Y-153535966D01*
X198866781Y-153558350D01*
X198775333Y-153607623D01*
X198706405Y-153667710D01*
X198652048Y-153739060D01*
X198611608Y-153816454D01*
X198580041Y-153911076D01*
X198560822Y-154011667D01*
X198554272Y-154119254D01*
X198562744Y-154252069D01*
X198586425Y-154363143D01*
X198623424Y-154456034D01*
X198677052Y-154539241D01*
X198743729Y-154605711D01*
X198824741Y-154657168D01*
X198914808Y-154693679D01*
X199008055Y-154715500D01*
X199105559Y-154722839D01*
X199190660Y-154717366D01*
X199274434Y-154700940D01*
X199357526Y-154673288D01*
X199471145Y-154618928D01*
X199544097Y-154567501D01*
X199544097Y-154284667D01*
X199102445Y-154284667D01*
G37*
G36*
X199964409Y-154390547D02*
G01*
X200151987Y-154374060D01*
X200165588Y-154449358D01*
X200186500Y-154511527D01*
X200213903Y-154562646D01*
X200250699Y-154607009D01*
X200300284Y-154646736D01*
X200365028Y-154681806D01*
X200434693Y-154706630D01*
X200511195Y-154721946D01*
X200595654Y-154727235D01*
X200705225Y-154718335D01*
X200796422Y-154693347D01*
X200851728Y-154666659D01*
X200894235Y-154635631D01*
X200926023Y-154600382D01*
X200958078Y-154538193D01*
X200968613Y-154471330D01*
X200958205Y-154404499D01*
X200927580Y-154347590D01*
X200876923Y-154301300D01*
X200792392Y-154258656D01*
X200713509Y-154233547D01*
X200524946Y-154185199D01*
X200334406Y-154131961D01*
X200234969Y-154091135D01*
X200167109Y-154048806D01*
X200114349Y-154002100D01*
X200074593Y-153950910D01*
X200045400Y-153893172D01*
X200027824Y-153831069D01*
X200021836Y-153763423D01*
X200028960Y-153689216D01*
X200050240Y-153618551D01*
X200086316Y-153550199D01*
X200134974Y-153490367D01*
X200197141Y-153440287D01*
X200274902Y-153399623D01*
X200358996Y-153371505D01*
X200450508Y-153354198D01*
X200550591Y-153348240D01*
X200660895Y-153354624D01*
X200758507Y-153372895D01*
X200845148Y-153402096D01*
X200925103Y-153444531D01*
X200989859Y-153497140D01*
X201041336Y-153560365D01*
X201079858Y-153632554D01*
X201104465Y-153710935D01*
X201115159Y-153796945D01*
X200924558Y-153811325D01*
X200904959Y-153720362D01*
X200870048Y-153649880D01*
X200820510Y-153595628D01*
X200757284Y-153557305D01*
X200672193Y-153532038D01*
X200558743Y-153522630D01*
X200439691Y-153531512D01*
X200354912Y-153554737D01*
X200295877Y-153588758D01*
X200249008Y-153637348D01*
X200222344Y-153689822D01*
X200213445Y-153748218D01*
X200220097Y-153799590D01*
X200239387Y-153843387D01*
X200271880Y-153881484D01*
X200315867Y-153909683D01*
X200407220Y-153945143D01*
X200571566Y-153988645D01*
X200794119Y-154045384D01*
X200904041Y-154084449D01*
X200987181Y-154130606D01*
X201050691Y-154181731D01*
X201097665Y-154237773D01*
X201132146Y-154302097D01*
X201153044Y-154372816D01*
X201160222Y-154451546D01*
X201152675Y-154529563D01*
X201130046Y-154604517D01*
X201091528Y-154677685D01*
X201040065Y-154742203D01*
X200974970Y-154797091D01*
X200894333Y-154842732D01*
X200806828Y-154874935D01*
X200710803Y-154894777D01*
X200604813Y-154901625D01*
X200469643Y-154894247D01*
X200356890Y-154873709D01*
X200263087Y-154841907D01*
X200176997Y-154794772D01*
X200105491Y-154735108D01*
X200046932Y-154662114D01*
X200003145Y-154579125D01*
X199975639Y-154489165D01*
X199964409Y-154390547D01*
G37*
G36*
X201336260Y-154426817D02*
G01*
X201336260Y-154239238D01*
X201902933Y-154239238D01*
X201902933Y-154426817D01*
X201336260Y-154426817D01*
G37*
G36*
X202838006Y-153375841D02*
G01*
X202925731Y-153385976D01*
X203029874Y-153413633D01*
X203111203Y-153456043D01*
X203156999Y-153494245D01*
X203197063Y-153542053D01*
X203231553Y-153600757D01*
X203256687Y-153664119D01*
X203271956Y-153731957D01*
X203277166Y-153805188D01*
X203269236Y-153898916D01*
X203246215Y-153982984D01*
X203208460Y-154059190D01*
X203155258Y-154128871D01*
X203105504Y-154171878D01*
X203040347Y-154207727D01*
X202956407Y-154235752D01*
X202849483Y-154254373D01*
X202714705Y-154261220D01*
X202329381Y-154261220D01*
X202329381Y-154878178D01*
X202130629Y-154878178D01*
X202130629Y-154086831D01*
X202329381Y-154086831D01*
X202717728Y-154086831D01*
X202817167Y-154081131D01*
X202892839Y-154065890D01*
X202949555Y-154043306D01*
X202991310Y-154014657D01*
X203035340Y-153961550D01*
X203062551Y-153895112D01*
X203072277Y-153811325D01*
X203066698Y-153749520D01*
X203050689Y-153695847D01*
X203024649Y-153648751D01*
X202989222Y-153608509D01*
X202947702Y-153579035D01*
X202899078Y-153559449D01*
X202838313Y-153550260D01*
X202713606Y-153546077D01*
X202329381Y-153546077D01*
X202329381Y-154086831D01*
X202130629Y-154086831D01*
X202130629Y-153371688D01*
X202697211Y-153371688D01*
X202838006Y-153375841D01*
G37*
G36*
X203462455Y-154390547D02*
G01*
X203650033Y-154374060D01*
X203663634Y-154449358D01*
X203684546Y-154511527D01*
X203711949Y-154562646D01*
X203748745Y-154607009D01*
X203798330Y-154646736D01*
X203863074Y-154681806D01*
X203932739Y-154706630D01*
X204009241Y-154721946D01*
X204093700Y-154727235D01*
X204203271Y-154718335D01*
X204294468Y-154693347D01*
X204349774Y-154666659D01*
X204392281Y-154635631D01*
X204424069Y-154600382D01*
X204456124Y-154538193D01*
X204466659Y-154471330D01*
X204456251Y-154404499D01*
X204425626Y-154347590D01*
X204374969Y-154301300D01*
X204290438Y-154258656D01*
X204211555Y-154233547D01*
X204022992Y-154185199D01*
X203832453Y-154131961D01*
X203733015Y-154091135D01*
X203665155Y-154048806D01*
X203612395Y-154002100D01*
X203572639Y-153950910D01*
X203543447Y-153893172D01*
X203525870Y-153831069D01*
X203519882Y-153763423D01*
X203527006Y-153689216D01*
X203548286Y-153618551D01*
X203584362Y-153550199D01*
X203633020Y-153490367D01*
X203695187Y-153440287D01*
X203772948Y-153399623D01*
X203857042Y-153371505D01*
X203948554Y-153354198D01*
X204048637Y-153348240D01*
X204158941Y-153354624D01*
X204256553Y-153372895D01*
X204343194Y-153402096D01*
X204423149Y-153444531D01*
X204487905Y-153497140D01*
X204539382Y-153560365D01*
X204577904Y-153632554D01*
X204602511Y-153710935D01*
X204613205Y-153796945D01*
X204422604Y-153811325D01*
X204403005Y-153720362D01*
X204368094Y-153649880D01*
X204318556Y-153595628D01*
X204255330Y-153557305D01*
X204170239Y-153532038D01*
X204056789Y-153522630D01*
X203937737Y-153531512D01*
X203852958Y-153554737D01*
X203793923Y-153588758D01*
X203747054Y-153637348D01*
X203720390Y-153689822D01*
X203711491Y-153748218D01*
X203718143Y-153799590D01*
X203737433Y-153843387D01*
X203769926Y-153881484D01*
X203813913Y-153909683D01*
X203905266Y-153945143D01*
X204069612Y-153988645D01*
X204292165Y-154045384D01*
X204402087Y-154084449D01*
X204485227Y-154130606D01*
X204548737Y-154181731D01*
X204595711Y-154237773D01*
X204630192Y-154302097D01*
X204651090Y-154372816D01*
X204658268Y-154451546D01*
X204650721Y-154529563D01*
X204628092Y-154604517D01*
X204589574Y-154677685D01*
X204538111Y-154742203D01*
X204473016Y-154797091D01*
X204392379Y-154842732D01*
X204304874Y-154874935D01*
X204208849Y-154894777D01*
X204102859Y-154901625D01*
X203967689Y-154894247D01*
X203854936Y-154873709D01*
X203761133Y-154841907D01*
X203675043Y-154794772D01*
X203603537Y-154735108D01*
X203544978Y-154662114D01*
X203501191Y-154579125D01*
X203473685Y-154489165D01*
X203462455Y-154390547D01*
G37*
G36*
X204923515Y-154878178D02*
G01*
X204923515Y-153371688D01*
X205222652Y-153371688D01*
X205578208Y-154438815D01*
X205649924Y-154661931D01*
X205729883Y-154420314D01*
X206089561Y-153371688D01*
X206357007Y-153371688D01*
X206357007Y-154878178D01*
X206165399Y-154878178D01*
X206165399Y-153616602D01*
X205728876Y-154878178D01*
X205549540Y-154878178D01*
X205115124Y-153595078D01*
X205115124Y-154878178D01*
X204923515Y-154878178D01*
G37*
G36*
X206582596Y-154426817D02*
G01*
X206582596Y-154239238D01*
X207149270Y-154239238D01*
X207149270Y-154426817D01*
X206582596Y-154426817D01*
G37*
G36*
X207871351Y-153371551D02*
G01*
X207941540Y-153388002D01*
X208003998Y-153414552D01*
X208060910Y-153451539D01*
X208110965Y-153498098D01*
X208154665Y-153555145D01*
X208206381Y-153653814D01*
X208247905Y-153778810D01*
X208272117Y-153922110D01*
X208281702Y-154134275D01*
X208274692Y-154311233D01*
X208255703Y-154451622D01*
X208227388Y-154561547D01*
X208183402Y-154665144D01*
X208129186Y-154747863D01*
X208064997Y-154812873D01*
X207988625Y-154861241D01*
X207898770Y-154891112D01*
X207791964Y-154901625D01*
X207686266Y-154891284D01*
X207596069Y-154861732D01*
X207518229Y-154813647D01*
X207450696Y-154745645D01*
X207402603Y-154671520D01*
X207362181Y-154577613D01*
X207330595Y-154459953D01*
X207309739Y-154313907D01*
X207302135Y-154134275D01*
X207302157Y-154133725D01*
X207491729Y-154133725D01*
X207499329Y-154330992D01*
X207518880Y-154470056D01*
X207546206Y-154564385D01*
X207578282Y-154625478D01*
X207626403Y-154681138D01*
X207677348Y-154718521D01*
X207731993Y-154740383D01*
X207791964Y-154747752D01*
X207851856Y-154740361D01*
X207906457Y-154718420D01*
X207957400Y-154680877D01*
X208005555Y-154624928D01*
X208037706Y-154563575D01*
X208065059Y-154469154D01*
X208084607Y-154330303D01*
X208092200Y-154133725D01*
X208084578Y-153935837D01*
X208064986Y-153796591D01*
X208037631Y-153702360D01*
X208005555Y-153641515D01*
X207957480Y-153586232D01*
X207906231Y-153548968D01*
X207850910Y-153527094D01*
X207789858Y-153519699D01*
X207729092Y-153526519D01*
X207676092Y-153546309D01*
X207629062Y-153579264D01*
X207586984Y-153627135D01*
X207550900Y-153695656D01*
X207520873Y-153796077D01*
X207499804Y-153938272D01*
X207491729Y-154133725D01*
X207302157Y-154133725D01*
X207309222Y-153955816D01*
X207328388Y-153814802D01*
X207356907Y-153704896D01*
X207401237Y-153601308D01*
X207455639Y-153518786D01*
X207519847Y-153454120D01*
X207596227Y-153405971D01*
X207685804Y-153376267D01*
X207791964Y-153365826D01*
X207871351Y-153371551D01*
G37*
G36*
X209163357Y-154878178D02*
G01*
X208978893Y-154878178D01*
X208978893Y-153699767D01*
X208905491Y-153760838D01*
X208804229Y-153827170D01*
X208697662Y-153884832D01*
X208610056Y-153922699D01*
X208610056Y-153746845D01*
X208710380Y-153693474D01*
X208800263Y-153634110D01*
X208880524Y-153568792D01*
X208954158Y-153495410D01*
X209007712Y-153428043D01*
X209044472Y-153365826D01*
X209163357Y-153365826D01*
X209163357Y-154878178D01*
G37*
G36*
X195469476Y-155897148D02*
G01*
X195568796Y-155911465D01*
X195640028Y-155931988D01*
X195704597Y-155965425D01*
X195759920Y-156012347D01*
X195806998Y-156074320D01*
X195841686Y-156144490D01*
X195862495Y-156219159D01*
X195869555Y-156299634D01*
X195862829Y-156377505D01*
X195843308Y-156447211D01*
X195811271Y-156510300D01*
X195766057Y-156567904D01*
X195711541Y-156614541D01*
X195642141Y-156653677D01*
X195554958Y-156684791D01*
X195446404Y-156706573D01*
X195519392Y-156746974D01*
X195566205Y-156782228D01*
X195648961Y-156870709D01*
X195731253Y-156984461D01*
X195992470Y-157398178D01*
X195742518Y-157398178D01*
X195543674Y-157081639D01*
X195400242Y-156872078D01*
X195343211Y-156806656D01*
X195299309Y-156770321D01*
X195253700Y-156745399D01*
X195208634Y-156729837D01*
X195097992Y-156722602D01*
X194867457Y-156722602D01*
X194867457Y-157398178D01*
X194668613Y-157398178D01*
X194668613Y-156554074D01*
X194867457Y-156554074D01*
X195294730Y-156554074D01*
X195423307Y-156546112D01*
X195507862Y-156526139D01*
X195555932Y-156503144D01*
X195594412Y-156473351D01*
X195624641Y-156436471D01*
X195654631Y-156372040D01*
X195664574Y-156302565D01*
X195655780Y-156235462D01*
X195630255Y-156178246D01*
X195587180Y-156128451D01*
X195531363Y-156093029D01*
X195452470Y-156069236D01*
X195342906Y-156060215D01*
X194867457Y-156060215D01*
X194867457Y-156554074D01*
X194668613Y-156554074D01*
X194668613Y-155891688D01*
X195334663Y-155891688D01*
X195469476Y-155897148D01*
G37*
G36*
X196184903Y-157398178D02*
G01*
X196184903Y-155891688D01*
X197271082Y-155891688D01*
X197271082Y-156066077D01*
X196383747Y-156066077D01*
X196383747Y-156530627D01*
X197214753Y-156530627D01*
X197214753Y-156705016D01*
X196383747Y-156705016D01*
X196383747Y-157223788D01*
X197305978Y-157223788D01*
X197305978Y-157398178D01*
X196184903Y-157398178D01*
G37*
G36*
X198009672Y-157398178D02*
G01*
X197427702Y-155891688D01*
X197642850Y-155891688D01*
X198033302Y-156986476D01*
X198112162Y-157233222D01*
X198193129Y-156986476D01*
X198598877Y-155891688D01*
X198801752Y-155891688D01*
X198213645Y-157398178D01*
X198009672Y-157398178D01*
G37*
G36*
X198768779Y-156946817D02*
G01*
X198768779Y-156759238D01*
X199335453Y-156759238D01*
X199335453Y-156946817D01*
X198768779Y-156946817D01*
G37*
G36*
X200804024Y-157398178D02*
G01*
X200577519Y-157398178D01*
X200402305Y-156940955D01*
X199774174Y-156940955D01*
X199609218Y-157398178D01*
X199398101Y-157398178D01*
X199636057Y-156776824D01*
X199831601Y-156776824D01*
X200340848Y-156776824D01*
X200184044Y-156360909D01*
X200118525Y-156179413D01*
X200077524Y-156049499D01*
X200043093Y-156192921D01*
X199996557Y-156336362D01*
X199831601Y-156776824D01*
X199636057Y-156776824D01*
X199975033Y-155891688D01*
X200189173Y-155891688D01*
X200804024Y-157398178D01*
G37*
G36*
X201924527Y-155891551D02*
G01*
X201994715Y-155908002D01*
X202057173Y-155934552D01*
X202114085Y-155971539D01*
X202164140Y-156018098D01*
X202207840Y-156075145D01*
X202259557Y-156173814D01*
X202301080Y-156298810D01*
X202325292Y-156442110D01*
X202334877Y-156654275D01*
X202327868Y-156831233D01*
X202308878Y-156971622D01*
X202280563Y-157081547D01*
X202236578Y-157185144D01*
X202182361Y-157267863D01*
X202118173Y-157332873D01*
X202041800Y-157381241D01*
X201951945Y-157411112D01*
X201845140Y-157421625D01*
X201739442Y-157411284D01*
X201649245Y-157381732D01*
X201571404Y-157333647D01*
X201503871Y-157265645D01*
X201455778Y-157191520D01*
X201415356Y-157097613D01*
X201383770Y-156979953D01*
X201362914Y-156833907D01*
X201355311Y-156654275D01*
X201355333Y-156653725D01*
X201544904Y-156653725D01*
X201552504Y-156850992D01*
X201572055Y-156990056D01*
X201599381Y-157084385D01*
X201631458Y-157145478D01*
X201679578Y-157201138D01*
X201730523Y-157238521D01*
X201785169Y-157260383D01*
X201845140Y-157267752D01*
X201905031Y-157260361D01*
X201959633Y-157238420D01*
X202010575Y-157200877D01*
X202058730Y-157144928D01*
X202090881Y-157083575D01*
X202118235Y-156989154D01*
X202137783Y-156850303D01*
X202145375Y-156653725D01*
X202137753Y-156455837D01*
X202118161Y-156316591D01*
X202090806Y-156222360D01*
X202058730Y-156161515D01*
X202010655Y-156106232D01*
X201959406Y-156068968D01*
X201904086Y-156047094D01*
X201843033Y-156039699D01*
X201782267Y-156046519D01*
X201729267Y-156066309D01*
X201682237Y-156099264D01*
X201640159Y-156147135D01*
X201604075Y-156215656D01*
X201574048Y-156316077D01*
X201552979Y-156458272D01*
X201544904Y-156653725D01*
X201355333Y-156653725D01*
X201362398Y-156475816D01*
X201381563Y-156334802D01*
X201410082Y-156224896D01*
X201454412Y-156121308D01*
X201508814Y-156038786D01*
X201573022Y-155974120D01*
X201649402Y-155925971D01*
X201738979Y-155896267D01*
X201845140Y-155885826D01*
X201924527Y-155891551D01*
G37*
G36*
X203108964Y-155893589D02*
G01*
X203192669Y-155915692D01*
X203265142Y-155951158D01*
X203328182Y-156000131D01*
X203381189Y-156061123D01*
X203418183Y-156126946D01*
X203440457Y-156198749D01*
X203448075Y-156278202D01*
X203441737Y-156346109D01*
X203423381Y-156406223D01*
X203393212Y-156460102D01*
X203352129Y-156506150D01*
X203297519Y-156545969D01*
X203226791Y-156579445D01*
X203314035Y-156617027D01*
X203383307Y-156665601D01*
X203437359Y-156725258D01*
X203476974Y-156795451D01*
X203501210Y-156874817D01*
X203509624Y-156965593D01*
X203500869Y-157059512D01*
X203475382Y-157143683D01*
X203433291Y-157220110D01*
X203373336Y-157290192D01*
X203301522Y-157346620D01*
X203219250Y-157387384D01*
X203124520Y-157412734D01*
X203014666Y-157421625D01*
X202904845Y-157412702D01*
X202810127Y-157387258D01*
X202727844Y-157346328D01*
X202655995Y-157289642D01*
X202596278Y-157219384D01*
X202554193Y-157142187D01*
X202528614Y-157056577D01*
X202519883Y-156961380D01*
X202709301Y-156961380D01*
X202718533Y-157038253D01*
X202746670Y-157113512D01*
X202775681Y-157158869D01*
X202812479Y-157196624D01*
X202857862Y-157227452D01*
X202934388Y-157257648D01*
X203016772Y-157267752D01*
X203101401Y-157257935D01*
X203173145Y-157229725D01*
X203234942Y-157183030D01*
X203282477Y-157121894D01*
X203311096Y-157051007D01*
X203321038Y-156967425D01*
X203310840Y-156882680D01*
X203281411Y-156810482D01*
X203232378Y-156747881D01*
X203168828Y-156699902D01*
X203095833Y-156671049D01*
X203010544Y-156661053D01*
X202927405Y-156670931D01*
X202856454Y-156699435D01*
X202794847Y-156746873D01*
X202747504Y-156808489D01*
X202719118Y-156879072D01*
X202709301Y-156961380D01*
X202519883Y-156961380D01*
X202519799Y-156960464D01*
X202528600Y-156865044D01*
X202553640Y-156784006D01*
X202594080Y-156714542D01*
X202649415Y-156656422D01*
X202719030Y-156611448D01*
X202805655Y-156579445D01*
X202732885Y-156545794D01*
X202677134Y-156505774D01*
X202635570Y-156459552D01*
X202605282Y-156405290D01*
X202586709Y-156343715D01*
X202580249Y-156273073D01*
X202580796Y-156267303D01*
X202768744Y-156267303D01*
X202776714Y-156334875D01*
X202799559Y-156391661D01*
X202837346Y-156440135D01*
X202886745Y-156476866D01*
X202945316Y-156499300D01*
X203015673Y-156507180D01*
X203084028Y-156499408D01*
X203141464Y-156477179D01*
X203190429Y-156440593D01*
X203228398Y-156392687D01*
X203250877Y-156338971D01*
X203258573Y-156277469D01*
X203250610Y-156213375D01*
X203227407Y-156157683D01*
X203188323Y-156108300D01*
X203138017Y-156070347D01*
X203080527Y-156047573D01*
X203013658Y-156039699D01*
X202946032Y-156047464D01*
X202888384Y-156069816D01*
X202838445Y-156106835D01*
X202799351Y-156155070D01*
X202776490Y-156207946D01*
X202768744Y-156267303D01*
X202580796Y-156267303D01*
X202587792Y-156193486D01*
X202609769Y-156122097D01*
X202646128Y-156057186D01*
X202698036Y-155997567D01*
X202759999Y-155949811D01*
X202831598Y-155915128D01*
X202914674Y-155893455D01*
X203011643Y-155885826D01*
X203108964Y-155893589D01*
G37*
G36*
X203601215Y-157421625D02*
G01*
X204036731Y-155868240D01*
X204184284Y-155868240D01*
X203749776Y-157421625D01*
X203601215Y-157421625D01*
G37*
G36*
X204840786Y-155891551D02*
G01*
X204910975Y-155908002D01*
X204973432Y-155934552D01*
X205030345Y-155971539D01*
X205080400Y-156018098D01*
X205124100Y-156075145D01*
X205175816Y-156173814D01*
X205217339Y-156298810D01*
X205241552Y-156442110D01*
X205251137Y-156654275D01*
X205244127Y-156831233D01*
X205225138Y-156971622D01*
X205196823Y-157081547D01*
X205152837Y-157185144D01*
X205098621Y-157267863D01*
X205034432Y-157332873D01*
X204958060Y-157381241D01*
X204868205Y-157411112D01*
X204761399Y-157421625D01*
X204655701Y-157411284D01*
X204565504Y-157381732D01*
X204487664Y-157333647D01*
X204420131Y-157265645D01*
X204372037Y-157191520D01*
X204331616Y-157097613D01*
X204300029Y-156979953D01*
X204279174Y-156833907D01*
X204271570Y-156654275D01*
X204271592Y-156653725D01*
X204461164Y-156653725D01*
X204468764Y-156850992D01*
X204488315Y-156990056D01*
X204515641Y-157084385D01*
X204547717Y-157145478D01*
X204595837Y-157201138D01*
X204646783Y-157238521D01*
X204701428Y-157260383D01*
X204761399Y-157267752D01*
X204821290Y-157260361D01*
X204875892Y-157238420D01*
X204926835Y-157200877D01*
X204974989Y-157144928D01*
X205007141Y-157083575D01*
X205034494Y-156989154D01*
X205054042Y-156850303D01*
X205061635Y-156653725D01*
X205054012Y-156455837D01*
X205034420Y-156316591D01*
X205007065Y-156222360D01*
X204974989Y-156161515D01*
X204926915Y-156106232D01*
X204875666Y-156068968D01*
X204820345Y-156047094D01*
X204759293Y-156039699D01*
X204698527Y-156046519D01*
X204645527Y-156066309D01*
X204598497Y-156099264D01*
X204556418Y-156147135D01*
X204520335Y-156215656D01*
X204490308Y-156316077D01*
X204469239Y-156458272D01*
X204461164Y-156653725D01*
X204271592Y-156653725D01*
X204278657Y-156475816D01*
X204297823Y-156334802D01*
X204326342Y-156224896D01*
X204370672Y-156121308D01*
X204425073Y-156038786D01*
X204489282Y-155974120D01*
X204565662Y-155925971D01*
X204655238Y-155896267D01*
X204761399Y-155885826D01*
X204840786Y-155891551D01*
G37*
G36*
X205438074Y-156999573D02*
G01*
X205631697Y-156983178D01*
X205653916Y-157074329D01*
X205687580Y-157143959D01*
X205731623Y-157196402D01*
X205787341Y-157235970D01*
X205849668Y-157259628D01*
X205920667Y-157267752D01*
X205985109Y-157261377D01*
X206043296Y-157242723D01*
X206096635Y-157211666D01*
X206146073Y-157167002D01*
X206185401Y-157114238D01*
X206214051Y-157053223D01*
X206231987Y-156982397D01*
X206238305Y-156899739D01*
X206232178Y-156821140D01*
X206214870Y-156754648D01*
X206187344Y-156698133D01*
X206149645Y-156649970D01*
X206085535Y-156599729D01*
X206009383Y-156569185D01*
X205917645Y-156558471D01*
X205832057Y-156568968D01*
X205756719Y-156599687D01*
X205692240Y-156647382D01*
X205644062Y-156706482D01*
X205470864Y-156683950D01*
X205616402Y-155909273D01*
X206363327Y-155909273D01*
X206363327Y-156083662D01*
X205763955Y-156083662D01*
X205682988Y-156492342D01*
X205776729Y-156437758D01*
X205870728Y-156406207D01*
X205966829Y-156395805D01*
X206062635Y-156404601D01*
X206148662Y-156430214D01*
X206226900Y-156472494D01*
X206298755Y-156532642D01*
X206357338Y-156605024D01*
X206399236Y-156686508D01*
X206425048Y-156778870D01*
X206434035Y-156884535D01*
X206426297Y-156985406D01*
X206403776Y-157077004D01*
X206366875Y-157160931D01*
X206315150Y-157238443D01*
X206253010Y-157304512D01*
X206183722Y-157355077D01*
X206106332Y-157391417D01*
X206019311Y-157413833D01*
X205920667Y-157421625D01*
X205819207Y-157413811D01*
X205731036Y-157391489D01*
X205653906Y-157355594D01*
X205586085Y-157306037D01*
X205528756Y-157244225D01*
X205485228Y-157173574D01*
X205454874Y-157092685D01*
X205438074Y-156999573D01*
G37*
G36*
X206517475Y-157421625D02*
G01*
X206952990Y-155868240D01*
X207100543Y-155868240D01*
X206666035Y-157421625D01*
X206517475Y-157421625D01*
G37*
G36*
X208157138Y-157223788D02*
G01*
X208157138Y-157398178D01*
X207164291Y-157398178D01*
X207168634Y-157332874D01*
X207185815Y-157270316D01*
X207233777Y-157172069D01*
X207307173Y-157070923D01*
X207402227Y-156971730D01*
X207548515Y-156843868D01*
X207710597Y-156703653D01*
X207816191Y-156599636D01*
X207879434Y-156524216D01*
X207929560Y-156442394D01*
X207956953Y-156368791D01*
X207965529Y-156301191D01*
X207956681Y-156231109D01*
X207930831Y-156169953D01*
X207887127Y-156115445D01*
X207830841Y-156074023D01*
X207763745Y-156048638D01*
X207682788Y-156039699D01*
X207597284Y-156049256D01*
X207527368Y-156076269D01*
X207469564Y-156120207D01*
X207426303Y-156178431D01*
X207398966Y-156251323D01*
X207388689Y-156343048D01*
X207199095Y-156323448D01*
X207216871Y-156217793D01*
X207247773Y-156130206D01*
X207290694Y-156057646D01*
X207345641Y-155997842D01*
X207411862Y-155950396D01*
X207489291Y-155915557D01*
X207580047Y-155893598D01*
X207686818Y-155885826D01*
X207794226Y-155894147D01*
X207885280Y-155917669D01*
X207962840Y-155955098D01*
X208029094Y-156006360D01*
X208084519Y-156070598D01*
X208123438Y-156140808D01*
X208147017Y-156218298D01*
X208155123Y-156304947D01*
X208146002Y-156394256D01*
X208118212Y-156483091D01*
X208071589Y-156569255D01*
X207995754Y-156667464D01*
X207893952Y-156770911D01*
X207711456Y-156933078D01*
X207561040Y-157063388D01*
X207498232Y-157123313D01*
X207454516Y-157174344D01*
X207420471Y-157223788D01*
X208157138Y-157223788D01*
G37*
G36*
X208923550Y-155891551D02*
G01*
X208993738Y-155908002D01*
X209056196Y-155934552D01*
X209113108Y-155971539D01*
X209163163Y-156018098D01*
X209206863Y-156075145D01*
X209258580Y-156173814D01*
X209300103Y-156298810D01*
X209324316Y-156442110D01*
X209333900Y-156654275D01*
X209326891Y-156831233D01*
X209307901Y-156971622D01*
X209279586Y-157081547D01*
X209235601Y-157185144D01*
X209181384Y-157267863D01*
X209117196Y-157332873D01*
X209040823Y-157381241D01*
X208950968Y-157411112D01*
X208844163Y-157421625D01*
X208738465Y-157411284D01*
X208648268Y-157381732D01*
X208570427Y-157333647D01*
X208502894Y-157265645D01*
X208454801Y-157191520D01*
X208414379Y-157097613D01*
X208382793Y-156979953D01*
X208361937Y-156833907D01*
X208354334Y-156654275D01*
X208354356Y-156653725D01*
X208543927Y-156653725D01*
X208551527Y-156850992D01*
X208571078Y-156990056D01*
X208598404Y-157084385D01*
X208630481Y-157145478D01*
X208678601Y-157201138D01*
X208729546Y-157238521D01*
X208784192Y-157260383D01*
X208844163Y-157267752D01*
X208904054Y-157260361D01*
X208958656Y-157238420D01*
X209009598Y-157200877D01*
X209057753Y-157144928D01*
X209089904Y-157083575D01*
X209117258Y-156989154D01*
X209136806Y-156850303D01*
X209144398Y-156653725D01*
X209136776Y-156455837D01*
X209117184Y-156316591D01*
X209089829Y-156222360D01*
X209057753Y-156161515D01*
X209009678Y-156106232D01*
X208958430Y-156068968D01*
X208903109Y-156047094D01*
X208842056Y-156039699D01*
X208781290Y-156046519D01*
X208728290Y-156066309D01*
X208681260Y-156099264D01*
X208639182Y-156147135D01*
X208603098Y-156215656D01*
X208573071Y-156316077D01*
X208552002Y-156458272D01*
X208543927Y-156653725D01*
X208354356Y-156653725D01*
X208361421Y-156475816D01*
X208380586Y-156334802D01*
X208409105Y-156224896D01*
X208453435Y-156121308D01*
X208507837Y-156038786D01*
X208572045Y-155974120D01*
X208648425Y-155925971D01*
X208738002Y-155896267D01*
X208844163Y-155885826D01*
X208923550Y-155891551D01*
G37*
G36*
X210490146Y-157223788D02*
G01*
X210490146Y-157398178D01*
X209497298Y-157398178D01*
X209501641Y-157332874D01*
X209518822Y-157270316D01*
X209566785Y-157172069D01*
X209640181Y-157070923D01*
X209735235Y-156971730D01*
X209881523Y-156843868D01*
X210043604Y-156703653D01*
X210149198Y-156599636D01*
X210212442Y-156524216D01*
X210262567Y-156442394D01*
X210289961Y-156368791D01*
X210298537Y-156301191D01*
X210289689Y-156231109D01*
X210263839Y-156169953D01*
X210220135Y-156115445D01*
X210163848Y-156074023D01*
X210096753Y-156048638D01*
X210015795Y-156039699D01*
X209930291Y-156049256D01*
X209860375Y-156076269D01*
X209802571Y-156120207D01*
X209759310Y-156178431D01*
X209731973Y-156251323D01*
X209721697Y-156343048D01*
X209532103Y-156323448D01*
X209549878Y-156217793D01*
X209580780Y-156130206D01*
X209623702Y-156057646D01*
X209678649Y-155997842D01*
X209744870Y-155950396D01*
X209822299Y-155915557D01*
X209913055Y-155893598D01*
X210019826Y-155885826D01*
X210127233Y-155894147D01*
X210218288Y-155917669D01*
X210295848Y-155955098D01*
X210362101Y-156006360D01*
X210417527Y-156070598D01*
X210456446Y-156140808D01*
X210480024Y-156218298D01*
X210488131Y-156304947D01*
X210479010Y-156394256D01*
X210451219Y-156483091D01*
X210404597Y-156569255D01*
X210328762Y-156667464D01*
X210226960Y-156770911D01*
X210044464Y-156933078D01*
X209894048Y-157063388D01*
X209831239Y-157123313D01*
X209787524Y-157174344D01*
X209753479Y-157223788D01*
X210490146Y-157223788D01*
G37*
G36*
X211305959Y-155892515D02*
G01*
X211382468Y-155911636D01*
X211449537Y-155942391D01*
X211508638Y-155984836D01*
X211558582Y-156037777D01*
X211597796Y-156099980D01*
X211626567Y-156172873D01*
X211644376Y-156258418D01*
X211461011Y-156272706D01*
X211428902Y-156175276D01*
X211391310Y-156117368D01*
X211337371Y-156074108D01*
X211276647Y-156048482D01*
X211206846Y-156039699D01*
X211149719Y-156045291D01*
X211098583Y-156061590D01*
X211052148Y-156088608D01*
X210999703Y-156135572D01*
X210953896Y-156196341D01*
X210914762Y-156273256D01*
X210888824Y-156355967D01*
X210870461Y-156468655D01*
X210862555Y-156618829D01*
X210911340Y-156555898D01*
X210965480Y-156506234D01*
X211025404Y-156468437D01*
X211091060Y-156440983D01*
X211158119Y-156424696D01*
X211227362Y-156419252D01*
X211316739Y-156427873D01*
X211397731Y-156453114D01*
X211472200Y-156495102D01*
X211541428Y-156555356D01*
X211597279Y-156626986D01*
X211637464Y-156708162D01*
X211662340Y-156800709D01*
X211671029Y-156907066D01*
X211664135Y-157000128D01*
X211643792Y-157087594D01*
X211610030Y-157170574D01*
X211563470Y-157246519D01*
X211507806Y-157308112D01*
X211442510Y-157356962D01*
X211369140Y-157392573D01*
X211289064Y-157414204D01*
X211200709Y-157421625D01*
X211088902Y-157410632D01*
X210990675Y-157378834D01*
X210903207Y-157326480D01*
X210824636Y-157251815D01*
X210777313Y-157184177D01*
X210737725Y-157098389D01*
X210706872Y-156990785D01*
X210694106Y-156906883D01*
X210891223Y-156906883D01*
X210901323Y-157000100D01*
X210931706Y-157089424D01*
X210963021Y-157143942D01*
X211000660Y-157187740D01*
X211044913Y-157222139D01*
X211120184Y-157256555D01*
X211197595Y-157267752D01*
X211271381Y-157257420D01*
X211337535Y-157226702D01*
X211398454Y-157173505D01*
X211443685Y-157106038D01*
X211472193Y-157022086D01*
X211482443Y-156917141D01*
X211472329Y-156816418D01*
X211444195Y-156736076D01*
X211399462Y-156671677D01*
X211339287Y-156621767D01*
X211270554Y-156592125D01*
X211190451Y-156581918D01*
X211110874Y-156592009D01*
X211041010Y-156621570D01*
X210978326Y-156671677D01*
X210930736Y-156736180D01*
X210901525Y-156813386D01*
X210891223Y-156906883D01*
X210694106Y-156906883D01*
X210686519Y-156857024D01*
X210679098Y-156692194D01*
X210687227Y-156508240D01*
X210709603Y-156357670D01*
X210743656Y-156235381D01*
X210787498Y-156136844D01*
X210840024Y-156058200D01*
X210900212Y-155996030D01*
X210966977Y-155948423D01*
X211041212Y-155914217D01*
X211124319Y-155893140D01*
X211218111Y-155885826D01*
X211305959Y-155892515D01*
G37*
D11*
%TO.C,J103*%
X152908400Y-85778178D03*
X152908400Y-107778178D03*
D12*
X157948400Y-90478178D03*
D13*
X157948400Y-94678178D03*
X157948400Y-98878178D03*
X157948400Y-103078178D03*
X152448400Y-90478178D03*
X152448400Y-94678178D03*
X152448400Y-98878178D03*
X152448400Y-103078178D03*
%TD*%
D14*
%TO.C,TP3*%
X185658400Y-83003178D03*
%TD*%
D11*
%TO.C,J101*%
X226334400Y-123344178D03*
X239934400Y-123344178D03*
D15*
X231034400Y-118304178D03*
D16*
X235234400Y-118304178D03*
X231034400Y-123804178D03*
X235234400Y-123804178D03*
%TD*%
D11*
%TO.C,J104*%
X176355400Y-123217178D03*
X189955400Y-123217178D03*
D15*
X181055400Y-118177178D03*
D16*
X185255400Y-118177178D03*
X181055400Y-123677178D03*
X185255400Y-123677178D03*
%TD*%
D11*
%TO.C,J106*%
X247944400Y-77727178D03*
X221744400Y-77727178D03*
D17*
X243244400Y-82767178D03*
D16*
X239044400Y-82767178D03*
X234844400Y-82767178D03*
X230644400Y-82767178D03*
X226444400Y-82767178D03*
X243244400Y-77267178D03*
X239044400Y-77267178D03*
X234844400Y-77267178D03*
X230644400Y-77267178D03*
X226444400Y-77267178D03*
%TD*%
D11*
%TO.C,J102*%
X220943400Y-32388178D03*
X207343400Y-32388178D03*
D17*
X216243400Y-37428178D03*
D16*
X212043400Y-37428178D03*
X216243400Y-31928178D03*
X212043400Y-31928178D03*
%TD*%
D18*
%TO.C,H4*%
X151715200Y-122478178D03*
%TD*%
D11*
%TO.C,J108*%
X152905168Y-67567672D03*
X152905168Y-81167672D03*
D12*
X157945168Y-72267672D03*
D13*
X157945168Y-76467672D03*
X152445168Y-72267672D03*
X152445168Y-76467672D03*
%TD*%
D14*
%TO.C,TP1*%
X163708400Y-72203178D03*
%TD*%
D18*
%TO.C,H1*%
X151715200Y-33578178D03*
%TD*%
%TO.C,H3*%
X246965200Y-122478178D03*
%TD*%
D14*
%TO.C,TP2*%
X181608400Y-69103178D03*
%TD*%
D11*
%TO.C,J107*%
X217210400Y-77727178D03*
X191010400Y-77727178D03*
D17*
X212510400Y-82767178D03*
D16*
X208310400Y-82767178D03*
X204110400Y-82767178D03*
X199910400Y-82767178D03*
X195710400Y-82767178D03*
X212510400Y-77267178D03*
X208310400Y-77267178D03*
X204110400Y-77267178D03*
X199910400Y-77267178D03*
X195710400Y-77267178D03*
%TD*%
D18*
%TO.C,H2*%
X246965200Y-33578178D03*
%TD*%
D11*
%TO.C,J105*%
X192427400Y-32388178D03*
X178827400Y-32388178D03*
D17*
X187727400Y-37428178D03*
D16*
X183527400Y-37428178D03*
X187727400Y-31928178D03*
X183527400Y-31928178D03*
%TD*%
D19*
%TO.C,R4*%
X204408400Y-94440678D03*
X204408400Y-91515678D03*
%TD*%
D20*
%TO.C,R3*%
X206908400Y-68978178D03*
X206908400Y-71903178D03*
%TD*%
%TO.C,R5*%
X201708400Y-69053178D03*
X201708400Y-71978178D03*
%TD*%
D19*
%TO.C,R2*%
X215308400Y-94303178D03*
X215308400Y-91378178D03*
%TD*%
D21*
X145365200Y-27228178D02*
X253315200Y-27228178D01*
X253315200Y-128828178D01*
X145365200Y-128828178D01*
X145365200Y-27228178D01*
M02*
