M48
; DRILL file {KiCad 9.0.6} date 2026-08-15T00:00:58-0400
; FORMAT={-:-/ absolute / metric / decimal}
; #@! TF.CreationDate,2026-08-15T00:00:58-04:00
; #@! TF.GenerationSoftware,Kicad,Pcbnew,9.0.6
; #@! TF.FileFunction,MixedPlating,1,6
FMAT,2
METRIC
; #@! TA.AperFunction,Plated,PTH,ComponentDrill
T1C0.200
; #@! TA.AperFunction,Plated,PTH,ViaDrill
T2C0.300
; #@! TA.AperFunction,Plated,PTH,ComponentDrill
T3C1.000
; #@! TA.AperFunction,Plated,PTH,ComponentDrill
T4C1.400
; #@! TA.AperFunction,Plated,PTH,ComponentDrill
T5C3.200
; #@! TA.AperFunction,NonPlated,NPTH,ComponentDrill
T6C3.000
%
G90
G05
T1
X167.221Y-106.12
X167.221Y-107.27
X168.371Y-106.12
X168.371Y-107.27
X175.968Y-54.62
X175.968Y-55.77
X177.118Y-54.62
X177.118Y-55.77
X192.548Y-105.932
X192.548Y-107.082
X193.698Y-105.932
X193.698Y-107.082
X196.669Y-55.066
X196.669Y-56.216
X197.819Y-55.066
X197.819Y-56.216
X217.005Y-102.822
X217.005Y-103.972
X218.155Y-102.822
X218.155Y-103.972
X223.085Y-55.955
X223.085Y-57.105
X224.235Y-55.955
X224.235Y-57.105
T2
X154.908Y-42.548
X155.003Y-44.893
X156.158Y-42.548
X156.158Y-55.548
X157.658Y-42.548
X157.658Y-55.548
X158.908Y-52.798
X160.308Y-44.318
X161.311Y-57.989
X161.413Y-70.443
X161.413Y-71.713
X161.413Y-72.983
X161.508Y-40.378
X162.581Y-53.671
X163.308Y-41.178
X163.594Y-54.236
X163.608Y-44.878
X163.724Y-57.989
X163.953Y-81.873
X163.953Y-83.143
X163.953Y-84.413
X164.105Y-109.235
X164.208Y-80.578
X164.359Y-101.528
X164.867Y-109.997
X165.223Y-70.443
X165.223Y-83.143
X165.223Y-84.413
X165.308Y-80.178
X165.349Y-113.438
X165.458Y-77.178
X165.508Y-79.178
X165.508Y-81.178
X165.756Y-102.504
X165.908Y-43.778
X166.137Y-105.298
X166.358Y-120.978
X166.493Y-70.443
X166.493Y-71.713
X166.493Y-72.983
X166.493Y-83.143
X166.493Y-84.413
X167.108Y-109.278
X167.744Y-109.278
X167.763Y-71.713
X167.763Y-72.983
X167.763Y-83.143
X167.763Y-84.413
X167.808Y-44.878
X168.008Y-41.528
X168.758Y-38.028
X168.958Y-77.978
X169.566Y-114.569
X169.898Y-76.978
X170.008Y-40.528
X170.107Y-80.677
X170.258Y-110.278
X170.328Y-90.693
X170.328Y-91.455
X170.908Y-76.878
X171.09Y-65.674
X171.508Y-77.078
X171.608Y-76.078
X171.758Y-42.528
X171.758Y-43.778
X171.758Y-115.122
X171.852Y-65.674
X172.258Y-76.078
X172.458Y-72.478
X172.458Y-74.578
X172.908Y-76.078
X173.058Y-72.478
X173.058Y-74.578
X173.708Y-72.478
X173.762Y-74.578
X174.108Y-51.778
X174.138Y-40.844
X174.758Y-75.178
X174.758Y-75.928
X175.037Y-47.057
X175.383Y-71.713
X175.383Y-72.983
X176.008Y-108.528
X176.653Y-71.713
X176.653Y-72.983
X176.678Y-47.028
X176.678Y-52.655
X177.008Y-75.178
X177.008Y-75.928
X177.567Y-52.782
X177.908Y-40.878
X177.923Y-71.713
X177.923Y-72.983
X178.075Y-53.798
X178.202Y-56.592
X178.583Y-59.386
X179.193Y-71.713
X179.193Y-72.983
X179.258Y-75.178
X179.258Y-75.928
X179.472Y-51.958
X179.98Y-60.529
X180.234Y-52.655
X180.463Y-71.713
X180.463Y-72.983
X180.488Y-103.901
X180.746Y-107.654
X181.733Y-71.713
X181.733Y-72.983
X181.733Y-74.253
X181.733Y-75.523
X181.733Y-76.793
X182.012Y-58.435
X182.808Y-80.128
X182.808Y-80.828
X183.003Y-71.713
X183.003Y-72.983
X183.003Y-74.253
X183.003Y-75.523
X183.003Y-76.793
X183.003Y-83.143
X183.003Y-84.413
X183.028Y-103.901
X183.282Y-54.117
X184.273Y-71.713
X184.273Y-72.983
X184.295Y-54.683
X184.508Y-58.435
X184.658Y-75.078
X184.658Y-75.828
X184.658Y-80.128
X184.658Y-80.828
X185.543Y-71.713
X185.543Y-72.983
X186.708Y-75.078
X186.708Y-75.828
X186.708Y-80.128
X186.708Y-80.828
X186.813Y-71.713
X186.813Y-72.983
X187.519Y-47.767
X187.608Y-48.678
X189.432Y-109.047
X189.632Y-101.234
X189.632Y-104.917
X190.208Y-109.778
X191.083Y-102.316
X191.464Y-105.11
X191.664Y-120.919
X192.099Y-108.92
X192.988Y-109.047
X194.331Y-74.056
X194.839Y-52.339
X195.474Y-109.997
X195.474Y-120.919
X195.708Y-42.178
X195.908Y-30.178
X195.908Y-30.778
X195.908Y-36.178
X195.908Y-36.778
X197.379Y-53.101
X197.808Y-42.178
X198.268Y-53.228
X198.707Y-54.578
X198.903Y-57.038
X199.284Y-59.832
X200.046Y-73.802
X200.173Y-52.466
X200.3Y-65.42
X200.554Y-91.963
X200.681Y-60.975
X200.935Y-53.101
X201.062Y-65.42
X201.316Y-91.963
X201.708Y-70.778
X203.108Y-72.978
X204.008Y-63.028
X204.008Y-64.528
X204.408Y-90.178
X205.758Y-66.278
X205.761Y-103.713
X206.073Y-107.465
X206.908Y-70.841
X207.085Y-108.031
X207.508Y-51.278
X207.508Y-62.028
X207.508Y-65.528
X208.355Y-103.713
X208.428Y-59.324
X209.424Y-86.585
X209.698Y-55.006
X210.008Y-71.878
X210.711Y-55.572
X210.841Y-59.324
X211.908Y-65.378
X212.508Y-91.178
X212.508Y-91.978
X213.508Y-62.778
X213.708Y-65.978
X213.889Y-105.937
X214.143Y-98.059
X214.308Y-67.578
X214.508Y-52.028
X214.508Y-53.528
X214.708Y-106.678
X214.908Y-68.378
X215.308Y-92.678
X215.508Y-62.978
X215.54Y-99.206
X215.921Y-102.0
X216.048Y-104.794
X216.175Y-117.744
X216.508Y-89.078
X216.556Y-105.81
X217.445Y-105.937
X217.508Y-61.778
X218.108Y-89.178
X218.194Y-89.978
X219.608Y-69.135
X219.985Y-117.744
X220.008Y-106.878
X221.255Y-42.179
X221.255Y-53.228
X221.758Y-48.278
X223.541Y-65.166
X223.758Y-48.278
X223.795Y-53.99
X224.303Y-65.166
X224.308Y-30.578
X224.308Y-31.378
X224.308Y-36.578
X224.308Y-37.178
X224.684Y-54.117
X225.065Y-42.179
X225.319Y-57.927
X225.684Y-60.66
X226.462Y-88.407
X226.589Y-53.228
X227.081Y-61.803
X227.351Y-53.99
X230.272Y-100.603
X230.526Y-87.772
X230.53Y-104.356
X231.542Y-104.921
X232.812Y-100.603
X237.508Y-104.753
X237.508Y-105.353
X237.508Y-110.753
X237.508Y-111.553
T3
X163.708Y-72.203
X181.608Y-69.103
X185.658Y-83.003
T4
X152.445Y-72.268
X152.445Y-76.468
X152.448Y-90.478
X152.448Y-94.678
X152.448Y-98.878
X152.448Y-103.078
X157.945Y-72.268
X157.945Y-76.468
X157.948Y-90.478
X157.948Y-94.678
X157.948Y-98.878
X157.948Y-103.078
X181.055Y-118.177
X181.055Y-123.677
X183.527Y-31.928
X183.527Y-37.428
X185.255Y-118.177
X185.255Y-123.677
X187.727Y-31.928
X187.727Y-37.428
X195.71Y-77.267
X195.71Y-82.767
X199.91Y-77.267
X199.91Y-82.767
X204.11Y-77.267
X204.11Y-82.767
X208.31Y-77.267
X208.31Y-82.767
X212.043Y-31.928
X212.043Y-37.428
X212.51Y-77.267
X212.51Y-82.767
X216.243Y-31.928
X216.243Y-37.428
X226.444Y-77.267
X226.444Y-82.767
X230.644Y-77.267
X230.644Y-82.767
X231.034Y-118.304
X231.034Y-123.804
X234.844Y-77.267
X234.844Y-82.767
X235.234Y-118.304
X235.234Y-123.804
X239.044Y-77.267
X239.044Y-82.767
X243.244Y-77.267
X243.244Y-82.767
T5
X151.715Y-33.578
X151.715Y-122.478
X246.965Y-33.578
X246.965Y-122.478
T6
X152.905Y-67.568
X152.905Y-81.168
X152.908Y-85.778
X152.908Y-107.778
X176.355Y-123.217
X178.827Y-32.388
X189.955Y-123.217
X191.01Y-77.727
X192.427Y-32.388
X207.343Y-32.388
X217.21Y-77.727
X220.943Y-32.388
X221.744Y-77.727
X226.334Y-123.344
X239.934Y-123.344
X247.944Y-77.727
M30
