%TF.GenerationSoftware,KiCad,Pcbnew,9.0.6*%
%TF.CreationDate,2026-08-15T00:01:00-04:00*%
%TF.ProjectId,Isolated Multi-Rail Power Supply Monitor Sensor Board,49736f6c-6174-4656-9420-4d756c74692d,rev?*%
%TF.SameCoordinates,Original*%
%TF.FileFunction,Legend,Bot*%
%TF.FilePolarity,Positive*%
%FSLAX46Y46*%
G04 Gerber Fmt 4.6, Leading zero omitted, Abs format (unit mm)*
G04 Created by KiCad (PCBNEW 9.0.6) date 2026-08-15 00:01:00*
%MOMM*%
%LPD*%
G01*
G04 APERTURE LIST*
G04 Aperture macros list*
%AMRoundRect*
0 Rectangle with rounded corners*
0 $1 Rounding radius*
0 $2 $3 $4 $5 $6 $7 $8 $9 X,Y pos of 4 corners*
0 Add a 4 corners polygon primitive as box body*
4,1,4,$2,$3,$4,$5,$6,$7,$8,$9,$2,$3,0*
0 Add four circle primitives for the rounded corners*
1,1,$1+$1,$2,$3*
1,1,$1+$1,$4,$5*
1,1,$1+$1,$6,$7*
1,1,$1+$1,$8,$9*
0 Add four rect primitives between the rounded corners*
20,1,$1+$1,$2,$3,$4,$5,0*
20,1,$1+$1,$4,$5,$6,$7,0*
20,1,$1+$1,$6,$7,$8,$9,0*
20,1,$1+$1,$8,$9,$2,$3,0*%
G04 Aperture macros list end*
%ADD10C,0.150000*%
%ADD11C,0.120000*%
%ADD12C,3.000000*%
%ADD13RoundRect,0.250001X-1.399999X1.099999X-1.399999X-1.099999X1.399999X-1.099999X1.399999X1.099999X0*%
%ADD14O,3.300000X2.700000*%
%ADD15C,2.000000*%
%ADD16RoundRect,0.250001X-1.099999X-1.399999X1.099999X-1.399999X1.099999X1.399999X-1.099999X1.399999X0*%
%ADD17O,2.700000X3.300000*%
%ADD18RoundRect,0.250001X1.099999X1.399999X-1.099999X1.399999X-1.099999X-1.399999X1.099999X-1.399999X0*%
%ADD19C,5.600000*%
%ADD20RoundRect,0.250000X0.625000X-0.312500X0.625000X0.312500X-0.625000X0.312500X-0.625000X-0.312500X0*%
%ADD21RoundRect,0.250000X-0.625000X0.312500X-0.625000X-0.312500X0.625000X-0.312500X0.625000X0.312500X0*%
%TA.AperFunction,Profile*%
%ADD22C,0.050000*%
%TD*%
G04 APERTURE END LIST*
D10*
G36*
X191751597Y-135350547D02*
G01*
X191939175Y-135334060D01*
X191952776Y-135409358D01*
X191973688Y-135471527D01*
X192001091Y-135522646D01*
X192037887Y-135567009D01*
X192087472Y-135606736D01*
X192152216Y-135641806D01*
X192221881Y-135666630D01*
X192298384Y-135681946D01*
X192382842Y-135687235D01*
X192492413Y-135678335D01*
X192583610Y-135653347D01*
X192638917Y-135626659D01*
X192681423Y-135595631D01*
X192713211Y-135560382D01*
X192745266Y-135498193D01*
X192755801Y-135431330D01*
X192745393Y-135364499D01*
X192714768Y-135307590D01*
X192664111Y-135261300D01*
X192579580Y-135218656D01*
X192500697Y-135193547D01*
X192312134Y-135145199D01*
X192121595Y-135091961D01*
X192022157Y-135051135D01*
X191954297Y-135008806D01*
X191901537Y-134962100D01*
X191861781Y-134910910D01*
X191832589Y-134853172D01*
X191815013Y-134791069D01*
X191809024Y-134723423D01*
X191816148Y-134649216D01*
X191837429Y-134578551D01*
X191873504Y-134510199D01*
X191922162Y-134450367D01*
X191984329Y-134400287D01*
X192062090Y-134359623D01*
X192146185Y-134331505D01*
X192237696Y-134314198D01*
X192337780Y-134308240D01*
X192448083Y-134314624D01*
X192545695Y-134332895D01*
X192632336Y-134362096D01*
X192712291Y-134404531D01*
X192777047Y-134457140D01*
X192828524Y-134520365D01*
X192867046Y-134592554D01*
X192891653Y-134670935D01*
X192902347Y-134756945D01*
X192711746Y-134771325D01*
X192692147Y-134680362D01*
X192657236Y-134609880D01*
X192607698Y-134555628D01*
X192544473Y-134517305D01*
X192459381Y-134492038D01*
X192345931Y-134482630D01*
X192226879Y-134491512D01*
X192142100Y-134514737D01*
X192083065Y-134548758D01*
X192036196Y-134597348D01*
X192009533Y-134649822D01*
X192000633Y-134708218D01*
X192007285Y-134759590D01*
X192026576Y-134803387D01*
X192059068Y-134841484D01*
X192103055Y-134869683D01*
X192194408Y-134905143D01*
X192358754Y-134948645D01*
X192581307Y-135005384D01*
X192691229Y-135044449D01*
X192774369Y-135090606D01*
X192837880Y-135141731D01*
X192884853Y-135197773D01*
X192919335Y-135262097D01*
X192940232Y-135332816D01*
X192947410Y-135411546D01*
X192939863Y-135489563D01*
X192917235Y-135564517D01*
X192878716Y-135637685D01*
X192827253Y-135702203D01*
X192762159Y-135757091D01*
X192681521Y-135802732D01*
X192594016Y-135834935D01*
X192497991Y-135854777D01*
X192392001Y-135861625D01*
X192256831Y-135854247D01*
X192144078Y-135833709D01*
X192050275Y-135801907D01*
X191964185Y-135754772D01*
X191892679Y-135695108D01*
X191834120Y-135622114D01*
X191790333Y-135539125D01*
X191762827Y-135449165D01*
X191751597Y-135350547D01*
G37*
G36*
X193252591Y-135838178D02*
G01*
X193252591Y-134331688D01*
X193451344Y-134331688D01*
X193451344Y-135838178D01*
X193252591Y-135838178D01*
G37*
G36*
X193793803Y-135838178D02*
G01*
X193793803Y-134331688D01*
X193992647Y-134331688D01*
X193992647Y-135663788D01*
X194732428Y-135663788D01*
X194732428Y-135838178D01*
X193793803Y-135838178D01*
G37*
G36*
X194960307Y-135838178D02*
G01*
X194960307Y-134331688D01*
X195159151Y-134331688D01*
X195159151Y-135079712D01*
X195905068Y-134331688D01*
X196174529Y-134331688D01*
X195544383Y-134942325D01*
X196202190Y-135838178D01*
X195939873Y-135838178D01*
X195405073Y-135075590D01*
X195159151Y-135316475D01*
X195159151Y-135838178D01*
X194960307Y-135838178D01*
G37*
G36*
X196300375Y-135350547D02*
G01*
X196487954Y-135334060D01*
X196501555Y-135409358D01*
X196522466Y-135471527D01*
X196549870Y-135522646D01*
X196586666Y-135567009D01*
X196636251Y-135606736D01*
X196700995Y-135641806D01*
X196770660Y-135666630D01*
X196847162Y-135681946D01*
X196931621Y-135687235D01*
X197041192Y-135678335D01*
X197132389Y-135653347D01*
X197187695Y-135626659D01*
X197230202Y-135595631D01*
X197261990Y-135560382D01*
X197294045Y-135498193D01*
X197304580Y-135431330D01*
X197294172Y-135364499D01*
X197263547Y-135307590D01*
X197212890Y-135261300D01*
X197128359Y-135218656D01*
X197049476Y-135193547D01*
X196860913Y-135145199D01*
X196670373Y-135091961D01*
X196570936Y-135051135D01*
X196503076Y-135008806D01*
X196450316Y-134962100D01*
X196410560Y-134910910D01*
X196381367Y-134853172D01*
X196363791Y-134791069D01*
X196357803Y-134723423D01*
X196364927Y-134649216D01*
X196386207Y-134578551D01*
X196422283Y-134510199D01*
X196470941Y-134450367D01*
X196533108Y-134400287D01*
X196610869Y-134359623D01*
X196694963Y-134331505D01*
X196786475Y-134314198D01*
X196886558Y-134308240D01*
X196996861Y-134314624D01*
X197094474Y-134332895D01*
X197181115Y-134362096D01*
X197261070Y-134404531D01*
X197325826Y-134457140D01*
X197377303Y-134520365D01*
X197415825Y-134592554D01*
X197440432Y-134670935D01*
X197451126Y-134756945D01*
X197260525Y-134771325D01*
X197240926Y-134680362D01*
X197206015Y-134609880D01*
X197156477Y-134555628D01*
X197093251Y-134517305D01*
X197008160Y-134492038D01*
X196894710Y-134482630D01*
X196775658Y-134491512D01*
X196690879Y-134514737D01*
X196631844Y-134548758D01*
X196584975Y-134597348D01*
X196558311Y-134649822D01*
X196549412Y-134708218D01*
X196556064Y-134759590D01*
X196575354Y-134803387D01*
X196607847Y-134841484D01*
X196651834Y-134869683D01*
X196743187Y-134905143D01*
X196907533Y-134948645D01*
X197130086Y-135005384D01*
X197240008Y-135044449D01*
X197323148Y-135090606D01*
X197386658Y-135141731D01*
X197433632Y-135197773D01*
X197468113Y-135262097D01*
X197489011Y-135332816D01*
X197496188Y-135411546D01*
X197488642Y-135489563D01*
X197466013Y-135564517D01*
X197427495Y-135637685D01*
X197376032Y-135702203D01*
X197310937Y-135757091D01*
X197230300Y-135802732D01*
X197142795Y-135834935D01*
X197046770Y-135854777D01*
X196940780Y-135861625D01*
X196805610Y-135854247D01*
X196692857Y-135833709D01*
X196599054Y-135801907D01*
X196512964Y-135754772D01*
X196441458Y-135695108D01*
X196382899Y-135622114D01*
X196339112Y-135539125D01*
X196311606Y-135449165D01*
X196300375Y-135350547D01*
G37*
G36*
X198839371Y-135310613D02*
G01*
X199038124Y-135360805D01*
X198998691Y-135480447D01*
X198947810Y-135580758D01*
X198886043Y-135664407D01*
X198813176Y-135733397D01*
X198728983Y-135788684D01*
X198635883Y-135828536D01*
X198532272Y-135853109D01*
X198416129Y-135861625D01*
X198293641Y-135854665D01*
X198188588Y-135835029D01*
X198098458Y-135804142D01*
X198021097Y-135762798D01*
X197950655Y-135708776D01*
X197888819Y-135643799D01*
X197835127Y-135566831D01*
X197789555Y-135476393D01*
X197745701Y-135349251D01*
X197719151Y-135215450D01*
X197710145Y-135073667D01*
X197720754Y-134919338D01*
X197751107Y-134783870D01*
X197799813Y-134664346D01*
X197850087Y-134581234D01*
X197909076Y-134509950D01*
X197977120Y-134449396D01*
X198054986Y-134398915D01*
X198168285Y-134348791D01*
X198289091Y-134318533D01*
X198419243Y-134308240D01*
X198531338Y-134315910D01*
X198630648Y-134337944D01*
X198719120Y-134373439D01*
X198798339Y-134422271D01*
X198868334Y-134483957D01*
X198927122Y-134556983D01*
X198975218Y-134642637D01*
X199012479Y-134742748D01*
X198816840Y-134788910D01*
X198774033Y-134684705D01*
X198723272Y-134607157D01*
X198665165Y-134551231D01*
X198595455Y-134510826D01*
X198513125Y-134485660D01*
X198415122Y-134476768D01*
X198302285Y-134486696D01*
X198206884Y-134514841D01*
X198125602Y-134560024D01*
X198055926Y-134621658D01*
X198001760Y-134695518D01*
X197962204Y-134783415D01*
X197936053Y-134877850D01*
X197920378Y-134974053D01*
X197915126Y-135072568D01*
X197921818Y-135199831D01*
X197940828Y-135310952D01*
X197970905Y-135408066D01*
X198016199Y-135497334D01*
X198073880Y-135567844D01*
X198144562Y-135622206D01*
X198225549Y-135661683D01*
X198310158Y-135685184D01*
X198399734Y-135693097D01*
X198482152Y-135686743D01*
X198555834Y-135668370D01*
X198622256Y-135638459D01*
X198682568Y-135596743D01*
X198733754Y-135545175D01*
X198777077Y-135481630D01*
X198812505Y-135404247D01*
X198839371Y-135310613D01*
G37*
G36*
X200086741Y-134337148D02*
G01*
X200186061Y-134351465D01*
X200257293Y-134371988D01*
X200321862Y-134405425D01*
X200377185Y-134452347D01*
X200424263Y-134514320D01*
X200458951Y-134584490D01*
X200479760Y-134659159D01*
X200486820Y-134739634D01*
X200480094Y-134817505D01*
X200460573Y-134887211D01*
X200428536Y-134950300D01*
X200383322Y-135007904D01*
X200328806Y-135054541D01*
X200259406Y-135093677D01*
X200172223Y-135124791D01*
X200063669Y-135146573D01*
X200136657Y-135186974D01*
X200183470Y-135222228D01*
X200266225Y-135310709D01*
X200348518Y-135424461D01*
X200609735Y-135838178D01*
X200359783Y-135838178D01*
X200160939Y-135521639D01*
X200017507Y-135312078D01*
X199960476Y-135246656D01*
X199916574Y-135210321D01*
X199870964Y-135185399D01*
X199825899Y-135169837D01*
X199715257Y-135162602D01*
X199484722Y-135162602D01*
X199484722Y-135838178D01*
X199285878Y-135838178D01*
X199285878Y-134994074D01*
X199484722Y-134994074D01*
X199911994Y-134994074D01*
X200040572Y-134986112D01*
X200125127Y-134966139D01*
X200173197Y-134943144D01*
X200211677Y-134913351D01*
X200241906Y-134876471D01*
X200271896Y-134812040D01*
X200281839Y-134742565D01*
X200273045Y-134675462D01*
X200247520Y-134618246D01*
X200204445Y-134568451D01*
X200148628Y-134533029D01*
X200069735Y-134509236D01*
X199960171Y-134500215D01*
X199484722Y-134500215D01*
X199484722Y-134994074D01*
X199285878Y-134994074D01*
X199285878Y-134331688D01*
X199951928Y-134331688D01*
X200086741Y-134337148D01*
G37*
G36*
X200802168Y-135838178D02*
G01*
X200802168Y-134331688D01*
X201888347Y-134331688D01*
X201888347Y-134506077D01*
X201001012Y-134506077D01*
X201001012Y-134970627D01*
X201832018Y-134970627D01*
X201832018Y-135145016D01*
X201001012Y-135145016D01*
X201001012Y-135663788D01*
X201923243Y-135663788D01*
X201923243Y-135838178D01*
X200802168Y-135838178D01*
G37*
G36*
X202201680Y-135838178D02*
G01*
X202201680Y-134331688D01*
X203287858Y-134331688D01*
X203287858Y-134506077D01*
X202400524Y-134506077D01*
X202400524Y-134970627D01*
X203231530Y-134970627D01*
X203231530Y-135145016D01*
X202400524Y-135145016D01*
X202400524Y-135663788D01*
X203322754Y-135663788D01*
X203322754Y-135838178D01*
X202201680Y-135838178D01*
G37*
G36*
X203595054Y-135838178D02*
G01*
X203595054Y-134331688D01*
X203799028Y-134331688D01*
X204587993Y-135514495D01*
X204587993Y-134331688D01*
X204778594Y-134331688D01*
X204778594Y-135838178D01*
X204574713Y-135838178D01*
X203785656Y-134654363D01*
X203785656Y-135838178D01*
X203595054Y-135838178D01*
G37*
G36*
X206365660Y-134337557D02*
G01*
X206456278Y-134353480D01*
X206527159Y-134377392D01*
X206591871Y-134413529D01*
X206645798Y-134460085D01*
X206690100Y-134517892D01*
X206723213Y-134583053D01*
X206742573Y-134648833D01*
X206748993Y-134716279D01*
X206743218Y-134779130D01*
X206725949Y-134839354D01*
X206696694Y-134897904D01*
X206657117Y-134949760D01*
X206605177Y-134995489D01*
X206538975Y-135035290D01*
X206625151Y-135069531D01*
X206694109Y-135115160D01*
X206748535Y-135172219D01*
X206788916Y-135239875D01*
X206813375Y-135315352D01*
X206821808Y-135400739D01*
X206810538Y-135503523D01*
X206777203Y-135597843D01*
X206725885Y-135680350D01*
X206667019Y-135738343D01*
X206595377Y-135780650D01*
X206502521Y-135812990D01*
X206397994Y-135831299D01*
X206260263Y-135838178D01*
X205687452Y-135838178D01*
X205687452Y-135663788D01*
X205886297Y-135663788D01*
X206260263Y-135663788D01*
X206395543Y-135656461D01*
X206460316Y-135639177D01*
X206510215Y-135614878D01*
X206551567Y-135579878D01*
X206586052Y-135530065D01*
X206608109Y-135471223D01*
X206615819Y-135401471D01*
X206610822Y-135345906D01*
X206596388Y-135296898D01*
X206572772Y-135253185D01*
X206540553Y-135215520D01*
X206501115Y-135186182D01*
X206453337Y-135164708D01*
X206368517Y-135146552D01*
X206233610Y-135139154D01*
X205886297Y-135139154D01*
X205886297Y-135663788D01*
X205687452Y-135663788D01*
X205687452Y-134964765D01*
X205886297Y-134964765D01*
X206211079Y-134964765D01*
X206333907Y-134959440D01*
X206400672Y-134947180D01*
X206468551Y-134915947D01*
X206514886Y-134871617D01*
X206543246Y-134813727D01*
X206553354Y-134739085D01*
X206544129Y-134667070D01*
X206517451Y-134606003D01*
X206490120Y-134571711D01*
X206456304Y-134545686D01*
X206414960Y-134527326D01*
X206336471Y-134512585D01*
X206186441Y-134506077D01*
X205886297Y-134506077D01*
X205886297Y-134964765D01*
X205687452Y-134964765D01*
X205687452Y-134331688D01*
X206251012Y-134331688D01*
X206365660Y-134337557D01*
G37*
G36*
X207857140Y-134314664D02*
G01*
X207953346Y-134333505D01*
X208043672Y-134364445D01*
X208128996Y-134407617D01*
X208207671Y-134462250D01*
X208275880Y-134526173D01*
X208334405Y-134599963D01*
X208383619Y-134684588D01*
X208431557Y-134805793D01*
X208461075Y-134939350D01*
X208471271Y-135087497D01*
X208460570Y-135237472D01*
X208429548Y-135372897D01*
X208379039Y-135496085D01*
X208327355Y-135581840D01*
X208266878Y-135655197D01*
X208197287Y-135717325D01*
X208117821Y-135768935D01*
X208002164Y-135820421D01*
X207881126Y-135851229D01*
X207753014Y-135861625D01*
X207647825Y-135854975D01*
X207550290Y-135835519D01*
X207459276Y-135803638D01*
X207373827Y-135759226D01*
X207295110Y-135703119D01*
X207227162Y-135638238D01*
X207169180Y-135564059D01*
X207120761Y-135479690D01*
X207072934Y-135359170D01*
X207044360Y-135234699D01*
X207034954Y-135107556D01*
X207239646Y-135107556D01*
X207249812Y-135243173D01*
X207278458Y-135357553D01*
X207323834Y-135454369D01*
X207385642Y-135536477D01*
X207463749Y-135605301D01*
X207549609Y-135653656D01*
X207644889Y-135682992D01*
X207752007Y-135693097D01*
X207861238Y-135682821D01*
X207957629Y-135653090D01*
X208043758Y-135604251D01*
X208121393Y-135534919D01*
X208182069Y-135452299D01*
X208227197Y-135352409D01*
X208256043Y-135231757D01*
X208266382Y-135085940D01*
X208258997Y-134964623D01*
X208237937Y-134858362D01*
X208204375Y-134765005D01*
X208155923Y-134679329D01*
X208095711Y-134609021D01*
X208023025Y-134552331D01*
X207940683Y-134510538D01*
X207851922Y-134485355D01*
X207755029Y-134476768D01*
X207652252Y-134486027D01*
X207558643Y-134513131D01*
X207472283Y-134558063D01*
X207391779Y-134622123D01*
X207341359Y-134681603D01*
X207299951Y-134756517D01*
X207268088Y-134849873D01*
X207247227Y-134965429D01*
X207239646Y-135107556D01*
X207034954Y-135107556D01*
X207034757Y-135104899D01*
X207043835Y-134953276D01*
X207069624Y-134821565D01*
X207110533Y-134706920D01*
X207165800Y-134606931D01*
X207235525Y-134519724D01*
X207320156Y-134443880D01*
X207412928Y-134385388D01*
X207514999Y-134343212D01*
X207628015Y-134317229D01*
X207754022Y-134308240D01*
X207857140Y-134314664D01*
G37*
G36*
X209109936Y-135838178D02*
G01*
X209109936Y-134506077D01*
X208614978Y-134506077D01*
X208614978Y-134331688D01*
X209805662Y-134331688D01*
X209805662Y-134506077D01*
X209308688Y-134506077D01*
X209308688Y-135838178D01*
X209109936Y-135838178D01*
G37*
G36*
X210392211Y-135838178D02*
G01*
X210392211Y-134506077D01*
X209897253Y-134506077D01*
X209897253Y-134331688D01*
X211087937Y-134331688D01*
X211087937Y-134506077D01*
X210590963Y-134506077D01*
X210590963Y-135838178D01*
X210392211Y-135838178D01*
G37*
G36*
X212016108Y-134314664D02*
G01*
X212112314Y-134333505D01*
X212202639Y-134364445D01*
X212287963Y-134407617D01*
X212366638Y-134462250D01*
X212434847Y-134526173D01*
X212493373Y-134599963D01*
X212542586Y-134684588D01*
X212590524Y-134805793D01*
X212620042Y-134939350D01*
X212630239Y-135087497D01*
X212619537Y-135237472D01*
X212588515Y-135372897D01*
X212538006Y-135496085D01*
X212486322Y-135581840D01*
X212425845Y-135655197D01*
X212356254Y-135717325D01*
X212276789Y-135768935D01*
X212161131Y-135820421D01*
X212040094Y-135851229D01*
X211911981Y-135861625D01*
X211806792Y-135854975D01*
X211709257Y-135835519D01*
X211618244Y-135803638D01*
X211532794Y-135759226D01*
X211454077Y-135703119D01*
X211386129Y-135638238D01*
X211328147Y-135564059D01*
X211279728Y-135479690D01*
X211231902Y-135359170D01*
X211203327Y-135234699D01*
X211193921Y-135107556D01*
X211398613Y-135107556D01*
X211408779Y-135243173D01*
X211437425Y-135357553D01*
X211482801Y-135454369D01*
X211544610Y-135536477D01*
X211622716Y-135605301D01*
X211708576Y-135653656D01*
X211803856Y-135682992D01*
X211910974Y-135693097D01*
X212020205Y-135682821D01*
X212116596Y-135653090D01*
X212202725Y-135604251D01*
X212280361Y-135534919D01*
X212341036Y-135452299D01*
X212386164Y-135352409D01*
X212415010Y-135231757D01*
X212425349Y-135085940D01*
X212417964Y-134964623D01*
X212396905Y-134858362D01*
X212363342Y-134765005D01*
X212314890Y-134679329D01*
X212254679Y-134609021D01*
X212181992Y-134552331D01*
X212099650Y-134510538D01*
X212010889Y-134485355D01*
X211913996Y-134476768D01*
X211811219Y-134486027D01*
X211717610Y-134513131D01*
X211631250Y-134558063D01*
X211550746Y-134622123D01*
X211500326Y-134681603D01*
X211458918Y-134756517D01*
X211427055Y-134849873D01*
X211406194Y-134965429D01*
X211398613Y-135107556D01*
X211193921Y-135107556D01*
X211193724Y-135104899D01*
X211202803Y-134953276D01*
X211228591Y-134821565D01*
X211269500Y-134706920D01*
X211324767Y-134606931D01*
X211394492Y-134519724D01*
X211479123Y-134443880D01*
X211571895Y-134385388D01*
X211673966Y-134343212D01*
X211786982Y-134317229D01*
X211912989Y-134308240D01*
X212016108Y-134314664D01*
G37*
G36*
X212880557Y-135838178D02*
G01*
X212880557Y-134331688D01*
X213179693Y-134331688D01*
X213535250Y-135398815D01*
X213606966Y-135621931D01*
X213686925Y-135380314D01*
X214046603Y-134331688D01*
X214314049Y-134331688D01*
X214314049Y-135838178D01*
X214122440Y-135838178D01*
X214122440Y-134576602D01*
X213685917Y-135838178D01*
X213506582Y-135838178D01*
X213072165Y-134555078D01*
X213072165Y-135838178D01*
X212880557Y-135838178D01*
G37*
G36*
X197886091Y-140350613D02*
G01*
X198084844Y-140400805D01*
X198045411Y-140520447D01*
X197994529Y-140620758D01*
X197932762Y-140704407D01*
X197859896Y-140773397D01*
X197775703Y-140828684D01*
X197682603Y-140868536D01*
X197578992Y-140893109D01*
X197462849Y-140901625D01*
X197340360Y-140894665D01*
X197235308Y-140875029D01*
X197145178Y-140844142D01*
X197067817Y-140802798D01*
X196997375Y-140748776D01*
X196935539Y-140683799D01*
X196881846Y-140606831D01*
X196836274Y-140516393D01*
X196792421Y-140389251D01*
X196765871Y-140255450D01*
X196756865Y-140113667D01*
X196767474Y-139959338D01*
X196797827Y-139823870D01*
X196846533Y-139704346D01*
X196896807Y-139621234D01*
X196955796Y-139549950D01*
X197023840Y-139489396D01*
X197101705Y-139438915D01*
X197215004Y-139388791D01*
X197335810Y-139358533D01*
X197465963Y-139348240D01*
X197578058Y-139355910D01*
X197677368Y-139377944D01*
X197765840Y-139413439D01*
X197845058Y-139462271D01*
X197915054Y-139523957D01*
X197973842Y-139596983D01*
X198021938Y-139682637D01*
X198059198Y-139782748D01*
X197863560Y-139828910D01*
X197820753Y-139724705D01*
X197769992Y-139647157D01*
X197711885Y-139591231D01*
X197642175Y-139550826D01*
X197559845Y-139525660D01*
X197461841Y-139516768D01*
X197349005Y-139526696D01*
X197253603Y-139554841D01*
X197172322Y-139600024D01*
X197102646Y-139661658D01*
X197048480Y-139735518D01*
X197008924Y-139823415D01*
X196982773Y-139917850D01*
X196967098Y-140014053D01*
X196961846Y-140112568D01*
X196968538Y-140239831D01*
X196987548Y-140350952D01*
X197017625Y-140448066D01*
X197062919Y-140537334D01*
X197120600Y-140607844D01*
X197191281Y-140662206D01*
X197272269Y-140701683D01*
X197356878Y-140725184D01*
X197446454Y-140733097D01*
X197528872Y-140726743D01*
X197602554Y-140708370D01*
X197668976Y-140678459D01*
X197729287Y-140636743D01*
X197780474Y-140585175D01*
X197823796Y-140521630D01*
X197859225Y-140444247D01*
X197886091Y-140350613D01*
G37*
G36*
X199032445Y-140284667D02*
G01*
X199032445Y-140110278D01*
X199668820Y-140109270D01*
X199668820Y-140667152D01*
X199568076Y-140739833D01*
X199467438Y-140798006D01*
X199366478Y-140842732D01*
X199261376Y-140875545D01*
X199155069Y-140895098D01*
X199046825Y-140901625D01*
X198901615Y-140890766D01*
X198768211Y-140859024D01*
X198644557Y-140806828D01*
X198559049Y-140753681D01*
X198485683Y-140690703D01*
X198423370Y-140617400D01*
X198371524Y-140532788D01*
X198320829Y-140410267D01*
X198289899Y-140277388D01*
X198279292Y-140132077D01*
X198289643Y-139988018D01*
X198320220Y-139852114D01*
X198370974Y-139722756D01*
X198423041Y-139632134D01*
X198484120Y-139555784D01*
X198554463Y-139492208D01*
X198634848Y-139440473D01*
X198752823Y-139390087D01*
X198884163Y-139359012D01*
X199031437Y-139348240D01*
X199139066Y-139354360D01*
X199236827Y-139372075D01*
X199325994Y-139400722D01*
X199409753Y-139441649D01*
X199477870Y-139490416D01*
X199532441Y-139546993D01*
X199576541Y-139612585D01*
X199614712Y-139693221D01*
X199646288Y-139791449D01*
X199466953Y-139840634D01*
X199426980Y-139734145D01*
X199382872Y-139660841D01*
X199345997Y-139621354D01*
X199298757Y-139586435D01*
X199239441Y-139556152D01*
X199142560Y-139526899D01*
X199032445Y-139516768D01*
X198942262Y-139521780D01*
X198864277Y-139535966D01*
X198796781Y-139558350D01*
X198705333Y-139607623D01*
X198636405Y-139667710D01*
X198582048Y-139739060D01*
X198541608Y-139816454D01*
X198510041Y-139911076D01*
X198490822Y-140011667D01*
X198484272Y-140119254D01*
X198492744Y-140252069D01*
X198516425Y-140363143D01*
X198553424Y-140456034D01*
X198607052Y-140539241D01*
X198673729Y-140605711D01*
X198754741Y-140657168D01*
X198844808Y-140693679D01*
X198938055Y-140715500D01*
X199035559Y-140722839D01*
X199120660Y-140717366D01*
X199204434Y-140700940D01*
X199287526Y-140673288D01*
X199401145Y-140618928D01*
X199474097Y-140567501D01*
X199474097Y-140284667D01*
X199032445Y-140284667D01*
G37*
G36*
X199894409Y-140390547D02*
G01*
X200081987Y-140374060D01*
X200095588Y-140449358D01*
X200116500Y-140511527D01*
X200143903Y-140562646D01*
X200180699Y-140607009D01*
X200230284Y-140646736D01*
X200295028Y-140681806D01*
X200364693Y-140706630D01*
X200441195Y-140721946D01*
X200525654Y-140727235D01*
X200635225Y-140718335D01*
X200726422Y-140693347D01*
X200781728Y-140666659D01*
X200824235Y-140635631D01*
X200856023Y-140600382D01*
X200888078Y-140538193D01*
X200898613Y-140471330D01*
X200888205Y-140404499D01*
X200857580Y-140347590D01*
X200806923Y-140301300D01*
X200722392Y-140258656D01*
X200643509Y-140233547D01*
X200454946Y-140185199D01*
X200264406Y-140131961D01*
X200164969Y-140091135D01*
X200097109Y-140048806D01*
X200044349Y-140002100D01*
X200004593Y-139950910D01*
X199975400Y-139893172D01*
X199957824Y-139831069D01*
X199951836Y-139763423D01*
X199958960Y-139689216D01*
X199980240Y-139618551D01*
X200016316Y-139550199D01*
X200064974Y-139490367D01*
X200127141Y-139440287D01*
X200204902Y-139399623D01*
X200288996Y-139371505D01*
X200380508Y-139354198D01*
X200480591Y-139348240D01*
X200590895Y-139354624D01*
X200688507Y-139372895D01*
X200775148Y-139402096D01*
X200855103Y-139444531D01*
X200919859Y-139497140D01*
X200971336Y-139560365D01*
X201009858Y-139632554D01*
X201034465Y-139710935D01*
X201045159Y-139796945D01*
X200854558Y-139811325D01*
X200834959Y-139720362D01*
X200800048Y-139649880D01*
X200750510Y-139595628D01*
X200687284Y-139557305D01*
X200602193Y-139532038D01*
X200488743Y-139522630D01*
X200369691Y-139531512D01*
X200284912Y-139554737D01*
X200225877Y-139588758D01*
X200179008Y-139637348D01*
X200152344Y-139689822D01*
X200143445Y-139748218D01*
X200150097Y-139799590D01*
X200169387Y-139843387D01*
X200201880Y-139881484D01*
X200245867Y-139909683D01*
X200337220Y-139945143D01*
X200501566Y-139988645D01*
X200724119Y-140045384D01*
X200834041Y-140084449D01*
X200917181Y-140130606D01*
X200980691Y-140181731D01*
X201027665Y-140237773D01*
X201062146Y-140302097D01*
X201083044Y-140372816D01*
X201090222Y-140451546D01*
X201082675Y-140529563D01*
X201060046Y-140604517D01*
X201021528Y-140677685D01*
X200970065Y-140742203D01*
X200904970Y-140797091D01*
X200824333Y-140842732D01*
X200736828Y-140874935D01*
X200640803Y-140894777D01*
X200534813Y-140901625D01*
X200399643Y-140894247D01*
X200286890Y-140873709D01*
X200193087Y-140841907D01*
X200106997Y-140794772D01*
X200035491Y-140735108D01*
X199976932Y-140662114D01*
X199933145Y-140579125D01*
X199905639Y-140489165D01*
X199894409Y-140390547D01*
G37*
G36*
X201266260Y-140426817D02*
G01*
X201266260Y-140239238D01*
X201832933Y-140239238D01*
X201832933Y-140426817D01*
X201266260Y-140426817D01*
G37*
G36*
X202768006Y-139375841D02*
G01*
X202855731Y-139385976D01*
X202959874Y-139413633D01*
X203041203Y-139456043D01*
X203086999Y-139494245D01*
X203127063Y-139542053D01*
X203161553Y-139600757D01*
X203186687Y-139664119D01*
X203201956Y-139731957D01*
X203207166Y-139805188D01*
X203199236Y-139898916D01*
X203176215Y-139982984D01*
X203138460Y-140059190D01*
X203085258Y-140128871D01*
X203035504Y-140171878D01*
X202970347Y-140207727D01*
X202886407Y-140235752D01*
X202779483Y-140254373D01*
X202644705Y-140261220D01*
X202259381Y-140261220D01*
X202259381Y-140878178D01*
X202060629Y-140878178D01*
X202060629Y-140086831D01*
X202259381Y-140086831D01*
X202647728Y-140086831D01*
X202747167Y-140081131D01*
X202822839Y-140065890D01*
X202879555Y-140043306D01*
X202921310Y-140014657D01*
X202965340Y-139961550D01*
X202992551Y-139895112D01*
X203002277Y-139811325D01*
X202996698Y-139749520D01*
X202980689Y-139695847D01*
X202954649Y-139648751D01*
X202919222Y-139608509D01*
X202877702Y-139579035D01*
X202829078Y-139559449D01*
X202768313Y-139550260D01*
X202643606Y-139546077D01*
X202259381Y-139546077D01*
X202259381Y-140086831D01*
X202060629Y-140086831D01*
X202060629Y-139371688D01*
X202627211Y-139371688D01*
X202768006Y-139375841D01*
G37*
G36*
X203392455Y-140390547D02*
G01*
X203580033Y-140374060D01*
X203593634Y-140449358D01*
X203614546Y-140511527D01*
X203641949Y-140562646D01*
X203678745Y-140607009D01*
X203728330Y-140646736D01*
X203793074Y-140681806D01*
X203862739Y-140706630D01*
X203939241Y-140721946D01*
X204023700Y-140727235D01*
X204133271Y-140718335D01*
X204224468Y-140693347D01*
X204279774Y-140666659D01*
X204322281Y-140635631D01*
X204354069Y-140600382D01*
X204386124Y-140538193D01*
X204396659Y-140471330D01*
X204386251Y-140404499D01*
X204355626Y-140347590D01*
X204304969Y-140301300D01*
X204220438Y-140258656D01*
X204141555Y-140233547D01*
X203952992Y-140185199D01*
X203762453Y-140131961D01*
X203663015Y-140091135D01*
X203595155Y-140048806D01*
X203542395Y-140002100D01*
X203502639Y-139950910D01*
X203473447Y-139893172D01*
X203455870Y-139831069D01*
X203449882Y-139763423D01*
X203457006Y-139689216D01*
X203478286Y-139618551D01*
X203514362Y-139550199D01*
X203563020Y-139490367D01*
X203625187Y-139440287D01*
X203702948Y-139399623D01*
X203787042Y-139371505D01*
X203878554Y-139354198D01*
X203978637Y-139348240D01*
X204088941Y-139354624D01*
X204186553Y-139372895D01*
X204273194Y-139402096D01*
X204353149Y-139444531D01*
X204417905Y-139497140D01*
X204469382Y-139560365D01*
X204507904Y-139632554D01*
X204532511Y-139710935D01*
X204543205Y-139796945D01*
X204352604Y-139811325D01*
X204333005Y-139720362D01*
X204298094Y-139649880D01*
X204248556Y-139595628D01*
X204185330Y-139557305D01*
X204100239Y-139532038D01*
X203986789Y-139522630D01*
X203867737Y-139531512D01*
X203782958Y-139554737D01*
X203723923Y-139588758D01*
X203677054Y-139637348D01*
X203650390Y-139689822D01*
X203641491Y-139748218D01*
X203648143Y-139799590D01*
X203667433Y-139843387D01*
X203699926Y-139881484D01*
X203743913Y-139909683D01*
X203835266Y-139945143D01*
X203999612Y-139988645D01*
X204222165Y-140045384D01*
X204332087Y-140084449D01*
X204415227Y-140130606D01*
X204478737Y-140181731D01*
X204525711Y-140237773D01*
X204560192Y-140302097D01*
X204581090Y-140372816D01*
X204588268Y-140451546D01*
X204580721Y-140529563D01*
X204558092Y-140604517D01*
X204519574Y-140677685D01*
X204468111Y-140742203D01*
X204403016Y-140797091D01*
X204322379Y-140842732D01*
X204234874Y-140874935D01*
X204138849Y-140894777D01*
X204032859Y-140901625D01*
X203897689Y-140894247D01*
X203784936Y-140873709D01*
X203691133Y-140841907D01*
X203605043Y-140794772D01*
X203533537Y-140735108D01*
X203474978Y-140662114D01*
X203431191Y-140579125D01*
X203403685Y-140489165D01*
X203392455Y-140390547D01*
G37*
G36*
X204853515Y-140878178D02*
G01*
X204853515Y-139371688D01*
X205152652Y-139371688D01*
X205508208Y-140438815D01*
X205579924Y-140661931D01*
X205659883Y-140420314D01*
X206019561Y-139371688D01*
X206287007Y-139371688D01*
X206287007Y-140878178D01*
X206095399Y-140878178D01*
X206095399Y-139616602D01*
X205658876Y-140878178D01*
X205479540Y-140878178D01*
X205045124Y-139595078D01*
X205045124Y-140878178D01*
X204853515Y-140878178D01*
G37*
G36*
X206512596Y-140426817D02*
G01*
X206512596Y-140239238D01*
X207079270Y-140239238D01*
X207079270Y-140426817D01*
X206512596Y-140426817D01*
G37*
G36*
X207801351Y-139371551D02*
G01*
X207871540Y-139388002D01*
X207933998Y-139414552D01*
X207990910Y-139451539D01*
X208040965Y-139498098D01*
X208084665Y-139555145D01*
X208136381Y-139653814D01*
X208177905Y-139778810D01*
X208202117Y-139922110D01*
X208211702Y-140134275D01*
X208204692Y-140311233D01*
X208185703Y-140451622D01*
X208157388Y-140561547D01*
X208113402Y-140665144D01*
X208059186Y-140747863D01*
X207994997Y-140812873D01*
X207918625Y-140861241D01*
X207828770Y-140891112D01*
X207721964Y-140901625D01*
X207616266Y-140891284D01*
X207526069Y-140861732D01*
X207448229Y-140813647D01*
X207380696Y-140745645D01*
X207332603Y-140671520D01*
X207292181Y-140577613D01*
X207260595Y-140459953D01*
X207239739Y-140313907D01*
X207232135Y-140134275D01*
X207232157Y-140133725D01*
X207421729Y-140133725D01*
X207429329Y-140330992D01*
X207448880Y-140470056D01*
X207476206Y-140564385D01*
X207508282Y-140625478D01*
X207556403Y-140681138D01*
X207607348Y-140718521D01*
X207661993Y-140740383D01*
X207721964Y-140747752D01*
X207781856Y-140740361D01*
X207836457Y-140718420D01*
X207887400Y-140680877D01*
X207935555Y-140624928D01*
X207967706Y-140563575D01*
X207995059Y-140469154D01*
X208014607Y-140330303D01*
X208022200Y-140133725D01*
X208014578Y-139935837D01*
X207994986Y-139796591D01*
X207967631Y-139702360D01*
X207935555Y-139641515D01*
X207887480Y-139586232D01*
X207836231Y-139548968D01*
X207780910Y-139527094D01*
X207719858Y-139519699D01*
X207659092Y-139526519D01*
X207606092Y-139546309D01*
X207559062Y-139579264D01*
X207516984Y-139627135D01*
X207480900Y-139695656D01*
X207450873Y-139796077D01*
X207429804Y-139938272D01*
X207421729Y-140133725D01*
X207232157Y-140133725D01*
X207239222Y-139955816D01*
X207258388Y-139814802D01*
X207286907Y-139704896D01*
X207331237Y-139601308D01*
X207385639Y-139518786D01*
X207449847Y-139454120D01*
X207526227Y-139405971D01*
X207615804Y-139376267D01*
X207721964Y-139365826D01*
X207801351Y-139371551D01*
G37*
G36*
X209093357Y-140878178D02*
G01*
X208908893Y-140878178D01*
X208908893Y-139699767D01*
X208835491Y-139760838D01*
X208734229Y-139827170D01*
X208627662Y-139884832D01*
X208540056Y-139922699D01*
X208540056Y-139746845D01*
X208640380Y-139693474D01*
X208730263Y-139634110D01*
X208810524Y-139568792D01*
X208884158Y-139495410D01*
X208937712Y-139428043D01*
X208974472Y-139365826D01*
X209093357Y-139365826D01*
X209093357Y-140878178D01*
G37*
G36*
X195399476Y-141897148D02*
G01*
X195498796Y-141911465D01*
X195570028Y-141931988D01*
X195634597Y-141965425D01*
X195689920Y-142012347D01*
X195736998Y-142074320D01*
X195771686Y-142144490D01*
X195792495Y-142219159D01*
X195799555Y-142299634D01*
X195792829Y-142377505D01*
X195773308Y-142447211D01*
X195741271Y-142510300D01*
X195696057Y-142567904D01*
X195641541Y-142614541D01*
X195572141Y-142653677D01*
X195484958Y-142684791D01*
X195376404Y-142706573D01*
X195449392Y-142746974D01*
X195496205Y-142782228D01*
X195578961Y-142870709D01*
X195661253Y-142984461D01*
X195922470Y-143398178D01*
X195672518Y-143398178D01*
X195473674Y-143081639D01*
X195330242Y-142872078D01*
X195273211Y-142806656D01*
X195229309Y-142770321D01*
X195183700Y-142745399D01*
X195138634Y-142729837D01*
X195027992Y-142722602D01*
X194797457Y-142722602D01*
X194797457Y-143398178D01*
X194598613Y-143398178D01*
X194598613Y-142554074D01*
X194797457Y-142554074D01*
X195224730Y-142554074D01*
X195353307Y-142546112D01*
X195437862Y-142526139D01*
X195485932Y-142503144D01*
X195524412Y-142473351D01*
X195554641Y-142436471D01*
X195584631Y-142372040D01*
X195594574Y-142302565D01*
X195585780Y-142235462D01*
X195560255Y-142178246D01*
X195517180Y-142128451D01*
X195461363Y-142093029D01*
X195382470Y-142069236D01*
X195272906Y-142060215D01*
X194797457Y-142060215D01*
X194797457Y-142554074D01*
X194598613Y-142554074D01*
X194598613Y-141891688D01*
X195264663Y-141891688D01*
X195399476Y-141897148D01*
G37*
G36*
X196114903Y-143398178D02*
G01*
X196114903Y-141891688D01*
X197201082Y-141891688D01*
X197201082Y-142066077D01*
X196313747Y-142066077D01*
X196313747Y-142530627D01*
X197144753Y-142530627D01*
X197144753Y-142705016D01*
X196313747Y-142705016D01*
X196313747Y-143223788D01*
X197235978Y-143223788D01*
X197235978Y-143398178D01*
X196114903Y-143398178D01*
G37*
G36*
X197939672Y-143398178D02*
G01*
X197357702Y-141891688D01*
X197572850Y-141891688D01*
X197963302Y-142986476D01*
X198042162Y-143233222D01*
X198123129Y-142986476D01*
X198528877Y-141891688D01*
X198731752Y-141891688D01*
X198143645Y-143398178D01*
X197939672Y-143398178D01*
G37*
G36*
X198698779Y-142946817D02*
G01*
X198698779Y-142759238D01*
X199265453Y-142759238D01*
X199265453Y-142946817D01*
X198698779Y-142946817D01*
G37*
G36*
X200734024Y-143398178D02*
G01*
X200507519Y-143398178D01*
X200332305Y-142940955D01*
X199704174Y-142940955D01*
X199539218Y-143398178D01*
X199328101Y-143398178D01*
X199566057Y-142776824D01*
X199761601Y-142776824D01*
X200270848Y-142776824D01*
X200114044Y-142360909D01*
X200048525Y-142179413D01*
X200007524Y-142049499D01*
X199973093Y-142192921D01*
X199926557Y-142336362D01*
X199761601Y-142776824D01*
X199566057Y-142776824D01*
X199905033Y-141891688D01*
X200119173Y-141891688D01*
X200734024Y-143398178D01*
G37*
G36*
X201854527Y-141891551D02*
G01*
X201924715Y-141908002D01*
X201987173Y-141934552D01*
X202044085Y-141971539D01*
X202094140Y-142018098D01*
X202137840Y-142075145D01*
X202189557Y-142173814D01*
X202231080Y-142298810D01*
X202255292Y-142442110D01*
X202264877Y-142654275D01*
X202257868Y-142831233D01*
X202238878Y-142971622D01*
X202210563Y-143081547D01*
X202166578Y-143185144D01*
X202112361Y-143267863D01*
X202048173Y-143332873D01*
X201971800Y-143381241D01*
X201881945Y-143411112D01*
X201775140Y-143421625D01*
X201669442Y-143411284D01*
X201579245Y-143381732D01*
X201501404Y-143333647D01*
X201433871Y-143265645D01*
X201385778Y-143191520D01*
X201345356Y-143097613D01*
X201313770Y-142979953D01*
X201292914Y-142833907D01*
X201285311Y-142654275D01*
X201285333Y-142653725D01*
X201474904Y-142653725D01*
X201482504Y-142850992D01*
X201502055Y-142990056D01*
X201529381Y-143084385D01*
X201561458Y-143145478D01*
X201609578Y-143201138D01*
X201660523Y-143238521D01*
X201715169Y-143260383D01*
X201775140Y-143267752D01*
X201835031Y-143260361D01*
X201889633Y-143238420D01*
X201940575Y-143200877D01*
X201988730Y-143144928D01*
X202020881Y-143083575D01*
X202048235Y-142989154D01*
X202067783Y-142850303D01*
X202075375Y-142653725D01*
X202067753Y-142455837D01*
X202048161Y-142316591D01*
X202020806Y-142222360D01*
X201988730Y-142161515D01*
X201940655Y-142106232D01*
X201889406Y-142068968D01*
X201834086Y-142047094D01*
X201773033Y-142039699D01*
X201712267Y-142046519D01*
X201659267Y-142066309D01*
X201612237Y-142099264D01*
X201570159Y-142147135D01*
X201534075Y-142215656D01*
X201504048Y-142316077D01*
X201482979Y-142458272D01*
X201474904Y-142653725D01*
X201285333Y-142653725D01*
X201292398Y-142475816D01*
X201311563Y-142334802D01*
X201340082Y-142224896D01*
X201384412Y-142121308D01*
X201438814Y-142038786D01*
X201503022Y-141974120D01*
X201579402Y-141925971D01*
X201668979Y-141896267D01*
X201775140Y-141885826D01*
X201854527Y-141891551D01*
G37*
G36*
X203038964Y-141893589D02*
G01*
X203122669Y-141915692D01*
X203195142Y-141951158D01*
X203258182Y-142000131D01*
X203311189Y-142061123D01*
X203348183Y-142126946D01*
X203370457Y-142198749D01*
X203378075Y-142278202D01*
X203371737Y-142346109D01*
X203353381Y-142406223D01*
X203323212Y-142460102D01*
X203282129Y-142506150D01*
X203227519Y-142545969D01*
X203156791Y-142579445D01*
X203244035Y-142617027D01*
X203313307Y-142665601D01*
X203367359Y-142725258D01*
X203406974Y-142795451D01*
X203431210Y-142874817D01*
X203439624Y-142965593D01*
X203430869Y-143059512D01*
X203405382Y-143143683D01*
X203363291Y-143220110D01*
X203303336Y-143290192D01*
X203231522Y-143346620D01*
X203149250Y-143387384D01*
X203054520Y-143412734D01*
X202944666Y-143421625D01*
X202834845Y-143412702D01*
X202740127Y-143387258D01*
X202657844Y-143346328D01*
X202585995Y-143289642D01*
X202526278Y-143219384D01*
X202484193Y-143142187D01*
X202458614Y-143056577D01*
X202449883Y-142961380D01*
X202639301Y-142961380D01*
X202648533Y-143038253D01*
X202676670Y-143113512D01*
X202705681Y-143158869D01*
X202742479Y-143196624D01*
X202787862Y-143227452D01*
X202864388Y-143257648D01*
X202946772Y-143267752D01*
X203031401Y-143257935D01*
X203103145Y-143229725D01*
X203164942Y-143183030D01*
X203212477Y-143121894D01*
X203241096Y-143051007D01*
X203251038Y-142967425D01*
X203240840Y-142882680D01*
X203211411Y-142810482D01*
X203162378Y-142747881D01*
X203098828Y-142699902D01*
X203025833Y-142671049D01*
X202940544Y-142661053D01*
X202857405Y-142670931D01*
X202786454Y-142699435D01*
X202724847Y-142746873D01*
X202677504Y-142808489D01*
X202649118Y-142879072D01*
X202639301Y-142961380D01*
X202449883Y-142961380D01*
X202449799Y-142960464D01*
X202458600Y-142865044D01*
X202483640Y-142784006D01*
X202524080Y-142714542D01*
X202579415Y-142656422D01*
X202649030Y-142611448D01*
X202735655Y-142579445D01*
X202662885Y-142545794D01*
X202607134Y-142505774D01*
X202565570Y-142459552D01*
X202535282Y-142405290D01*
X202516709Y-142343715D01*
X202510249Y-142273073D01*
X202510796Y-142267303D01*
X202698744Y-142267303D01*
X202706714Y-142334875D01*
X202729559Y-142391661D01*
X202767346Y-142440135D01*
X202816745Y-142476866D01*
X202875316Y-142499300D01*
X202945673Y-142507180D01*
X203014028Y-142499408D01*
X203071464Y-142477179D01*
X203120429Y-142440593D01*
X203158398Y-142392687D01*
X203180877Y-142338971D01*
X203188573Y-142277469D01*
X203180610Y-142213375D01*
X203157407Y-142157683D01*
X203118323Y-142108300D01*
X203068017Y-142070347D01*
X203010527Y-142047573D01*
X202943658Y-142039699D01*
X202876032Y-142047464D01*
X202818384Y-142069816D01*
X202768445Y-142106835D01*
X202729351Y-142155070D01*
X202706490Y-142207946D01*
X202698744Y-142267303D01*
X202510796Y-142267303D01*
X202517792Y-142193486D01*
X202539769Y-142122097D01*
X202576128Y-142057186D01*
X202628036Y-141997567D01*
X202689999Y-141949811D01*
X202761598Y-141915128D01*
X202844674Y-141893455D01*
X202941643Y-141885826D01*
X203038964Y-141893589D01*
G37*
G36*
X203531215Y-143421625D02*
G01*
X203966731Y-141868240D01*
X204114284Y-141868240D01*
X203679776Y-143421625D01*
X203531215Y-143421625D01*
G37*
G36*
X204770786Y-141891551D02*
G01*
X204840975Y-141908002D01*
X204903432Y-141934552D01*
X204960345Y-141971539D01*
X205010400Y-142018098D01*
X205054100Y-142075145D01*
X205105816Y-142173814D01*
X205147339Y-142298810D01*
X205171552Y-142442110D01*
X205181137Y-142654275D01*
X205174127Y-142831233D01*
X205155138Y-142971622D01*
X205126823Y-143081547D01*
X205082837Y-143185144D01*
X205028621Y-143267863D01*
X204964432Y-143332873D01*
X204888060Y-143381241D01*
X204798205Y-143411112D01*
X204691399Y-143421625D01*
X204585701Y-143411284D01*
X204495504Y-143381732D01*
X204417664Y-143333647D01*
X204350131Y-143265645D01*
X204302037Y-143191520D01*
X204261616Y-143097613D01*
X204230029Y-142979953D01*
X204209174Y-142833907D01*
X204201570Y-142654275D01*
X204201592Y-142653725D01*
X204391164Y-142653725D01*
X204398764Y-142850992D01*
X204418315Y-142990056D01*
X204445641Y-143084385D01*
X204477717Y-143145478D01*
X204525837Y-143201138D01*
X204576783Y-143238521D01*
X204631428Y-143260383D01*
X204691399Y-143267752D01*
X204751290Y-143260361D01*
X204805892Y-143238420D01*
X204856835Y-143200877D01*
X204904989Y-143144928D01*
X204937141Y-143083575D01*
X204964494Y-142989154D01*
X204984042Y-142850303D01*
X204991635Y-142653725D01*
X204984012Y-142455837D01*
X204964420Y-142316591D01*
X204937065Y-142222360D01*
X204904989Y-142161515D01*
X204856915Y-142106232D01*
X204805666Y-142068968D01*
X204750345Y-142047094D01*
X204689293Y-142039699D01*
X204628527Y-142046519D01*
X204575527Y-142066309D01*
X204528497Y-142099264D01*
X204486418Y-142147135D01*
X204450335Y-142215656D01*
X204420308Y-142316077D01*
X204399239Y-142458272D01*
X204391164Y-142653725D01*
X204201592Y-142653725D01*
X204208657Y-142475816D01*
X204227823Y-142334802D01*
X204256342Y-142224896D01*
X204300672Y-142121308D01*
X204355073Y-142038786D01*
X204419282Y-141974120D01*
X204495662Y-141925971D01*
X204585238Y-141896267D01*
X204691399Y-141885826D01*
X204770786Y-141891551D01*
G37*
G36*
X205368074Y-142999573D02*
G01*
X205561697Y-142983178D01*
X205583916Y-143074329D01*
X205617580Y-143143959D01*
X205661623Y-143196402D01*
X205717341Y-143235970D01*
X205779668Y-143259628D01*
X205850667Y-143267752D01*
X205915109Y-143261377D01*
X205973296Y-143242723D01*
X206026635Y-143211666D01*
X206076073Y-143167002D01*
X206115401Y-143114238D01*
X206144051Y-143053223D01*
X206161987Y-142982397D01*
X206168305Y-142899739D01*
X206162178Y-142821140D01*
X206144870Y-142754648D01*
X206117344Y-142698133D01*
X206079645Y-142649970D01*
X206015535Y-142599729D01*
X205939383Y-142569185D01*
X205847645Y-142558471D01*
X205762057Y-142568968D01*
X205686719Y-142599687D01*
X205622240Y-142647382D01*
X205574062Y-142706482D01*
X205400864Y-142683950D01*
X205546402Y-141909273D01*
X206293327Y-141909273D01*
X206293327Y-142083662D01*
X205693955Y-142083662D01*
X205612988Y-142492342D01*
X205706729Y-142437758D01*
X205800728Y-142406207D01*
X205896829Y-142395805D01*
X205992635Y-142404601D01*
X206078662Y-142430214D01*
X206156900Y-142472494D01*
X206228755Y-142532642D01*
X206287338Y-142605024D01*
X206329236Y-142686508D01*
X206355048Y-142778870D01*
X206364035Y-142884535D01*
X206356297Y-142985406D01*
X206333776Y-143077004D01*
X206296875Y-143160931D01*
X206245150Y-143238443D01*
X206183010Y-143304512D01*
X206113722Y-143355077D01*
X206036332Y-143391417D01*
X205949311Y-143413833D01*
X205850667Y-143421625D01*
X205749207Y-143413811D01*
X205661036Y-143391489D01*
X205583906Y-143355594D01*
X205516085Y-143306037D01*
X205458756Y-143244225D01*
X205415228Y-143173574D01*
X205384874Y-143092685D01*
X205368074Y-142999573D01*
G37*
G36*
X206447475Y-143421625D02*
G01*
X206882990Y-141868240D01*
X207030543Y-141868240D01*
X206596035Y-143421625D01*
X206447475Y-143421625D01*
G37*
G36*
X208087138Y-143223788D02*
G01*
X208087138Y-143398178D01*
X207094291Y-143398178D01*
X207098634Y-143332874D01*
X207115815Y-143270316D01*
X207163777Y-143172069D01*
X207237173Y-143070923D01*
X207332227Y-142971730D01*
X207478515Y-142843868D01*
X207640597Y-142703653D01*
X207746191Y-142599636D01*
X207809434Y-142524216D01*
X207859560Y-142442394D01*
X207886953Y-142368791D01*
X207895529Y-142301191D01*
X207886681Y-142231109D01*
X207860831Y-142169953D01*
X207817127Y-142115445D01*
X207760841Y-142074023D01*
X207693745Y-142048638D01*
X207612788Y-142039699D01*
X207527284Y-142049256D01*
X207457368Y-142076269D01*
X207399564Y-142120207D01*
X207356303Y-142178431D01*
X207328966Y-142251323D01*
X207318689Y-142343048D01*
X207129095Y-142323448D01*
X207146871Y-142217793D01*
X207177773Y-142130206D01*
X207220694Y-142057646D01*
X207275641Y-141997842D01*
X207341862Y-141950396D01*
X207419291Y-141915557D01*
X207510047Y-141893598D01*
X207616818Y-141885826D01*
X207724226Y-141894147D01*
X207815280Y-141917669D01*
X207892840Y-141955098D01*
X207959094Y-142006360D01*
X208014519Y-142070598D01*
X208053438Y-142140808D01*
X208077017Y-142218298D01*
X208085123Y-142304947D01*
X208076002Y-142394256D01*
X208048212Y-142483091D01*
X208001589Y-142569255D01*
X207925754Y-142667464D01*
X207823952Y-142770911D01*
X207641456Y-142933078D01*
X207491040Y-143063388D01*
X207428232Y-143123313D01*
X207384516Y-143174344D01*
X207350471Y-143223788D01*
X208087138Y-143223788D01*
G37*
G36*
X208853550Y-141891551D02*
G01*
X208923738Y-141908002D01*
X208986196Y-141934552D01*
X209043108Y-141971539D01*
X209093163Y-142018098D01*
X209136863Y-142075145D01*
X209188580Y-142173814D01*
X209230103Y-142298810D01*
X209254316Y-142442110D01*
X209263900Y-142654275D01*
X209256891Y-142831233D01*
X209237901Y-142971622D01*
X209209586Y-143081547D01*
X209165601Y-143185144D01*
X209111384Y-143267863D01*
X209047196Y-143332873D01*
X208970823Y-143381241D01*
X208880968Y-143411112D01*
X208774163Y-143421625D01*
X208668465Y-143411284D01*
X208578268Y-143381732D01*
X208500427Y-143333647D01*
X208432894Y-143265645D01*
X208384801Y-143191520D01*
X208344379Y-143097613D01*
X208312793Y-142979953D01*
X208291937Y-142833907D01*
X208284334Y-142654275D01*
X208284356Y-142653725D01*
X208473927Y-142653725D01*
X208481527Y-142850992D01*
X208501078Y-142990056D01*
X208528404Y-143084385D01*
X208560481Y-143145478D01*
X208608601Y-143201138D01*
X208659546Y-143238521D01*
X208714192Y-143260383D01*
X208774163Y-143267752D01*
X208834054Y-143260361D01*
X208888656Y-143238420D01*
X208939598Y-143200877D01*
X208987753Y-143144928D01*
X209019904Y-143083575D01*
X209047258Y-142989154D01*
X209066806Y-142850303D01*
X209074398Y-142653725D01*
X209066776Y-142455837D01*
X209047184Y-142316591D01*
X209019829Y-142222360D01*
X208987753Y-142161515D01*
X208939678Y-142106232D01*
X208888430Y-142068968D01*
X208833109Y-142047094D01*
X208772056Y-142039699D01*
X208711290Y-142046519D01*
X208658290Y-142066309D01*
X208611260Y-142099264D01*
X208569182Y-142147135D01*
X208533098Y-142215656D01*
X208503071Y-142316077D01*
X208482002Y-142458272D01*
X208473927Y-142653725D01*
X208284356Y-142653725D01*
X208291421Y-142475816D01*
X208310586Y-142334802D01*
X208339105Y-142224896D01*
X208383435Y-142121308D01*
X208437837Y-142038786D01*
X208502045Y-141974120D01*
X208578425Y-141925971D01*
X208668002Y-141896267D01*
X208774163Y-141885826D01*
X208853550Y-141891551D01*
G37*
G36*
X210420146Y-143223788D02*
G01*
X210420146Y-143398178D01*
X209427298Y-143398178D01*
X209431641Y-143332874D01*
X209448822Y-143270316D01*
X209496785Y-143172069D01*
X209570181Y-143070923D01*
X209665235Y-142971730D01*
X209811523Y-142843868D01*
X209973604Y-142703653D01*
X210079198Y-142599636D01*
X210142442Y-142524216D01*
X210192567Y-142442394D01*
X210219961Y-142368791D01*
X210228537Y-142301191D01*
X210219689Y-142231109D01*
X210193839Y-142169953D01*
X210150135Y-142115445D01*
X210093848Y-142074023D01*
X210026753Y-142048638D01*
X209945795Y-142039699D01*
X209860291Y-142049256D01*
X209790375Y-142076269D01*
X209732571Y-142120207D01*
X209689310Y-142178431D01*
X209661973Y-142251323D01*
X209651697Y-142343048D01*
X209462103Y-142323448D01*
X209479878Y-142217793D01*
X209510780Y-142130206D01*
X209553702Y-142057646D01*
X209608649Y-141997842D01*
X209674870Y-141950396D01*
X209752299Y-141915557D01*
X209843055Y-141893598D01*
X209949826Y-141885826D01*
X210057233Y-141894147D01*
X210148288Y-141917669D01*
X210225848Y-141955098D01*
X210292101Y-142006360D01*
X210347527Y-142070598D01*
X210386446Y-142140808D01*
X210410024Y-142218298D01*
X210418131Y-142304947D01*
X210409010Y-142394256D01*
X210381219Y-142483091D01*
X210334597Y-142569255D01*
X210258762Y-142667464D01*
X210156960Y-142770911D01*
X209974464Y-142933078D01*
X209824048Y-143063388D01*
X209761239Y-143123313D01*
X209717524Y-143174344D01*
X209683479Y-143223788D01*
X210420146Y-143223788D01*
G37*
G36*
X211235959Y-141892515D02*
G01*
X211312468Y-141911636D01*
X211379537Y-141942391D01*
X211438638Y-141984836D01*
X211488582Y-142037777D01*
X211527796Y-142099980D01*
X211556567Y-142172873D01*
X211574376Y-142258418D01*
X211391011Y-142272706D01*
X211358902Y-142175276D01*
X211321310Y-142117368D01*
X211267371Y-142074108D01*
X211206647Y-142048482D01*
X211136846Y-142039699D01*
X211079719Y-142045291D01*
X211028583Y-142061590D01*
X210982148Y-142088608D01*
X210929703Y-142135572D01*
X210883896Y-142196341D01*
X210844762Y-142273256D01*
X210818824Y-142355967D01*
X210800461Y-142468655D01*
X210792555Y-142618829D01*
X210841340Y-142555898D01*
X210895480Y-142506234D01*
X210955404Y-142468437D01*
X211021060Y-142440983D01*
X211088119Y-142424696D01*
X211157362Y-142419252D01*
X211246739Y-142427873D01*
X211327731Y-142453114D01*
X211402200Y-142495102D01*
X211471428Y-142555356D01*
X211527279Y-142626986D01*
X211567464Y-142708162D01*
X211592340Y-142800709D01*
X211601029Y-142907066D01*
X211594135Y-143000128D01*
X211573792Y-143087594D01*
X211540030Y-143170574D01*
X211493470Y-143246519D01*
X211437806Y-143308112D01*
X211372510Y-143356962D01*
X211299140Y-143392573D01*
X211219064Y-143414204D01*
X211130709Y-143421625D01*
X211018902Y-143410632D01*
X210920675Y-143378834D01*
X210833207Y-143326480D01*
X210754636Y-143251815D01*
X210707313Y-143184177D01*
X210667725Y-143098389D01*
X210636872Y-142990785D01*
X210624106Y-142906883D01*
X210821223Y-142906883D01*
X210831323Y-143000100D01*
X210861706Y-143089424D01*
X210893021Y-143143942D01*
X210930660Y-143187740D01*
X210974913Y-143222139D01*
X211050184Y-143256555D01*
X211127595Y-143267752D01*
X211201381Y-143257420D01*
X211267535Y-143226702D01*
X211328454Y-143173505D01*
X211373685Y-143106038D01*
X211402193Y-143022086D01*
X211412443Y-142917141D01*
X211402329Y-142816418D01*
X211374195Y-142736076D01*
X211329462Y-142671677D01*
X211269287Y-142621767D01*
X211200554Y-142592125D01*
X211120451Y-142581918D01*
X211040874Y-142592009D01*
X210971010Y-142621570D01*
X210908326Y-142671677D01*
X210860736Y-142736180D01*
X210831525Y-142813386D01*
X210821223Y-142906883D01*
X210624106Y-142906883D01*
X210616519Y-142857024D01*
X210609098Y-142692194D01*
X210617227Y-142508240D01*
X210639603Y-142357670D01*
X210673656Y-142235381D01*
X210717498Y-142136844D01*
X210770024Y-142058200D01*
X210830212Y-141996030D01*
X210896977Y-141948423D01*
X210971212Y-141914217D01*
X211054319Y-141893140D01*
X211148111Y-141885826D01*
X211235959Y-141892515D01*
G37*
X204753219Y-96149011D02*
X204277028Y-95815678D01*
X204753219Y-95577583D02*
X203753219Y-95577583D01*
X203753219Y-95577583D02*
X203753219Y-95958535D01*
X203753219Y-95958535D02*
X203800838Y-96053773D01*
X203800838Y-96053773D02*
X203848457Y-96101392D01*
X203848457Y-96101392D02*
X203943695Y-96149011D01*
X203943695Y-96149011D02*
X204086552Y-96149011D01*
X204086552Y-96149011D02*
X204181790Y-96101392D01*
X204181790Y-96101392D02*
X204229409Y-96053773D01*
X204229409Y-96053773D02*
X204277028Y-95958535D01*
X204277028Y-95958535D02*
X204277028Y-95577583D01*
X204086552Y-97006154D02*
X204753219Y-97006154D01*
X203705600Y-96768059D02*
X204419885Y-96529964D01*
X204419885Y-96529964D02*
X204419885Y-97149011D01*
X207383219Y-66936511D02*
X206907028Y-66603178D01*
X207383219Y-66365083D02*
X206383219Y-66365083D01*
X206383219Y-66365083D02*
X206383219Y-66746035D01*
X206383219Y-66746035D02*
X206430838Y-66841273D01*
X206430838Y-66841273D02*
X206478457Y-66888892D01*
X206478457Y-66888892D02*
X206573695Y-66936511D01*
X206573695Y-66936511D02*
X206716552Y-66936511D01*
X206716552Y-66936511D02*
X206811790Y-66888892D01*
X206811790Y-66888892D02*
X206859409Y-66841273D01*
X206859409Y-66841273D02*
X206907028Y-66746035D01*
X206907028Y-66746035D02*
X206907028Y-66365083D01*
X206383219Y-67269845D02*
X206383219Y-67888892D01*
X206383219Y-67888892D02*
X206764171Y-67555559D01*
X206764171Y-67555559D02*
X206764171Y-67698416D01*
X206764171Y-67698416D02*
X206811790Y-67793654D01*
X206811790Y-67793654D02*
X206859409Y-67841273D01*
X206859409Y-67841273D02*
X206954647Y-67888892D01*
X206954647Y-67888892D02*
X207192742Y-67888892D01*
X207192742Y-67888892D02*
X207287980Y-67841273D01*
X207287980Y-67841273D02*
X207335600Y-67793654D01*
X207335600Y-67793654D02*
X207383219Y-67698416D01*
X207383219Y-67698416D02*
X207383219Y-67412702D01*
X207383219Y-67412702D02*
X207335600Y-67317464D01*
X207335600Y-67317464D02*
X207287980Y-67269845D01*
X202163219Y-67011511D02*
X201687028Y-66678178D01*
X202163219Y-66440083D02*
X201163219Y-66440083D01*
X201163219Y-66440083D02*
X201163219Y-66821035D01*
X201163219Y-66821035D02*
X201210838Y-66916273D01*
X201210838Y-66916273D02*
X201258457Y-66963892D01*
X201258457Y-66963892D02*
X201353695Y-67011511D01*
X201353695Y-67011511D02*
X201496552Y-67011511D01*
X201496552Y-67011511D02*
X201591790Y-66963892D01*
X201591790Y-66963892D02*
X201639409Y-66916273D01*
X201639409Y-66916273D02*
X201687028Y-66821035D01*
X201687028Y-66821035D02*
X201687028Y-66440083D01*
X201163219Y-67916273D02*
X201163219Y-67440083D01*
X201163219Y-67440083D02*
X201639409Y-67392464D01*
X201639409Y-67392464D02*
X201591790Y-67440083D01*
X201591790Y-67440083D02*
X201544171Y-67535321D01*
X201544171Y-67535321D02*
X201544171Y-67773416D01*
X201544171Y-67773416D02*
X201591790Y-67868654D01*
X201591790Y-67868654D02*
X201639409Y-67916273D01*
X201639409Y-67916273D02*
X201734647Y-67963892D01*
X201734647Y-67963892D02*
X201972742Y-67963892D01*
X201972742Y-67963892D02*
X202067980Y-67916273D01*
X202067980Y-67916273D02*
X202115600Y-67868654D01*
X202115600Y-67868654D02*
X202163219Y-67773416D01*
X202163219Y-67773416D02*
X202163219Y-67535321D01*
X202163219Y-67535321D02*
X202115600Y-67440083D01*
X202115600Y-67440083D02*
X202067980Y-67392464D01*
X215633219Y-96011511D02*
X215157028Y-95678178D01*
X215633219Y-95440083D02*
X214633219Y-95440083D01*
X214633219Y-95440083D02*
X214633219Y-95821035D01*
X214633219Y-95821035D02*
X214680838Y-95916273D01*
X214680838Y-95916273D02*
X214728457Y-95963892D01*
X214728457Y-95963892D02*
X214823695Y-96011511D01*
X214823695Y-96011511D02*
X214966552Y-96011511D01*
X214966552Y-96011511D02*
X215061790Y-95963892D01*
X215061790Y-95963892D02*
X215109409Y-95916273D01*
X215109409Y-95916273D02*
X215157028Y-95821035D01*
X215157028Y-95821035D02*
X215157028Y-95440083D01*
X214728457Y-96392464D02*
X214680838Y-96440083D01*
X214680838Y-96440083D02*
X214633219Y-96535321D01*
X214633219Y-96535321D02*
X214633219Y-96773416D01*
X214633219Y-96773416D02*
X214680838Y-96868654D01*
X214680838Y-96868654D02*
X214728457Y-96916273D01*
X214728457Y-96916273D02*
X214823695Y-96963892D01*
X214823695Y-96963892D02*
X214918933Y-96963892D01*
X214918933Y-96963892D02*
X215061790Y-96916273D01*
X215061790Y-96916273D02*
X215633219Y-96344845D01*
X215633219Y-96344845D02*
X215633219Y-96963892D01*
D11*
%TO.C,R4*%
X203498400Y-93705242D02*
X203498400Y-92251114D01*
X205318400Y-93705242D02*
X205318400Y-92251114D01*
%TO.C,R3*%
X205998400Y-69713614D02*
X205998400Y-71167742D01*
X207818400Y-69713614D02*
X207818400Y-71167742D01*
%TO.C,R5*%
X200798400Y-69788614D02*
X200798400Y-71242742D01*
X202618400Y-69788614D02*
X202618400Y-71242742D01*
%TO.C,R2*%
X214398400Y-93567742D02*
X214398400Y-92113614D01*
X216218400Y-93567742D02*
X216218400Y-92113614D01*
%TD*%
%LPC*%
D10*
G36*
X190888833Y-149350547D02*
G01*
X191076411Y-149334060D01*
X191090012Y-149409358D01*
X191110924Y-149471527D01*
X191138327Y-149522646D01*
X191175123Y-149567009D01*
X191224708Y-149606736D01*
X191289452Y-149641806D01*
X191359117Y-149666630D01*
X191435620Y-149681946D01*
X191520078Y-149687235D01*
X191629649Y-149678335D01*
X191720846Y-149653347D01*
X191776153Y-149626659D01*
X191818659Y-149595631D01*
X191850447Y-149560382D01*
X191882502Y-149498193D01*
X191893037Y-149431330D01*
X191882629Y-149364499D01*
X191852004Y-149307590D01*
X191801347Y-149261300D01*
X191716816Y-149218656D01*
X191637933Y-149193547D01*
X191449370Y-149145199D01*
X191258831Y-149091961D01*
X191159393Y-149051135D01*
X191091533Y-149008806D01*
X191038773Y-148962100D01*
X190999017Y-148910910D01*
X190969825Y-148853172D01*
X190952249Y-148791069D01*
X190946260Y-148723423D01*
X190953384Y-148649216D01*
X190974665Y-148578551D01*
X191010740Y-148510199D01*
X191059398Y-148450367D01*
X191121565Y-148400287D01*
X191199326Y-148359623D01*
X191283421Y-148331505D01*
X191374932Y-148314198D01*
X191475016Y-148308240D01*
X191585319Y-148314624D01*
X191682931Y-148332895D01*
X191769572Y-148362096D01*
X191849527Y-148404531D01*
X191914283Y-148457140D01*
X191965760Y-148520365D01*
X192004282Y-148592554D01*
X192028889Y-148670935D01*
X192039583Y-148756945D01*
X191848982Y-148771325D01*
X191829383Y-148680362D01*
X191794472Y-148609880D01*
X191744934Y-148555628D01*
X191681709Y-148517305D01*
X191596617Y-148492038D01*
X191483167Y-148482630D01*
X191364115Y-148491512D01*
X191279336Y-148514737D01*
X191220301Y-148548758D01*
X191173432Y-148597348D01*
X191146769Y-148649822D01*
X191137869Y-148708218D01*
X191144521Y-148759590D01*
X191163812Y-148803387D01*
X191196304Y-148841484D01*
X191240291Y-148869683D01*
X191331644Y-148905143D01*
X191495990Y-148948645D01*
X191718543Y-149005384D01*
X191828465Y-149044449D01*
X191911605Y-149090606D01*
X191975116Y-149141731D01*
X192022089Y-149197773D01*
X192056571Y-149262097D01*
X192077468Y-149332816D01*
X192084646Y-149411546D01*
X192077099Y-149489563D01*
X192054471Y-149564517D01*
X192015952Y-149637685D01*
X191964489Y-149702203D01*
X191899395Y-149757091D01*
X191818757Y-149802732D01*
X191731252Y-149834935D01*
X191635227Y-149854777D01*
X191529237Y-149861625D01*
X191394067Y-149854247D01*
X191281314Y-149833709D01*
X191187511Y-149801907D01*
X191101421Y-149754772D01*
X191029915Y-149695108D01*
X190971356Y-149622114D01*
X190927569Y-149539125D01*
X190900063Y-149449165D01*
X190888833Y-149350547D01*
G37*
G36*
X193117963Y-148314664D02*
G01*
X193214169Y-148333505D01*
X193304494Y-148364445D01*
X193389818Y-148407617D01*
X193468494Y-148462250D01*
X193536703Y-148526173D01*
X193595228Y-148599963D01*
X193644442Y-148684588D01*
X193692380Y-148805793D01*
X193721897Y-148939350D01*
X193732094Y-149087497D01*
X193721393Y-149237472D01*
X193690371Y-149372897D01*
X193639862Y-149496085D01*
X193588177Y-149581840D01*
X193527701Y-149655197D01*
X193458110Y-149717325D01*
X193378644Y-149768935D01*
X193262987Y-149820421D01*
X193141949Y-149851229D01*
X193013837Y-149861625D01*
X192908648Y-149854975D01*
X192811113Y-149835519D01*
X192720099Y-149803638D01*
X192634650Y-149759226D01*
X192555933Y-149703119D01*
X192487985Y-149638238D01*
X192430003Y-149564059D01*
X192381584Y-149479690D01*
X192333757Y-149359170D01*
X192305183Y-149234699D01*
X192295777Y-149107556D01*
X192500469Y-149107556D01*
X192510635Y-149243173D01*
X192539281Y-149357553D01*
X192584656Y-149454369D01*
X192646465Y-149536477D01*
X192724571Y-149605301D01*
X192810432Y-149653656D01*
X192905712Y-149682992D01*
X193012830Y-149693097D01*
X193122061Y-149682821D01*
X193218452Y-149653090D01*
X193304580Y-149604251D01*
X193382216Y-149534919D01*
X193442891Y-149452299D01*
X193488020Y-149352409D01*
X193516866Y-149231757D01*
X193527205Y-149085940D01*
X193519820Y-148964623D01*
X193498760Y-148858362D01*
X193465198Y-148765005D01*
X193416746Y-148679329D01*
X193356534Y-148609021D01*
X193283848Y-148552331D01*
X193201506Y-148510538D01*
X193112745Y-148485355D01*
X193015852Y-148476768D01*
X192913074Y-148486027D01*
X192819466Y-148513131D01*
X192733106Y-148558063D01*
X192652602Y-148622123D01*
X192602182Y-148681603D01*
X192560774Y-148756517D01*
X192528911Y-148849873D01*
X192508050Y-148965429D01*
X192500469Y-149107556D01*
X192295777Y-149107556D01*
X192295580Y-149104899D01*
X192304658Y-148953276D01*
X192330447Y-148821565D01*
X192371356Y-148706920D01*
X192426623Y-148606931D01*
X192496348Y-148519724D01*
X192580979Y-148443880D01*
X192673751Y-148385388D01*
X192775822Y-148343212D01*
X192888838Y-148317229D01*
X193014845Y-148308240D01*
X193117963Y-148314664D01*
G37*
G36*
X193980306Y-149838178D02*
G01*
X193980306Y-148331688D01*
X194179150Y-148331688D01*
X194179150Y-149663788D01*
X194918931Y-149663788D01*
X194918931Y-149838178D01*
X193980306Y-149838178D01*
G37*
G36*
X195837309Y-148337975D02*
G01*
X195939897Y-148353303D01*
X196023199Y-148379083D01*
X196096208Y-148415068D01*
X196160265Y-148461197D01*
X196232174Y-148533771D01*
X196291283Y-148619011D01*
X196337952Y-148718568D01*
X196369935Y-148824610D01*
X196389953Y-148943378D01*
X196396936Y-149076689D01*
X196392148Y-149190752D01*
X196378504Y-149291680D01*
X196356911Y-149380955D01*
X196309608Y-149505702D01*
X196254421Y-149600315D01*
X196187462Y-149679426D01*
X196117675Y-149736969D01*
X196037850Y-149779862D01*
X195938340Y-149812532D01*
X195829203Y-149831371D01*
X195697089Y-149838178D01*
X195155053Y-149838178D01*
X195155053Y-149663788D01*
X195353806Y-149663788D01*
X195674558Y-149663788D01*
X195814934Y-149655852D01*
X195907657Y-149635944D01*
X195985498Y-149601220D01*
X196042387Y-149557359D01*
X196084545Y-149506508D01*
X196121362Y-149443271D01*
X196152480Y-149365568D01*
X196173489Y-149284333D01*
X196187083Y-149187804D01*
X196191956Y-149073575D01*
X196186132Y-148951419D01*
X196170146Y-148852185D01*
X196145856Y-148772193D01*
X196114561Y-148708218D01*
X196056786Y-148629632D01*
X195994358Y-148573783D01*
X195926616Y-148537126D01*
X195871705Y-148521657D01*
X195788913Y-148510463D01*
X195669428Y-148506077D01*
X195353806Y-148506077D01*
X195353806Y-149663788D01*
X195155053Y-149663788D01*
X195155053Y-148331688D01*
X195672451Y-148331688D01*
X195837309Y-148337975D01*
G37*
G36*
X196674366Y-149838178D02*
G01*
X196674366Y-148331688D01*
X197760544Y-148331688D01*
X197760544Y-148506077D01*
X196873210Y-148506077D01*
X196873210Y-148970627D01*
X197704216Y-148970627D01*
X197704216Y-149145016D01*
X196873210Y-149145016D01*
X196873210Y-149663788D01*
X197795440Y-149663788D01*
X197795440Y-149838178D01*
X196674366Y-149838178D01*
G37*
G36*
X198873733Y-148337148D02*
G01*
X198973053Y-148351465D01*
X199044285Y-148371988D01*
X199108854Y-148405425D01*
X199164177Y-148452347D01*
X199211255Y-148514320D01*
X199245943Y-148584490D01*
X199266751Y-148659159D01*
X199273812Y-148739634D01*
X199267086Y-148817505D01*
X199247564Y-148887211D01*
X199215528Y-148950300D01*
X199170314Y-149007904D01*
X199115798Y-149054541D01*
X199046398Y-149093677D01*
X198959215Y-149124791D01*
X198850661Y-149146573D01*
X198923649Y-149186974D01*
X198970462Y-149222228D01*
X199053217Y-149310709D01*
X199135509Y-149424461D01*
X199396727Y-149838178D01*
X199146775Y-149838178D01*
X198947931Y-149521639D01*
X198804499Y-149312078D01*
X198747468Y-149246656D01*
X198703566Y-149210321D01*
X198657956Y-149185399D01*
X198612891Y-149169837D01*
X198502249Y-149162602D01*
X198271714Y-149162602D01*
X198271714Y-149838178D01*
X198072870Y-149838178D01*
X198072870Y-148994074D01*
X198271714Y-148994074D01*
X198698986Y-148994074D01*
X198827564Y-148986112D01*
X198912119Y-148966139D01*
X198960189Y-148943144D01*
X198998668Y-148913351D01*
X199028897Y-148876471D01*
X199058888Y-148812040D01*
X199068831Y-148742565D01*
X199060037Y-148675462D01*
X199034512Y-148618246D01*
X198991437Y-148568451D01*
X198935620Y-148533029D01*
X198856727Y-148509236D01*
X198747163Y-148500215D01*
X198271714Y-148500215D01*
X198271714Y-148994074D01*
X198072870Y-148994074D01*
X198072870Y-148331688D01*
X198738920Y-148331688D01*
X198873733Y-148337148D01*
G37*
G36*
X200162245Y-149838178D02*
G01*
X200162245Y-148331688D01*
X200461382Y-148331688D01*
X200816938Y-149398815D01*
X200888654Y-149621931D01*
X200968613Y-149380314D01*
X201328291Y-148331688D01*
X201595737Y-148331688D01*
X201595737Y-149838178D01*
X201404128Y-149838178D01*
X201404128Y-148576602D01*
X200967605Y-149838178D01*
X200788270Y-149838178D01*
X200353854Y-148555078D01*
X200353854Y-149838178D01*
X200162245Y-149838178D01*
G37*
G36*
X203157548Y-149838178D02*
G01*
X202931043Y-149838178D01*
X202755829Y-149380955D01*
X202127698Y-149380955D01*
X201962742Y-149838178D01*
X201751625Y-149838178D01*
X201989581Y-149216824D01*
X202185125Y-149216824D01*
X202694372Y-149216824D01*
X202537568Y-148800909D01*
X202472049Y-148619413D01*
X202431047Y-148489499D01*
X202396617Y-148632921D01*
X202350081Y-148776362D01*
X202185125Y-149216824D01*
X201989581Y-149216824D01*
X202328557Y-148331688D01*
X202542697Y-148331688D01*
X203157548Y-149838178D01*
G37*
G36*
X203248498Y-149350547D02*
G01*
X203436076Y-149334060D01*
X203449677Y-149409358D01*
X203470589Y-149471527D01*
X203497992Y-149522646D01*
X203534788Y-149567009D01*
X203584373Y-149606736D01*
X203649117Y-149641806D01*
X203718782Y-149666630D01*
X203795285Y-149681946D01*
X203879743Y-149687235D01*
X203989314Y-149678335D01*
X204080511Y-149653347D01*
X204135818Y-149626659D01*
X204178324Y-149595631D01*
X204210112Y-149560382D01*
X204242167Y-149498193D01*
X204252702Y-149431330D01*
X204242294Y-149364499D01*
X204211669Y-149307590D01*
X204161012Y-149261300D01*
X204076481Y-149218656D01*
X203997598Y-149193547D01*
X203809035Y-149145199D01*
X203618496Y-149091961D01*
X203519058Y-149051135D01*
X203451198Y-149008806D01*
X203398438Y-148962100D01*
X203358682Y-148910910D01*
X203329490Y-148853172D01*
X203311914Y-148791069D01*
X203305925Y-148723423D01*
X203313049Y-148649216D01*
X203334330Y-148578551D01*
X203370405Y-148510199D01*
X203419063Y-148450367D01*
X203481230Y-148400287D01*
X203558991Y-148359623D01*
X203643086Y-148331505D01*
X203734597Y-148314198D01*
X203834681Y-148308240D01*
X203944984Y-148314624D01*
X204042596Y-148332895D01*
X204129237Y-148362096D01*
X204209193Y-148404531D01*
X204273948Y-148457140D01*
X204325426Y-148520365D01*
X204363947Y-148592554D01*
X204388554Y-148670935D01*
X204399248Y-148756945D01*
X204208647Y-148771325D01*
X204189048Y-148680362D01*
X204154137Y-148609880D01*
X204104599Y-148555628D01*
X204041374Y-148517305D01*
X203956282Y-148492038D01*
X203842832Y-148482630D01*
X203723780Y-148491512D01*
X203639001Y-148514737D01*
X203579966Y-148548758D01*
X203533098Y-148597348D01*
X203506434Y-148649822D01*
X203497534Y-148708218D01*
X203504186Y-148759590D01*
X203523477Y-148803387D01*
X203555969Y-148841484D01*
X203599956Y-148869683D01*
X203691309Y-148905143D01*
X203855655Y-148948645D01*
X204078208Y-149005384D01*
X204188131Y-149044449D01*
X204271270Y-149090606D01*
X204334781Y-149141731D01*
X204381754Y-149197773D01*
X204416236Y-149262097D01*
X204437133Y-149332816D01*
X204444311Y-149411546D01*
X204436764Y-149489563D01*
X204414136Y-149564517D01*
X204375617Y-149637685D01*
X204324154Y-149702203D01*
X204259060Y-149757091D01*
X204178422Y-149802732D01*
X204090917Y-149834935D01*
X203994892Y-149854777D01*
X203888902Y-149861625D01*
X203753732Y-149854247D01*
X203640979Y-149833709D01*
X203547176Y-149801907D01*
X203461086Y-149754772D01*
X203389580Y-149695108D01*
X203331021Y-149622114D01*
X203287234Y-149539125D01*
X203259728Y-149449165D01*
X203248498Y-149350547D01*
G37*
G36*
X204707452Y-149838178D02*
G01*
X204707452Y-148331688D01*
X204906296Y-148331688D01*
X204906296Y-149079712D01*
X205652214Y-148331688D01*
X205921675Y-148331688D01*
X205291528Y-148942325D01*
X205949335Y-149838178D01*
X205687018Y-149838178D01*
X205152218Y-149075590D01*
X204906296Y-149316475D01*
X204906296Y-149838178D01*
X204707452Y-149838178D01*
G37*
G36*
X207368423Y-148337557D02*
G01*
X207459040Y-148353480D01*
X207529922Y-148377392D01*
X207594634Y-148413529D01*
X207648561Y-148460085D01*
X207692863Y-148517892D01*
X207725975Y-148583053D01*
X207745336Y-148648833D01*
X207751756Y-148716279D01*
X207745981Y-148779130D01*
X207728712Y-148839354D01*
X207699457Y-148897904D01*
X207659880Y-148949760D01*
X207607940Y-148995489D01*
X207541737Y-149035290D01*
X207627914Y-149069531D01*
X207696872Y-149115160D01*
X207751298Y-149172219D01*
X207791679Y-149239875D01*
X207816138Y-149315352D01*
X207824571Y-149400739D01*
X207813301Y-149503523D01*
X207779966Y-149597843D01*
X207728648Y-149680350D01*
X207669782Y-149738343D01*
X207598140Y-149780650D01*
X207505284Y-149812990D01*
X207400757Y-149831299D01*
X207263026Y-149838178D01*
X206690215Y-149838178D01*
X206690215Y-149663788D01*
X206889060Y-149663788D01*
X207263026Y-149663788D01*
X207398306Y-149656461D01*
X207463079Y-149639177D01*
X207512978Y-149614878D01*
X207554330Y-149579878D01*
X207588815Y-149530065D01*
X207610872Y-149471223D01*
X207618582Y-149401471D01*
X207613585Y-149345906D01*
X207599151Y-149296898D01*
X207575535Y-149253185D01*
X207543316Y-149215520D01*
X207503878Y-149186182D01*
X207456100Y-149164708D01*
X207371279Y-149146552D01*
X207236373Y-149139154D01*
X206889060Y-149139154D01*
X206889060Y-149663788D01*
X206690215Y-149663788D01*
X206690215Y-148964765D01*
X206889060Y-148964765D01*
X207213841Y-148964765D01*
X207336670Y-148959440D01*
X207403435Y-148947180D01*
X207471314Y-148915947D01*
X207517649Y-148871617D01*
X207546009Y-148813727D01*
X207556117Y-148739085D01*
X207546892Y-148667070D01*
X207520214Y-148606003D01*
X207492883Y-148571711D01*
X207459067Y-148545686D01*
X207417723Y-148527326D01*
X207339234Y-148512585D01*
X207189203Y-148506077D01*
X206889060Y-148506077D01*
X206889060Y-148964765D01*
X206690215Y-148964765D01*
X206690215Y-148331688D01*
X207253775Y-148331688D01*
X207368423Y-148337557D01*
G37*
G36*
X208859903Y-148314664D02*
G01*
X208956109Y-148333505D01*
X209046434Y-148364445D01*
X209131758Y-148407617D01*
X209210434Y-148462250D01*
X209278643Y-148526173D01*
X209337168Y-148599963D01*
X209386382Y-148684588D01*
X209434320Y-148805793D01*
X209463837Y-148939350D01*
X209474034Y-149087497D01*
X209463333Y-149237472D01*
X209432311Y-149372897D01*
X209381802Y-149496085D01*
X209330117Y-149581840D01*
X209269641Y-149655197D01*
X209200050Y-149717325D01*
X209120584Y-149768935D01*
X209004927Y-149820421D01*
X208883889Y-149851229D01*
X208755777Y-149861625D01*
X208650588Y-149854975D01*
X208553053Y-149835519D01*
X208462039Y-149803638D01*
X208376590Y-149759226D01*
X208297873Y-149703119D01*
X208229925Y-149638238D01*
X208171943Y-149564059D01*
X208123524Y-149479690D01*
X208075697Y-149359170D01*
X208047123Y-149234699D01*
X208037717Y-149107556D01*
X208242409Y-149107556D01*
X208252575Y-149243173D01*
X208281221Y-149357553D01*
X208326596Y-149454369D01*
X208388405Y-149536477D01*
X208466511Y-149605301D01*
X208552372Y-149653656D01*
X208647652Y-149682992D01*
X208754770Y-149693097D01*
X208864001Y-149682821D01*
X208960392Y-149653090D01*
X209046520Y-149604251D01*
X209124156Y-149534919D01*
X209184831Y-149452299D01*
X209229960Y-149352409D01*
X209258806Y-149231757D01*
X209269145Y-149085940D01*
X209261760Y-148964623D01*
X209240700Y-148858362D01*
X209207138Y-148765005D01*
X209158686Y-148679329D01*
X209098474Y-148609021D01*
X209025788Y-148552331D01*
X208943446Y-148510538D01*
X208854685Y-148485355D01*
X208757792Y-148476768D01*
X208655014Y-148486027D01*
X208561406Y-148513131D01*
X208475046Y-148558063D01*
X208394542Y-148622123D01*
X208344122Y-148681603D01*
X208302714Y-148756517D01*
X208270851Y-148849873D01*
X208249990Y-148965429D01*
X208242409Y-149107556D01*
X208037717Y-149107556D01*
X208037520Y-149104899D01*
X208046598Y-148953276D01*
X208072387Y-148821565D01*
X208113296Y-148706920D01*
X208168563Y-148606931D01*
X208238288Y-148519724D01*
X208322919Y-148443880D01*
X208415691Y-148385388D01*
X208517762Y-148343212D01*
X208630778Y-148317229D01*
X208756785Y-148308240D01*
X208859903Y-148314664D01*
G37*
G36*
X210112699Y-149838178D02*
G01*
X210112699Y-148506077D01*
X209617741Y-148506077D01*
X209617741Y-148331688D01*
X210808424Y-148331688D01*
X210808424Y-148506077D01*
X210311451Y-148506077D01*
X210311451Y-149838178D01*
X210112699Y-149838178D01*
G37*
G36*
X211394974Y-149838178D02*
G01*
X211394974Y-148506077D01*
X210900016Y-148506077D01*
X210900016Y-148331688D01*
X212090699Y-148331688D01*
X212090699Y-148506077D01*
X211593726Y-148506077D01*
X211593726Y-149838178D01*
X211394974Y-149838178D01*
G37*
G36*
X213018870Y-148314664D02*
G01*
X213115076Y-148333505D01*
X213205402Y-148364445D01*
X213290726Y-148407617D01*
X213369401Y-148462250D01*
X213437610Y-148526173D01*
X213496136Y-148599963D01*
X213545349Y-148684588D01*
X213593287Y-148805793D01*
X213622805Y-148939350D01*
X213633001Y-149087497D01*
X213622300Y-149237472D01*
X213591278Y-149372897D01*
X213540769Y-149496085D01*
X213489085Y-149581840D01*
X213428608Y-149655197D01*
X213359017Y-149717325D01*
X213279551Y-149768935D01*
X213163894Y-149820421D01*
X213042857Y-149851229D01*
X212914744Y-149861625D01*
X212809555Y-149854975D01*
X212712020Y-149835519D01*
X212621007Y-149803638D01*
X212535557Y-149759226D01*
X212456840Y-149703119D01*
X212388892Y-149638238D01*
X212330910Y-149564059D01*
X212282491Y-149479690D01*
X212234665Y-149359170D01*
X212206090Y-149234699D01*
X212196684Y-149107556D01*
X212401376Y-149107556D01*
X212411542Y-149243173D01*
X212440188Y-149357553D01*
X212485564Y-149454369D01*
X212547372Y-149536477D01*
X212625479Y-149605301D01*
X212711339Y-149653656D01*
X212806619Y-149682992D01*
X212913737Y-149693097D01*
X213022968Y-149682821D01*
X213119359Y-149653090D01*
X213205488Y-149604251D01*
X213283124Y-149534919D01*
X213343799Y-149452299D01*
X213388927Y-149352409D01*
X213417773Y-149231757D01*
X213428112Y-149085940D01*
X213420727Y-148964623D01*
X213399667Y-148858362D01*
X213366105Y-148765005D01*
X213317653Y-148679329D01*
X213257441Y-148609021D01*
X213184755Y-148552331D01*
X213102413Y-148510538D01*
X213013652Y-148485355D01*
X212916759Y-148476768D01*
X212813982Y-148486027D01*
X212720373Y-148513131D01*
X212634013Y-148558063D01*
X212553509Y-148622123D01*
X212503089Y-148681603D01*
X212461681Y-148756517D01*
X212429818Y-148849873D01*
X212408957Y-148965429D01*
X212401376Y-149107556D01*
X212196684Y-149107556D01*
X212196487Y-149104899D01*
X212205565Y-148953276D01*
X212231354Y-148821565D01*
X212272263Y-148706920D01*
X212327530Y-148606931D01*
X212397255Y-148519724D01*
X212481886Y-148443880D01*
X212574658Y-148385388D01*
X212676729Y-148343212D01*
X212789745Y-148317229D01*
X212915752Y-148308240D01*
X213018870Y-148314664D01*
G37*
G36*
X213883320Y-149838178D02*
G01*
X213883320Y-148331688D01*
X214182456Y-148331688D01*
X214538013Y-149398815D01*
X214609729Y-149621931D01*
X214689688Y-149380314D01*
X215049366Y-148331688D01*
X215316812Y-148331688D01*
X215316812Y-149838178D01*
X215125203Y-149838178D01*
X215125203Y-148576602D01*
X214688680Y-149838178D01*
X214509345Y-149838178D01*
X214074928Y-148555078D01*
X214074928Y-149838178D01*
X213883320Y-149838178D01*
G37*
G36*
X197956091Y-154350613D02*
G01*
X198154844Y-154400805D01*
X198115411Y-154520447D01*
X198064529Y-154620758D01*
X198002762Y-154704407D01*
X197929896Y-154773397D01*
X197845703Y-154828684D01*
X197752603Y-154868536D01*
X197648992Y-154893109D01*
X197532849Y-154901625D01*
X197410360Y-154894665D01*
X197305308Y-154875029D01*
X197215178Y-154844142D01*
X197137817Y-154802798D01*
X197067375Y-154748776D01*
X197005539Y-154683799D01*
X196951846Y-154606831D01*
X196906274Y-154516393D01*
X196862421Y-154389251D01*
X196835871Y-154255450D01*
X196826865Y-154113667D01*
X196837474Y-153959338D01*
X196867827Y-153823870D01*
X196916533Y-153704346D01*
X196966807Y-153621234D01*
X197025796Y-153549950D01*
X197093840Y-153489396D01*
X197171705Y-153438915D01*
X197285004Y-153388791D01*
X197405810Y-153358533D01*
X197535963Y-153348240D01*
X197648058Y-153355910D01*
X197747368Y-153377944D01*
X197835840Y-153413439D01*
X197915058Y-153462271D01*
X197985054Y-153523957D01*
X198043842Y-153596983D01*
X198091938Y-153682637D01*
X198129198Y-153782748D01*
X197933560Y-153828910D01*
X197890753Y-153724705D01*
X197839992Y-153647157D01*
X197781885Y-153591231D01*
X197712175Y-153550826D01*
X197629845Y-153525660D01*
X197531841Y-153516768D01*
X197419005Y-153526696D01*
X197323603Y-153554841D01*
X197242322Y-153600024D01*
X197172646Y-153661658D01*
X197118480Y-153735518D01*
X197078924Y-153823415D01*
X197052773Y-153917850D01*
X197037098Y-154014053D01*
X197031846Y-154112568D01*
X197038538Y-154239831D01*
X197057548Y-154350952D01*
X197087625Y-154448066D01*
X197132919Y-154537334D01*
X197190600Y-154607844D01*
X197261281Y-154662206D01*
X197342269Y-154701683D01*
X197426878Y-154725184D01*
X197516454Y-154733097D01*
X197598872Y-154726743D01*
X197672554Y-154708370D01*
X197738976Y-154678459D01*
X197799287Y-154636743D01*
X197850474Y-154585175D01*
X197893796Y-154521630D01*
X197929225Y-154444247D01*
X197956091Y-154350613D01*
G37*
G36*
X199102445Y-154284667D02*
G01*
X199102445Y-154110278D01*
X199738820Y-154109270D01*
X199738820Y-154667152D01*
X199638076Y-154739833D01*
X199537438Y-154798006D01*
X199436478Y-154842732D01*
X199331376Y-154875545D01*
X199225069Y-154895098D01*
X199116825Y-154901625D01*
X198971615Y-154890766D01*
X198838211Y-154859024D01*
X198714557Y-154806828D01*
X198629049Y-154753681D01*
X198555683Y-154690703D01*
X198493370Y-154617400D01*
X198441524Y-154532788D01*
X198390829Y-154410267D01*
X198359899Y-154277388D01*
X198349292Y-154132077D01*
X198359643Y-153988018D01*
X198390220Y-153852114D01*
X198440974Y-153722756D01*
X198493041Y-153632134D01*
X198554120Y-153555784D01*
X198624463Y-153492208D01*
X198704848Y-153440473D01*
X198822823Y-153390087D01*
X198954163Y-153359012D01*
X199101437Y-153348240D01*
X199209066Y-153354360D01*
X199306827Y-153372075D01*
X199395994Y-153400722D01*
X199479753Y-153441649D01*
X199547870Y-153490416D01*
X199602441Y-153546993D01*
X199646541Y-153612585D01*
X199684712Y-153693221D01*
X199716288Y-153791449D01*
X199536953Y-153840634D01*
X199496980Y-153734145D01*
X199452872Y-153660841D01*
X199415997Y-153621354D01*
X199368757Y-153586435D01*
X199309441Y-153556152D01*
X199212560Y-153526899D01*
X199102445Y-153516768D01*
X199012262Y-153521780D01*
X198934277Y-153535966D01*
X198866781Y-153558350D01*
X198775333Y-153607623D01*
X198706405Y-153667710D01*
X198652048Y-153739060D01*
X198611608Y-153816454D01*
X198580041Y-153911076D01*
X198560822Y-154011667D01*
X198554272Y-154119254D01*
X198562744Y-154252069D01*
X198586425Y-154363143D01*
X198623424Y-154456034D01*
X198677052Y-154539241D01*
X198743729Y-154605711D01*
X198824741Y-154657168D01*
X198914808Y-154693679D01*
X199008055Y-154715500D01*
X199105559Y-154722839D01*
X199190660Y-154717366D01*
X199274434Y-154700940D01*
X199357526Y-154673288D01*
X199471145Y-154618928D01*
X199544097Y-154567501D01*
X199544097Y-154284667D01*
X199102445Y-154284667D01*
G37*
G36*
X199964409Y-154390547D02*
G01*
X200151987Y-154374060D01*
X200165588Y-154449358D01*
X200186500Y-154511527D01*
X200213903Y-154562646D01*
X200250699Y-154607009D01*
X200300284Y-154646736D01*
X200365028Y-154681806D01*
X200434693Y-154706630D01*
X200511195Y-154721946D01*
X200595654Y-154727235D01*
X200705225Y-154718335D01*
X200796422Y-154693347D01*
X200851728Y-154666659D01*
X200894235Y-154635631D01*
X200926023Y-154600382D01*
X200958078Y-154538193D01*
X200968613Y-154471330D01*
X200958205Y-154404499D01*
X200927580Y-154347590D01*
X200876923Y-154301300D01*
X200792392Y-154258656D01*
X200713509Y-154233547D01*
X200524946Y-154185199D01*
X200334406Y-154131961D01*
X200234969Y-154091135D01*
X200167109Y-154048806D01*
X200114349Y-154002100D01*
X200074593Y-153950910D01*
X200045400Y-153893172D01*
X200027824Y-153831069D01*
X200021836Y-153763423D01*
X200028960Y-153689216D01*
X200050240Y-153618551D01*
X200086316Y-153550199D01*
X200134974Y-153490367D01*
X200197141Y-153440287D01*
X200274902Y-153399623D01*
X200358996Y-153371505D01*
X200450508Y-153354198D01*
X200550591Y-153348240D01*
X200660895Y-153354624D01*
X200758507Y-153372895D01*
X200845148Y-153402096D01*
X200925103Y-153444531D01*
X200989859Y-153497140D01*
X201041336Y-153560365D01*
X201079858Y-153632554D01*
X201104465Y-153710935D01*
X201115159Y-153796945D01*
X200924558Y-153811325D01*
X200904959Y-153720362D01*
X200870048Y-153649880D01*
X200820510Y-153595628D01*
X200757284Y-153557305D01*
X200672193Y-153532038D01*
X200558743Y-153522630D01*
X200439691Y-153531512D01*
X200354912Y-153554737D01*
X200295877Y-153588758D01*
X200249008Y-153637348D01*
X200222344Y-153689822D01*
X200213445Y-153748218D01*
X200220097Y-153799590D01*
X200239387Y-153843387D01*
X200271880Y-153881484D01*
X200315867Y-153909683D01*
X200407220Y-153945143D01*
X200571566Y-153988645D01*
X200794119Y-154045384D01*
X200904041Y-154084449D01*
X200987181Y-154130606D01*
X201050691Y-154181731D01*
X201097665Y-154237773D01*
X201132146Y-154302097D01*
X201153044Y-154372816D01*
X201160222Y-154451546D01*
X201152675Y-154529563D01*
X201130046Y-154604517D01*
X201091528Y-154677685D01*
X201040065Y-154742203D01*
X200974970Y-154797091D01*
X200894333Y-154842732D01*
X200806828Y-154874935D01*
X200710803Y-154894777D01*
X200604813Y-154901625D01*
X200469643Y-154894247D01*
X200356890Y-154873709D01*
X200263087Y-154841907D01*
X200176997Y-154794772D01*
X200105491Y-154735108D01*
X200046932Y-154662114D01*
X200003145Y-154579125D01*
X199975639Y-154489165D01*
X199964409Y-154390547D01*
G37*
G36*
X201336260Y-154426817D02*
G01*
X201336260Y-154239238D01*
X201902933Y-154239238D01*
X201902933Y-154426817D01*
X201336260Y-154426817D01*
G37*
G36*
X202838006Y-153375841D02*
G01*
X202925731Y-153385976D01*
X203029874Y-153413633D01*
X203111203Y-153456043D01*
X203156999Y-153494245D01*
X203197063Y-153542053D01*
X203231553Y-153600757D01*
X203256687Y-153664119D01*
X203271956Y-153731957D01*
X203277166Y-153805188D01*
X203269236Y-153898916D01*
X203246215Y-153982984D01*
X203208460Y-154059190D01*
X203155258Y-154128871D01*
X203105504Y-154171878D01*
X203040347Y-154207727D01*
X202956407Y-154235752D01*
X202849483Y-154254373D01*
X202714705Y-154261220D01*
X202329381Y-154261220D01*
X202329381Y-154878178D01*
X202130629Y-154878178D01*
X202130629Y-154086831D01*
X202329381Y-154086831D01*
X202717728Y-154086831D01*
X202817167Y-154081131D01*
X202892839Y-154065890D01*
X202949555Y-154043306D01*
X202991310Y-154014657D01*
X203035340Y-153961550D01*
X203062551Y-153895112D01*
X203072277Y-153811325D01*
X203066698Y-153749520D01*
X203050689Y-153695847D01*
X203024649Y-153648751D01*
X202989222Y-153608509D01*
X202947702Y-153579035D01*
X202899078Y-153559449D01*
X202838313Y-153550260D01*
X202713606Y-153546077D01*
X202329381Y-153546077D01*
X202329381Y-154086831D01*
X202130629Y-154086831D01*
X202130629Y-153371688D01*
X202697211Y-153371688D01*
X202838006Y-153375841D01*
G37*
G36*
X203462455Y-154390547D02*
G01*
X203650033Y-154374060D01*
X203663634Y-154449358D01*
X203684546Y-154511527D01*
X203711949Y-154562646D01*
X203748745Y-154607009D01*
X203798330Y-154646736D01*
X203863074Y-154681806D01*
X203932739Y-154706630D01*
X204009241Y-154721946D01*
X204093700Y-154727235D01*
X204203271Y-154718335D01*
X204294468Y-154693347D01*
X204349774Y-154666659D01*
X204392281Y-154635631D01*
X204424069Y-154600382D01*
X204456124Y-154538193D01*
X204466659Y-154471330D01*
X204456251Y-154404499D01*
X204425626Y-154347590D01*
X204374969Y-154301300D01*
X204290438Y-154258656D01*
X204211555Y-154233547D01*
X204022992Y-154185199D01*
X203832453Y-154131961D01*
X203733015Y-154091135D01*
X203665155Y-154048806D01*
X203612395Y-154002100D01*
X203572639Y-153950910D01*
X203543447Y-153893172D01*
X203525870Y-153831069D01*
X203519882Y-153763423D01*
X203527006Y-153689216D01*
X203548286Y-153618551D01*
X203584362Y-153550199D01*
X203633020Y-153490367D01*
X203695187Y-153440287D01*
X203772948Y-153399623D01*
X203857042Y-153371505D01*
X203948554Y-153354198D01*
X204048637Y-153348240D01*
X204158941Y-153354624D01*
X204256553Y-153372895D01*
X204343194Y-153402096D01*
X204423149Y-153444531D01*
X204487905Y-153497140D01*
X204539382Y-153560365D01*
X204577904Y-153632554D01*
X204602511Y-153710935D01*
X204613205Y-153796945D01*
X204422604Y-153811325D01*
X204403005Y-153720362D01*
X204368094Y-153649880D01*
X204318556Y-153595628D01*
X204255330Y-153557305D01*
X204170239Y-153532038D01*
X204056789Y-153522630D01*
X203937737Y-153531512D01*
X203852958Y-153554737D01*
X203793923Y-153588758D01*
X203747054Y-153637348D01*
X203720390Y-153689822D01*
X203711491Y-153748218D01*
X203718143Y-153799590D01*
X203737433Y-153843387D01*
X203769926Y-153881484D01*
X203813913Y-153909683D01*
X203905266Y-153945143D01*
X204069612Y-153988645D01*
X204292165Y-154045384D01*
X204402087Y-154084449D01*
X204485227Y-154130606D01*
X204548737Y-154181731D01*
X204595711Y-154237773D01*
X204630192Y-154302097D01*
X204651090Y-154372816D01*
X204658268Y-154451546D01*
X204650721Y-154529563D01*
X204628092Y-154604517D01*
X204589574Y-154677685D01*
X204538111Y-154742203D01*
X204473016Y-154797091D01*
X204392379Y-154842732D01*
X204304874Y-154874935D01*
X204208849Y-154894777D01*
X204102859Y-154901625D01*
X203967689Y-154894247D01*
X203854936Y-154873709D01*
X203761133Y-154841907D01*
X203675043Y-154794772D01*
X203603537Y-154735108D01*
X203544978Y-154662114D01*
X203501191Y-154579125D01*
X203473685Y-154489165D01*
X203462455Y-154390547D01*
G37*
G36*
X204923515Y-154878178D02*
G01*
X204923515Y-153371688D01*
X205222652Y-153371688D01*
X205578208Y-154438815D01*
X205649924Y-154661931D01*
X205729883Y-154420314D01*
X206089561Y-153371688D01*
X206357007Y-153371688D01*
X206357007Y-154878178D01*
X206165399Y-154878178D01*
X206165399Y-153616602D01*
X205728876Y-154878178D01*
X205549540Y-154878178D01*
X205115124Y-153595078D01*
X205115124Y-154878178D01*
X204923515Y-154878178D01*
G37*
G36*
X206582596Y-154426817D02*
G01*
X206582596Y-154239238D01*
X207149270Y-154239238D01*
X207149270Y-154426817D01*
X206582596Y-154426817D01*
G37*
G36*
X207871351Y-153371551D02*
G01*
X207941540Y-153388002D01*
X208003998Y-153414552D01*
X208060910Y-153451539D01*
X208110965Y-153498098D01*
X208154665Y-153555145D01*
X208206381Y-153653814D01*
X208247905Y-153778810D01*
X208272117Y-153922110D01*
X208281702Y-154134275D01*
X208274692Y-154311233D01*
X208255703Y-154451622D01*
X208227388Y-154561547D01*
X208183402Y-154665144D01*
X208129186Y-154747863D01*
X208064997Y-154812873D01*
X207988625Y-154861241D01*
X207898770Y-154891112D01*
X207791964Y-154901625D01*
X207686266Y-154891284D01*
X207596069Y-154861732D01*
X207518229Y-154813647D01*
X207450696Y-154745645D01*
X207402603Y-154671520D01*
X207362181Y-154577613D01*
X207330595Y-154459953D01*
X207309739Y-154313907D01*
X207302135Y-154134275D01*
X207302157Y-154133725D01*
X207491729Y-154133725D01*
X207499329Y-154330992D01*
X207518880Y-154470056D01*
X207546206Y-154564385D01*
X207578282Y-154625478D01*
X207626403Y-154681138D01*
X207677348Y-154718521D01*
X207731993Y-154740383D01*
X207791964Y-154747752D01*
X207851856Y-154740361D01*
X207906457Y-154718420D01*
X207957400Y-154680877D01*
X208005555Y-154624928D01*
X208037706Y-154563575D01*
X208065059Y-154469154D01*
X208084607Y-154330303D01*
X208092200Y-154133725D01*
X208084578Y-153935837D01*
X208064986Y-153796591D01*
X208037631Y-153702360D01*
X208005555Y-153641515D01*
X207957480Y-153586232D01*
X207906231Y-153548968D01*
X207850910Y-153527094D01*
X207789858Y-153519699D01*
X207729092Y-153526519D01*
X207676092Y-153546309D01*
X207629062Y-153579264D01*
X207586984Y-153627135D01*
X207550900Y-153695656D01*
X207520873Y-153796077D01*
X207499804Y-153938272D01*
X207491729Y-154133725D01*
X207302157Y-154133725D01*
X207309222Y-153955816D01*
X207328388Y-153814802D01*
X207356907Y-153704896D01*
X207401237Y-153601308D01*
X207455639Y-153518786D01*
X207519847Y-153454120D01*
X207596227Y-153405971D01*
X207685804Y-153376267D01*
X207791964Y-153365826D01*
X207871351Y-153371551D01*
G37*
G36*
X209163357Y-154878178D02*
G01*
X208978893Y-154878178D01*
X208978893Y-153699767D01*
X208905491Y-153760838D01*
X208804229Y-153827170D01*
X208697662Y-153884832D01*
X208610056Y-153922699D01*
X208610056Y-153746845D01*
X208710380Y-153693474D01*
X208800263Y-153634110D01*
X208880524Y-153568792D01*
X208954158Y-153495410D01*
X209007712Y-153428043D01*
X209044472Y-153365826D01*
X209163357Y-153365826D01*
X209163357Y-154878178D01*
G37*
G36*
X195469476Y-155897148D02*
G01*
X195568796Y-155911465D01*
X195640028Y-155931988D01*
X195704597Y-155965425D01*
X195759920Y-156012347D01*
X195806998Y-156074320D01*
X195841686Y-156144490D01*
X195862495Y-156219159D01*
X195869555Y-156299634D01*
X195862829Y-156377505D01*
X195843308Y-156447211D01*
X195811271Y-156510300D01*
X195766057Y-156567904D01*
X195711541Y-156614541D01*
X195642141Y-156653677D01*
X195554958Y-156684791D01*
X195446404Y-156706573D01*
X195519392Y-156746974D01*
X195566205Y-156782228D01*
X195648961Y-156870709D01*
X195731253Y-156984461D01*
X195992470Y-157398178D01*
X195742518Y-157398178D01*
X195543674Y-157081639D01*
X195400242Y-156872078D01*
X195343211Y-156806656D01*
X195299309Y-156770321D01*
X195253700Y-156745399D01*
X195208634Y-156729837D01*
X195097992Y-156722602D01*
X194867457Y-156722602D01*
X194867457Y-157398178D01*
X194668613Y-157398178D01*
X194668613Y-156554074D01*
X194867457Y-156554074D01*
X195294730Y-156554074D01*
X195423307Y-156546112D01*
X195507862Y-156526139D01*
X195555932Y-156503144D01*
X195594412Y-156473351D01*
X195624641Y-156436471D01*
X195654631Y-156372040D01*
X195664574Y-156302565D01*
X195655780Y-156235462D01*
X195630255Y-156178246D01*
X195587180Y-156128451D01*
X195531363Y-156093029D01*
X195452470Y-156069236D01*
X195342906Y-156060215D01*
X194867457Y-156060215D01*
X194867457Y-156554074D01*
X194668613Y-156554074D01*
X194668613Y-155891688D01*
X195334663Y-155891688D01*
X195469476Y-155897148D01*
G37*
G36*
X196184903Y-157398178D02*
G01*
X196184903Y-155891688D01*
X197271082Y-155891688D01*
X197271082Y-156066077D01*
X196383747Y-156066077D01*
X196383747Y-156530627D01*
X197214753Y-156530627D01*
X197214753Y-156705016D01*
X196383747Y-156705016D01*
X196383747Y-157223788D01*
X197305978Y-157223788D01*
X197305978Y-157398178D01*
X196184903Y-157398178D01*
G37*
G36*
X198009672Y-157398178D02*
G01*
X197427702Y-155891688D01*
X197642850Y-155891688D01*
X198033302Y-156986476D01*
X198112162Y-157233222D01*
X198193129Y-156986476D01*
X198598877Y-155891688D01*
X198801752Y-155891688D01*
X198213645Y-157398178D01*
X198009672Y-157398178D01*
G37*
G36*
X198768779Y-156946817D02*
G01*
X198768779Y-156759238D01*
X199335453Y-156759238D01*
X199335453Y-156946817D01*
X198768779Y-156946817D01*
G37*
G36*
X200804024Y-157398178D02*
G01*
X200577519Y-157398178D01*
X200402305Y-156940955D01*
X199774174Y-156940955D01*
X199609218Y-157398178D01*
X199398101Y-157398178D01*
X199636057Y-156776824D01*
X199831601Y-156776824D01*
X200340848Y-156776824D01*
X200184044Y-156360909D01*
X200118525Y-156179413D01*
X200077524Y-156049499D01*
X200043093Y-156192921D01*
X199996557Y-156336362D01*
X199831601Y-156776824D01*
X199636057Y-156776824D01*
X199975033Y-155891688D01*
X200189173Y-155891688D01*
X200804024Y-157398178D01*
G37*
G36*
X201924527Y-155891551D02*
G01*
X201994715Y-155908002D01*
X202057173Y-155934552D01*
X202114085Y-155971539D01*
X202164140Y-156018098D01*
X202207840Y-156075145D01*
X202259557Y-156173814D01*
X202301080Y-156298810D01*
X202325292Y-156442110D01*
X202334877Y-156654275D01*
X202327868Y-156831233D01*
X202308878Y-156971622D01*
X202280563Y-157081547D01*
X202236578Y-157185144D01*
X202182361Y-157267863D01*
X202118173Y-157332873D01*
X202041800Y-157381241D01*
X201951945Y-157411112D01*
X201845140Y-157421625D01*
X201739442Y-157411284D01*
X201649245Y-157381732D01*
X201571404Y-157333647D01*
X201503871Y-157265645D01*
X201455778Y-157191520D01*
X201415356Y-157097613D01*
X201383770Y-156979953D01*
X201362914Y-156833907D01*
X201355311Y-156654275D01*
X201355333Y-156653725D01*
X201544904Y-156653725D01*
X201552504Y-156850992D01*
X201572055Y-156990056D01*
X201599381Y-157084385D01*
X201631458Y-157145478D01*
X201679578Y-157201138D01*
X201730523Y-157238521D01*
X201785169Y-157260383D01*
X201845140Y-157267752D01*
X201905031Y-157260361D01*
X201959633Y-157238420D01*
X202010575Y-157200877D01*
X202058730Y-157144928D01*
X202090881Y-157083575D01*
X202118235Y-156989154D01*
X202137783Y-156850303D01*
X202145375Y-156653725D01*
X202137753Y-156455837D01*
X202118161Y-156316591D01*
X202090806Y-156222360D01*
X202058730Y-156161515D01*
X202010655Y-156106232D01*
X201959406Y-156068968D01*
X201904086Y-156047094D01*
X201843033Y-156039699D01*
X201782267Y-156046519D01*
X201729267Y-156066309D01*
X201682237Y-156099264D01*
X201640159Y-156147135D01*
X201604075Y-156215656D01*
X201574048Y-156316077D01*
X201552979Y-156458272D01*
X201544904Y-156653725D01*
X201355333Y-156653725D01*
X201362398Y-156475816D01*
X201381563Y-156334802D01*
X201410082Y-156224896D01*
X201454412Y-156121308D01*
X201508814Y-156038786D01*
X201573022Y-155974120D01*
X201649402Y-155925971D01*
X201738979Y-155896267D01*
X201845140Y-155885826D01*
X201924527Y-155891551D01*
G37*
G36*
X203108964Y-155893589D02*
G01*
X203192669Y-155915692D01*
X203265142Y-155951158D01*
X203328182Y-156000131D01*
X203381189Y-156061123D01*
X203418183Y-156126946D01*
X203440457Y-156198749D01*
X203448075Y-156278202D01*
X203441737Y-156346109D01*
X203423381Y-156406223D01*
X203393212Y-156460102D01*
X203352129Y-156506150D01*
X203297519Y-156545969D01*
X203226791Y-156579445D01*
X203314035Y-156617027D01*
X203383307Y-156665601D01*
X203437359Y-156725258D01*
X203476974Y-156795451D01*
X203501210Y-156874817D01*
X203509624Y-156965593D01*
X203500869Y-157059512D01*
X203475382Y-157143683D01*
X203433291Y-157220110D01*
X203373336Y-157290192D01*
X203301522Y-157346620D01*
X203219250Y-157387384D01*
X203124520Y-157412734D01*
X203014666Y-157421625D01*
X202904845Y-157412702D01*
X202810127Y-157387258D01*
X202727844Y-157346328D01*
X202655995Y-157289642D01*
X202596278Y-157219384D01*
X202554193Y-157142187D01*
X202528614Y-157056577D01*
X202519883Y-156961380D01*
X202709301Y-156961380D01*
X202718533Y-157038253D01*
X202746670Y-157113512D01*
X202775681Y-157158869D01*
X202812479Y-157196624D01*
X202857862Y-157227452D01*
X202934388Y-157257648D01*
X203016772Y-157267752D01*
X203101401Y-157257935D01*
X203173145Y-157229725D01*
X203234942Y-157183030D01*
X203282477Y-157121894D01*
X203311096Y-157051007D01*
X203321038Y-156967425D01*
X203310840Y-156882680D01*
X203281411Y-156810482D01*
X203232378Y-156747881D01*
X203168828Y-156699902D01*
X203095833Y-156671049D01*
X203010544Y-156661053D01*
X202927405Y-156670931D01*
X202856454Y-156699435D01*
X202794847Y-156746873D01*
X202747504Y-156808489D01*
X202719118Y-156879072D01*
X202709301Y-156961380D01*
X202519883Y-156961380D01*
X202519799Y-156960464D01*
X202528600Y-156865044D01*
X202553640Y-156784006D01*
X202594080Y-156714542D01*
X202649415Y-156656422D01*
X202719030Y-156611448D01*
X202805655Y-156579445D01*
X202732885Y-156545794D01*
X202677134Y-156505774D01*
X202635570Y-156459552D01*
X202605282Y-156405290D01*
X202586709Y-156343715D01*
X202580249Y-156273073D01*
X202580796Y-156267303D01*
X202768744Y-156267303D01*
X202776714Y-156334875D01*
X202799559Y-156391661D01*
X202837346Y-156440135D01*
X202886745Y-156476866D01*
X202945316Y-156499300D01*
X203015673Y-156507180D01*
X203084028Y-156499408D01*
X203141464Y-156477179D01*
X203190429Y-156440593D01*
X203228398Y-156392687D01*
X203250877Y-156338971D01*
X203258573Y-156277469D01*
X203250610Y-156213375D01*
X203227407Y-156157683D01*
X203188323Y-156108300D01*
X203138017Y-156070347D01*
X203080527Y-156047573D01*
X203013658Y-156039699D01*
X202946032Y-156047464D01*
X202888384Y-156069816D01*
X202838445Y-156106835D01*
X202799351Y-156155070D01*
X202776490Y-156207946D01*
X202768744Y-156267303D01*
X202580796Y-156267303D01*
X202587792Y-156193486D01*
X202609769Y-156122097D01*
X202646128Y-156057186D01*
X202698036Y-155997567D01*
X202759999Y-155949811D01*
X202831598Y-155915128D01*
X202914674Y-155893455D01*
X203011643Y-155885826D01*
X203108964Y-155893589D01*
G37*
G36*
X203601215Y-157421625D02*
G01*
X204036731Y-155868240D01*
X204184284Y-155868240D01*
X203749776Y-157421625D01*
X203601215Y-157421625D01*
G37*
G36*
X204840786Y-155891551D02*
G01*
X204910975Y-155908002D01*
X204973432Y-155934552D01*
X205030345Y-155971539D01*
X205080400Y-156018098D01*
X205124100Y-156075145D01*
X205175816Y-156173814D01*
X205217339Y-156298810D01*
X205241552Y-156442110D01*
X205251137Y-156654275D01*
X205244127Y-156831233D01*
X205225138Y-156971622D01*
X205196823Y-157081547D01*
X205152837Y-157185144D01*
X205098621Y-157267863D01*
X205034432Y-157332873D01*
X204958060Y-157381241D01*
X204868205Y-157411112D01*
X204761399Y-157421625D01*
X204655701Y-157411284D01*
X204565504Y-157381732D01*
X204487664Y-157333647D01*
X204420131Y-157265645D01*
X204372037Y-157191520D01*
X204331616Y-157097613D01*
X204300029Y-156979953D01*
X204279174Y-156833907D01*
X204271570Y-156654275D01*
X204271592Y-156653725D01*
X204461164Y-156653725D01*
X204468764Y-156850992D01*
X204488315Y-156990056D01*
X204515641Y-157084385D01*
X204547717Y-157145478D01*
X204595837Y-157201138D01*
X204646783Y-157238521D01*
X204701428Y-157260383D01*
X204761399Y-157267752D01*
X204821290Y-157260361D01*
X204875892Y-157238420D01*
X204926835Y-157200877D01*
X204974989Y-157144928D01*
X205007141Y-157083575D01*
X205034494Y-156989154D01*
X205054042Y-156850303D01*
X205061635Y-156653725D01*
X205054012Y-156455837D01*
X205034420Y-156316591D01*
X205007065Y-156222360D01*
X204974989Y-156161515D01*
X204926915Y-156106232D01*
X204875666Y-156068968D01*
X204820345Y-156047094D01*
X204759293Y-156039699D01*
X204698527Y-156046519D01*
X204645527Y-156066309D01*
X204598497Y-156099264D01*
X204556418Y-156147135D01*
X204520335Y-156215656D01*
X204490308Y-156316077D01*
X204469239Y-156458272D01*
X204461164Y-156653725D01*
X204271592Y-156653725D01*
X204278657Y-156475816D01*
X204297823Y-156334802D01*
X204326342Y-156224896D01*
X204370672Y-156121308D01*
X204425073Y-156038786D01*
X204489282Y-155974120D01*
X204565662Y-155925971D01*
X204655238Y-155896267D01*
X204761399Y-155885826D01*
X204840786Y-155891551D01*
G37*
G36*
X205438074Y-156999573D02*
G01*
X205631697Y-156983178D01*
X205653916Y-157074329D01*
X205687580Y-157143959D01*
X205731623Y-157196402D01*
X205787341Y-157235970D01*
X205849668Y-157259628D01*
X205920667Y-157267752D01*
X205985109Y-157261377D01*
X206043296Y-157242723D01*
X206096635Y-157211666D01*
X206146073Y-157167002D01*
X206185401Y-157114238D01*
X206214051Y-157053223D01*
X206231987Y-156982397D01*
X206238305Y-156899739D01*
X206232178Y-156821140D01*
X206214870Y-156754648D01*
X206187344Y-156698133D01*
X206149645Y-156649970D01*
X206085535Y-156599729D01*
X206009383Y-156569185D01*
X205917645Y-156558471D01*
X205832057Y-156568968D01*
X205756719Y-156599687D01*
X205692240Y-156647382D01*
X205644062Y-156706482D01*
X205470864Y-156683950D01*
X205616402Y-155909273D01*
X206363327Y-155909273D01*
X206363327Y-156083662D01*
X205763955Y-156083662D01*
X205682988Y-156492342D01*
X205776729Y-156437758D01*
X205870728Y-156406207D01*
X205966829Y-156395805D01*
X206062635Y-156404601D01*
X206148662Y-156430214D01*
X206226900Y-156472494D01*
X206298755Y-156532642D01*
X206357338Y-156605024D01*
X206399236Y-156686508D01*
X206425048Y-156778870D01*
X206434035Y-156884535D01*
X206426297Y-156985406D01*
X206403776Y-157077004D01*
X206366875Y-157160931D01*
X206315150Y-157238443D01*
X206253010Y-157304512D01*
X206183722Y-157355077D01*
X206106332Y-157391417D01*
X206019311Y-157413833D01*
X205920667Y-157421625D01*
X205819207Y-157413811D01*
X205731036Y-157391489D01*
X205653906Y-157355594D01*
X205586085Y-157306037D01*
X205528756Y-157244225D01*
X205485228Y-157173574D01*
X205454874Y-157092685D01*
X205438074Y-156999573D01*
G37*
G36*
X206517475Y-157421625D02*
G01*
X206952990Y-155868240D01*
X207100543Y-155868240D01*
X206666035Y-157421625D01*
X206517475Y-157421625D01*
G37*
G36*
X208157138Y-157223788D02*
G01*
X208157138Y-157398178D01*
X207164291Y-157398178D01*
X207168634Y-157332874D01*
X207185815Y-157270316D01*
X207233777Y-157172069D01*
X207307173Y-157070923D01*
X207402227Y-156971730D01*
X207548515Y-156843868D01*
X207710597Y-156703653D01*
X207816191Y-156599636D01*
X207879434Y-156524216D01*
X207929560Y-156442394D01*
X207956953Y-156368791D01*
X207965529Y-156301191D01*
X207956681Y-156231109D01*
X207930831Y-156169953D01*
X207887127Y-156115445D01*
X207830841Y-156074023D01*
X207763745Y-156048638D01*
X207682788Y-156039699D01*
X207597284Y-156049256D01*
X207527368Y-156076269D01*
X207469564Y-156120207D01*
X207426303Y-156178431D01*
X207398966Y-156251323D01*
X207388689Y-156343048D01*
X207199095Y-156323448D01*
X207216871Y-156217793D01*
X207247773Y-156130206D01*
X207290694Y-156057646D01*
X207345641Y-155997842D01*
X207411862Y-155950396D01*
X207489291Y-155915557D01*
X207580047Y-155893598D01*
X207686818Y-155885826D01*
X207794226Y-155894147D01*
X207885280Y-155917669D01*
X207962840Y-155955098D01*
X208029094Y-156006360D01*
X208084519Y-156070598D01*
X208123438Y-156140808D01*
X208147017Y-156218298D01*
X208155123Y-156304947D01*
X208146002Y-156394256D01*
X208118212Y-156483091D01*
X208071589Y-156569255D01*
X207995754Y-156667464D01*
X207893952Y-156770911D01*
X207711456Y-156933078D01*
X207561040Y-157063388D01*
X207498232Y-157123313D01*
X207454516Y-157174344D01*
X207420471Y-157223788D01*
X208157138Y-157223788D01*
G37*
G36*
X208923550Y-155891551D02*
G01*
X208993738Y-155908002D01*
X209056196Y-155934552D01*
X209113108Y-155971539D01*
X209163163Y-156018098D01*
X209206863Y-156075145D01*
X209258580Y-156173814D01*
X209300103Y-156298810D01*
X209324316Y-156442110D01*
X209333900Y-156654275D01*
X209326891Y-156831233D01*
X209307901Y-156971622D01*
X209279586Y-157081547D01*
X209235601Y-157185144D01*
X209181384Y-157267863D01*
X209117196Y-157332873D01*
X209040823Y-157381241D01*
X208950968Y-157411112D01*
X208844163Y-157421625D01*
X208738465Y-157411284D01*
X208648268Y-157381732D01*
X208570427Y-157333647D01*
X208502894Y-157265645D01*
X208454801Y-157191520D01*
X208414379Y-157097613D01*
X208382793Y-156979953D01*
X208361937Y-156833907D01*
X208354334Y-156654275D01*
X208354356Y-156653725D01*
X208543927Y-156653725D01*
X208551527Y-156850992D01*
X208571078Y-156990056D01*
X208598404Y-157084385D01*
X208630481Y-157145478D01*
X208678601Y-157201138D01*
X208729546Y-157238521D01*
X208784192Y-157260383D01*
X208844163Y-157267752D01*
X208904054Y-157260361D01*
X208958656Y-157238420D01*
X209009598Y-157200877D01*
X209057753Y-157144928D01*
X209089904Y-157083575D01*
X209117258Y-156989154D01*
X209136806Y-156850303D01*
X209144398Y-156653725D01*
X209136776Y-156455837D01*
X209117184Y-156316591D01*
X209089829Y-156222360D01*
X209057753Y-156161515D01*
X209009678Y-156106232D01*
X208958430Y-156068968D01*
X208903109Y-156047094D01*
X208842056Y-156039699D01*
X208781290Y-156046519D01*
X208728290Y-156066309D01*
X208681260Y-156099264D01*
X208639182Y-156147135D01*
X208603098Y-156215656D01*
X208573071Y-156316077D01*
X208552002Y-156458272D01*
X208543927Y-156653725D01*
X208354356Y-156653725D01*
X208361421Y-156475816D01*
X208380586Y-156334802D01*
X208409105Y-156224896D01*
X208453435Y-156121308D01*
X208507837Y-156038786D01*
X208572045Y-155974120D01*
X208648425Y-155925971D01*
X208738002Y-155896267D01*
X208844163Y-155885826D01*
X208923550Y-155891551D01*
G37*
G36*
X210490146Y-157223788D02*
G01*
X210490146Y-157398178D01*
X209497298Y-157398178D01*
X209501641Y-157332874D01*
X209518822Y-157270316D01*
X209566785Y-157172069D01*
X209640181Y-157070923D01*
X209735235Y-156971730D01*
X209881523Y-156843868D01*
X210043604Y-156703653D01*
X210149198Y-156599636D01*
X210212442Y-156524216D01*
X210262567Y-156442394D01*
X210289961Y-156368791D01*
X210298537Y-156301191D01*
X210289689Y-156231109D01*
X210263839Y-156169953D01*
X210220135Y-156115445D01*
X210163848Y-156074023D01*
X210096753Y-156048638D01*
X210015795Y-156039699D01*
X209930291Y-156049256D01*
X209860375Y-156076269D01*
X209802571Y-156120207D01*
X209759310Y-156178431D01*
X209731973Y-156251323D01*
X209721697Y-156343048D01*
X209532103Y-156323448D01*
X209549878Y-156217793D01*
X209580780Y-156130206D01*
X209623702Y-156057646D01*
X209678649Y-155997842D01*
X209744870Y-155950396D01*
X209822299Y-155915557D01*
X209913055Y-155893598D01*
X210019826Y-155885826D01*
X210127233Y-155894147D01*
X210218288Y-155917669D01*
X210295848Y-155955098D01*
X210362101Y-156006360D01*
X210417527Y-156070598D01*
X210456446Y-156140808D01*
X210480024Y-156218298D01*
X210488131Y-156304947D01*
X210479010Y-156394256D01*
X210451219Y-156483091D01*
X210404597Y-156569255D01*
X210328762Y-156667464D01*
X210226960Y-156770911D01*
X210044464Y-156933078D01*
X209894048Y-157063388D01*
X209831239Y-157123313D01*
X209787524Y-157174344D01*
X209753479Y-157223788D01*
X210490146Y-157223788D01*
G37*
G36*
X211305959Y-155892515D02*
G01*
X211382468Y-155911636D01*
X211449537Y-155942391D01*
X211508638Y-155984836D01*
X211558582Y-156037777D01*
X211597796Y-156099980D01*
X211626567Y-156172873D01*
X211644376Y-156258418D01*
X211461011Y-156272706D01*
X211428902Y-156175276D01*
X211391310Y-156117368D01*
X211337371Y-156074108D01*
X211276647Y-156048482D01*
X211206846Y-156039699D01*
X211149719Y-156045291D01*
X211098583Y-156061590D01*
X211052148Y-156088608D01*
X210999703Y-156135572D01*
X210953896Y-156196341D01*
X210914762Y-156273256D01*
X210888824Y-156355967D01*
X210870461Y-156468655D01*
X210862555Y-156618829D01*
X210911340Y-156555898D01*
X210965480Y-156506234D01*
X211025404Y-156468437D01*
X211091060Y-156440983D01*
X211158119Y-156424696D01*
X211227362Y-156419252D01*
X211316739Y-156427873D01*
X211397731Y-156453114D01*
X211472200Y-156495102D01*
X211541428Y-156555356D01*
X211597279Y-156626986D01*
X211637464Y-156708162D01*
X211662340Y-156800709D01*
X211671029Y-156907066D01*
X211664135Y-157000128D01*
X211643792Y-157087594D01*
X211610030Y-157170574D01*
X211563470Y-157246519D01*
X211507806Y-157308112D01*
X211442510Y-157356962D01*
X211369140Y-157392573D01*
X211289064Y-157414204D01*
X211200709Y-157421625D01*
X211088902Y-157410632D01*
X210990675Y-157378834D01*
X210903207Y-157326480D01*
X210824636Y-157251815D01*
X210777313Y-157184177D01*
X210737725Y-157098389D01*
X210706872Y-156990785D01*
X210694106Y-156906883D01*
X210891223Y-156906883D01*
X210901323Y-157000100D01*
X210931706Y-157089424D01*
X210963021Y-157143942D01*
X211000660Y-157187740D01*
X211044913Y-157222139D01*
X211120184Y-157256555D01*
X211197595Y-157267752D01*
X211271381Y-157257420D01*
X211337535Y-157226702D01*
X211398454Y-157173505D01*
X211443685Y-157106038D01*
X211472193Y-157022086D01*
X211482443Y-156917141D01*
X211472329Y-156816418D01*
X211444195Y-156736076D01*
X211399462Y-156671677D01*
X211339287Y-156621767D01*
X211270554Y-156592125D01*
X211190451Y-156581918D01*
X211110874Y-156592009D01*
X211041010Y-156621570D01*
X210978326Y-156671677D01*
X210930736Y-156736180D01*
X210901525Y-156813386D01*
X210891223Y-156906883D01*
X210694106Y-156906883D01*
X210686519Y-156857024D01*
X210679098Y-156692194D01*
X210687227Y-156508240D01*
X210709603Y-156357670D01*
X210743656Y-156235381D01*
X210787498Y-156136844D01*
X210840024Y-156058200D01*
X210900212Y-155996030D01*
X210966977Y-155948423D01*
X211041212Y-155914217D01*
X211124319Y-155893140D01*
X211218111Y-155885826D01*
X211305959Y-155892515D01*
G37*
D12*
%TO.C,J103*%
X152908400Y-85778178D03*
X152908400Y-107778178D03*
D13*
X157948400Y-90478178D03*
D14*
X157948400Y-94678178D03*
X157948400Y-98878178D03*
X157948400Y-103078178D03*
X152448400Y-90478178D03*
X152448400Y-94678178D03*
X152448400Y-98878178D03*
X152448400Y-103078178D03*
%TD*%
D15*
%TO.C,TP3*%
X185658400Y-83003178D03*
%TD*%
D12*
%TO.C,J101*%
X226334400Y-123344178D03*
X239934400Y-123344178D03*
D16*
X231034400Y-118304178D03*
D17*
X235234400Y-118304178D03*
X231034400Y-123804178D03*
X235234400Y-123804178D03*
%TD*%
D12*
%TO.C,J104*%
X176355400Y-123217178D03*
X189955400Y-123217178D03*
D16*
X181055400Y-118177178D03*
D17*
X185255400Y-118177178D03*
X181055400Y-123677178D03*
X185255400Y-123677178D03*
%TD*%
D12*
%TO.C,J106*%
X247944400Y-77727178D03*
X221744400Y-77727178D03*
D18*
X243244400Y-82767178D03*
D17*
X239044400Y-82767178D03*
X234844400Y-82767178D03*
X230644400Y-82767178D03*
X226444400Y-82767178D03*
X243244400Y-77267178D03*
X239044400Y-77267178D03*
X234844400Y-77267178D03*
X230644400Y-77267178D03*
X226444400Y-77267178D03*
%TD*%
D12*
%TO.C,J102*%
X220943400Y-32388178D03*
X207343400Y-32388178D03*
D18*
X216243400Y-37428178D03*
D17*
X212043400Y-37428178D03*
X216243400Y-31928178D03*
X212043400Y-31928178D03*
%TD*%
D19*
%TO.C,H4*%
X151715200Y-122478178D03*
%TD*%
D12*
%TO.C,J108*%
X152905168Y-67567672D03*
X152905168Y-81167672D03*
D13*
X157945168Y-72267672D03*
D14*
X157945168Y-76467672D03*
X152445168Y-72267672D03*
X152445168Y-76467672D03*
%TD*%
D15*
%TO.C,TP1*%
X163708400Y-72203178D03*
%TD*%
D19*
%TO.C,H1*%
X151715200Y-33578178D03*
%TD*%
%TO.C,H3*%
X246965200Y-122478178D03*
%TD*%
D15*
%TO.C,TP2*%
X181608400Y-69103178D03*
%TD*%
D12*
%TO.C,J107*%
X217210400Y-77727178D03*
X191010400Y-77727178D03*
D18*
X212510400Y-82767178D03*
D17*
X208310400Y-82767178D03*
X204110400Y-82767178D03*
X199910400Y-82767178D03*
X195710400Y-82767178D03*
X212510400Y-77267178D03*
X208310400Y-77267178D03*
X204110400Y-77267178D03*
X199910400Y-77267178D03*
X195710400Y-77267178D03*
%TD*%
D19*
%TO.C,H2*%
X246965200Y-33578178D03*
%TD*%
D12*
%TO.C,J105*%
X192427400Y-32388178D03*
X178827400Y-32388178D03*
D18*
X187727400Y-37428178D03*
D17*
X183527400Y-37428178D03*
X187727400Y-31928178D03*
X183527400Y-31928178D03*
%TD*%
D20*
%TO.C,R4*%
X204408400Y-94440678D03*
X204408400Y-91515678D03*
%TD*%
D21*
%TO.C,R3*%
X206908400Y-68978178D03*
X206908400Y-71903178D03*
%TD*%
%TO.C,R5*%
X201708400Y-69053178D03*
X201708400Y-71978178D03*
%TD*%
D20*
%TO.C,R2*%
X215308400Y-94303178D03*
X215308400Y-91378178D03*
%TD*%
%LPD*%
D22*
X145365200Y-27228178D02*
X253315200Y-27228178D01*
X253315200Y-128828178D01*
X145365200Y-128828178D01*
X145365200Y-27228178D01*
M02*
