M48
; DRILL file {KiCad 9.0.6} date 2026-08-12T22:25:04-0400
; FORMAT={-:-/ absolute / inch / decimal}
; #@! TF.CreationDate,2026-08-12T22:25:04-04:00
; #@! TF.GenerationSoftware,Kicad,Pcbnew,9.0.6
; #@! TF.FileFunction,MixedPlating,1,6
FMAT,2
INCH
; #@! TA.AperFunction,Plated,PTH,ComponentDrill
T1C0.0079
; #@! TA.AperFunction,Plated,PTH,ViaDrill
T2C0.0118
; #@! TA.AperFunction,Plated,PTH,ComponentDrill
T3C0.0394
; #@! TA.AperFunction,Plated,PTH,ComponentDrill
T4C0.0551
; #@! TA.AperFunction,Plated,PTH,ComponentDrill
T5C0.1260
; #@! TA.AperFunction,NonPlated,NPTH,ComponentDrill
T6C0.1181
%
G90
G05
T1
X6.5835Y-7.3286
X6.5835Y-7.3738
X6.6288Y-7.3286
X6.6288Y-7.3738
X6.9279Y-5.301
X6.9279Y-5.3462
X6.9732Y-5.301
X6.9732Y-5.3462
X7.5806Y-7.3211
X7.5806Y-7.3664
X7.6259Y-7.3211
X7.6259Y-7.3664
X7.7429Y-5.3186
X7.7429Y-5.3638
X7.7882Y-5.3186
X7.7882Y-5.3638
X8.5435Y-7.1987
X8.5435Y-7.244
X8.5888Y-7.1987
X8.5888Y-7.244
X8.7829Y-5.3536
X8.7829Y-5.3988
X8.8282Y-5.3536
X8.8282Y-5.3988
T2
X6.0988Y-4.8257
X6.1025Y-4.918
X6.148Y-4.8257
X6.148Y-5.3375
X6.207Y-4.8257
X6.207Y-5.3375
X6.2562Y-5.2293
X6.3114Y-4.8954
X6.3508Y-5.4336
X6.3549Y-5.9239
X6.3549Y-5.9739
X6.3549Y-6.0239
X6.3586Y-4.7403
X6.4008Y-5.2636
X6.4295Y-4.7718
X6.4407Y-5.2859
X6.4413Y-4.9174
X6.4458Y-5.4336
X6.4549Y-6.3739
X6.4549Y-6.4239
X6.4549Y-6.4739
X6.4608Y-7.4512
X6.4649Y-6.323
X6.4708Y-7.1478
X6.4908Y-7.4812
X6.5049Y-5.9239
X6.5049Y-6.4239
X6.5049Y-6.4739
X6.5082Y-6.3072
X6.5098Y-7.6166
X6.5141Y-6.1891
X6.5161Y-6.2678
X6.5161Y-6.3466
X6.5258Y-7.1862
X6.5318Y-4.8741
X6.5408Y-7.2962
X6.5495Y-7.9135
X6.5549Y-5.9239
X6.5549Y-5.9739
X6.5549Y-6.0239
X6.5549Y-6.4239
X6.5549Y-6.4739
X6.5791Y-7.4529
X6.6041Y-7.4529
X6.6049Y-5.9739
X6.6049Y-6.0239
X6.6049Y-6.4239
X6.6049Y-6.4739
X6.6066Y-4.9174
X6.6145Y-4.7856
X6.644Y-4.6478
X6.6519Y-6.2206
X6.6758Y-7.6612
X6.6889Y-6.1812
X6.6932Y-4.7462
X6.6971Y-6.3268
X6.7031Y-7.4923
X6.7058Y-6.7212
X6.7058Y-6.7512
X6.7287Y-6.1773
X6.7358Y-5.7362
X6.7523Y-6.1852
X6.7562Y-6.1458
X6.7621Y-4.8249
X6.7621Y-4.8741
X6.7621Y-7.6829
X6.7658Y-5.7362
X6.7818Y-6.1458
X6.7897Y-6.0041
X6.7897Y-6.0867
X6.8074Y-6.1458
X6.8133Y-6.0041
X6.8133Y-6.0867
X6.8389Y-6.0041
X6.841Y-6.0867
X6.8547Y-5.1891
X6.8558Y-4.7586
X6.8803Y-6.1104
X6.8803Y-6.1399
X6.8912Y-5.0032
X6.9049Y-5.9739
X6.9049Y-6.0239
X6.9295Y-7.4234
X6.9549Y-5.9739
X6.9549Y-6.0239
X6.9558Y-5.0021
X6.9558Y-5.2236
X6.9688Y-6.1104
X6.9688Y-6.1399
X6.9908Y-5.2286
X7.0043Y-4.76
X7.0049Y-5.9739
X7.0049Y-6.0239
X7.0108Y-5.2686
X7.0158Y-5.3786
X7.0308Y-5.4886
X7.0549Y-5.9739
X7.0549Y-6.0239
X7.0574Y-6.1104
X7.0574Y-6.1399
X7.0658Y-5.1962
X7.0858Y-5.5336
X7.0958Y-5.2236
X7.1049Y-5.9739
X7.1049Y-6.0239
X7.1058Y-7.2412
X7.116Y-7.3889
X7.1549Y-5.9739
X7.1549Y-6.0239
X7.1549Y-6.0739
X7.1549Y-6.1239
X7.1549Y-6.1739
X7.1658Y-5.4512
X7.1972Y-6.3052
X7.1972Y-6.3328
X7.2049Y-5.9739
X7.2049Y-6.0239
X7.2049Y-6.0739
X7.2049Y-6.1239
X7.2049Y-6.1739
X7.2049Y-6.4239
X7.2049Y-6.4739
X7.2058Y-7.2412
X7.2158Y-5.2812
X7.2549Y-5.9739
X7.2549Y-6.0239
X7.2557Y-5.3035
X7.2641Y-5.4512
X7.27Y-6.1064
X7.27Y-6.136
X7.27Y-6.3052
X7.27Y-6.3328
X7.3049Y-5.9739
X7.3049Y-6.0239
X7.3507Y-6.1064
X7.3507Y-6.136
X7.3507Y-6.3052
X7.3507Y-6.3328
X7.3549Y-5.9739
X7.3549Y-6.0239
X7.3827Y-5.0312
X7.3862Y-5.0671
X7.458Y-7.4438
X7.4658Y-7.1362
X7.4658Y-7.2812
X7.4885Y-7.4726
X7.523Y-7.1788
X7.538Y-7.2888
X7.5458Y-7.9112
X7.563Y-7.4388
X7.598Y-7.4438
X7.6508Y-6.0662
X7.6708Y-5.2112
X7.6958Y-7.4812
X7.6958Y-7.9112
X7.7051Y-4.8111
X7.7129Y-4.3387
X7.7129Y-4.3623
X7.7129Y-4.5749
X7.7129Y-4.5986
X7.7708Y-5.2412
X7.7877Y-4.8111
X7.8058Y-5.2462
X7.8231Y-5.2993
X7.8308Y-5.3962
X7.8458Y-5.5062
X7.8758Y-6.0562
X7.8808Y-5.2162
X7.8858Y-5.7262
X7.8958Y-6.7712
X7.9008Y-5.5512
X7.9108Y-5.2412
X7.9158Y-5.7262
X7.9258Y-6.7712
X7.9413Y-5.9371
X7.9964Y-6.0237
X8.0318Y-5.632
X8.0318Y-5.6911
X8.0476Y-6.7009
X8.1007Y-5.76
X8.1008Y-7.2338
X8.1131Y-7.3815
X8.146Y-5.9396
X8.153Y-7.4038
X8.1696Y-5.1694
X8.1696Y-5.5926
X8.1696Y-5.7304
X8.203Y-7.2338
X8.2058Y-5.4862
X8.2451Y-6.5594
X8.2558Y-5.3162
X8.268Y-5.9804
X8.2957Y-5.3385
X8.3008Y-5.4862
X8.3429Y-5.7245
X8.3665Y-6.7403
X8.3665Y-6.7718
X8.4058Y-5.6222
X8.4137Y-5.7482
X8.4208Y-7.3213
X8.4308Y-7.0112
X8.4373Y-5.8111
X8.4452Y-5.1989
X8.4452Y-5.258
X8.4531Y-7.3505
X8.461Y-5.8426
X8.4767Y-6.7993
X8.4846Y-5.63
X8.4858Y-7.0563
X8.5008Y-7.1663
X8.5058Y-7.2763
X8.5108Y-7.7862
X8.524Y-6.6576
X8.5258Y-7.3163
X8.5608Y-7.3213
X8.5633Y-5.5828
X8.5869Y-6.6615
X8.5903Y-6.693
X8.646Y-5.8725
X8.6608Y-7.7862
X8.6617Y-7.3584
X8.7108Y-4.8112
X8.7108Y-5.2462
X8.7306Y-5.0513
X8.8008Y-5.7162
X8.8094Y-5.0513
X8.8108Y-5.2762
X8.8308Y-5.7162
X8.831Y-4.3545
X8.831Y-4.386
X8.831Y-4.5907
X8.831Y-4.6143
X8.8458Y-5.2812
X8.8608Y-4.8112
X8.8708Y-5.4312
X8.8852Y-5.5388
X8.9158Y-6.6312
X8.9208Y-5.2462
X8.9402Y-5.5838
X8.9508Y-5.2762
X9.0658Y-7.1113
X9.0758Y-6.6062
X9.076Y-7.2591
X9.1158Y-7.2813
X9.1658Y-7.1113
X9.3507Y-7.2747
X9.3507Y-7.2984
X9.3507Y-7.511
X9.3507Y-7.5424
T3
X6.4452Y-5.9932
X7.1499Y-5.8712
X7.3094Y-6.4184
T4
X6.0018Y-5.9958
X6.0018Y-6.1611
X6.0019Y-6.7127
X6.0019Y-6.8781
X6.0019Y-7.0434
X6.0019Y-7.2088
X6.2183Y-5.9958
X6.2183Y-6.1611
X6.2184Y-6.7127
X6.2184Y-6.8781
X6.2184Y-7.0434
X6.2184Y-7.2088
X7.1282Y-7.8032
X7.1282Y-8.0198
X7.2255Y-4.4076
X7.2255Y-4.6241
X7.2935Y-7.8032
X7.2935Y-8.0198
X7.3908Y-4.4076
X7.3908Y-4.6241
X7.7051Y-6.1926
X7.7051Y-6.4091
X7.8705Y-6.1926
X7.8705Y-6.4091
X8.0358Y-6.1926
X8.0358Y-6.4091
X8.2012Y-6.1926
X8.2012Y-6.4091
X8.3482Y-4.4076
X8.3482Y-4.6241
X8.3666Y-6.1926
X8.3666Y-6.4091
X8.5135Y-4.4076
X8.5135Y-4.6241
X8.9151Y-6.1926
X8.9151Y-6.4091
X9.0805Y-6.1926
X9.0805Y-6.4091
X9.0958Y-7.8082
X9.0958Y-8.0248
X9.2458Y-6.1926
X9.2458Y-6.4091
X9.2612Y-7.8082
X9.2612Y-8.0248
X9.4112Y-6.1926
X9.4112Y-6.4091
X9.5766Y-6.1926
X9.5766Y-6.4091
T5
X5.973Y-4.4726
X5.973Y-7.9726
X9.723Y-4.4726
X9.723Y-7.9726
T6
X6.0199Y-5.8107
X6.0199Y-6.3462
X6.02Y-6.5277
X6.02Y-7.3938
X6.9431Y-8.0017
X7.0404Y-4.4257
X7.4786Y-8.0017
X7.5201Y-6.2107
X7.5759Y-4.4257
X8.1631Y-4.4257
X8.5516Y-6.2107
X8.6986Y-4.4257
X8.7301Y-6.2107
X8.9108Y-8.0067
X9.4462Y-8.0067
X9.7616Y-6.2107
M30
