%TF.GenerationSoftware,KiCad,Pcbnew,9.0.6*%
%TF.CreationDate,2026-08-15T14:24:36-04:00*%
%TF.ProjectId,Isolated Multi-Rail Power Supply Monitor Arduino Shield Board,49736f6c-6174-4656-9420-4d756c74692d,rev?*%
%TF.SameCoordinates,Original*%
%TF.FileFunction,Copper,L4,Bot*%
%TF.FilePolarity,Positive*%
%FSLAX46Y46*%
G04 Gerber Fmt 4.6, Leading zero omitted, Abs format (unit mm)*
G04 Created by KiCad (PCBNEW 9.0.6) date 2026-08-15 14:24:36*
%MOMM*%
%LPD*%
G01*
G04 APERTURE LIST*
G04 Aperture macros list*
%AMRoundRect*
0 Rectangle with rounded corners*
0 $1 Rounding radius*
0 $2 $3 $4 $5 $6 $7 $8 $9 X,Y pos of 4 corners*
0 Add a 4 corners polygon primitive as box body*
4,1,4,$2,$3,$4,$5,$6,$7,$8,$9,$2,$3,0*
0 Add four circle primitives for the rounded corners*
1,1,$1+$1,$2,$3*
1,1,$1+$1,$4,$5*
1,1,$1+$1,$6,$7*
1,1,$1+$1,$8,$9*
0 Add four rect primitives between the rounded corners*
20,1,$1+$1,$2,$3,$4,$5,0*
20,1,$1+$1,$4,$5,$6,$7,0*
20,1,$1+$1,$6,$7,$8,$9,0*
20,1,$1+$1,$8,$9,$2,$3,0*%
G04 Aperture macros list end*
%TA.AperFunction,ComponentPad*%
%ADD10O,1.727200X1.727200*%
%TD*%
%TA.AperFunction,ComponentPad*%
%ADD11R,1.727200X1.727200*%
%TD*%
%TA.AperFunction,ComponentPad*%
%ADD12RoundRect,0.250001X1.099999X1.399999X-1.099999X1.399999X-1.099999X-1.399999X1.099999X-1.399999X0*%
%TD*%
%TA.AperFunction,ComponentPad*%
%ADD13O,2.700000X3.300000*%
%TD*%
%TA.AperFunction,WasherPad*%
%ADD14C,6.000000*%
%TD*%
%TA.AperFunction,ComponentPad*%
%ADD15C,2.000000*%
%TD*%
%TA.AperFunction,ComponentPad*%
%ADD16C,1.650000*%
%TD*%
%TA.AperFunction,ComponentPad*%
%ADD17R,1.478000X1.478000*%
%TD*%
%TA.AperFunction,ComponentPad*%
%ADD18C,1.478000*%
%TD*%
%TA.AperFunction,ComponentPad*%
%ADD19C,2.475000*%
%TD*%
%TA.AperFunction,HeatsinkPad*%
%ADD20C,0.500000*%
%TD*%
%TA.AperFunction,HeatsinkPad*%
%ADD21R,5.300000X5.300000*%
%TD*%
%TA.AperFunction,SMDPad,CuDef*%
%ADD22RoundRect,0.140000X-0.140000X-0.170000X0.140000X-0.170000X0.140000X0.170000X-0.140000X0.170000X0*%
%TD*%
%TA.AperFunction,SMDPad,CuDef*%
%ADD23RoundRect,0.140000X0.140000X0.170000X-0.140000X0.170000X-0.140000X-0.170000X0.140000X-0.170000X0*%
%TD*%
%TA.AperFunction,SMDPad,CuDef*%
%ADD24RoundRect,0.140000X-0.170000X0.140000X-0.170000X-0.140000X0.170000X-0.140000X0.170000X0.140000X0*%
%TD*%
%TA.AperFunction,SMDPad,CuDef*%
%ADD25RoundRect,0.218750X-0.218750X-0.256250X0.218750X-0.256250X0.218750X0.256250X-0.218750X0.256250X0*%
%TD*%
%TA.AperFunction,ViaPad*%
%ADD26C,0.600000*%
%TD*%
%TA.AperFunction,ViaPad*%
%ADD27C,0.508000*%
%TD*%
%TA.AperFunction,Conductor*%
%ADD28C,0.249936*%
%TD*%
%TA.AperFunction,Conductor*%
%ADD29C,0.200000*%
%TD*%
%TA.AperFunction,Conductor*%
%ADD30C,1.270000*%
%TD*%
%TA.AperFunction,Conductor*%
%ADD31C,0.152400*%
%TD*%
%TA.AperFunction,Profile*%
%ADD32C,0.100000*%
%TD*%
G04 APERTURE END LIST*
D10*
%TO.P,A201,*%
%TO.N,*%
X227525903Y-72634927D03*
%TO.P,A201,3V3,3.3V*%
%TO.N,unconnected-(A201-3.3V-Pad3V3)*%
X219905903Y-72634927D03*
%TO.P,A201,5V1,5V*%
%TO.N,unconnected-(A201-5V-Pad5V1)*%
X217365903Y-72634927D03*
%TO.P,A201,5V2,SPI_5V*%
%TO.N,unconnected-(A201-SPI_5V-Pad5V2)*%
X189298903Y-100574927D03*
%TO.P,A201,5V3,5V*%
%TO.N,unconnected-(A201-5V-Pad5V3)*%
X161485903Y-120894927D03*
%TO.P,A201,5V4,5V*%
%TO.N,unconnected-(A201-5V-Pad5V4)*%
X158945903Y-120894927D03*
%TO.P,A201,A0,A0*%
%TO.N,unconnected-(A201-PadA0)*%
X204665903Y-72634927D03*
%TO.P,A201,A1,A1*%
%TO.N,unconnected-(A201-PadA1)*%
X202125903Y-72634927D03*
%TO.P,A201,A2,A2*%
%TO.N,unconnected-(A201-PadA2)*%
X199585903Y-72634927D03*
%TO.P,A201,A3,A3*%
%TO.N,unconnected-(A201-PadA3)*%
X197045903Y-72634927D03*
%TO.P,A201,A4,A4*%
%TO.N,unconnected-(A201-PadA4)*%
X194505903Y-72634927D03*
%TO.P,A201,A5,A5*%
%TO.N,unconnected-(A201-PadA5)*%
X191965903Y-72634927D03*
%TO.P,A201,A6,A6*%
%TO.N,unconnected-(A201-PadA6)*%
X189425903Y-72634927D03*
%TO.P,A201,A7,A7*%
%TO.N,unconnected-(A201-PadA7)*%
X186885903Y-72634927D03*
%TO.P,A201,A8,A8*%
%TO.N,unconnected-(A201-PadA8)*%
X181805903Y-72634927D03*
%TO.P,A201,A9,A9*%
%TO.N,unconnected-(A201-PadA9)*%
X179265903Y-72634927D03*
%TO.P,A201,A10,A10*%
%TO.N,unconnected-(A201-PadA10)*%
X176725903Y-72634927D03*
%TO.P,A201,A11,A11*%
%TO.N,unconnected-(A201-PadA11)*%
X174185903Y-72634927D03*
%TO.P,A201,AREF,AREF*%
%TO.N,unconnected-(A201-PadAREF)*%
X231589903Y-120894927D03*
%TO.P,A201,CANR,CANRX*%
%TO.N,unconnected-(A201-CANRX-PadCANR)*%
X166565903Y-72634927D03*
%TO.P,A201,CANT,CANTX*%
%TO.N,unconnected-(A201-CANTX-PadCANT)*%
X164025903Y-72634927D03*
%TO.P,A201,D0,D0/RX0*%
%TO.N,unconnected-(A201-D0{slash}RX0-PadD0)*%
X191965903Y-120894927D03*
%TO.P,A201,D1,D1/TX0*%
%TO.N,unconnected-(A201-D1{slash}TX0-PadD1)*%
X194505903Y-120894927D03*
%TO.P,A201,D2,D2*%
%TO.N,/~{ETH_INT}*%
X197045903Y-120894927D03*
%TO.P,A201,D3,D3*%
%TO.N,unconnected-(A201-PadD3)*%
X199585903Y-120894927D03*
%TO.P,A201,D4,D4*%
%TO.N,unconnected-(A201-PadD4)*%
X202125903Y-120894927D03*
%TO.P,A201,D5,D5*%
%TO.N,unconnected-(A201-PadD5)*%
X204665903Y-120894927D03*
%TO.P,A201,D6,D6*%
%TO.N,unconnected-(A201-PadD6)*%
X207205903Y-120894927D03*
%TO.P,A201,D7,D7*%
%TO.N,unconnected-(A201-PadD7)*%
X209745903Y-120894927D03*
%TO.P,A201,D8,D8/SCL2*%
%TO.N,/I2C_SCL*%
X213809903Y-120894927D03*
%TO.P,A201,D9,D9/SDA2*%
%TO.N,/I2C_SDA*%
X216349903Y-120894927D03*
%TO.P,A201,D10,D10_CS*%
%TO.N,/~{SPI0_CS}*%
X218889903Y-120894927D03*
%TO.P,A201,D11,D11_MOSI*%
%TO.N,unconnected-(A201-D11_MOSI-PadD11)*%
X221429903Y-120894927D03*
%TO.P,A201,D12,D12_MISO*%
%TO.N,unconnected-(A201-D12_MISO-PadD12)*%
X223969903Y-120894927D03*
%TO.P,A201,D13,D13_SCK*%
%TO.N,unconnected-(A201-D13_SCK-PadD13)*%
X226509903Y-120894927D03*
%TO.P,A201,D14,D14/TX3*%
%TO.N,unconnected-(A201-D14{slash}TX3-PadD14)*%
X186885903Y-120894927D03*
%TO.P,A201,D15,D15/RX3*%
%TO.N,unconnected-(A201-D15{slash}RX3-PadD15)*%
X184345903Y-120894927D03*
%TO.P,A201,D16,D16/TX2*%
%TO.N,unconnected-(A201-D16{slash}TX2-PadD16)*%
X181805903Y-120894927D03*
%TO.P,A201,D17,D17/RX2*%
%TO.N,unconnected-(A201-D17{slash}RX2-PadD17)*%
X179265903Y-120894927D03*
%TO.P,A201,D18,D18/TX1*%
%TO.N,unconnected-(A201-D18{slash}TX1-PadD18)*%
X176725903Y-120894927D03*
%TO.P,A201,D19,D19/RX1*%
%TO.N,unconnected-(A201-D19{slash}RX1-PadD19)*%
X174185903Y-120894927D03*
%TO.P,A201,D20,D20/SDA*%
%TO.N,unconnected-(A201-D20{slash}SDA-PadD20)*%
X171645903Y-120894927D03*
%TO.P,A201,D21,D21/SCL*%
%TO.N,unconnected-(A201-D21{slash}SCL-PadD21)*%
X169105903Y-120894927D03*
%TO.P,A201,D22,D22*%
%TO.N,unconnected-(A201-PadD22)*%
X161485903Y-118354927D03*
%TO.P,A201,D23,D23*%
%TO.N,unconnected-(A201-PadD23)*%
X158945903Y-118354927D03*
%TO.P,A201,D24,D24*%
%TO.N,unconnected-(A201-PadD24)*%
X161485903Y-115814927D03*
%TO.P,A201,D25,D25*%
%TO.N,unconnected-(A201-PadD25)*%
X158945903Y-115814927D03*
%TO.P,A201,D26,D26*%
%TO.N,unconnected-(A201-PadD26)*%
X161485903Y-113274927D03*
%TO.P,A201,D27,D27*%
%TO.N,unconnected-(A201-PadD27)*%
X158945903Y-113274927D03*
%TO.P,A201,D28,D28*%
%TO.N,unconnected-(A201-PadD28)*%
X161485903Y-110734927D03*
%TO.P,A201,D29,D29*%
%TO.N,unconnected-(A201-PadD29)*%
X158945903Y-110734927D03*
%TO.P,A201,D30,D30*%
%TO.N,unconnected-(A201-PadD30)*%
X161485903Y-108194927D03*
%TO.P,A201,D31,D31*%
%TO.N,unconnected-(A201-PadD31)*%
X158945903Y-108194927D03*
%TO.P,A201,D32,D32*%
%TO.N,unconnected-(A201-PadD32)*%
X161485903Y-105654927D03*
%TO.P,A201,D33,D33*%
%TO.N,unconnected-(A201-PadD33)*%
X158945903Y-105654927D03*
%TO.P,A201,D34,D34*%
%TO.N,unconnected-(A201-PadD34)*%
X161485903Y-103114927D03*
%TO.P,A201,D35,D35*%
%TO.N,unconnected-(A201-PadD35)*%
X158945903Y-103114927D03*
%TO.P,A201,D36,D36*%
%TO.N,unconnected-(A201-PadD36)*%
X161485903Y-100574927D03*
%TO.P,A201,D37,D37*%
%TO.N,unconnected-(A201-PadD37)*%
X158945903Y-100574927D03*
%TO.P,A201,D38,D38*%
%TO.N,unconnected-(A201-PadD38)*%
X161485903Y-98034927D03*
%TO.P,A201,D39,D39*%
%TO.N,unconnected-(A201-PadD39)*%
X158945903Y-98034927D03*
%TO.P,A201,D40,D40*%
%TO.N,unconnected-(A201-PadD40)*%
X161485903Y-95494927D03*
%TO.P,A201,D41,D41*%
%TO.N,unconnected-(A201-PadD41)*%
X158945903Y-95494927D03*
%TO.P,A201,D42,D42*%
%TO.N,unconnected-(A201-PadD42)*%
X161485903Y-92954927D03*
%TO.P,A201,D43,D43*%
%TO.N,unconnected-(A201-PadD43)*%
X158945903Y-92954927D03*
%TO.P,A201,D44,D44*%
%TO.N,unconnected-(A201-PadD44)*%
X161485903Y-90414927D03*
%TO.P,A201,D45,D45*%
%TO.N,unconnected-(A201-PadD45)*%
X158945903Y-90414927D03*
%TO.P,A201,D46,D46*%
%TO.N,unconnected-(A201-PadD46)*%
X161485903Y-87874927D03*
%TO.P,A201,D47,D47*%
%TO.N,unconnected-(A201-PadD47)*%
X158945903Y-87874927D03*
%TO.P,A201,D48,D48*%
%TO.N,unconnected-(A201-PadD48)*%
X161485903Y-85334927D03*
%TO.P,A201,D49,D49*%
%TO.N,unconnected-(A201-PadD49)*%
X158945903Y-85334927D03*
%TO.P,A201,D50,D50*%
%TO.N,unconnected-(A201-PadD50)*%
X161485903Y-82794927D03*
%TO.P,A201,D51,D51*%
%TO.N,unconnected-(A201-PadD51)*%
X158945903Y-82794927D03*
%TO.P,A201,D52,D52*%
%TO.N,unconnected-(A201-PadD52)*%
X161485903Y-80254927D03*
%TO.P,A201,D53,D53*%
%TO.N,unconnected-(A201-PadD53)*%
X158945903Y-80254927D03*
%TO.P,A201,DAC0,DAC0*%
%TO.N,unconnected-(A201-PadDAC0)*%
X171645903Y-72634927D03*
%TO.P,A201,DAC1,DAC1*%
%TO.N,unconnected-(A201-PadDAC1)*%
X169105903Y-72634927D03*
D11*
%TO.P,A201,GND1,GND*%
%TO.N,GNDD*%
X229049903Y-120894927D03*
%TO.P,A201,GND2,GND*%
X214825903Y-72634927D03*
%TO.P,A201,GND3,GND*%
X212285903Y-72634927D03*
%TO.P,A201,GND4,SPI_GND*%
X189298903Y-95494927D03*
%TO.P,A201,GND5,GND*%
X161485903Y-77714927D03*
%TO.P,A201,GND6,GND*%
X158945903Y-77714927D03*
D10*
%TO.P,A201,IORF,IOREF*%
%TO.N,unconnected-(A201-IOREF-PadIORF)*%
X224985903Y-72634927D03*
%TO.P,A201,MISO,SPI_MISO*%
%TO.N,/SPI0_MISO*%
X191838903Y-100574927D03*
%TO.P,A201,MOSI,SPI_MOSI*%
%TO.N,/SPI0_MOSI*%
X189298903Y-98034927D03*
%TO.P,A201,RST1,RESET*%
%TO.N,/~{RST}*%
X222445903Y-72634927D03*
%TO.P,A201,RST2,SPI_RESET*%
%TO.N,unconnected-(A201-SPI_RESET-PadRST2)*%
X191838903Y-95494927D03*
%TO.P,A201,SCK,SPI_SCK*%
%TO.N,/SPI0_SCK*%
X191838903Y-98034927D03*
%TO.P,A201,SCL1,SCL1*%
%TO.N,unconnected-(A201-PadSCL1)*%
X236669903Y-120894927D03*
%TO.P,A201,SDA1,SDA1*%
%TO.N,unconnected-(A201-PadSDA1)*%
X234129903Y-120894927D03*
%TO.P,A201,VIN,VIN*%
%TO.N,+VDC*%
X209745903Y-72634927D03*
%TD*%
D12*
%TO.P,J309,1*%
%TO.N,/I2C_SDA_OB*%
X183211237Y-114869527D03*
D13*
%TO.P,J309,2*%
%TO.N,GNDD*%
X179011237Y-114869527D03*
%TO.P,J309,3*%
%TO.N,/I2C_SCL_OB*%
X174811237Y-114869527D03*
%TO.P,J309,4*%
%TO.N,GNDD*%
X170611237Y-114869527D03*
%TO.P,J309,5*%
X183211237Y-109369527D03*
%TO.P,J309,6*%
%TO.N,+VDC*%
X179011237Y-109369527D03*
%TO.P,J309,7*%
%TO.N,GNDD*%
X174811237Y-109369527D03*
%TO.P,J309,8*%
%TO.N,+3V3*%
X170611237Y-109369527D03*
%TD*%
D14*
%TO.P,REF\u002A\u002A,*%
%TO.N,*%
X252666963Y-133265102D03*
X252666963Y-63264772D03*
X156667193Y-133265102D03*
X156667193Y-63264772D03*
%TD*%
D15*
%TO.P,TP3,1,1*%
%TO.N,+3V3*%
X179236451Y-79050000D03*
%TD*%
%TO.P,TP2,1,1*%
%TO.N,GNDD*%
X165336451Y-83100000D03*
%TD*%
%TO.P,TP1,1,1*%
%TO.N,+VDC*%
X168436451Y-101000000D03*
%TD*%
D16*
%TO.P,J201,L1*%
%TO.N,+3V3*%
X210930000Y-78786000D03*
%TO.P,J201,L2*%
%TO.N,Net-(J201-PadL2)*%
X208390000Y-78786000D03*
%TO.P,J201,L3*%
%TO.N,Net-(J201-PadL3)*%
X198280000Y-78786000D03*
%TO.P,J201,L4*%
%TO.N,+3V3*%
X200820000Y-78786000D03*
D17*
%TO.P,J201,R1,TD+*%
%TO.N,/ET_TX{slash}P*%
X209050000Y-89246000D03*
D18*
%TO.P,J201,R2,TD-*%
%TO.N,/ET_TX{slash}N*%
X207780000Y-91786000D03*
%TO.P,J201,R3,RD+*%
%TO.N,/ET_RX{slash}P*%
X206510000Y-89246000D03*
%TO.P,J201,R4,TCT*%
%TO.N,+3V3A*%
X205240000Y-91786000D03*
%TO.P,J201,R5,RCT*%
X203970000Y-89246000D03*
%TO.P,J201,R6,RD-*%
%TO.N,/ET_RX{slash}N*%
X202700000Y-91786000D03*
%TO.P,J201,R7,NC*%
%TO.N,unconnected-(J201-NC-PadR7)*%
X201430000Y-89246000D03*
%TO.P,J201,R8*%
%TO.N,GNDD*%
X200160000Y-91786000D03*
D19*
%TO.P,J201,SH*%
%TO.N,GNDPWR*%
X212480000Y-86786000D03*
X196730000Y-86786000D03*
%TD*%
D15*
%TO.P,TP102,1,1*%
%TO.N,GNDD*%
X165319000Y-86960000D03*
%TD*%
D20*
%TO.P,U202,49,EP*%
%TO.N,GNDD*%
X207828000Y-102352000D03*
X206628000Y-102352000D03*
X205428000Y-102352000D03*
X204228000Y-102352000D03*
X203028000Y-102352000D03*
X207828000Y-103552000D03*
X206628000Y-103552000D03*
X205428000Y-103552000D03*
X204228000Y-103552000D03*
X203028000Y-103552000D03*
X207828000Y-104752000D03*
X206628000Y-104752000D03*
X205428000Y-104752000D03*
D21*
X205428000Y-104752000D03*
D20*
X204228000Y-104752000D03*
X203028000Y-104752000D03*
X207828000Y-105952000D03*
X206628000Y-105952000D03*
X205428000Y-105952000D03*
X204228000Y-105952000D03*
X203028000Y-105952000D03*
X207828000Y-107152000D03*
X206628000Y-107152000D03*
X205428000Y-107152000D03*
X204228000Y-107152000D03*
X203028000Y-107152000D03*
%TD*%
D15*
%TO.P,TP101,1,1*%
%TO.N,+VDC*%
X165319000Y-92040000D03*
%TD*%
D22*
%TO.P,C202,1*%
%TO.N,+3V3A*%
X203990000Y-87630000D03*
%TO.P,C202,2*%
%TO.N,GNDD*%
X204950000Y-87630000D03*
%TD*%
D23*
%TO.P,C216,1*%
%TO.N,+1V2A*%
X206637000Y-101018000D03*
%TO.P,C216,2*%
%TO.N,GNDD*%
X205677000Y-101018000D03*
%TD*%
D24*
%TO.P,C220,1*%
%TO.N,+3V3A*%
X201938000Y-103431000D03*
%TO.P,C220,2*%
%TO.N,GNDD*%
X201938000Y-104391000D03*
%TD*%
D23*
%TO.P,C223,1*%
%TO.N,+3V3A*%
X204097000Y-100256000D03*
%TO.P,C223,2*%
%TO.N,GNDD*%
X203137000Y-100256000D03*
%TD*%
D25*
%TO.P,FB202,1*%
%TO.N,+3V3*%
X198343500Y-103431000D03*
%TO.P,FB202,2*%
%TO.N,+3V3A*%
X199918500Y-103431000D03*
%TD*%
D26*
%TO.N,GNDD*%
X169216451Y-86785000D03*
X167946451Y-85515000D03*
X172311451Y-93100000D03*
X190756000Y-116233000D03*
X173311451Y-93200000D03*
X167946451Y-84245000D03*
D27*
X214976000Y-117186000D03*
D26*
X167946451Y-77895000D03*
X172161451Y-85450000D03*
D27*
X198509000Y-106733000D03*
X203970000Y-111559000D03*
D26*
X167946451Y-89325000D03*
X173026451Y-82975000D03*
X171756451Y-81705000D03*
X170486451Y-81705000D03*
X170811451Y-91650000D03*
X171411451Y-85450000D03*
X171411451Y-87700000D03*
X169216451Y-81705000D03*
X201006000Y-112233000D03*
X167946451Y-80435000D03*
X174211451Y-95750000D03*
D27*
X204054000Y-95977000D03*
D26*
X173111451Y-93800000D03*
X167946451Y-86785000D03*
X206502000Y-91821000D03*
D27*
X197239000Y-94795000D03*
D26*
X171756451Y-82975000D03*
X169216451Y-79165000D03*
D27*
X201938000Y-111559000D03*
D26*
X203581000Y-96520000D03*
X171411451Y-89950000D03*
D27*
X212098000Y-103431000D03*
D26*
X167946451Y-81705000D03*
X171311451Y-78000000D03*
X173026451Y-81705000D03*
X170811451Y-92250000D03*
X210566000Y-97409000D03*
X169216451Y-88055000D03*
X169216451Y-82975000D03*
D27*
X208153000Y-93472000D03*
D26*
X170811451Y-90945997D03*
X201422000Y-93980000D03*
X176411451Y-99400000D03*
X168711451Y-91650000D03*
D27*
X202580400Y-99621000D03*
D26*
X205232000Y-89281000D03*
D27*
X200279000Y-94869000D03*
D26*
X170486451Y-82975000D03*
X173411451Y-99250000D03*
X202692000Y-89281000D03*
X210566000Y-93980000D03*
X180646451Y-98215000D03*
D27*
X204097000Y-97081000D03*
X205631600Y-99620000D03*
D26*
X180646451Y-100755000D03*
X169216451Y-89325000D03*
X172311451Y-92450000D03*
X180646451Y-99485000D03*
X205867000Y-87630000D03*
D27*
X201182999Y-104836010D03*
X199906000Y-111559000D03*
D26*
X167946451Y-79165000D03*
D27*
X198509000Y-107749000D03*
D26*
X179376451Y-98215000D03*
D27*
X197493000Y-102669000D03*
D26*
X172161451Y-89950000D03*
D27*
X199525000Y-98605000D03*
D26*
X172311451Y-91800000D03*
X207772000Y-89281000D03*
X168711451Y-91000000D03*
X169216451Y-84245000D03*
D27*
X208184400Y-100255000D03*
D26*
X172161451Y-87700000D03*
X179376451Y-96945000D03*
X193683000Y-91024000D03*
X178106451Y-100755000D03*
X168711451Y-92250000D03*
X201422000Y-91821000D03*
D27*
X199652000Y-99875000D03*
D26*
X172061451Y-78000000D03*
X169216451Y-80435000D03*
D27*
X201049000Y-97208000D03*
D26*
X180646451Y-96945000D03*
X169216451Y-85515000D03*
X179376451Y-99485000D03*
X210185000Y-91821000D03*
X171311451Y-80050000D03*
D27*
X200922000Y-111559000D03*
X209736125Y-102970632D03*
D26*
X172061451Y-80050000D03*
X169216451Y-77895000D03*
X167946451Y-88055000D03*
D27*
X205748000Y-111559000D03*
D26*
X167946451Y-82975000D03*
X199898000Y-89281000D03*
D27*
X205070000Y-93437000D03*
D26*
X179376451Y-100755000D03*
D27*
X208161000Y-111813000D03*
D26*
%TO.N,+3V3*%
X176361451Y-81900000D03*
X177061451Y-80050000D03*
X175411451Y-99200000D03*
X180646451Y-81705000D03*
X190756000Y-113483000D03*
X179376451Y-81705000D03*
D27*
X210320000Y-99367000D03*
D26*
X176361451Y-80050000D03*
X203756000Y-114983000D03*
D27*
X202954000Y-111559000D03*
D26*
X176361451Y-78000000D03*
D27*
X215611000Y-118456000D03*
X208161000Y-109273000D03*
D26*
X193101000Y-116138000D03*
X190756000Y-114983000D03*
D27*
X201049000Y-107647403D03*
X218414379Y-118446621D03*
D26*
X177061451Y-78000000D03*
X203756000Y-113483000D03*
D27*
X197493000Y-103431000D03*
D26*
X177061451Y-81900000D03*
X176811451Y-100500000D03*
D27*
%TO.N,+3V3A*%
X204615600Y-99620000D03*
X201133000Y-103431000D03*
%TO.N,/~{SPI0_CS}*%
X204614264Y-117694000D03*
%TO.N,+1V2A*%
X206646000Y-100255000D03*
X197196000Y-101184000D03*
%TO.N,+1V2D*%
X201978000Y-101058000D03*
X210404000Y-104359000D03*
X200968000Y-106733000D03*
X206848000Y-110836000D03*
%TO.N,/SPI0_MOSI*%
X206511318Y-109607340D03*
%TO.N,/SPI0_MISO*%
X207102000Y-109312000D03*
%TO.N,/SPI0_SCK*%
X205146632Y-109075972D03*
%TO.N,/ET_RX{slash}N*%
X206129000Y-96993000D03*
%TO.N,/ET_RX{slash}P*%
X205122000Y-96993000D03*
%TO.N,/ET_TX{slash}P*%
X207549774Y-96993000D03*
%TO.N,/ET_TX{slash}N*%
X208626000Y-96993000D03*
%TO.N,/I2C_SDA_OB*%
X196434000Y-117313000D03*
X197706000Y-117313000D03*
D26*
%TO.N,+VDC*%
X166676451Y-103295000D03*
X169216451Y-98215000D03*
X177411451Y-99200000D03*
X169216451Y-96945000D03*
X166676451Y-98215000D03*
X167946451Y-103295000D03*
X176910251Y-94601200D03*
X166676451Y-99485000D03*
X167946451Y-98215000D03*
X169216451Y-103295000D03*
X167946451Y-96945000D03*
X173211451Y-94810000D03*
D27*
%TO.N,/~{ACT}*%
X214595000Y-81118000D03*
X201006000Y-105502000D03*
%TO.N,/~{LNK}*%
X201114154Y-104179206D03*
X194656000Y-82007000D03*
%TO.N,/I2C_SDA*%
X197704000Y-113630000D03*
%TO.N,/I2C_SCL*%
X196688000Y-113630000D03*
%TD*%
D28*
%TO.N,GNDD*%
X201204775Y-104836010D02*
X201211872Y-104843107D01*
X201182999Y-104836010D02*
X201204775Y-104836010D01*
D29*
X204950000Y-87630000D02*
X205867000Y-87630000D01*
D28*
X201211872Y-104843107D02*
X201485893Y-104843107D01*
X203137000Y-100177600D02*
X202580400Y-99621000D01*
X205677000Y-99665400D02*
X205631600Y-99620000D01*
X205677000Y-101018000D02*
X205677000Y-99665400D01*
X201485893Y-104843107D02*
X201938000Y-104391000D01*
%TO.N,+3V3*%
X198343500Y-103431000D02*
X197493000Y-103431000D01*
%TO.N,+3V3A*%
X199918500Y-103431000D02*
X201938000Y-103431000D01*
X206661368Y-93207368D02*
X205240000Y-91786000D01*
X204097000Y-101776000D02*
X204054000Y-101819000D01*
X204689000Y-99693400D02*
X204615600Y-99620000D01*
X203970000Y-87595000D02*
X203970000Y-89246000D01*
X199918500Y-103431000D02*
X199918500Y-102652500D01*
X204097000Y-100256000D02*
X204097000Y-101776000D01*
X204601000Y-100256000D02*
X204689000Y-100168000D01*
X204097000Y-100256000D02*
X204601000Y-100256000D01*
X200752000Y-101819000D02*
X204054000Y-101819000D01*
X207356000Y-101438000D02*
X207356000Y-98263000D01*
X199918500Y-102652500D02*
X200752000Y-101819000D01*
X207356000Y-98263000D02*
X206661368Y-97568368D01*
X204689000Y-100168000D02*
X204689000Y-99693400D01*
X206661368Y-97568368D02*
X206661368Y-93207368D01*
X204054000Y-101819000D02*
X206975000Y-101819000D01*
X206975000Y-101819000D02*
X207356000Y-101438000D01*
%TO.N,/~{SPI0_CS}*%
X215220883Y-117694000D02*
X216910290Y-117694000D01*
X214755485Y-117718368D02*
X215196515Y-117718368D01*
X214731117Y-117694000D02*
X214755485Y-117718368D01*
X218889903Y-119673613D02*
X218889903Y-120894927D01*
X216910290Y-117694000D02*
X218889903Y-119673613D01*
X215196515Y-117718368D02*
X215220883Y-117694000D01*
X204614264Y-117694000D02*
X214731117Y-117694000D01*
%TO.N,+1V2A*%
X197196000Y-101184000D02*
X199736000Y-101184000D01*
X206637000Y-100264000D02*
X206646000Y-100255000D01*
X201831368Y-99088632D02*
X206022632Y-99088632D01*
X206022632Y-99088632D02*
X206646000Y-99712000D01*
X206637000Y-101018000D02*
X206637000Y-100264000D01*
X199736000Y-101184000D02*
X201831368Y-99088632D01*
X206646000Y-99712000D02*
X206646000Y-100255000D01*
D30*
%TO.N,GNDPWR*%
X196730000Y-86786000D02*
X200164000Y-86786000D01*
X210646182Y-86786000D02*
X212480000Y-86786000D01*
X200164000Y-86786000D02*
X200971000Y-85979000D01*
X209839182Y-85979000D02*
X210646182Y-86786000D01*
X200971000Y-85979000D02*
X209839182Y-85979000D01*
D28*
%TO.N,/SPI0_MOSI*%
X198253340Y-109607340D02*
X193386000Y-104740000D01*
X193386000Y-104740000D02*
X193386000Y-99660000D01*
X193386000Y-99660000D02*
X192902895Y-99176895D01*
X206511318Y-109607340D02*
X198253340Y-109607340D01*
X190440871Y-99176895D02*
X189298903Y-98034927D01*
X192902895Y-99176895D02*
X190440871Y-99176895D01*
%TO.N,/SPI0_MISO*%
X198085000Y-110201000D02*
X191838903Y-103954903D01*
X207102000Y-109820000D02*
X206721000Y-110201000D01*
X206721000Y-110201000D02*
X198085000Y-110201000D01*
X191838903Y-103954903D02*
X191838903Y-100574927D01*
X207102000Y-109312000D02*
X207102000Y-109820000D01*
%TO.N,/SPI0_SCK*%
X204799552Y-109056476D02*
X204798028Y-109058000D01*
X205127136Y-109056476D02*
X204799552Y-109056476D01*
X194148000Y-99122710D02*
X193060217Y-98034927D01*
X194148000Y-104613000D02*
X194148000Y-99122710D01*
X193060217Y-98034927D02*
X191838903Y-98034927D01*
X198593000Y-109058000D02*
X194148000Y-104613000D01*
X205146632Y-109075972D02*
X205127136Y-109056476D01*
X204798028Y-109058000D02*
X198593000Y-109058000D01*
D31*
%TO.N,/ET_RX{slash}N*%
X202700000Y-91786000D02*
X202700000Y-92853755D01*
X202460000Y-93093755D02*
X202030248Y-93093755D01*
X202460000Y-94293755D02*
X202030248Y-94293755D01*
X202700000Y-95253755D02*
X202700000Y-96599288D01*
X205777900Y-97897626D02*
X205777900Y-97344100D01*
X202700000Y-95133755D02*
X202700000Y-95253755D01*
X205777900Y-97344100D02*
X206129000Y-96993000D01*
X203669853Y-98475379D02*
X205200147Y-98475379D01*
X202030248Y-93693755D02*
X202460000Y-93693755D01*
X202030248Y-94893755D02*
X202460000Y-94893755D01*
X202700000Y-93933755D02*
X202700000Y-94053755D01*
X201790248Y-93333755D02*
X201790248Y-93453755D01*
X202700000Y-96599288D02*
X202700000Y-97505526D01*
X205200147Y-98475379D02*
X205777900Y-97897626D01*
X201790248Y-94533755D02*
X201790248Y-94653755D01*
X202700000Y-97505526D02*
X203669853Y-98475379D01*
X202030248Y-94293755D02*
G75*
G03*
X201790155Y-94533755I-48J-240045D01*
G01*
X201790248Y-94653755D02*
G75*
G03*
X202030248Y-94893752I239952J-45D01*
G01*
X202460000Y-93693755D02*
G75*
G02*
X202700045Y-93933755I0J-240045D01*
G01*
X202030248Y-93093755D02*
G75*
G03*
X201790155Y-93333755I-48J-240045D01*
G01*
X202460000Y-94893755D02*
G75*
G02*
X202700045Y-95133755I0J-240045D01*
G01*
X202700000Y-94053755D02*
G75*
G02*
X202460000Y-94293800I-240000J-45D01*
G01*
X202700000Y-92853755D02*
G75*
G02*
X202460000Y-93093800I-240000J-45D01*
G01*
X201790248Y-93453755D02*
G75*
G03*
X202030248Y-93693752I239952J-45D01*
G01*
%TO.N,/ET_RX{slash}P*%
X203004800Y-93343200D02*
X203927000Y-92421000D01*
X203927000Y-91405000D02*
X206086000Y-89246000D01*
X205473100Y-97771374D02*
X205073895Y-98170579D01*
X205073895Y-98170579D02*
X203796105Y-98170579D01*
X205122000Y-96993000D02*
X205473100Y-97344100D01*
X203927000Y-92421000D02*
X203927000Y-91405000D01*
X203004800Y-97379274D02*
X203004800Y-93343200D01*
X203796105Y-98170579D02*
X203004800Y-97379274D01*
X205473100Y-97344100D02*
X205473100Y-97771374D01*
%TO.N,/ET_TX{slash}P*%
X209050000Y-91570473D02*
X209794400Y-92314873D01*
X209794400Y-97317022D02*
X209794400Y-97564126D01*
X207935487Y-97378713D02*
X207549774Y-96993000D01*
X209794400Y-97117022D02*
X209794400Y-97317022D01*
X209794400Y-92314873D02*
X209794400Y-95317022D01*
X208992058Y-98366468D02*
X208386942Y-98366468D01*
X210042000Y-95564622D02*
X210194037Y-95564622D01*
X209050000Y-89246000D02*
X209050000Y-91570473D01*
X207935487Y-97915013D02*
X207935487Y-97378713D01*
X210194037Y-96869422D02*
X210042000Y-96869422D01*
X209794400Y-97564126D02*
X208992058Y-98366468D01*
X208386942Y-98366468D02*
X207935487Y-97915013D01*
X210746437Y-96117022D02*
X210746437Y-96317022D01*
X209794400Y-95317022D02*
G75*
G03*
X210042000Y-95564600I247600J22D01*
G01*
X210746437Y-96317022D02*
G75*
G02*
X210194037Y-96869437I-552437J22D01*
G01*
X210042000Y-96869422D02*
G75*
G03*
X209794422Y-97117022I0J-247578D01*
G01*
X210194037Y-95564622D02*
G75*
G02*
X210746378Y-96117022I-37J-552378D01*
G01*
%TO.N,/ET_TX{slash}N*%
X209489600Y-94841127D02*
X209489600Y-95317022D01*
X210441637Y-96117022D02*
X210441637Y-96317022D01*
X209489600Y-94721127D02*
X209489600Y-94841127D01*
X208865806Y-98061668D02*
X208513194Y-98061668D01*
X208240287Y-97788761D02*
X208240287Y-97378713D01*
X209489600Y-93521127D02*
X209489600Y-93641127D01*
X208915420Y-93281127D02*
X209249600Y-93281127D01*
X208834473Y-91786000D02*
X209342230Y-92293757D01*
X209489600Y-97117022D02*
X209489600Y-97317022D01*
X209489600Y-97437874D02*
X208865806Y-98061668D01*
X208675420Y-92921127D02*
X208675420Y-93041127D01*
X209249600Y-92681127D02*
X208915420Y-92681127D01*
X208865392Y-94481127D02*
X209249600Y-94481127D01*
X209342230Y-92293757D02*
X209489600Y-92441127D01*
X210194037Y-96564622D02*
X210042000Y-96564622D01*
X210042000Y-95869422D02*
X210194037Y-95869422D01*
X208625392Y-94121127D02*
X208625392Y-94241127D01*
X208513194Y-98061668D02*
X208240287Y-97788761D01*
X209249600Y-93881127D02*
X208865392Y-93881127D01*
X207780000Y-91786000D02*
X208834473Y-91786000D01*
X209489600Y-97317022D02*
X209489600Y-97437874D01*
X208240287Y-97378713D02*
X208626000Y-96993000D01*
X209489600Y-93641127D02*
G75*
G02*
X209249600Y-93881100I-240000J27D01*
G01*
X210042000Y-96564622D02*
G75*
G03*
X209489622Y-97117022I0J-552378D01*
G01*
X208625392Y-94241127D02*
G75*
G03*
X208865392Y-94481108I240008J27D01*
G01*
X209489600Y-92441127D02*
G75*
G02*
X209249600Y-92681100I-240000J27D01*
G01*
X208675420Y-93041127D02*
G75*
G03*
X208915420Y-93281080I239980J27D01*
G01*
X208865392Y-93881127D02*
G75*
G03*
X208625427Y-94121127I8J-239973D01*
G01*
X210194037Y-95869422D02*
G75*
G02*
X210441578Y-96117022I-37J-247578D01*
G01*
X209249600Y-94481127D02*
G75*
G02*
X209489573Y-94721127I0J-239973D01*
G01*
X208915420Y-92681127D02*
G75*
G03*
X208675427Y-92921127I-20J-239973D01*
G01*
X209249600Y-93281127D02*
G75*
G02*
X209489573Y-93521127I0J-239973D01*
G01*
X210441637Y-96317022D02*
G75*
G02*
X210194037Y-96564637I-247637J22D01*
G01*
X209489600Y-95317022D02*
G75*
G03*
X210042000Y-95869400I552400J22D01*
G01*
D28*
%TO.N,/I2C_SDA_OB*%
X197706000Y-117313000D02*
X196434000Y-117313000D01*
D30*
%TO.N,+VDC*%
X170641710Y-101000000D02*
X168436451Y-101000000D01*
D29*
X177411451Y-98000000D02*
X177411451Y-99200000D01*
D30*
X179011237Y-109369527D02*
X170641710Y-101000000D01*
D29*
X173211451Y-94810000D02*
X174221451Y-94810000D01*
X174221451Y-94810000D02*
X177411451Y-98000000D01*
D28*
%TO.N,/~{ACT}*%
X195164000Y-80483000D02*
X191735000Y-83912000D01*
X197323000Y-105502000D02*
X201006000Y-105502000D01*
X191735000Y-83912000D02*
X191735000Y-91405000D01*
X191735000Y-91405000D02*
X195164000Y-94834000D01*
X195164000Y-103343000D02*
X197323000Y-105502000D01*
X214595000Y-81118000D02*
X213960000Y-80483000D01*
X213960000Y-80483000D02*
X195164000Y-80483000D01*
X195164000Y-94834000D02*
X195164000Y-103343000D01*
%TO.N,/~{LNK}*%
X192497000Y-91151000D02*
X192497000Y-84166000D01*
X200371000Y-104613000D02*
X197196000Y-104613000D01*
X201114154Y-104179206D02*
X200804794Y-104179206D01*
X192497000Y-84166000D02*
X194656000Y-82007000D01*
X197196000Y-104613000D02*
X195672000Y-103089000D01*
X200804794Y-104179206D02*
X200371000Y-104613000D01*
X195672000Y-94326000D02*
X192497000Y-91151000D01*
X195672000Y-103089000D02*
X195672000Y-94326000D01*
%TO.N,/I2C_SDA*%
X197704000Y-113630000D02*
X197704000Y-114392000D01*
X214087000Y-118583000D02*
X216349903Y-120845903D01*
X197704000Y-114392000D02*
X201895000Y-118583000D01*
X201895000Y-118583000D02*
X214087000Y-118583000D01*
%TO.N,/I2C_SCL*%
X212436000Y-119472000D02*
X212436000Y-119521024D01*
X201133000Y-119472000D02*
X212436000Y-119472000D01*
X212436000Y-119521024D02*
X213809903Y-120894927D01*
X196688000Y-115027000D02*
X201133000Y-119472000D01*
X196688000Y-113630000D02*
X196688000Y-115027000D01*
%TD*%
D32*
X251167193Y-58283204D02*
X251167193Y-58283204D01*
G75*
G02*
X257648771Y-64782802I7J-6481596D01*
G01*
X257648771Y-131765332D01*
X257648531Y-131765332D01*
G75*
G02*
X251167000Y-138246830I-6481431J-68D01*
G01*
X158167000Y-138246830D01*
X158167000Y-138246670D01*
G75*
G02*
X151685385Y-131765092I0J6481570D01*
G01*
X151685381Y-131765092D01*
X151685381Y-64764542D01*
X151685625Y-64764542D01*
G75*
G02*
X158167200Y-58282964I6481575J42D01*
G01*
X251167193Y-58282964D01*
X251167193Y-58283204D01*
M02*
