%TF.GenerationSoftware,KiCad,Pcbnew,9.0.6*%
%TF.CreationDate,2026-08-15T14:24:36-04:00*%
%TF.ProjectId,Isolated Multi-Rail Power Supply Monitor Arduino Shield Board,49736f6c-6174-4656-9420-4d756c74692d,rev?*%
%TF.SameCoordinates,Original*%
%TF.FileFunction,Soldermask,Top*%
%TF.FilePolarity,Negative*%
%FSLAX46Y46*%
G04 Gerber Fmt 4.6, Leading zero omitted, Abs format (unit mm)*
G04 Created by KiCad (PCBNEW 9.0.6) date 2026-08-15 14:24:36*
%MOMM*%
%LPD*%
G01*
G04 APERTURE LIST*
G04 Aperture macros list*
%AMRoundRect*
0 Rectangle with rounded corners*
0 $1 Rounding radius*
0 $2 $3 $4 $5 $6 $7 $8 $9 X,Y pos of 4 corners*
0 Add a 4 corners polygon primitive as box body*
4,1,4,$2,$3,$4,$5,$6,$7,$8,$9,$2,$3,0*
0 Add four circle primitives for the rounded corners*
1,1,$1+$1,$2,$3*
1,1,$1+$1,$4,$5*
1,1,$1+$1,$6,$7*
1,1,$1+$1,$8,$9*
0 Add four rect primitives between the rounded corners*
20,1,$1+$1,$2,$3,$4,$5,0*
20,1,$1+$1,$4,$5,$6,$7,0*
20,1,$1+$1,$6,$7,$8,$9,0*
20,1,$1+$1,$8,$9,$2,$3,0*%
G04 Aperture macros list end*
%ADD10RoundRect,0.135000X-0.135000X-0.185000X0.135000X-0.185000X0.135000X0.185000X-0.135000X0.185000X0*%
%ADD11RoundRect,0.225000X-0.225000X-0.250000X0.225000X-0.250000X0.225000X0.250000X-0.225000X0.250000X0*%
%ADD12O,1.727200X1.727200*%
%ADD13R,1.727200X1.727200*%
%ADD14RoundRect,0.250000X-0.650000X0.325000X-0.650000X-0.325000X0.650000X-0.325000X0.650000X0.325000X0*%
%ADD15RoundRect,0.135000X0.185000X-0.135000X0.185000X0.135000X-0.185000X0.135000X-0.185000X-0.135000X0*%
%ADD16RoundRect,0.140000X0.170000X-0.140000X0.170000X0.140000X-0.170000X0.140000X-0.170000X-0.140000X0*%
%ADD17RoundRect,0.135000X-0.185000X0.135000X-0.185000X-0.135000X0.185000X-0.135000X0.185000X0.135000X0*%
%ADD18RoundRect,0.250000X-0.250000X-0.475000X0.250000X-0.475000X0.250000X0.475000X-0.250000X0.475000X0*%
%ADD19RoundRect,0.050000X0.275000X0.050000X-0.275000X0.050000X-0.275000X-0.050000X0.275000X-0.050000X0*%
%ADD20RoundRect,0.050000X0.450000X0.050000X-0.450000X0.050000X-0.450000X-0.050000X0.450000X-0.050000X0*%
%ADD21RoundRect,0.062500X0.062500X0.212500X-0.062500X0.212500X-0.062500X-0.212500X0.062500X-0.212500X0*%
%ADD22C,3.000000*%
%ADD23RoundRect,0.250001X1.099999X1.399999X-1.099999X1.399999X-1.099999X-1.399999X1.099999X-1.399999X0*%
%ADD24O,2.700000X3.300000*%
%ADD25RoundRect,0.140000X0.140000X0.170000X-0.140000X0.170000X-0.140000X-0.170000X0.140000X-0.170000X0*%
%ADD26RoundRect,0.250000X0.650000X-1.450000X0.650000X1.450000X-0.650000X1.450000X-0.650000X-1.450000X0*%
%ADD27C,6.000000*%
%ADD28R,2.286000X1.854500*%
%ADD29C,2.000000*%
%ADD30RoundRect,0.218750X0.218750X0.256250X-0.218750X0.256250X-0.218750X-0.256250X0.218750X-0.256250X0*%
%ADD31RoundRect,0.140000X-0.170000X0.140000X-0.170000X-0.140000X0.170000X-0.140000X0.170000X0.140000X0*%
%ADD32RoundRect,0.225000X0.225000X0.250000X-0.225000X0.250000X-0.225000X-0.250000X0.225000X-0.250000X0*%
%ADD33RoundRect,0.160000X-0.160000X0.197500X-0.160000X-0.197500X0.160000X-0.197500X0.160000X0.197500X0*%
%ADD34RoundRect,0.250000X-0.475000X0.250000X-0.475000X-0.250000X0.475000X-0.250000X0.475000X0.250000X0*%
%ADD35C,3.260000*%
%ADD36C,1.854000*%
%ADD37RoundRect,0.102000X0.739000X0.739000X-0.739000X0.739000X-0.739000X-0.739000X0.739000X-0.739000X0*%
%ADD38C,1.682000*%
%ADD39C,2.679000*%
%ADD40RoundRect,0.218750X-0.218750X-0.256250X0.218750X-0.256250X0.218750X0.256250X-0.218750X0.256250X0*%
%ADD41RoundRect,0.150000X0.825000X0.150000X-0.825000X0.150000X-0.825000X-0.150000X0.825000X-0.150000X0*%
%ADD42RoundRect,0.250000X0.450000X0.350000X-0.450000X0.350000X-0.450000X-0.350000X0.450000X-0.350000X0*%
%ADD43RoundRect,0.135000X0.135000X0.185000X-0.135000X0.185000X-0.135000X-0.185000X0.135000X-0.185000X0*%
%ADD44RoundRect,0.062500X-0.062500X0.337500X-0.062500X-0.337500X0.062500X-0.337500X0.062500X0.337500X0*%
%ADD45RoundRect,0.062500X-0.337500X0.062500X-0.337500X-0.062500X0.337500X-0.062500X0.337500X0.062500X0*%
%ADD46R,5.300000X5.300000*%
%ADD47RoundRect,0.250000X-0.650000X1.450000X-0.650000X-1.450000X0.650000X-1.450000X0.650000X1.450000X0*%
%ADD48RoundRect,0.140000X-0.140000X-0.170000X0.140000X-0.170000X0.140000X0.170000X-0.140000X0.170000X0*%
%ADD49RoundRect,0.218750X0.256250X-0.218750X0.256250X0.218750X-0.256250X0.218750X-0.256250X-0.218750X0*%
%TA.AperFunction,Profile*%
%ADD50C,0.100000*%
%TD*%
G04 APERTURE END LIST*
D10*
%TO.C,R31*%
X202006000Y-114983000D03*
X203026000Y-114983000D03*
%TD*%
D11*
%TO.C,C18*%
X174261451Y-100550000D03*
X175811451Y-100550000D03*
%TD*%
D12*
%TO.C,A201*%
X227525903Y-72634927D03*
X219905903Y-72634927D03*
X217365903Y-72634927D03*
X189298903Y-100574927D03*
X161485903Y-120894927D03*
X158945903Y-120894927D03*
X204665903Y-72634927D03*
X202125903Y-72634927D03*
X199585903Y-72634927D03*
X197045903Y-72634927D03*
X194505903Y-72634927D03*
X191965903Y-72634927D03*
X189425903Y-72634927D03*
X186885903Y-72634927D03*
X181805903Y-72634927D03*
X179265903Y-72634927D03*
X176725903Y-72634927D03*
X174185903Y-72634927D03*
X231589903Y-120894927D03*
X166565903Y-72634927D03*
X164025903Y-72634927D03*
X191965903Y-120894927D03*
X194505903Y-120894927D03*
X197045903Y-120894927D03*
X199585903Y-120894927D03*
X202125903Y-120894927D03*
X204665903Y-120894927D03*
X207205903Y-120894927D03*
X209745903Y-120894927D03*
X213809903Y-120894927D03*
X216349903Y-120894927D03*
X218889903Y-120894927D03*
X221429903Y-120894927D03*
X223969903Y-120894927D03*
X226509903Y-120894927D03*
X186885903Y-120894927D03*
X184345903Y-120894927D03*
X181805903Y-120894927D03*
X179265903Y-120894927D03*
X176725903Y-120894927D03*
X174185903Y-120894927D03*
X171645903Y-120894927D03*
X169105903Y-120894927D03*
X161485903Y-118354927D03*
X158945903Y-118354927D03*
X161485903Y-115814927D03*
X158945903Y-115814927D03*
X161485903Y-113274927D03*
X158945903Y-113274927D03*
X161485903Y-110734927D03*
X158945903Y-110734927D03*
X161485903Y-108194927D03*
X158945903Y-108194927D03*
X161485903Y-105654927D03*
X158945903Y-105654927D03*
X161485903Y-103114927D03*
X158945903Y-103114927D03*
X161485903Y-100574927D03*
X158945903Y-100574927D03*
X161485903Y-98034927D03*
X158945903Y-98034927D03*
X161485903Y-95494927D03*
X158945903Y-95494927D03*
X161485903Y-92954927D03*
X158945903Y-92954927D03*
X161485903Y-90414927D03*
X158945903Y-90414927D03*
X161485903Y-87874927D03*
X158945903Y-87874927D03*
X161485903Y-85334927D03*
X158945903Y-85334927D03*
X161485903Y-82794927D03*
X158945903Y-82794927D03*
X161485903Y-80254927D03*
X158945903Y-80254927D03*
X171645903Y-72634927D03*
X169105903Y-72634927D03*
D13*
X229049903Y-120894927D03*
X214825903Y-72634927D03*
X212285903Y-72634927D03*
X189298903Y-95494927D03*
X161485903Y-77714927D03*
X158945903Y-77714927D03*
D12*
X224985903Y-72634927D03*
X191838903Y-100574927D03*
X189298903Y-98034927D03*
X222445903Y-72634927D03*
X191838903Y-95494927D03*
X191838903Y-98034927D03*
X236669903Y-120894927D03*
X234129903Y-120894927D03*
X209745903Y-72634927D03*
%TD*%
D14*
%TO.C,C219*%
X193683000Y-86833000D03*
X193683000Y-89783000D03*
%TD*%
D15*
%TO.C,R219*%
X194572000Y-79852000D03*
X194572000Y-78832000D03*
%TD*%
D16*
%TO.C,C9*%
X173411451Y-98430000D03*
X173411451Y-97470000D03*
%TD*%
D17*
%TO.C,R211*%
X207610000Y-97882000D03*
X207610000Y-98902000D03*
%TD*%
D18*
%TO.C,C19*%
X173211451Y-80050000D03*
X175111451Y-80050000D03*
%TD*%
D19*
%TO.C,U4*%
X176061451Y-94450000D03*
D20*
X175886451Y-93950000D03*
D19*
X176061451Y-93450000D03*
D20*
X174486451Y-93450000D03*
D19*
X174311451Y-93950000D03*
D20*
X174486451Y-94450000D03*
D21*
X174436451Y-95125000D03*
X174936451Y-95125000D03*
X175436451Y-95125000D03*
X175936451Y-95125000D03*
%TD*%
D22*
%TO.C,J309*%
X187911237Y-109829527D03*
X165911237Y-109829527D03*
D23*
X183211237Y-114869527D03*
D24*
X179011237Y-114869527D03*
X174811237Y-114869527D03*
X170611237Y-114869527D03*
X183211237Y-109369527D03*
X179011237Y-109369527D03*
X174811237Y-109369527D03*
X170611237Y-109369527D03*
%TD*%
D15*
%TO.C,R25*%
X175411451Y-98470000D03*
X175411451Y-97450000D03*
%TD*%
D25*
%TO.C,C217*%
X200231000Y-107749000D03*
X199271000Y-107749000D03*
%TD*%
D15*
%TO.C,R218*%
X214638000Y-79852000D03*
X214638000Y-78832000D03*
%TD*%
D26*
%TO.C,TP202*%
X217770000Y-114392000D03*
%TD*%
D15*
%TO.C,R101*%
X202954000Y-110803000D03*
X202954000Y-109783000D03*
%TD*%
D27*
%TO.C,REF\u002A\u002A*%
X252666963Y-133265102D03*
X252666963Y-63264772D03*
X156667193Y-133265102D03*
X156667193Y-63264772D03*
%TD*%
D17*
%TO.C,R220*%
X203090000Y-97842000D03*
X203090000Y-98862000D03*
%TD*%
D10*
%TO.C,R24*%
X201996000Y-113483000D03*
X203016000Y-113483000D03*
%TD*%
D17*
%TO.C,R102*%
X201938000Y-109781000D03*
X201938000Y-110801000D03*
%TD*%
D28*
%TO.C,L1*%
X179061451Y-93734500D03*
X179061451Y-89950000D03*
%TD*%
D29*
%TO.C,TP3*%
X179236451Y-79050000D03*
%TD*%
D30*
%TO.C,FB203*%
X199906000Y-104193000D03*
X198331000Y-104193000D03*
%TD*%
D31*
%TO.C,C6*%
X172311451Y-93850000D03*
X172311451Y-94810000D03*
%TD*%
D17*
%TO.C,R212*%
X208626000Y-97882000D03*
X208626000Y-98902000D03*
%TD*%
D25*
%TO.C,C227*%
X200259000Y-106733000D03*
X199299000Y-106733000D03*
%TD*%
D17*
%TO.C,R208*%
X204106000Y-97838000D03*
X204106000Y-98858000D03*
%TD*%
D32*
%TO.C,C218*%
X199906000Y-102669000D03*
X198356000Y-102669000D03*
%TD*%
D29*
%TO.C,TP2*%
X165336451Y-83100000D03*
%TD*%
D33*
%TO.C,R22*%
X176411451Y-97352500D03*
X176411451Y-98547500D03*
%TD*%
D17*
%TO.C,R214*%
X206138000Y-97842000D03*
X206138000Y-98862000D03*
%TD*%
D34*
%TO.C,C7*%
X170811451Y-93350000D03*
X170811451Y-95250000D03*
%TD*%
D18*
%TO.C,C16*%
X173361451Y-85450000D03*
X175261451Y-85450000D03*
%TD*%
D29*
%TO.C,TP1*%
X168436451Y-101000000D03*
%TD*%
D25*
%TO.C,C17*%
X192466000Y-116233000D03*
X191506000Y-116233000D03*
%TD*%
D17*
%TO.C,R104*%
X200922000Y-109777000D03*
X200922000Y-110797000D03*
%TD*%
D35*
%TO.C,J201*%
X210320000Y-82896000D03*
X198890000Y-82896000D03*
D36*
X210930000Y-78786000D03*
X208390000Y-78786000D03*
X198280000Y-78786000D03*
X200820000Y-78786000D03*
D37*
X209050000Y-89246000D03*
D38*
X207780000Y-91786000D03*
X206510000Y-89246000D03*
X205240000Y-91786000D03*
X203970000Y-89246000D03*
X202700000Y-91786000D03*
X201430000Y-89246000D03*
X200160000Y-91786000D03*
D39*
X212480000Y-86786000D03*
X196730000Y-86786000D03*
%TD*%
D40*
%TO.C,FB201*%
X198331000Y-101145000D03*
X199906000Y-101145000D03*
%TD*%
D17*
%TO.C,R213*%
X205122000Y-97842000D03*
X205122000Y-98862000D03*
%TD*%
%TO.C,R210*%
X208626000Y-95176000D03*
X208626000Y-96196000D03*
%TD*%
D41*
%TO.C,U7*%
X199481000Y-116138000D03*
X199481000Y-114868000D03*
X199481000Y-113598000D03*
X199481000Y-112328000D03*
X194531000Y-112328000D03*
X194531000Y-113598000D03*
X194531000Y-114868000D03*
X194531000Y-116138000D03*
%TD*%
D42*
%TO.C,Y201*%
X199439000Y-95889000D03*
X197239000Y-95889000D03*
X197239000Y-97589000D03*
X199439000Y-97589000D03*
%TD*%
D15*
%TO.C,R217*%
X202074000Y-98862000D03*
X202074000Y-97842000D03*
%TD*%
D25*
%TO.C,C225*%
X201374000Y-99875000D03*
X200414000Y-99875000D03*
%TD*%
D17*
%TO.C,R209*%
X207610000Y-95172000D03*
X207610000Y-96192000D03*
%TD*%
%TO.C,R103*%
X203970000Y-109781000D03*
X203970000Y-110801000D03*
%TD*%
D43*
%TO.C,R32*%
X192526000Y-114983000D03*
X191506000Y-114983000D03*
%TD*%
D10*
%TO.C,R206*%
X216373000Y-118456000D03*
X217393000Y-118456000D03*
%TD*%
D17*
%TO.C,R216*%
X206129000Y-95172000D03*
X206129000Y-96192000D03*
%TD*%
D15*
%TO.C,R21*%
X177411451Y-98420000D03*
X177411451Y-97400000D03*
%TD*%
D17*
%TO.C,R105*%
X199906000Y-109781000D03*
X199906000Y-110801000D03*
%TD*%
D15*
%TO.C,R26*%
X174411451Y-98470000D03*
X174411451Y-97450000D03*
%TD*%
D26*
%TO.C,TP201*%
X212182000Y-114392000D03*
%TD*%
D31*
%TO.C,C221*%
X205748000Y-109682000D03*
X205748000Y-110642000D03*
%TD*%
D17*
%TO.C,R215*%
X205103000Y-95172000D03*
X205103000Y-96192000D03*
%TD*%
D18*
%TO.C,C10*%
X173361451Y-89950000D03*
X175261451Y-89950000D03*
%TD*%
D25*
%TO.C,C211*%
X206073000Y-94160000D03*
X205113000Y-94160000D03*
%TD*%
D29*
%TO.C,TP102*%
X165319000Y-86960000D03*
%TD*%
D18*
%TO.C,C20*%
X173211451Y-78000000D03*
X175111451Y-78000000D03*
%TD*%
D44*
%TO.C,U202*%
X208178000Y-101302000D03*
X207678000Y-101302000D03*
X207178000Y-101302000D03*
X206678000Y-101302000D03*
X206178000Y-101302000D03*
X205678000Y-101302000D03*
X205178000Y-101302000D03*
X204678000Y-101302000D03*
X204178000Y-101302000D03*
X203678000Y-101302000D03*
X203178000Y-101302000D03*
X202678000Y-101302000D03*
D45*
X201978000Y-102002000D03*
X201978000Y-102502000D03*
X201978000Y-103002000D03*
X201978000Y-103502000D03*
X201978000Y-104002000D03*
X201978000Y-104502000D03*
X201978000Y-105002000D03*
X201978000Y-105502000D03*
X201978000Y-106002000D03*
X201978000Y-106502000D03*
X201978000Y-107002000D03*
X201978000Y-107502000D03*
D44*
X202678000Y-108202000D03*
X203178000Y-108202000D03*
X203678000Y-108202000D03*
X204178000Y-108202000D03*
X204678000Y-108202000D03*
X205178000Y-108202000D03*
X205678000Y-108202000D03*
X206178000Y-108202000D03*
X206678000Y-108202000D03*
X207178000Y-108202000D03*
X207678000Y-108202000D03*
X208178000Y-108202000D03*
D45*
X208878000Y-107502000D03*
X208878000Y-107002000D03*
X208878000Y-106502000D03*
X208878000Y-106002000D03*
X208878000Y-105502000D03*
X208878000Y-105002000D03*
X208878000Y-104502000D03*
X208878000Y-104002000D03*
X208878000Y-103502000D03*
X208878000Y-103002000D03*
X208878000Y-102502000D03*
X208878000Y-102002000D03*
D46*
X205428000Y-104752000D03*
%TD*%
D29*
%TO.C,TP101*%
X165319000Y-92040000D03*
%TD*%
D47*
%TO.C,TP203*%
X214976000Y-114392000D03*
%TD*%
D43*
%TO.C,R23*%
X192526000Y-113483000D03*
X191506000Y-113483000D03*
%TD*%
D15*
%TO.C,R207*%
X210320000Y-101145000D03*
X210320000Y-100125000D03*
%TD*%
D31*
%TO.C,C222*%
X201049000Y-97899000D03*
X201049000Y-98859000D03*
%TD*%
D10*
%TO.C,R205*%
X213704000Y-118456000D03*
X214724000Y-118456000D03*
%TD*%
D31*
%TO.C,C226*%
X201049000Y-94950000D03*
X201049000Y-95910000D03*
%TD*%
D18*
%TO.C,C13*%
X173361451Y-87700000D03*
X175261451Y-87700000D03*
%TD*%
D31*
%TO.C,C201*%
X204026000Y-94199000D03*
X204026000Y-95159000D03*
%TD*%
D48*
%TO.C,C224*%
X210348000Y-103431000D03*
X211308000Y-103431000D03*
%TD*%
D31*
%TO.C,C215*%
X208161000Y-110035000D03*
X208161000Y-110995000D03*
%TD*%
D49*
%TO.C,FB1*%
X175211451Y-83475000D03*
X175211451Y-81900000D03*
%TD*%
D34*
%TO.C,C8*%
X168711451Y-93350000D03*
X168711451Y-95250000D03*
%TD*%
D48*
%TO.C,C203*%
X207173000Y-94160000D03*
X208133000Y-94160000D03*
%TD*%
D50*
X251167193Y-58283204D02*
X251167193Y-58283204D01*
G75*
G02*
X257648771Y-64782802I7J-6481596D01*
G01*
X257648771Y-131765332D01*
X257648531Y-131765332D01*
G75*
G02*
X251167000Y-138246830I-6481431J-68D01*
G01*
X158167000Y-138246830D01*
X158167000Y-138246670D01*
G75*
G02*
X151685385Y-131765092I0J6481570D01*
G01*
X151685381Y-131765092D01*
X151685381Y-64764542D01*
X151685625Y-64764542D01*
G75*
G02*
X158167200Y-58282964I6481575J42D01*
G01*
X251167193Y-58282964D01*
X251167193Y-58283204D01*
M02*
