M48
; DRILL file {KiCad 9.0.6} date 2026-08-15T14:24:35-0400
; FORMAT={-:-/ absolute / metric / decimal}
; #@! TF.CreationDate,2026-08-15T14:24:35-04:00
; #@! TF.GenerationSoftware,Kicad,Pcbnew,9.0.6
; #@! TF.FileFunction,MixedPlating,1,4
FMAT,2
METRIC
; #@! TA.AperFunction,Plated,PTH,ComponentDrill
T1C0.200
; #@! TA.AperFunction,Plated,PTH,ViaDrill
T2C0.203
; #@! TA.AperFunction,Plated,PTH,ViaDrill
T3C0.300
; #@! TA.AperFunction,Plated,PTH,ComponentDrill
T4C0.970
; #@! TA.AperFunction,Plated,PTH,ComponentDrill
T5C1.000
; #@! TA.AperFunction,Plated,PTH,ComponentDrill
T6C1.016
; #@! TA.AperFunction,Plated,PTH,ComponentDrill
T7C1.100
; #@! TA.AperFunction,Plated,PTH,ComponentDrill
T8C1.400
; #@! TA.AperFunction,Plated,PTH,ComponentDrill
T9C1.650
; #@! TA.AperFunction,NonPlated,NPTH,ComponentDrill
T10C3.000
; #@! TA.AperFunction,NonPlated,NPTH,ComponentDrill
T11C3.200
; #@! TA.AperFunction,NonPlated,NPTH,ComponentDrill
T12C3.260
%
G90
G05
T1
X203.028Y-102.352
X203.028Y-103.552
X203.028Y-104.752
X203.028Y-105.952
X203.028Y-107.152
X204.228Y-102.352
X204.228Y-103.552
X204.228Y-104.752
X204.228Y-105.952
X204.228Y-107.152
X205.428Y-102.352
X205.428Y-103.552
X205.428Y-104.752
X205.428Y-105.952
X205.428Y-107.152
X206.628Y-102.352
X206.628Y-103.552
X206.628Y-104.752
X206.628Y-105.952
X206.628Y-107.152
X207.828Y-102.352
X207.828Y-103.552
X207.828Y-104.752
X207.828Y-105.952
X207.828Y-107.152
T2
X194.656Y-82.007
X196.434Y-117.313
X196.688Y-113.63
X197.196Y-101.184
X197.239Y-94.795
X197.493Y-102.669
X197.493Y-103.431
X197.704Y-113.63
X197.706Y-117.313
X198.509Y-106.733
X198.509Y-107.749
X199.525Y-98.605
X199.652Y-99.875
X199.906Y-111.559
X200.279Y-94.869
X200.922Y-111.559
X200.968Y-106.733
X201.006Y-105.502
X201.049Y-97.208
X201.049Y-107.647
X201.114Y-104.179
X201.133Y-103.431
X201.183Y-104.836
X201.938Y-111.559
X201.978Y-101.058
X202.58Y-99.621
X202.954Y-111.559
X203.97Y-111.559
X204.054Y-95.977
X204.097Y-97.081
X204.614Y-117.694
X204.616Y-99.62
X205.07Y-93.437
X205.122Y-96.993
X205.147Y-109.076
X205.632Y-99.62
X205.748Y-111.559
X206.129Y-96.993
X206.511Y-109.607
X206.646Y-100.255
X206.848Y-110.836
X207.102Y-109.312
X207.55Y-96.993
X208.153Y-93.472
X208.161Y-109.273
X208.161Y-111.813
X208.184Y-100.255
X208.626Y-96.993
X209.736Y-102.971
X210.32Y-99.367
X210.404Y-104.359
X212.098Y-103.431
X214.595Y-81.118
X214.976Y-117.186
X215.611Y-118.456
X218.414Y-118.447
T3
X166.676Y-98.215
X166.676Y-99.485
X166.676Y-103.295
X167.946Y-77.895
X167.946Y-79.165
X167.946Y-80.435
X167.946Y-81.705
X167.946Y-82.975
X167.946Y-84.245
X167.946Y-85.515
X167.946Y-86.785
X167.946Y-88.055
X167.946Y-89.325
X167.946Y-96.945
X167.946Y-98.215
X167.946Y-103.295
X168.711Y-91.0
X168.711Y-91.65
X168.711Y-92.25
X169.216Y-77.895
X169.216Y-79.165
X169.216Y-80.435
X169.216Y-81.705
X169.216Y-82.975
X169.216Y-84.245
X169.216Y-85.515
X169.216Y-86.785
X169.216Y-88.055
X169.216Y-89.325
X169.216Y-96.945
X169.216Y-98.215
X169.216Y-103.295
X170.486Y-81.705
X170.486Y-82.975
X170.811Y-90.946
X170.811Y-91.65
X170.811Y-92.25
X171.311Y-78.0
X171.311Y-80.05
X171.411Y-85.45
X171.411Y-87.7
X171.411Y-89.95
X171.756Y-81.705
X171.756Y-82.975
X172.061Y-78.0
X172.061Y-80.05
X172.161Y-85.45
X172.161Y-87.7
X172.161Y-89.95
X172.311Y-91.8
X172.311Y-92.45
X172.311Y-93.1
X173.026Y-81.705
X173.026Y-82.975
X173.111Y-93.8
X173.211Y-94.81
X173.311Y-93.2
X173.411Y-99.25
X174.211Y-95.75
X175.411Y-99.2
X176.361Y-78.0
X176.361Y-80.05
X176.361Y-81.9
X176.411Y-99.4
X176.811Y-100.5
X176.91Y-94.601
X177.061Y-78.0
X177.061Y-80.05
X177.061Y-81.9
X177.411Y-99.2
X178.106Y-100.755
X179.376Y-81.705
X179.376Y-96.945
X179.376Y-98.215
X179.376Y-99.485
X179.376Y-100.755
X180.646Y-81.705
X180.646Y-96.945
X180.646Y-98.215
X180.646Y-99.485
X180.646Y-100.755
X190.756Y-113.483
X190.756Y-114.983
X190.756Y-116.233
X193.101Y-116.138
X193.683Y-91.024
X199.898Y-89.281
X201.006Y-112.233
X201.422Y-91.821
X201.422Y-93.98
X202.692Y-89.281
X203.581Y-96.52
X203.756Y-113.483
X203.756Y-114.983
X205.232Y-89.281
X205.867Y-87.63
X206.502Y-91.821
X207.772Y-89.281
X210.185Y-91.821
X210.566Y-93.98
X210.566Y-97.409
T4
X200.16Y-91.786
X201.43Y-89.246
X202.7Y-91.786
X203.97Y-89.246
X205.24Y-91.786
X206.51Y-89.246
X207.78Y-91.786
X209.05Y-89.246
T5
X165.319Y-86.96
X165.319Y-92.04
X165.336Y-83.1
X168.436Y-101.0
X179.236Y-79.05
T6
X158.946Y-77.715
X158.946Y-80.255
X158.946Y-82.795
X158.946Y-85.335
X158.946Y-87.875
X158.946Y-90.415
X158.946Y-92.955
X158.946Y-95.495
X158.946Y-98.035
X158.946Y-100.575
X158.946Y-103.115
X158.946Y-105.655
X158.946Y-108.195
X158.946Y-110.735
X158.946Y-113.275
X158.946Y-115.815
X158.946Y-118.355
X158.946Y-120.895
X161.486Y-77.715
X161.486Y-80.255
X161.486Y-82.795
X161.486Y-85.335
X161.486Y-87.875
X161.486Y-90.415
X161.486Y-92.955
X161.486Y-95.495
X161.486Y-98.035
X161.486Y-100.575
X161.486Y-103.115
X161.486Y-105.655
X161.486Y-108.195
X161.486Y-110.735
X161.486Y-113.275
X161.486Y-115.815
X161.486Y-118.355
X161.486Y-120.895
X164.026Y-72.635
X166.566Y-72.635
X169.106Y-72.635
X169.106Y-120.895
X171.646Y-72.635
X171.646Y-120.895
X174.186Y-72.635
X174.186Y-120.895
X176.726Y-72.635
X176.726Y-120.895
X179.266Y-72.635
X179.266Y-120.895
X181.806Y-72.635
X181.806Y-120.895
X184.346Y-120.895
X186.886Y-72.635
X186.886Y-120.895
X189.299Y-95.495
X189.299Y-98.035
X189.299Y-100.575
X189.426Y-72.635
X191.839Y-95.495
X191.839Y-98.035
X191.839Y-100.575
X191.966Y-72.635
X191.966Y-120.895
X194.506Y-72.635
X194.506Y-120.895
X197.046Y-72.635
X197.046Y-120.895
X199.586Y-72.635
X199.586Y-120.895
X202.126Y-72.635
X202.126Y-120.895
X204.666Y-72.635
X204.666Y-120.895
X207.206Y-120.895
X209.746Y-72.635
X209.746Y-120.895
X212.286Y-72.635
X213.81Y-120.895
X214.826Y-72.635
X216.35Y-120.895
X217.366Y-72.635
X218.89Y-120.895
X219.906Y-72.635
X221.43Y-120.895
X222.446Y-72.635
X223.97Y-120.895
X224.986Y-72.635
X226.51Y-120.895
X227.526Y-72.635
X229.05Y-120.895
X231.59Y-120.895
X234.13Y-120.895
X236.67Y-120.895
T7
X198.28Y-78.786
X200.82Y-78.786
X208.39Y-78.786
X210.93Y-78.786
T8
X170.611Y-109.37
X170.611Y-114.87
X174.811Y-109.37
X174.811Y-114.87
X179.011Y-109.37
X179.011Y-114.87
X183.211Y-109.37
X183.211Y-114.87
T9
X196.73Y-86.786
X212.48Y-86.786
T10
X165.911Y-109.83
X187.911Y-109.83
T11
X156.667Y-63.265
X156.667Y-133.265
X252.667Y-63.265
X252.667Y-133.265
T12
X198.89Y-82.896
X210.32Y-82.896
M30
